G04 #@! TF.GenerationSoftware,KiCad,Pcbnew,(5.0.2)-1*
G04 #@! TF.CreationDate,2022-05-07T19:17:56+02:00*
G04 #@! TF.ProjectId,Pendrive_v1,50656e64-7269-4766-955f-76312e6b6963,rev?*
G04 #@! TF.SameCoordinates,Original*
G04 #@! TF.FileFunction,Legend,Top*
G04 #@! TF.FilePolarity,Positive*
%FSLAX46Y46*%
G04 Gerber Fmt 4.6, Leading zero omitted, Abs format (unit mm)*
G04 Created by KiCad (PCBNEW (5.0.2)-1) date 07.05.2022 19:17:56*
%MOMM*%
%LPD*%
G01*
G04 APERTURE LIST*
%ADD10C,0.250000*%
%ADD11C,0.120000*%
%ADD12C,0.100000*%
%ADD13C,0.200000*%
%ADD14C,0.254000*%
%ADD15C,0.150000*%
G04 APERTURE END LIST*
D10*
X105119047Y-140952380D02*
X105119047Y-139952380D01*
X105690476Y-140952380D02*
X105261904Y-140380952D01*
X105690476Y-139952380D02*
X105119047Y-140523809D01*
X106071428Y-140904761D02*
X106214285Y-140952380D01*
X106452380Y-140952380D01*
X106547619Y-140904761D01*
X106595238Y-140857142D01*
X106642857Y-140761904D01*
X106642857Y-140666666D01*
X106595238Y-140571428D01*
X106547619Y-140523809D01*
X106452380Y-140476190D01*
X106261904Y-140428571D01*
X106166666Y-140380952D01*
X106119047Y-140333333D01*
X106071428Y-140238095D01*
X106071428Y-140142857D01*
X106119047Y-140047619D01*
X106166666Y-140000000D01*
X106261904Y-139952380D01*
X106500000Y-139952380D01*
X106642857Y-140000000D01*
X106833333Y-141047619D02*
X107595238Y-141047619D01*
X108357142Y-140952380D02*
X107785714Y-140952380D01*
X108071428Y-140952380D02*
X108071428Y-139952380D01*
X107976190Y-140095238D01*
X107880952Y-140190476D01*
X107785714Y-140238095D01*
X109404761Y-139952380D02*
X109976190Y-139952380D01*
X109690476Y-140952380D02*
X109690476Y-139952380D01*
X110500000Y-139952380D02*
X110690476Y-139952380D01*
X110785714Y-140000000D01*
X110880952Y-140095238D01*
X110928571Y-140285714D01*
X110928571Y-140619047D01*
X110880952Y-140809523D01*
X110785714Y-140904761D01*
X110690476Y-140952380D01*
X110500000Y-140952380D01*
X110404761Y-140904761D01*
X110309523Y-140809523D01*
X110261904Y-140619047D01*
X110261904Y-140285714D01*
X110309523Y-140095238D01*
X110404761Y-140000000D01*
X110500000Y-139952380D01*
X111357142Y-140952380D02*
X111357142Y-139952380D01*
X111738095Y-139952380D01*
X111833333Y-140000000D01*
X111880952Y-140047619D01*
X111928571Y-140142857D01*
X111928571Y-140285714D01*
X111880952Y-140380952D01*
X111833333Y-140428571D01*
X111738095Y-140476190D01*
X111357142Y-140476190D01*
G04 #@! TO.C,IC1*
X105035000Y-119706000D02*
G75*
G03X105035000Y-119706000I-125000J0D01*
G01*
D11*
G04 #@! TO.C,J3*
X112455000Y-101446000D02*
X112455000Y-102556000D01*
X112455000Y-102556000D02*
X111125000Y-102556000D01*
D12*
G04 #@! TO.C,J2*
X105260000Y-137379000D02*
X111260000Y-137379000D01*
X102260000Y-141779000D02*
X102260000Y-156179000D01*
X102260000Y-156179000D02*
X114110000Y-156179000D01*
X114110000Y-156179000D02*
X114260000Y-141779000D01*
D13*
X111660000Y-135179000D02*
X111660000Y-135179000D01*
X111860000Y-135179000D02*
X111860000Y-135179000D01*
X111860000Y-135179000D02*
G75*
G03X111660000Y-135179000I-100000J0D01*
G01*
X111660000Y-135179000D02*
G75*
G03X111860000Y-135179000I100000J0D01*
G01*
G04 #@! TO.C,J1*
X105978000Y-103115000D02*
G75*
G03X105978000Y-103115000I-34000J0D01*
G01*
X100950000Y-117759000D02*
X106223000Y-117759000D01*
X100950000Y-117759000D02*
X100950000Y-104417000D01*
X103450000Y-102559000D02*
X102200000Y-102559000D01*
X103450000Y-103559000D02*
X103450000Y-102559000D01*
X103450000Y-103559000D02*
X113476000Y-103559000D01*
X114950000Y-117759000D02*
X114950000Y-105431000D01*
G04 #@! TO.C,Y1*
X103035000Y-124193000D02*
X103035000Y-124193000D01*
X103035000Y-124093000D02*
X103035000Y-124093000D01*
X103035000Y-124193000D02*
X103035000Y-124193000D01*
X103035000Y-124093000D02*
G75*
G02X103035000Y-124193000I0J-50000D01*
G01*
X103035000Y-124193000D02*
G75*
G02X103035000Y-124093000I0J50000D01*
G01*
X103035000Y-124093000D02*
G75*
G02X103035000Y-124193000I0J-50000D01*
G01*
D11*
G04 #@! TO.C,C16*
X105585800Y-130266221D02*
X105585800Y-130591779D01*
X106605800Y-130266221D02*
X106605800Y-130591779D01*
G04 #@! TO.C,R1*
X103556779Y-128145000D02*
X103231221Y-128145000D01*
X103556779Y-127125000D02*
X103231221Y-127125000D01*
G04 #@! TO.C,R2*
X103556779Y-128649000D02*
X103231221Y-128649000D01*
X103556779Y-129669000D02*
X103231221Y-129669000D01*
G04 #@! TO.C,R3*
X103556779Y-131193000D02*
X103231221Y-131193000D01*
X103556779Y-130173000D02*
X103231221Y-130173000D01*
D13*
G04 #@! TO.C,IC2*
X109408000Y-128201000D02*
X112912000Y-128201000D01*
X112912000Y-128201000D02*
X112912000Y-134705000D01*
X112912000Y-134705000D02*
X109408000Y-134705000D01*
X109408000Y-134705000D02*
X109408000Y-128201000D01*
X107160000Y-128338000D02*
X108460000Y-128338000D01*
D14*
G04 #@! TO.C,LED1*
X101571000Y-134623000D02*
X104571000Y-134623000D01*
X101571000Y-131823000D02*
X104571000Y-131823000D01*
X100004000Y-132295000D02*
G75*
G03X100004000Y-132295000I-85000J0D01*
G01*
D11*
G04 #@! TO.C,C6*
X102397779Y-118743000D02*
X102072221Y-118743000D01*
X102397779Y-119763000D02*
X102072221Y-119763000D01*
G04 #@! TO.C,C5*
X102397779Y-125113000D02*
X102072221Y-125113000D01*
X102397779Y-124093000D02*
X102072221Y-124093000D01*
G04 #@! TO.C,C2*
X102397779Y-126637000D02*
X102072221Y-126637000D01*
X102397779Y-125617000D02*
X102072221Y-125617000D01*
G04 #@! TO.C,IC1*
D14*
X107545238Y-123780523D02*
X107545238Y-122510523D01*
X108875714Y-123659571D02*
X108815238Y-123720047D01*
X108633809Y-123780523D01*
X108512857Y-123780523D01*
X108331428Y-123720047D01*
X108210476Y-123599095D01*
X108150000Y-123478142D01*
X108089523Y-123236238D01*
X108089523Y-123054809D01*
X108150000Y-122812904D01*
X108210476Y-122691952D01*
X108331428Y-122571000D01*
X108512857Y-122510523D01*
X108633809Y-122510523D01*
X108815238Y-122571000D01*
X108875714Y-122631476D01*
X110085238Y-123780523D02*
X109359523Y-123780523D01*
X109722380Y-123780523D02*
X109722380Y-122510523D01*
X109601428Y-122691952D01*
X109480476Y-122812904D01*
X109359523Y-122873380D01*
G04 #@! TO.C,J3*
D15*
X113371380Y-101806333D02*
X114085666Y-101806333D01*
X114228523Y-101853952D01*
X114323761Y-101949190D01*
X114371380Y-102092047D01*
X114371380Y-102187285D01*
X113371380Y-101425380D02*
X113371380Y-100806333D01*
X113752333Y-101139666D01*
X113752333Y-100996809D01*
X113799952Y-100901571D01*
X113847571Y-100853952D01*
X113942809Y-100806333D01*
X114180904Y-100806333D01*
X114276142Y-100853952D01*
X114323761Y-100901571D01*
X114371380Y-100996809D01*
X114371380Y-101282523D01*
X114323761Y-101377761D01*
X114276142Y-101425380D01*
G04 #@! TO.C,J2*
D14*
X113876666Y-134369023D02*
X113876666Y-135276166D01*
X113816190Y-135457595D01*
X113695238Y-135578547D01*
X113513809Y-135639023D01*
X113392857Y-135639023D01*
X114420952Y-134489976D02*
X114481428Y-134429500D01*
X114602380Y-134369023D01*
X114904761Y-134369023D01*
X115025714Y-134429500D01*
X115086190Y-134489976D01*
X115146666Y-134610928D01*
X115146666Y-134731880D01*
X115086190Y-134913309D01*
X114360476Y-135639023D01*
X115146666Y-135639023D01*
G04 #@! TO.C,J1*
X104023666Y-106969523D02*
X104023666Y-107876666D01*
X103963190Y-108058095D01*
X103842238Y-108179047D01*
X103660809Y-108239523D01*
X103539857Y-108239523D01*
X105293666Y-108239523D02*
X104567952Y-108239523D01*
X104930809Y-108239523D02*
X104930809Y-106969523D01*
X104809857Y-107150952D01*
X104688904Y-107271904D01*
X104567952Y-107332380D01*
G04 #@! TO.C,Y1*
D13*
X114490547Y-121773952D02*
X114490547Y-122154904D01*
X114223880Y-121354904D02*
X114490547Y-121773952D01*
X114757214Y-121354904D01*
X115442928Y-122154904D02*
X114985785Y-122154904D01*
X115214357Y-122154904D02*
X115214357Y-121354904D01*
X115138166Y-121469190D01*
X115061976Y-121545380D01*
X114985785Y-121583476D01*
G04 #@! TO.C,C16*
D15*
X106457714Y-133483285D02*
X106495809Y-133521380D01*
X106533904Y-133635666D01*
X106533904Y-133711857D01*
X106495809Y-133826142D01*
X106419619Y-133902333D01*
X106343428Y-133940428D01*
X106191047Y-133978523D01*
X106076761Y-133978523D01*
X105924380Y-133940428D01*
X105848190Y-133902333D01*
X105772000Y-133826142D01*
X105733904Y-133711857D01*
X105733904Y-133635666D01*
X105772000Y-133521380D01*
X105810095Y-133483285D01*
X106533904Y-132721380D02*
X106533904Y-133178523D01*
X106533904Y-132949952D02*
X105733904Y-132949952D01*
X105848190Y-133026142D01*
X105924380Y-133102333D01*
X105962476Y-133178523D01*
X105733904Y-132035666D02*
X105733904Y-132188047D01*
X105772000Y-132264238D01*
X105810095Y-132302333D01*
X105924380Y-132378523D01*
X106076761Y-132416619D01*
X106381523Y-132416619D01*
X106457714Y-132378523D01*
X106495809Y-132340428D01*
X106533904Y-132264238D01*
X106533904Y-132111857D01*
X106495809Y-132035666D01*
X106457714Y-131997571D01*
X106381523Y-131959476D01*
X106191047Y-131959476D01*
X106114857Y-131997571D01*
X106076761Y-132035666D01*
X106038666Y-132111857D01*
X106038666Y-132264238D01*
X106076761Y-132340428D01*
X106114857Y-132378523D01*
X106191047Y-132416619D01*
G04 #@! TO.C,R1*
X101085666Y-128060404D02*
X100819000Y-127679452D01*
X100628523Y-128060404D02*
X100628523Y-127260404D01*
X100933285Y-127260404D01*
X101009476Y-127298500D01*
X101047571Y-127336595D01*
X101085666Y-127412785D01*
X101085666Y-127527071D01*
X101047571Y-127603261D01*
X101009476Y-127641357D01*
X100933285Y-127679452D01*
X100628523Y-127679452D01*
X101847571Y-128060404D02*
X101390428Y-128060404D01*
X101619000Y-128060404D02*
X101619000Y-127260404D01*
X101542809Y-127374690D01*
X101466619Y-127450880D01*
X101390428Y-127488976D01*
G04 #@! TO.C,R2*
X101085666Y-129520904D02*
X100819000Y-129139952D01*
X100628523Y-129520904D02*
X100628523Y-128720904D01*
X100933285Y-128720904D01*
X101009476Y-128759000D01*
X101047571Y-128797095D01*
X101085666Y-128873285D01*
X101085666Y-128987571D01*
X101047571Y-129063761D01*
X101009476Y-129101857D01*
X100933285Y-129139952D01*
X100628523Y-129139952D01*
X101390428Y-128797095D02*
X101428523Y-128759000D01*
X101504714Y-128720904D01*
X101695190Y-128720904D01*
X101771380Y-128759000D01*
X101809476Y-128797095D01*
X101847571Y-128873285D01*
X101847571Y-128949476D01*
X101809476Y-129063761D01*
X101352333Y-129520904D01*
X101847571Y-129520904D01*
G04 #@! TO.C,R3*
X101085666Y-131044904D02*
X100819000Y-130663952D01*
X100628523Y-131044904D02*
X100628523Y-130244904D01*
X100933285Y-130244904D01*
X101009476Y-130283000D01*
X101047571Y-130321095D01*
X101085666Y-130397285D01*
X101085666Y-130511571D01*
X101047571Y-130587761D01*
X101009476Y-130625857D01*
X100933285Y-130663952D01*
X100628523Y-130663952D01*
X101352333Y-130244904D02*
X101847571Y-130244904D01*
X101580904Y-130549666D01*
X101695190Y-130549666D01*
X101771380Y-130587761D01*
X101809476Y-130625857D01*
X101847571Y-130702047D01*
X101847571Y-130892523D01*
X101809476Y-130968714D01*
X101771380Y-131006809D01*
X101695190Y-131044904D01*
X101466619Y-131044904D01*
X101390428Y-131006809D01*
X101352333Y-130968714D01*
G04 #@! TO.C,IC2*
D10*
X114371380Y-128928690D02*
X113371380Y-128928690D01*
X114276142Y-127881071D02*
X114323761Y-127928690D01*
X114371380Y-128071547D01*
X114371380Y-128166785D01*
X114323761Y-128309642D01*
X114228523Y-128404880D01*
X114133285Y-128452500D01*
X113942809Y-128500119D01*
X113799952Y-128500119D01*
X113609476Y-128452500D01*
X113514238Y-128404880D01*
X113419000Y-128309642D01*
X113371380Y-128166785D01*
X113371380Y-128071547D01*
X113419000Y-127928690D01*
X113466619Y-127881071D01*
X113466619Y-127500119D02*
X113419000Y-127452500D01*
X113371380Y-127357261D01*
X113371380Y-127119166D01*
X113419000Y-127023928D01*
X113466619Y-126976309D01*
X113561857Y-126928690D01*
X113657095Y-126928690D01*
X113799952Y-126976309D01*
X114371380Y-127547738D01*
X114371380Y-126928690D01*
G04 #@! TO.C,LED1*
D13*
X101149261Y-135807404D02*
X100768309Y-135807404D01*
X100768309Y-135007404D01*
X101415928Y-135388357D02*
X101682595Y-135388357D01*
X101796880Y-135807404D02*
X101415928Y-135807404D01*
X101415928Y-135007404D01*
X101796880Y-135007404D01*
X102139738Y-135807404D02*
X102139738Y-135007404D01*
X102330214Y-135007404D01*
X102444500Y-135045500D01*
X102520690Y-135121690D01*
X102558785Y-135197880D01*
X102596880Y-135350261D01*
X102596880Y-135464547D01*
X102558785Y-135616928D01*
X102520690Y-135693119D01*
X102444500Y-135769309D01*
X102330214Y-135807404D01*
X102139738Y-135807404D01*
X103358785Y-135807404D02*
X102901642Y-135807404D01*
X103130214Y-135807404D02*
X103130214Y-135007404D01*
X103054023Y-135121690D01*
X102977833Y-135197880D01*
X102901642Y-135235976D01*
G04 #@! TO.C,C6*
D15*
X114674666Y-120681714D02*
X114636571Y-120719809D01*
X114522285Y-120757904D01*
X114446095Y-120757904D01*
X114331809Y-120719809D01*
X114255619Y-120643619D01*
X114217523Y-120567428D01*
X114179428Y-120415047D01*
X114179428Y-120300761D01*
X114217523Y-120148380D01*
X114255619Y-120072190D01*
X114331809Y-119996000D01*
X114446095Y-119957904D01*
X114522285Y-119957904D01*
X114636571Y-119996000D01*
X114674666Y-120034095D01*
X115360380Y-119957904D02*
X115208000Y-119957904D01*
X115131809Y-119996000D01*
X115093714Y-120034095D01*
X115017523Y-120148380D01*
X114979428Y-120300761D01*
X114979428Y-120605523D01*
X115017523Y-120681714D01*
X115055619Y-120719809D01*
X115131809Y-120757904D01*
X115284190Y-120757904D01*
X115360380Y-120719809D01*
X115398476Y-120681714D01*
X115436571Y-120605523D01*
X115436571Y-120415047D01*
X115398476Y-120338857D01*
X115360380Y-120300761D01*
X115284190Y-120262666D01*
X115131809Y-120262666D01*
X115055619Y-120300761D01*
X115017523Y-120338857D01*
X114979428Y-120415047D01*
G04 #@! TO.C,C5*
X114674666Y-123475714D02*
X114636571Y-123513809D01*
X114522285Y-123551904D01*
X114446095Y-123551904D01*
X114331809Y-123513809D01*
X114255619Y-123437619D01*
X114217523Y-123361428D01*
X114179428Y-123209047D01*
X114179428Y-123094761D01*
X114217523Y-122942380D01*
X114255619Y-122866190D01*
X114331809Y-122790000D01*
X114446095Y-122751904D01*
X114522285Y-122751904D01*
X114636571Y-122790000D01*
X114674666Y-122828095D01*
X115398476Y-122751904D02*
X115017523Y-122751904D01*
X114979428Y-123132857D01*
X115017523Y-123094761D01*
X115093714Y-123056666D01*
X115284190Y-123056666D01*
X115360380Y-123094761D01*
X115398476Y-123132857D01*
X115436571Y-123209047D01*
X115436571Y-123399523D01*
X115398476Y-123475714D01*
X115360380Y-123513809D01*
X115284190Y-123551904D01*
X115093714Y-123551904D01*
X115017523Y-123513809D01*
X114979428Y-123475714D01*
G04 #@! TO.C,C2*
X114674666Y-125007642D02*
X114636571Y-125055261D01*
X114522285Y-125102880D01*
X114446095Y-125102880D01*
X114331809Y-125055261D01*
X114255619Y-124960023D01*
X114217523Y-124864785D01*
X114179428Y-124674309D01*
X114179428Y-124531452D01*
X114217523Y-124340976D01*
X114255619Y-124245738D01*
X114331809Y-124150500D01*
X114446095Y-124102880D01*
X114522285Y-124102880D01*
X114636571Y-124150500D01*
X114674666Y-124198119D01*
X114979428Y-124198119D02*
X115017523Y-124150500D01*
X115093714Y-124102880D01*
X115284190Y-124102880D01*
X115360380Y-124150500D01*
X115398476Y-124198119D01*
X115436571Y-124293357D01*
X115436571Y-124388595D01*
X115398476Y-124531452D01*
X114941333Y-125102880D01*
X115436571Y-125102880D01*
G04 #@! TD*
M02*
