G04 #@! TF.GenerationSoftware,KiCad,Pcbnew,(5.0.2)-1*
G04 #@! TF.CreationDate,2022-05-07T19:17:56+02:00*
G04 #@! TF.ProjectId,Pendrive_v1,50656e64-7269-4766-955f-76312e6b6963,rev?*
G04 #@! TF.SameCoordinates,Original*
G04 #@! TF.FileFunction,Drawing*
%FSLAX46Y46*%
G04 Gerber Fmt 4.6, Leading zero omitted, Abs format (unit mm)*
G04 Created by KiCad (PCBNEW (5.0.2)-1) date 07.05.2022 19:17:56*
%MOMM*%
%LPD*%
G01*
G04 APERTURE LIST*
%ADD10C,0.300000*%
%ADD11C,0.200000*%
%ADD12C,0.100000*%
%ADD13C,0.050000*%
%ADD14C,0.254000*%
G04 APERTURE END LIST*
D10*
X102842857Y-94578571D02*
X101985714Y-94578571D01*
X102414285Y-94578571D02*
X102414285Y-93078571D01*
X102271428Y-93292857D01*
X102128571Y-93435714D01*
X101985714Y-93507142D01*
X104128571Y-93078571D02*
X103842857Y-93078571D01*
X103700000Y-93150000D01*
X103628571Y-93221428D01*
X103485714Y-93435714D01*
X103414285Y-93721428D01*
X103414285Y-94292857D01*
X103485714Y-94435714D01*
X103557142Y-94507142D01*
X103700000Y-94578571D01*
X103985714Y-94578571D01*
X104128571Y-94507142D01*
X104200000Y-94435714D01*
X104271428Y-94292857D01*
X104271428Y-93935714D01*
X104200000Y-93792857D01*
X104128571Y-93721428D01*
X103985714Y-93650000D01*
X103700000Y-93650000D01*
X103557142Y-93721428D01*
X103485714Y-93792857D01*
X103414285Y-93935714D01*
X104985714Y-94507142D02*
X104985714Y-94578571D01*
X104914285Y-94721428D01*
X104842857Y-94792857D01*
X106271428Y-93578571D02*
X106271428Y-94578571D01*
X105914285Y-93007142D02*
X105557142Y-94078571D01*
X106485714Y-94078571D01*
X107342857Y-93078571D02*
X107485714Y-93078571D01*
X107628571Y-93150000D01*
X107700000Y-93221428D01*
X107771428Y-93364285D01*
X107842857Y-93650000D01*
X107842857Y-94007142D01*
X107771428Y-94292857D01*
X107700000Y-94435714D01*
X107628571Y-94507142D01*
X107485714Y-94578571D01*
X107342857Y-94578571D01*
X107200000Y-94507142D01*
X107128571Y-94435714D01*
X107057142Y-94292857D01*
X106985714Y-94007142D01*
X106985714Y-93650000D01*
X107057142Y-93364285D01*
X107128571Y-93221428D01*
X107200000Y-93150000D01*
X107342857Y-93078571D01*
X108771428Y-93078571D02*
X108914285Y-93078571D01*
X109057142Y-93150000D01*
X109128571Y-93221428D01*
X109200000Y-93364285D01*
X109271428Y-93650000D01*
X109271428Y-94007142D01*
X109200000Y-94292857D01*
X109128571Y-94435714D01*
X109057142Y-94507142D01*
X108914285Y-94578571D01*
X108771428Y-94578571D01*
X108628571Y-94507142D01*
X108557142Y-94435714D01*
X108485714Y-94292857D01*
X108414285Y-94007142D01*
X108414285Y-93650000D01*
X108485714Y-93364285D01*
X108557142Y-93221428D01*
X108628571Y-93150000D01*
X108771428Y-93078571D01*
X111057142Y-94578571D02*
X111057142Y-93578571D01*
X111057142Y-93721428D02*
X111128571Y-93650000D01*
X111271428Y-93578571D01*
X111485714Y-93578571D01*
X111628571Y-93650000D01*
X111700000Y-93792857D01*
X111700000Y-94578571D01*
X111700000Y-93792857D02*
X111771428Y-93650000D01*
X111914285Y-93578571D01*
X112128571Y-93578571D01*
X112271428Y-93650000D01*
X112342857Y-93792857D01*
X112342857Y-94578571D01*
X113057142Y-94578571D02*
X113057142Y-93578571D01*
X113057142Y-93721428D02*
X113128571Y-93650000D01*
X113271428Y-93578571D01*
X113485714Y-93578571D01*
X113628571Y-93650000D01*
X113700000Y-93792857D01*
X113700000Y-94578571D01*
X113700000Y-93792857D02*
X113771428Y-93650000D01*
X113914285Y-93578571D01*
X114128571Y-93578571D01*
X114271428Y-93650000D01*
X114342857Y-93792857D01*
X114342857Y-94578571D01*
X100000000Y-96000000D02*
X116400000Y-96000000D01*
X100000000Y-100000000D02*
X100000000Y-95413579D01*
X116400000Y-100000000D02*
X116400000Y-95413579D01*
X116400000Y-96000000D02*
X115273496Y-96586421D01*
X116400000Y-96000000D02*
X115273496Y-95413579D01*
X100000000Y-96000000D02*
X101126504Y-96586421D01*
X100000000Y-96000000D02*
X101126504Y-95413579D01*
X92178571Y-126400000D02*
X93178571Y-126400000D01*
X91607142Y-126757142D02*
X92678571Y-127114285D01*
X92678571Y-126185714D01*
X93178571Y-124828571D02*
X93178571Y-125685714D01*
X93178571Y-125257142D02*
X91678571Y-125257142D01*
X91892857Y-125400000D01*
X92035714Y-125542857D01*
X92107142Y-125685714D01*
X93107142Y-124114285D02*
X93178571Y-124114285D01*
X93321428Y-124185714D01*
X93392857Y-124257142D01*
X92321428Y-123257142D02*
X92250000Y-123400000D01*
X92178571Y-123471428D01*
X92035714Y-123542857D01*
X91964285Y-123542857D01*
X91821428Y-123471428D01*
X91750000Y-123400000D01*
X91678571Y-123257142D01*
X91678571Y-122971428D01*
X91750000Y-122828571D01*
X91821428Y-122757142D01*
X91964285Y-122685714D01*
X92035714Y-122685714D01*
X92178571Y-122757142D01*
X92250000Y-122828571D01*
X92321428Y-122971428D01*
X92321428Y-123257142D01*
X92392857Y-123400000D01*
X92464285Y-123471428D01*
X92607142Y-123542857D01*
X92892857Y-123542857D01*
X93035714Y-123471428D01*
X93107142Y-123400000D01*
X93178571Y-123257142D01*
X93178571Y-122971428D01*
X93107142Y-122828571D01*
X93035714Y-122757142D01*
X92892857Y-122685714D01*
X92607142Y-122685714D01*
X92464285Y-122757142D01*
X92392857Y-122828571D01*
X92321428Y-122971428D01*
X91678571Y-121757142D02*
X91678571Y-121614285D01*
X91750000Y-121471428D01*
X91821428Y-121400000D01*
X91964285Y-121328571D01*
X92250000Y-121257142D01*
X92607142Y-121257142D01*
X92892857Y-121328571D01*
X93035714Y-121400000D01*
X93107142Y-121471428D01*
X93178571Y-121614285D01*
X93178571Y-121757142D01*
X93107142Y-121900000D01*
X93035714Y-121971428D01*
X92892857Y-122042857D01*
X92607142Y-122114285D01*
X92250000Y-122114285D01*
X91964285Y-122042857D01*
X91821428Y-121971428D01*
X91750000Y-121900000D01*
X91678571Y-121757142D01*
X91678571Y-120328571D02*
X91678571Y-120185714D01*
X91750000Y-120042857D01*
X91821428Y-119971428D01*
X91964285Y-119900000D01*
X92250000Y-119828571D01*
X92607142Y-119828571D01*
X92892857Y-119900000D01*
X93035714Y-119971428D01*
X93107142Y-120042857D01*
X93178571Y-120185714D01*
X93178571Y-120328571D01*
X93107142Y-120471428D01*
X93035714Y-120542857D01*
X92892857Y-120614285D01*
X92607142Y-120685714D01*
X92250000Y-120685714D01*
X91964285Y-120614285D01*
X91821428Y-120542857D01*
X91750000Y-120471428D01*
X91678571Y-120328571D01*
X93178571Y-118042857D02*
X92178571Y-118042857D01*
X92321428Y-118042857D02*
X92250000Y-117971428D01*
X92178571Y-117828571D01*
X92178571Y-117614285D01*
X92250000Y-117471428D01*
X92392857Y-117400000D01*
X93178571Y-117400000D01*
X92392857Y-117400000D02*
X92250000Y-117328571D01*
X92178571Y-117185714D01*
X92178571Y-116971428D01*
X92250000Y-116828571D01*
X92392857Y-116757142D01*
X93178571Y-116757142D01*
X93178571Y-116042857D02*
X92178571Y-116042857D01*
X92321428Y-116042857D02*
X92250000Y-115971428D01*
X92178571Y-115828571D01*
X92178571Y-115614285D01*
X92250000Y-115471428D01*
X92392857Y-115400000D01*
X93178571Y-115400000D01*
X92392857Y-115400000D02*
X92250000Y-115328571D01*
X92178571Y-115185714D01*
X92178571Y-114971428D01*
X92250000Y-114828571D01*
X92392857Y-114757142D01*
X93178571Y-114757142D01*
X94600000Y-141800000D02*
X94600000Y-100000000D01*
X100000000Y-141800000D02*
X94013579Y-141800000D01*
X100000000Y-100000000D02*
X94013579Y-100000000D01*
X94600000Y-100000000D02*
X95186421Y-101126504D01*
X94600000Y-100000000D02*
X94013579Y-101126504D01*
X94600000Y-141800000D02*
X95186421Y-140673496D01*
X94600000Y-141800000D02*
X94013579Y-140673496D01*
D11*
G04 #@! TO.C,Y1*
X103435000Y-123043000D02*
X103435000Y-120543000D01*
X103435000Y-120543000D02*
X101435000Y-120543000D01*
X101435000Y-120543000D02*
X101435000Y-123043000D01*
X101435000Y-123043000D02*
X103435000Y-123043000D01*
D12*
X100372000Y-125193000D02*
X100372000Y-119468000D01*
X100372000Y-119468000D02*
X104498000Y-119468000D01*
X104498000Y-119468000D02*
X104498000Y-125193000D01*
X104498000Y-125193000D02*
X100372000Y-125193000D01*
D13*
G04 #@! TO.C,IC2*
X106910000Y-127848000D02*
X115410000Y-127848000D01*
X115410000Y-127848000D02*
X115410000Y-135058000D01*
X115410000Y-135058000D02*
X106910000Y-135058000D01*
X106910000Y-135058000D02*
X106910000Y-127848000D01*
D12*
X109408000Y-128201000D02*
X112912000Y-128201000D01*
X112912000Y-128201000D02*
X112912000Y-134705000D01*
X112912000Y-134705000D02*
X109408000Y-134705000D01*
X109408000Y-134705000D02*
X109408000Y-128201000D01*
X109408000Y-130491000D02*
X111698000Y-128201000D01*
D14*
G04 #@! TO.C,LED1*
X101571000Y-134623000D02*
X101571000Y-131823000D01*
X101571000Y-131823000D02*
X104571000Y-131823000D01*
X104571000Y-131823000D02*
X104571000Y-134623000D01*
X104571000Y-134623000D02*
X101571000Y-134623000D01*
G04 #@! TD*
M02*
