G04 #@! TF.GenerationSoftware,KiCad,Pcbnew,(5.0.2)-1*
G04 #@! TF.CreationDate,2022-05-07T19:17:56+02:00*
G04 #@! TF.ProjectId,Pendrive_v1,50656e64-7269-4766-955f-76312e6b6963,rev?*
G04 #@! TF.SameCoordinates,Original*
G04 #@! TF.FileFunction,Legend,Bot*
G04 #@! TF.FilePolarity,Positive*
%FSLAX46Y46*%
G04 Gerber Fmt 4.6, Leading zero omitted, Abs format (unit mm)*
G04 Created by KiCad (PCBNEW (5.0.2)-1) date 07.05.2022 19:17:56*
%MOMM*%
%LPD*%
G01*
G04 APERTURE LIST*
%ADD10C,0.250000*%
%ADD11C,0.120000*%
%ADD12C,0.150000*%
G04 APERTURE END LIST*
D10*
X111880952Y-140952380D02*
X111880952Y-139952380D01*
X111309523Y-140952380D02*
X111738095Y-140380952D01*
X111309523Y-139952380D02*
X111880952Y-140523809D01*
X110928571Y-140904761D02*
X110785714Y-140952380D01*
X110547619Y-140952380D01*
X110452380Y-140904761D01*
X110404761Y-140857142D01*
X110357142Y-140761904D01*
X110357142Y-140666666D01*
X110404761Y-140571428D01*
X110452380Y-140523809D01*
X110547619Y-140476190D01*
X110738095Y-140428571D01*
X110833333Y-140380952D01*
X110880952Y-140333333D01*
X110928571Y-140238095D01*
X110928571Y-140142857D01*
X110880952Y-140047619D01*
X110833333Y-140000000D01*
X110738095Y-139952380D01*
X110500000Y-139952380D01*
X110357142Y-140000000D01*
X110166666Y-141047619D02*
X109404761Y-141047619D01*
X108642857Y-140952380D02*
X109214285Y-140952380D01*
X108928571Y-140952380D02*
X108928571Y-139952380D01*
X109023809Y-140095238D01*
X109119047Y-140190476D01*
X109214285Y-140238095D01*
X107119047Y-140428571D02*
X106976190Y-140476190D01*
X106928571Y-140523809D01*
X106880952Y-140619047D01*
X106880952Y-140761904D01*
X106928571Y-140857142D01*
X106976190Y-140904761D01*
X107071428Y-140952380D01*
X107452380Y-140952380D01*
X107452380Y-139952380D01*
X107119047Y-139952380D01*
X107023809Y-140000000D01*
X106976190Y-140047619D01*
X106928571Y-140142857D01*
X106928571Y-140238095D01*
X106976190Y-140333333D01*
X107023809Y-140380952D01*
X107119047Y-140428571D01*
X107452380Y-140428571D01*
X106261904Y-139952380D02*
X106071428Y-139952380D01*
X105976190Y-140000000D01*
X105880952Y-140095238D01*
X105833333Y-140285714D01*
X105833333Y-140619047D01*
X105880952Y-140809523D01*
X105976190Y-140904761D01*
X106071428Y-140952380D01*
X106261904Y-140952380D01*
X106357142Y-140904761D01*
X106452380Y-140809523D01*
X106500000Y-140619047D01*
X106500000Y-140285714D01*
X106452380Y-140095238D01*
X106357142Y-140000000D01*
X106261904Y-139952380D01*
X105547619Y-139952380D02*
X104976190Y-139952380D01*
X105261904Y-140952380D02*
X105261904Y-139952380D01*
X109990000Y-103505095D02*
X109942380Y-103409857D01*
X109942380Y-103267000D01*
X109990000Y-103124142D01*
X110085238Y-103028904D01*
X110180476Y-102981285D01*
X110370952Y-102933666D01*
X110513809Y-102933666D01*
X110704285Y-102981285D01*
X110799523Y-103028904D01*
X110894761Y-103124142D01*
X110942380Y-103267000D01*
X110942380Y-103362238D01*
X110894761Y-103505095D01*
X110847142Y-103552714D01*
X110513809Y-103552714D01*
X110513809Y-103362238D01*
X110942380Y-103981285D02*
X109942380Y-103981285D01*
X110942380Y-104552714D01*
X109942380Y-104552714D01*
X110942380Y-105028904D02*
X109942380Y-105028904D01*
X109942380Y-105267000D01*
X109990000Y-105409857D01*
X110085238Y-105505095D01*
X110180476Y-105552714D01*
X110370952Y-105600333D01*
X110513809Y-105600333D01*
X110704285Y-105552714D01*
X110799523Y-105505095D01*
X110894761Y-105409857D01*
X110942380Y-105267000D01*
X110942380Y-105028904D01*
X108672261Y-102894095D02*
X108719880Y-103036952D01*
X108719880Y-103275047D01*
X108672261Y-103370285D01*
X108624642Y-103417904D01*
X108529404Y-103465523D01*
X108434166Y-103465523D01*
X108338928Y-103417904D01*
X108291309Y-103370285D01*
X108243690Y-103275047D01*
X108196071Y-103084571D01*
X108148452Y-102989333D01*
X108100833Y-102941714D01*
X108005595Y-102894095D01*
X107910357Y-102894095D01*
X107815119Y-102941714D01*
X107767500Y-102989333D01*
X107719880Y-103084571D01*
X107719880Y-103322666D01*
X107767500Y-103465523D01*
X107719880Y-103798857D02*
X108719880Y-104036952D01*
X108005595Y-104227428D01*
X108719880Y-104417904D01*
X107719880Y-104656000D01*
X108624642Y-105608380D02*
X108672261Y-105560761D01*
X108719880Y-105417904D01*
X108719880Y-105322666D01*
X108672261Y-105179809D01*
X108577023Y-105084571D01*
X108481785Y-105036952D01*
X108291309Y-104989333D01*
X108148452Y-104989333D01*
X107957976Y-105036952D01*
X107862738Y-105084571D01*
X107767500Y-105179809D01*
X107719880Y-105322666D01*
X107719880Y-105417904D01*
X107767500Y-105560761D01*
X107815119Y-105608380D01*
X108719880Y-106513142D02*
X108719880Y-106036952D01*
X107719880Y-106036952D01*
X108719880Y-106846476D02*
X107719880Y-106846476D01*
X108719880Y-107417904D02*
X108148452Y-106989333D01*
X107719880Y-107417904D02*
X108291309Y-106846476D01*
X106513261Y-102965452D02*
X106560880Y-103108309D01*
X106560880Y-103346404D01*
X106513261Y-103441642D01*
X106465642Y-103489261D01*
X106370404Y-103536880D01*
X106275166Y-103536880D01*
X106179928Y-103489261D01*
X106132309Y-103441642D01*
X106084690Y-103346404D01*
X106037071Y-103155928D01*
X105989452Y-103060690D01*
X105941833Y-103013071D01*
X105846595Y-102965452D01*
X105751357Y-102965452D01*
X105656119Y-103013071D01*
X105608500Y-103060690D01*
X105560880Y-103155928D01*
X105560880Y-103394023D01*
X105608500Y-103536880D01*
X105560880Y-103870214D02*
X106560880Y-104108309D01*
X105846595Y-104298785D01*
X106560880Y-104489261D01*
X105560880Y-104727357D01*
X106560880Y-105108309D02*
X105560880Y-105108309D01*
X105560880Y-105774976D02*
X105560880Y-105965452D01*
X105608500Y-106060690D01*
X105703738Y-106155928D01*
X105894214Y-106203547D01*
X106227547Y-106203547D01*
X106418023Y-106155928D01*
X106513261Y-106060690D01*
X106560880Y-105965452D01*
X106560880Y-105774976D01*
X106513261Y-105679738D01*
X106418023Y-105584500D01*
X106227547Y-105536880D01*
X105894214Y-105536880D01*
X105703738Y-105584500D01*
X105608500Y-105679738D01*
X105560880Y-105774976D01*
X103020880Y-103028904D02*
X103020880Y-103647952D01*
X103401833Y-103314619D01*
X103401833Y-103457476D01*
X103449452Y-103552714D01*
X103497071Y-103600333D01*
X103592309Y-103647952D01*
X103830404Y-103647952D01*
X103925642Y-103600333D01*
X103973261Y-103552714D01*
X104020880Y-103457476D01*
X104020880Y-103171761D01*
X103973261Y-103076523D01*
X103925642Y-103028904D01*
X103020880Y-103933666D02*
X104020880Y-104267000D01*
X103020880Y-104600333D01*
X103020880Y-104838428D02*
X103020880Y-105457476D01*
X103401833Y-105124142D01*
X103401833Y-105267000D01*
X103449452Y-105362238D01*
X103497071Y-105409857D01*
X103592309Y-105457476D01*
X103830404Y-105457476D01*
X103925642Y-105409857D01*
X103973261Y-105362238D01*
X104020880Y-105267000D01*
X104020880Y-104981285D01*
X103973261Y-104886047D01*
X103925642Y-104838428D01*
D11*
G04 #@! TO.C,R5*
X108493779Y-138813000D02*
X108168221Y-138813000D01*
X108493779Y-137793000D02*
X108168221Y-137793000D01*
G04 #@! TO.C,R6*
X108747779Y-133983000D02*
X108422221Y-133983000D01*
X108747779Y-135003000D02*
X108422221Y-135003000D01*
G04 #@! TO.C,C12*
X108206000Y-126146779D02*
X108206000Y-125821221D01*
X107186000Y-126146779D02*
X107186000Y-125821221D01*
G04 #@! TO.C,C13*
X105662000Y-126146779D02*
X105662000Y-125821221D01*
X106682000Y-126146779D02*
X106682000Y-125821221D01*
G04 #@! TO.C,C14*
X109730000Y-126146779D02*
X109730000Y-125821221D01*
X108710000Y-126146779D02*
X108710000Y-125821221D01*
G04 #@! TO.C,C15*
X111254000Y-126146779D02*
X111254000Y-125821221D01*
X110234000Y-126146779D02*
X110234000Y-125821221D01*
G04 #@! TO.C,C11*
X110073221Y-109980000D02*
X110398779Y-109980000D01*
X110073221Y-111000000D02*
X110398779Y-111000000D01*
G04 #@! TO.C,C10*
X110073221Y-109222000D02*
X110398779Y-109222000D01*
X110073221Y-108202000D02*
X110398779Y-108202000D01*
G04 #@! TO.C,C9*
X106174000Y-121193779D02*
X106174000Y-120868221D01*
X105154000Y-121193779D02*
X105154000Y-120868221D01*
G04 #@! TO.C,R4*
X110238000Y-121574779D02*
X110238000Y-121249221D01*
X109218000Y-121574779D02*
X109218000Y-121249221D01*
G04 #@! TO.C,C8*
X108964000Y-130337779D02*
X108964000Y-130012221D01*
X109984000Y-130337779D02*
X109984000Y-130012221D01*
G04 #@! TO.C,C7*
X112994221Y-135257000D02*
X113319779Y-135257000D01*
X112994221Y-134237000D02*
X113319779Y-134237000D01*
G04 #@! TO.C,C4*
X112778000Y-121249221D02*
X112778000Y-121574779D01*
X111758000Y-121249221D02*
X111758000Y-121574779D01*
G04 #@! TO.C,C3*
X106678000Y-120868221D02*
X106678000Y-121193779D01*
X107698000Y-120868221D02*
X107698000Y-121193779D01*
G04 #@! TO.C,C1*
X112778000Y-124957779D02*
X112778000Y-124632221D01*
X111758000Y-124957779D02*
X111758000Y-124632221D01*
G04 #@! TO.C,R5*
D12*
X106114833Y-135553404D02*
X106381500Y-135172452D01*
X106571976Y-135553404D02*
X106571976Y-134753404D01*
X106267214Y-134753404D01*
X106191023Y-134791500D01*
X106152928Y-134829595D01*
X106114833Y-134905785D01*
X106114833Y-135020071D01*
X106152928Y-135096261D01*
X106191023Y-135134357D01*
X106267214Y-135172452D01*
X106571976Y-135172452D01*
X105391023Y-134753404D02*
X105771976Y-134753404D01*
X105810071Y-135134357D01*
X105771976Y-135096261D01*
X105695785Y-135058166D01*
X105505309Y-135058166D01*
X105429119Y-135096261D01*
X105391023Y-135134357D01*
X105352928Y-135210547D01*
X105352928Y-135401023D01*
X105391023Y-135477214D01*
X105429119Y-135515309D01*
X105505309Y-135553404D01*
X105695785Y-135553404D01*
X105771976Y-135515309D01*
X105810071Y-135477214D01*
G04 #@! TO.C,R6*
X108718333Y-133424904D02*
X108985000Y-133043952D01*
X109175476Y-133424904D02*
X109175476Y-132624904D01*
X108870714Y-132624904D01*
X108794523Y-132663000D01*
X108756428Y-132701095D01*
X108718333Y-132777285D01*
X108718333Y-132891571D01*
X108756428Y-132967761D01*
X108794523Y-133005857D01*
X108870714Y-133043952D01*
X109175476Y-133043952D01*
X108032619Y-132624904D02*
X108185000Y-132624904D01*
X108261190Y-132663000D01*
X108299285Y-132701095D01*
X108375476Y-132815380D01*
X108413571Y-132967761D01*
X108413571Y-133272523D01*
X108375476Y-133348714D01*
X108337380Y-133386809D01*
X108261190Y-133424904D01*
X108108809Y-133424904D01*
X108032619Y-133386809D01*
X107994523Y-133348714D01*
X107956428Y-133272523D01*
X107956428Y-133082047D01*
X107994523Y-133005857D01*
X108032619Y-132967761D01*
X108108809Y-132929666D01*
X108261190Y-132929666D01*
X108337380Y-132967761D01*
X108375476Y-133005857D01*
X108413571Y-133082047D01*
G04 #@! TO.C,C12*
X107156214Y-128073214D02*
X107194309Y-128035119D01*
X107232404Y-127920833D01*
X107232404Y-127844642D01*
X107194309Y-127730357D01*
X107118119Y-127654166D01*
X107041928Y-127616071D01*
X106889547Y-127577976D01*
X106775261Y-127577976D01*
X106622880Y-127616071D01*
X106546690Y-127654166D01*
X106470500Y-127730357D01*
X106432404Y-127844642D01*
X106432404Y-127920833D01*
X106470500Y-128035119D01*
X106508595Y-128073214D01*
X107232404Y-128835119D02*
X107232404Y-128377976D01*
X107232404Y-128606547D02*
X106432404Y-128606547D01*
X106546690Y-128530357D01*
X106622880Y-128454166D01*
X106660976Y-128377976D01*
X106508595Y-129139880D02*
X106470500Y-129177976D01*
X106432404Y-129254166D01*
X106432404Y-129444642D01*
X106470500Y-129520833D01*
X106508595Y-129558928D01*
X106584785Y-129597023D01*
X106660976Y-129597023D01*
X106775261Y-129558928D01*
X107232404Y-129101785D01*
X107232404Y-129597023D01*
G04 #@! TO.C,C13*
X105886214Y-128073214D02*
X105924309Y-128035119D01*
X105962404Y-127920833D01*
X105962404Y-127844642D01*
X105924309Y-127730357D01*
X105848119Y-127654166D01*
X105771928Y-127616071D01*
X105619547Y-127577976D01*
X105505261Y-127577976D01*
X105352880Y-127616071D01*
X105276690Y-127654166D01*
X105200500Y-127730357D01*
X105162404Y-127844642D01*
X105162404Y-127920833D01*
X105200500Y-128035119D01*
X105238595Y-128073214D01*
X105962404Y-128835119D02*
X105962404Y-128377976D01*
X105962404Y-128606547D02*
X105162404Y-128606547D01*
X105276690Y-128530357D01*
X105352880Y-128454166D01*
X105390976Y-128377976D01*
X105162404Y-129101785D02*
X105162404Y-129597023D01*
X105467166Y-129330357D01*
X105467166Y-129444642D01*
X105505261Y-129520833D01*
X105543357Y-129558928D01*
X105619547Y-129597023D01*
X105810023Y-129597023D01*
X105886214Y-129558928D01*
X105924309Y-129520833D01*
X105962404Y-129444642D01*
X105962404Y-129216071D01*
X105924309Y-129139880D01*
X105886214Y-129101785D01*
G04 #@! TO.C,C14*
X108426214Y-128073214D02*
X108464309Y-128035119D01*
X108502404Y-127920833D01*
X108502404Y-127844642D01*
X108464309Y-127730357D01*
X108388119Y-127654166D01*
X108311928Y-127616071D01*
X108159547Y-127577976D01*
X108045261Y-127577976D01*
X107892880Y-127616071D01*
X107816690Y-127654166D01*
X107740500Y-127730357D01*
X107702404Y-127844642D01*
X107702404Y-127920833D01*
X107740500Y-128035119D01*
X107778595Y-128073214D01*
X108502404Y-128835119D02*
X108502404Y-128377976D01*
X108502404Y-128606547D02*
X107702404Y-128606547D01*
X107816690Y-128530357D01*
X107892880Y-128454166D01*
X107930976Y-128377976D01*
X107969071Y-129520833D02*
X108502404Y-129520833D01*
X107664309Y-129330357D02*
X108235738Y-129139880D01*
X108235738Y-129635119D01*
G04 #@! TO.C,C15*
X112109214Y-128136714D02*
X112147309Y-128098619D01*
X112185404Y-127984333D01*
X112185404Y-127908142D01*
X112147309Y-127793857D01*
X112071119Y-127717666D01*
X111994928Y-127679571D01*
X111842547Y-127641476D01*
X111728261Y-127641476D01*
X111575880Y-127679571D01*
X111499690Y-127717666D01*
X111423500Y-127793857D01*
X111385404Y-127908142D01*
X111385404Y-127984333D01*
X111423500Y-128098619D01*
X111461595Y-128136714D01*
X112185404Y-128898619D02*
X112185404Y-128441476D01*
X112185404Y-128670047D02*
X111385404Y-128670047D01*
X111499690Y-128593857D01*
X111575880Y-128517666D01*
X111613976Y-128441476D01*
X111385404Y-129622428D02*
X111385404Y-129241476D01*
X111766357Y-129203380D01*
X111728261Y-129241476D01*
X111690166Y-129317666D01*
X111690166Y-129508142D01*
X111728261Y-129584333D01*
X111766357Y-129622428D01*
X111842547Y-129660523D01*
X112033023Y-129660523D01*
X112109214Y-129622428D01*
X112147309Y-129584333D01*
X112185404Y-129508142D01*
X112185404Y-129317666D01*
X112147309Y-129241476D01*
X112109214Y-129203380D01*
G04 #@! TO.C,C11*
X107956285Y-110775714D02*
X107994380Y-110813809D01*
X108108666Y-110851904D01*
X108184857Y-110851904D01*
X108299142Y-110813809D01*
X108375333Y-110737619D01*
X108413428Y-110661428D01*
X108451523Y-110509047D01*
X108451523Y-110394761D01*
X108413428Y-110242380D01*
X108375333Y-110166190D01*
X108299142Y-110090000D01*
X108184857Y-110051904D01*
X108108666Y-110051904D01*
X107994380Y-110090000D01*
X107956285Y-110128095D01*
X107194380Y-110851904D02*
X107651523Y-110851904D01*
X107422952Y-110851904D02*
X107422952Y-110051904D01*
X107499142Y-110166190D01*
X107575333Y-110242380D01*
X107651523Y-110280476D01*
X106432476Y-110851904D02*
X106889619Y-110851904D01*
X106661047Y-110851904D02*
X106661047Y-110051904D01*
X106737238Y-110166190D01*
X106813428Y-110242380D01*
X106889619Y-110280476D01*
G04 #@! TO.C,C10*
X107956285Y-108997714D02*
X107994380Y-109035809D01*
X108108666Y-109073904D01*
X108184857Y-109073904D01*
X108299142Y-109035809D01*
X108375333Y-108959619D01*
X108413428Y-108883428D01*
X108451523Y-108731047D01*
X108451523Y-108616761D01*
X108413428Y-108464380D01*
X108375333Y-108388190D01*
X108299142Y-108312000D01*
X108184857Y-108273904D01*
X108108666Y-108273904D01*
X107994380Y-108312000D01*
X107956285Y-108350095D01*
X107194380Y-109073904D02*
X107651523Y-109073904D01*
X107422952Y-109073904D02*
X107422952Y-108273904D01*
X107499142Y-108388190D01*
X107575333Y-108464380D01*
X107651523Y-108502476D01*
X106699142Y-108273904D02*
X106622952Y-108273904D01*
X106546761Y-108312000D01*
X106508666Y-108350095D01*
X106470571Y-108426285D01*
X106432476Y-108578666D01*
X106432476Y-108769142D01*
X106470571Y-108921523D01*
X106508666Y-108997714D01*
X106546761Y-109035809D01*
X106622952Y-109073904D01*
X106699142Y-109073904D01*
X106775333Y-109035809D01*
X106813428Y-108997714D01*
X106851523Y-108921523D01*
X106889619Y-108769142D01*
X106889619Y-108578666D01*
X106851523Y-108426285D01*
X106813428Y-108350095D01*
X106775333Y-108312000D01*
X106699142Y-108273904D01*
G04 #@! TO.C,C9*
X106457714Y-118675166D02*
X106495809Y-118637071D01*
X106533904Y-118522785D01*
X106533904Y-118446595D01*
X106495809Y-118332309D01*
X106419619Y-118256119D01*
X106343428Y-118218023D01*
X106191047Y-118179928D01*
X106076761Y-118179928D01*
X105924380Y-118218023D01*
X105848190Y-118256119D01*
X105772000Y-118332309D01*
X105733904Y-118446595D01*
X105733904Y-118522785D01*
X105772000Y-118637071D01*
X105810095Y-118675166D01*
X106533904Y-119056119D02*
X106533904Y-119208500D01*
X106495809Y-119284690D01*
X106457714Y-119322785D01*
X106343428Y-119398976D01*
X106191047Y-119437071D01*
X105886285Y-119437071D01*
X105810095Y-119398976D01*
X105772000Y-119360880D01*
X105733904Y-119284690D01*
X105733904Y-119132309D01*
X105772000Y-119056119D01*
X105810095Y-119018023D01*
X105886285Y-118979928D01*
X106076761Y-118979928D01*
X106152952Y-119018023D01*
X106191047Y-119056119D01*
X106229142Y-119132309D01*
X106229142Y-119284690D01*
X106191047Y-119360880D01*
X106152952Y-119398976D01*
X106076761Y-119437071D01*
G04 #@! TO.C,R4*
X110089904Y-118802166D02*
X109708952Y-118535500D01*
X110089904Y-118345023D02*
X109289904Y-118345023D01*
X109289904Y-118649785D01*
X109328000Y-118725976D01*
X109366095Y-118764071D01*
X109442285Y-118802166D01*
X109556571Y-118802166D01*
X109632761Y-118764071D01*
X109670857Y-118725976D01*
X109708952Y-118649785D01*
X109708952Y-118345023D01*
X109556571Y-119487880D02*
X110089904Y-119487880D01*
X109251809Y-119297404D02*
X109823238Y-119106928D01*
X109823238Y-119602166D01*
G04 #@! TO.C,C8*
X111156714Y-130232166D02*
X111194809Y-130194071D01*
X111232904Y-130079785D01*
X111232904Y-130003595D01*
X111194809Y-129889309D01*
X111118619Y-129813119D01*
X111042428Y-129775023D01*
X110890047Y-129736928D01*
X110775761Y-129736928D01*
X110623380Y-129775023D01*
X110547190Y-129813119D01*
X110471000Y-129889309D01*
X110432904Y-130003595D01*
X110432904Y-130079785D01*
X110471000Y-130194071D01*
X110509095Y-130232166D01*
X110775761Y-130689309D02*
X110737666Y-130613119D01*
X110699571Y-130575023D01*
X110623380Y-130536928D01*
X110585285Y-130536928D01*
X110509095Y-130575023D01*
X110471000Y-130613119D01*
X110432904Y-130689309D01*
X110432904Y-130841690D01*
X110471000Y-130917880D01*
X110509095Y-130955976D01*
X110585285Y-130994071D01*
X110623380Y-130994071D01*
X110699571Y-130955976D01*
X110737666Y-130917880D01*
X110775761Y-130841690D01*
X110775761Y-130689309D01*
X110813857Y-130613119D01*
X110851952Y-130575023D01*
X110928142Y-130536928D01*
X111080523Y-130536928D01*
X111156714Y-130575023D01*
X111194809Y-130613119D01*
X111232904Y-130689309D01*
X111232904Y-130841690D01*
X111194809Y-130917880D01*
X111156714Y-130955976D01*
X111080523Y-130994071D01*
X110928142Y-130994071D01*
X110851952Y-130955976D01*
X110813857Y-130917880D01*
X110775761Y-130841690D01*
G04 #@! TO.C,C7*
X113290333Y-133635714D02*
X113328428Y-133673809D01*
X113442714Y-133711904D01*
X113518904Y-133711904D01*
X113633190Y-133673809D01*
X113709380Y-133597619D01*
X113747476Y-133521428D01*
X113785571Y-133369047D01*
X113785571Y-133254761D01*
X113747476Y-133102380D01*
X113709380Y-133026190D01*
X113633190Y-132950000D01*
X113518904Y-132911904D01*
X113442714Y-132911904D01*
X113328428Y-132950000D01*
X113290333Y-132988095D01*
X113023666Y-132911904D02*
X112490333Y-132911904D01*
X112833190Y-133711904D01*
G04 #@! TO.C,C4*
X113950714Y-120389666D02*
X113988809Y-120351571D01*
X114026904Y-120237285D01*
X114026904Y-120161095D01*
X113988809Y-120046809D01*
X113912619Y-119970619D01*
X113836428Y-119932523D01*
X113684047Y-119894428D01*
X113569761Y-119894428D01*
X113417380Y-119932523D01*
X113341190Y-119970619D01*
X113265000Y-120046809D01*
X113226904Y-120161095D01*
X113226904Y-120237285D01*
X113265000Y-120351571D01*
X113303095Y-120389666D01*
X113493571Y-121075380D02*
X114026904Y-121075380D01*
X113188809Y-120884904D02*
X113760238Y-120694428D01*
X113760238Y-121189666D01*
G04 #@! TO.C,C3*
X107480713Y-118675166D02*
X107518808Y-118637071D01*
X107556903Y-118522785D01*
X107556903Y-118446595D01*
X107518808Y-118332309D01*
X107442618Y-118256119D01*
X107366427Y-118218023D01*
X107214046Y-118179928D01*
X107099760Y-118179928D01*
X106947379Y-118218023D01*
X106871189Y-118256119D01*
X106794999Y-118332309D01*
X106756903Y-118446595D01*
X106756903Y-118522785D01*
X106794999Y-118637071D01*
X106833094Y-118675166D01*
X106756903Y-118941833D02*
X106756903Y-119437071D01*
X107061665Y-119170404D01*
X107061665Y-119284690D01*
X107099760Y-119360880D01*
X107137856Y-119398976D01*
X107214046Y-119437071D01*
X107404522Y-119437071D01*
X107480713Y-119398976D01*
X107518808Y-119360880D01*
X107556903Y-119284690D01*
X107556903Y-119056119D01*
X107518808Y-118979928D01*
X107480713Y-118941833D01*
G04 #@! TO.C,C1*
X113950714Y-124725166D02*
X113988809Y-124687071D01*
X114026904Y-124572785D01*
X114026904Y-124496595D01*
X113988809Y-124382309D01*
X113912619Y-124306119D01*
X113836428Y-124268023D01*
X113684047Y-124229928D01*
X113569761Y-124229928D01*
X113417380Y-124268023D01*
X113341190Y-124306119D01*
X113265000Y-124382309D01*
X113226904Y-124496595D01*
X113226904Y-124572785D01*
X113265000Y-124687071D01*
X113303095Y-124725166D01*
X114026904Y-125487071D02*
X114026904Y-125029928D01*
X114026904Y-125258500D02*
X113226904Y-125258500D01*
X113341190Y-125182309D01*
X113417380Y-125106119D01*
X113455476Y-125029928D01*
G04 #@! TD*
M02*
