G04 #@! TF.GenerationSoftware,KiCad,Pcbnew,(5.0.2)-1*
G04 #@! TF.CreationDate,2022-05-07T19:17:56+02:00*
G04 #@! TF.ProjectId,Pendrive_v1,50656e64-7269-4766-955f-76312e6b6963,rev?*
G04 #@! TF.SameCoordinates,Original*
G04 #@! TF.FileFunction,Soldermask,Bot*
G04 #@! TF.FilePolarity,Negative*
%FSLAX46Y46*%
G04 Gerber Fmt 4.6, Leading zero omitted, Abs format (unit mm)*
G04 Created by KiCad (PCBNEW (5.0.2)-1) date 07.05.2022 19:17:56*
%MOMM*%
%LPD*%
G01*
G04 APERTURE LIST*
%ADD10C,0.100000*%
G04 APERTURE END LIST*
D10*
G36*
X102763057Y-136554059D02*
X102989384Y-136622714D01*
X103102548Y-136657042D01*
X103415425Y-136824279D01*
X103689661Y-137049339D01*
X103914721Y-137323575D01*
X104081958Y-137636451D01*
X104116286Y-137749615D01*
X104184941Y-137975942D01*
X104211000Y-138240525D01*
X104211000Y-138917474D01*
X104184941Y-139182057D01*
X104116286Y-139408384D01*
X104081958Y-139521549D01*
X103914721Y-139834425D01*
X103689661Y-140108661D01*
X103415425Y-140333721D01*
X103102549Y-140500958D01*
X102989385Y-140535286D01*
X102763058Y-140603941D01*
X102410000Y-140638714D01*
X102056943Y-140603941D01*
X101830616Y-140535286D01*
X101717452Y-140500958D01*
X101404576Y-140333721D01*
X101130339Y-140108661D01*
X100905279Y-139834425D01*
X100738042Y-139521549D01*
X100703714Y-139408385D01*
X100635059Y-139182058D01*
X100609000Y-138917475D01*
X100609000Y-138240526D01*
X100635059Y-137975943D01*
X100738042Y-137636453D01*
X100738042Y-137636452D01*
X100905279Y-137323575D01*
X101130339Y-137049339D01*
X101404575Y-136824279D01*
X101717451Y-136657042D01*
X101830615Y-136622714D01*
X102056942Y-136554059D01*
X102410000Y-136519286D01*
X102763057Y-136554059D01*
X102763057Y-136554059D01*
G37*
G36*
X114463057Y-136554059D02*
X114689384Y-136622714D01*
X114802548Y-136657042D01*
X115115425Y-136824279D01*
X115389661Y-137049339D01*
X115614721Y-137323575D01*
X115781958Y-137636451D01*
X115816286Y-137749615D01*
X115884941Y-137975942D01*
X115911000Y-138240525D01*
X115911000Y-138917474D01*
X115884941Y-139182057D01*
X115816286Y-139408384D01*
X115781958Y-139521549D01*
X115614721Y-139834425D01*
X115389661Y-140108661D01*
X115115425Y-140333721D01*
X114802549Y-140500958D01*
X114689385Y-140535286D01*
X114463058Y-140603941D01*
X114110000Y-140638714D01*
X113756943Y-140603941D01*
X113530616Y-140535286D01*
X113417452Y-140500958D01*
X113104576Y-140333721D01*
X112830339Y-140108661D01*
X112605279Y-139834425D01*
X112438042Y-139521549D01*
X112403714Y-139408385D01*
X112335059Y-139182058D01*
X112309000Y-138917475D01*
X112309000Y-138240526D01*
X112335059Y-137975943D01*
X112438042Y-137636453D01*
X112438042Y-137636452D01*
X112605279Y-137323575D01*
X112830339Y-137049339D01*
X113104575Y-136824279D01*
X113417451Y-136657042D01*
X113530615Y-136622714D01*
X113756942Y-136554059D01*
X114110000Y-136519286D01*
X114463057Y-136554059D01*
X114463057Y-136554059D01*
G37*
G36*
X110735305Y-138001096D02*
X110844680Y-138046400D01*
X110943118Y-138112175D01*
X111026825Y-138195882D01*
X111092600Y-138294320D01*
X111137904Y-138403695D01*
X111161000Y-138519806D01*
X111161000Y-138638194D01*
X111137904Y-138754305D01*
X111092600Y-138863680D01*
X111026825Y-138962118D01*
X110943118Y-139045825D01*
X110844680Y-139111600D01*
X110735305Y-139156904D01*
X110619194Y-139180000D01*
X110500806Y-139180000D01*
X110384695Y-139156904D01*
X110275320Y-139111600D01*
X110176882Y-139045825D01*
X110093175Y-138962118D01*
X110027400Y-138863680D01*
X109982096Y-138754305D01*
X109959000Y-138638194D01*
X109959000Y-138519806D01*
X109982096Y-138403695D01*
X110027400Y-138294320D01*
X110093175Y-138195882D01*
X110176882Y-138112175D01*
X110275320Y-138046400D01*
X110384695Y-138001096D01*
X110500806Y-137978000D01*
X110619194Y-137978000D01*
X110735305Y-138001096D01*
X110735305Y-138001096D01*
G37*
G36*
X106135305Y-138001096D02*
X106244680Y-138046400D01*
X106343118Y-138112175D01*
X106426825Y-138195882D01*
X106492600Y-138294320D01*
X106537904Y-138403695D01*
X106561000Y-138519806D01*
X106561000Y-138638194D01*
X106537904Y-138754305D01*
X106492600Y-138863680D01*
X106426825Y-138962118D01*
X106343118Y-139045825D01*
X106244680Y-139111600D01*
X106135305Y-139156904D01*
X106019194Y-139180000D01*
X105900806Y-139180000D01*
X105784695Y-139156904D01*
X105675320Y-139111600D01*
X105576882Y-139045825D01*
X105493175Y-138962118D01*
X105427400Y-138863680D01*
X105382096Y-138754305D01*
X105359000Y-138638194D01*
X105359000Y-138519806D01*
X105382096Y-138403695D01*
X105427400Y-138294320D01*
X105493175Y-138195882D01*
X105576882Y-138112175D01*
X105675320Y-138046400D01*
X105784695Y-138001096D01*
X105900806Y-137978000D01*
X106019194Y-137978000D01*
X106135305Y-138001096D01*
X106135305Y-138001096D01*
G37*
G36*
X107885591Y-137781085D02*
X107919569Y-137791393D01*
X107950887Y-137808133D01*
X107978339Y-137830661D01*
X108000867Y-137858113D01*
X108017607Y-137889431D01*
X108027915Y-137923409D01*
X108032000Y-137964890D01*
X108032000Y-138641110D01*
X108027915Y-138682591D01*
X108017607Y-138716569D01*
X108000867Y-138747887D01*
X107978339Y-138775339D01*
X107950887Y-138797867D01*
X107919569Y-138814607D01*
X107885591Y-138824915D01*
X107844110Y-138829000D01*
X107242890Y-138829000D01*
X107201409Y-138824915D01*
X107167431Y-138814607D01*
X107136113Y-138797867D01*
X107108661Y-138775339D01*
X107086133Y-138747887D01*
X107069393Y-138716569D01*
X107059085Y-138682591D01*
X107055000Y-138641110D01*
X107055000Y-137964890D01*
X107059085Y-137923409D01*
X107069393Y-137889431D01*
X107086133Y-137858113D01*
X107108661Y-137830661D01*
X107136113Y-137808133D01*
X107167431Y-137791393D01*
X107201409Y-137781085D01*
X107242890Y-137777000D01*
X107844110Y-137777000D01*
X107885591Y-137781085D01*
X107885591Y-137781085D01*
G37*
G36*
X109460591Y-137781085D02*
X109494569Y-137791393D01*
X109525887Y-137808133D01*
X109553339Y-137830661D01*
X109575867Y-137858113D01*
X109592607Y-137889431D01*
X109602915Y-137923409D01*
X109607000Y-137964890D01*
X109607000Y-138641110D01*
X109602915Y-138682591D01*
X109592607Y-138716569D01*
X109575867Y-138747887D01*
X109553339Y-138775339D01*
X109525887Y-138797867D01*
X109494569Y-138814607D01*
X109460591Y-138824915D01*
X109419110Y-138829000D01*
X108817890Y-138829000D01*
X108776409Y-138824915D01*
X108742431Y-138814607D01*
X108711113Y-138797867D01*
X108683661Y-138775339D01*
X108661133Y-138747887D01*
X108644393Y-138716569D01*
X108634085Y-138682591D01*
X108630000Y-138641110D01*
X108630000Y-137964890D01*
X108634085Y-137923409D01*
X108644393Y-137889431D01*
X108661133Y-137858113D01*
X108683661Y-137830661D01*
X108711113Y-137808133D01*
X108742431Y-137791393D01*
X108776409Y-137781085D01*
X108817890Y-137777000D01*
X109419110Y-137777000D01*
X109460591Y-137781085D01*
X109460591Y-137781085D01*
G37*
G36*
X111983578Y-135641955D02*
X111983581Y-135641956D01*
X111983580Y-135641956D01*
X112123074Y-135699736D01*
X112123075Y-135699737D01*
X112248618Y-135783622D01*
X112355378Y-135890382D01*
X112355380Y-135890385D01*
X112439264Y-136015926D01*
X112483955Y-136123820D01*
X112497045Y-136155422D01*
X112526500Y-136303505D01*
X112526500Y-136454495D01*
X112497045Y-136602578D01*
X112497044Y-136602580D01*
X112439264Y-136742074D01*
X112439263Y-136742075D01*
X112355378Y-136867618D01*
X112248618Y-136974378D01*
X112248615Y-136974380D01*
X112123074Y-137058264D01*
X112015180Y-137102955D01*
X111983578Y-137116045D01*
X111835495Y-137145500D01*
X111684505Y-137145500D01*
X111536422Y-137116045D01*
X111504820Y-137102955D01*
X111396926Y-137058264D01*
X111271385Y-136974380D01*
X111271382Y-136974378D01*
X111164622Y-136867618D01*
X111080737Y-136742075D01*
X111080736Y-136742074D01*
X111022956Y-136602580D01*
X111022955Y-136602578D01*
X110993500Y-136454495D01*
X110993500Y-136303505D01*
X111022955Y-136155422D01*
X111036045Y-136123820D01*
X111080736Y-136015926D01*
X111164620Y-135890385D01*
X111164622Y-135890382D01*
X111271382Y-135783622D01*
X111396925Y-135699737D01*
X111396926Y-135699736D01*
X111536420Y-135641956D01*
X111536419Y-135641956D01*
X111536422Y-135641955D01*
X111684505Y-135612500D01*
X111835495Y-135612500D01*
X111983578Y-135641955D01*
X111983578Y-135641955D01*
G37*
G36*
X109483578Y-135641955D02*
X109483581Y-135641956D01*
X109483580Y-135641956D01*
X109623074Y-135699736D01*
X109623075Y-135699737D01*
X109748618Y-135783622D01*
X109855378Y-135890382D01*
X109855380Y-135890385D01*
X109939264Y-136015926D01*
X109983955Y-136123820D01*
X109997045Y-136155422D01*
X110026500Y-136303505D01*
X110026500Y-136454495D01*
X109997045Y-136602578D01*
X109997044Y-136602580D01*
X109939264Y-136742074D01*
X109939263Y-136742075D01*
X109855378Y-136867618D01*
X109748618Y-136974378D01*
X109748615Y-136974380D01*
X109623074Y-137058264D01*
X109515180Y-137102955D01*
X109483578Y-137116045D01*
X109335495Y-137145500D01*
X109184505Y-137145500D01*
X109036422Y-137116045D01*
X109004820Y-137102955D01*
X108896926Y-137058264D01*
X108771385Y-136974380D01*
X108771382Y-136974378D01*
X108664622Y-136867618D01*
X108580737Y-136742075D01*
X108580736Y-136742074D01*
X108522956Y-136602580D01*
X108522955Y-136602578D01*
X108493500Y-136454495D01*
X108493500Y-136303505D01*
X108522955Y-136155422D01*
X108536045Y-136123820D01*
X108580736Y-136015926D01*
X108664620Y-135890385D01*
X108664622Y-135890382D01*
X108771382Y-135783622D01*
X108896925Y-135699737D01*
X108896926Y-135699736D01*
X109036420Y-135641956D01*
X109036419Y-135641956D01*
X109036422Y-135641955D01*
X109184505Y-135612500D01*
X109335495Y-135612500D01*
X109483578Y-135641955D01*
X109483578Y-135641955D01*
G37*
G36*
X107483578Y-135641955D02*
X107483581Y-135641956D01*
X107483580Y-135641956D01*
X107623074Y-135699736D01*
X107623075Y-135699737D01*
X107748618Y-135783622D01*
X107855378Y-135890382D01*
X107855380Y-135890385D01*
X107939264Y-136015926D01*
X107983955Y-136123820D01*
X107997045Y-136155422D01*
X108026500Y-136303505D01*
X108026500Y-136454495D01*
X107997045Y-136602578D01*
X107997044Y-136602580D01*
X107939264Y-136742074D01*
X107939263Y-136742075D01*
X107855378Y-136867618D01*
X107748618Y-136974378D01*
X107748615Y-136974380D01*
X107623074Y-137058264D01*
X107515180Y-137102955D01*
X107483578Y-137116045D01*
X107335495Y-137145500D01*
X107184505Y-137145500D01*
X107036422Y-137116045D01*
X107004820Y-137102955D01*
X106896926Y-137058264D01*
X106771385Y-136974380D01*
X106771382Y-136974378D01*
X106664622Y-136867618D01*
X106580737Y-136742075D01*
X106580736Y-136742074D01*
X106522956Y-136602580D01*
X106522955Y-136602578D01*
X106493500Y-136454495D01*
X106493500Y-136303505D01*
X106522955Y-136155422D01*
X106536045Y-136123820D01*
X106580736Y-136015926D01*
X106664620Y-135890385D01*
X106664622Y-135890382D01*
X106771382Y-135783622D01*
X106896925Y-135699737D01*
X106896926Y-135699736D01*
X107036420Y-135641956D01*
X107036419Y-135641956D01*
X107036422Y-135641955D01*
X107184505Y-135612500D01*
X107335495Y-135612500D01*
X107483578Y-135641955D01*
X107483578Y-135641955D01*
G37*
G36*
X104983578Y-135641955D02*
X104983581Y-135641956D01*
X104983580Y-135641956D01*
X105123074Y-135699736D01*
X105123075Y-135699737D01*
X105248618Y-135783622D01*
X105355378Y-135890382D01*
X105355380Y-135890385D01*
X105439264Y-136015926D01*
X105483955Y-136123820D01*
X105497045Y-136155422D01*
X105526500Y-136303505D01*
X105526500Y-136454495D01*
X105497045Y-136602578D01*
X105497044Y-136602580D01*
X105439264Y-136742074D01*
X105439263Y-136742075D01*
X105355378Y-136867618D01*
X105248618Y-136974378D01*
X105248615Y-136974380D01*
X105123074Y-137058264D01*
X105015180Y-137102955D01*
X104983578Y-137116045D01*
X104835495Y-137145500D01*
X104684505Y-137145500D01*
X104536422Y-137116045D01*
X104504820Y-137102955D01*
X104396926Y-137058264D01*
X104271385Y-136974380D01*
X104271382Y-136974378D01*
X104164622Y-136867618D01*
X104080737Y-136742075D01*
X104080736Y-136742074D01*
X104022956Y-136602580D01*
X104022955Y-136602578D01*
X103993500Y-136454495D01*
X103993500Y-136303505D01*
X104022955Y-136155422D01*
X104036045Y-136123820D01*
X104080736Y-136015926D01*
X104164620Y-135890385D01*
X104164622Y-135890382D01*
X104271382Y-135783622D01*
X104396925Y-135699737D01*
X104396926Y-135699736D01*
X104536420Y-135641956D01*
X104536419Y-135641956D01*
X104536422Y-135641955D01*
X104684505Y-135612500D01*
X104835495Y-135612500D01*
X104983578Y-135641955D01*
X104983578Y-135641955D01*
G37*
G36*
X114286591Y-134225085D02*
X114320569Y-134235393D01*
X114351887Y-134252133D01*
X114379339Y-134274661D01*
X114401867Y-134302113D01*
X114418607Y-134333431D01*
X114428915Y-134367409D01*
X114433000Y-134408890D01*
X114433000Y-135085110D01*
X114428915Y-135126591D01*
X114418607Y-135160569D01*
X114401867Y-135191887D01*
X114379339Y-135219339D01*
X114351887Y-135241867D01*
X114320569Y-135258607D01*
X114286591Y-135268915D01*
X114245110Y-135273000D01*
X113643890Y-135273000D01*
X113602409Y-135268915D01*
X113568431Y-135258607D01*
X113537113Y-135241867D01*
X113509661Y-135219339D01*
X113487133Y-135191887D01*
X113470393Y-135160569D01*
X113460085Y-135126591D01*
X113456000Y-135085110D01*
X113456000Y-134408890D01*
X113460085Y-134367409D01*
X113470393Y-134333431D01*
X113487133Y-134302113D01*
X113509661Y-134274661D01*
X113537113Y-134252133D01*
X113568431Y-134235393D01*
X113602409Y-134225085D01*
X113643890Y-134221000D01*
X114245110Y-134221000D01*
X114286591Y-134225085D01*
X114286591Y-134225085D01*
G37*
G36*
X112711591Y-134225085D02*
X112745569Y-134235393D01*
X112776887Y-134252133D01*
X112804339Y-134274661D01*
X112826867Y-134302113D01*
X112843607Y-134333431D01*
X112853915Y-134367409D01*
X112858000Y-134408890D01*
X112858000Y-135085110D01*
X112853915Y-135126591D01*
X112843607Y-135160569D01*
X112826867Y-135191887D01*
X112804339Y-135219339D01*
X112776887Y-135241867D01*
X112745569Y-135258607D01*
X112711591Y-135268915D01*
X112670110Y-135273000D01*
X112068890Y-135273000D01*
X112027409Y-135268915D01*
X111993431Y-135258607D01*
X111962113Y-135241867D01*
X111934661Y-135219339D01*
X111912133Y-135191887D01*
X111895393Y-135160569D01*
X111885085Y-135126591D01*
X111881000Y-135085110D01*
X111881000Y-134408890D01*
X111885085Y-134367409D01*
X111895393Y-134333431D01*
X111912133Y-134302113D01*
X111934661Y-134274661D01*
X111962113Y-134252133D01*
X111993431Y-134235393D01*
X112027409Y-134225085D01*
X112068890Y-134221000D01*
X112670110Y-134221000D01*
X112711591Y-134225085D01*
X112711591Y-134225085D01*
G37*
G36*
X109714591Y-133971085D02*
X109748569Y-133981393D01*
X109779887Y-133998133D01*
X109807339Y-134020661D01*
X109829867Y-134048113D01*
X109846607Y-134079431D01*
X109856915Y-134113409D01*
X109861000Y-134154890D01*
X109861000Y-134831110D01*
X109856915Y-134872591D01*
X109846607Y-134906569D01*
X109829867Y-134937887D01*
X109807339Y-134965339D01*
X109779887Y-134987867D01*
X109748569Y-135004607D01*
X109714591Y-135014915D01*
X109673110Y-135019000D01*
X109071890Y-135019000D01*
X109030409Y-135014915D01*
X108996431Y-135004607D01*
X108965113Y-134987867D01*
X108937661Y-134965339D01*
X108915133Y-134937887D01*
X108898393Y-134906569D01*
X108888085Y-134872591D01*
X108884000Y-134831110D01*
X108884000Y-134154890D01*
X108888085Y-134113409D01*
X108898393Y-134079431D01*
X108915133Y-134048113D01*
X108937661Y-134020661D01*
X108965113Y-133998133D01*
X108996431Y-133981393D01*
X109030409Y-133971085D01*
X109071890Y-133967000D01*
X109673110Y-133967000D01*
X109714591Y-133971085D01*
X109714591Y-133971085D01*
G37*
G36*
X108139591Y-133971085D02*
X108173569Y-133981393D01*
X108204887Y-133998133D01*
X108232339Y-134020661D01*
X108254867Y-134048113D01*
X108271607Y-134079431D01*
X108281915Y-134113409D01*
X108286000Y-134154890D01*
X108286000Y-134831110D01*
X108281915Y-134872591D01*
X108271607Y-134906569D01*
X108254867Y-134937887D01*
X108232339Y-134965339D01*
X108204887Y-134987867D01*
X108173569Y-135004607D01*
X108139591Y-135014915D01*
X108098110Y-135019000D01*
X107496890Y-135019000D01*
X107455409Y-135014915D01*
X107421431Y-135004607D01*
X107390113Y-134987867D01*
X107362661Y-134965339D01*
X107340133Y-134937887D01*
X107323393Y-134906569D01*
X107313085Y-134872591D01*
X107309000Y-134831110D01*
X107309000Y-134154890D01*
X107313085Y-134113409D01*
X107323393Y-134079431D01*
X107340133Y-134048113D01*
X107362661Y-134020661D01*
X107390113Y-133998133D01*
X107421431Y-133981393D01*
X107455409Y-133971085D01*
X107496890Y-133967000D01*
X108098110Y-133967000D01*
X108139591Y-133971085D01*
X108139591Y-133971085D01*
G37*
G36*
X109853591Y-130478085D02*
X109887569Y-130488393D01*
X109918887Y-130505133D01*
X109946339Y-130527661D01*
X109968867Y-130555113D01*
X109985607Y-130586431D01*
X109995915Y-130620409D01*
X110000000Y-130661890D01*
X110000000Y-131263110D01*
X109995915Y-131304591D01*
X109985607Y-131338569D01*
X109968867Y-131369887D01*
X109946339Y-131397339D01*
X109918887Y-131419867D01*
X109887569Y-131436607D01*
X109853591Y-131446915D01*
X109812110Y-131451000D01*
X109135890Y-131451000D01*
X109094409Y-131446915D01*
X109060431Y-131436607D01*
X109029113Y-131419867D01*
X109001661Y-131397339D01*
X108979133Y-131369887D01*
X108962393Y-131338569D01*
X108952085Y-131304591D01*
X108948000Y-131263110D01*
X108948000Y-130661890D01*
X108952085Y-130620409D01*
X108962393Y-130586431D01*
X108979133Y-130555113D01*
X109001661Y-130527661D01*
X109029113Y-130505133D01*
X109060431Y-130488393D01*
X109094409Y-130478085D01*
X109135890Y-130474000D01*
X109812110Y-130474000D01*
X109853591Y-130478085D01*
X109853591Y-130478085D01*
G37*
G36*
X109853591Y-128903085D02*
X109887569Y-128913393D01*
X109918887Y-128930133D01*
X109946339Y-128952661D01*
X109968867Y-128980113D01*
X109985607Y-129011431D01*
X109995915Y-129045409D01*
X110000000Y-129086890D01*
X110000000Y-129688110D01*
X109995915Y-129729591D01*
X109985607Y-129763569D01*
X109968867Y-129794887D01*
X109946339Y-129822339D01*
X109918887Y-129844867D01*
X109887569Y-129861607D01*
X109853591Y-129871915D01*
X109812110Y-129876000D01*
X109135890Y-129876000D01*
X109094409Y-129871915D01*
X109060431Y-129861607D01*
X109029113Y-129844867D01*
X109001661Y-129822339D01*
X108979133Y-129794887D01*
X108962393Y-129763569D01*
X108952085Y-129729591D01*
X108948000Y-129688110D01*
X108948000Y-129086890D01*
X108952085Y-129045409D01*
X108962393Y-129011431D01*
X108979133Y-128980113D01*
X109001661Y-128952661D01*
X109029113Y-128930133D01*
X109060431Y-128913393D01*
X109094409Y-128903085D01*
X109135890Y-128899000D01*
X109812110Y-128899000D01*
X109853591Y-128903085D01*
X109853591Y-128903085D01*
G37*
G36*
X111123591Y-126287085D02*
X111157569Y-126297393D01*
X111188887Y-126314133D01*
X111216339Y-126336661D01*
X111238867Y-126364113D01*
X111255607Y-126395431D01*
X111265915Y-126429409D01*
X111270000Y-126470890D01*
X111270000Y-127072110D01*
X111265915Y-127113591D01*
X111255607Y-127147569D01*
X111238867Y-127178887D01*
X111216339Y-127206339D01*
X111188887Y-127228867D01*
X111157569Y-127245607D01*
X111123591Y-127255915D01*
X111082110Y-127260000D01*
X110405890Y-127260000D01*
X110364409Y-127255915D01*
X110330431Y-127245607D01*
X110299113Y-127228867D01*
X110271661Y-127206339D01*
X110249133Y-127178887D01*
X110232393Y-127147569D01*
X110222085Y-127113591D01*
X110218000Y-127072110D01*
X110218000Y-126470890D01*
X110222085Y-126429409D01*
X110232393Y-126395431D01*
X110249133Y-126364113D01*
X110271661Y-126336661D01*
X110299113Y-126314133D01*
X110330431Y-126297393D01*
X110364409Y-126287085D01*
X110405890Y-126283000D01*
X111082110Y-126283000D01*
X111123591Y-126287085D01*
X111123591Y-126287085D01*
G37*
G36*
X109599591Y-126287085D02*
X109633569Y-126297393D01*
X109664887Y-126314133D01*
X109692339Y-126336661D01*
X109714867Y-126364113D01*
X109731607Y-126395431D01*
X109741915Y-126429409D01*
X109746000Y-126470890D01*
X109746000Y-127072110D01*
X109741915Y-127113591D01*
X109731607Y-127147569D01*
X109714867Y-127178887D01*
X109692339Y-127206339D01*
X109664887Y-127228867D01*
X109633569Y-127245607D01*
X109599591Y-127255915D01*
X109558110Y-127260000D01*
X108881890Y-127260000D01*
X108840409Y-127255915D01*
X108806431Y-127245607D01*
X108775113Y-127228867D01*
X108747661Y-127206339D01*
X108725133Y-127178887D01*
X108708393Y-127147569D01*
X108698085Y-127113591D01*
X108694000Y-127072110D01*
X108694000Y-126470890D01*
X108698085Y-126429409D01*
X108708393Y-126395431D01*
X108725133Y-126364113D01*
X108747661Y-126336661D01*
X108775113Y-126314133D01*
X108806431Y-126297393D01*
X108840409Y-126287085D01*
X108881890Y-126283000D01*
X109558110Y-126283000D01*
X109599591Y-126287085D01*
X109599591Y-126287085D01*
G37*
G36*
X106551591Y-126287085D02*
X106585569Y-126297393D01*
X106616887Y-126314133D01*
X106644339Y-126336661D01*
X106666867Y-126364113D01*
X106683607Y-126395431D01*
X106693915Y-126429409D01*
X106698000Y-126470890D01*
X106698000Y-127072110D01*
X106693915Y-127113591D01*
X106683607Y-127147569D01*
X106666867Y-127178887D01*
X106644339Y-127206339D01*
X106616887Y-127228867D01*
X106585569Y-127245607D01*
X106551591Y-127255915D01*
X106510110Y-127260000D01*
X105833890Y-127260000D01*
X105792409Y-127255915D01*
X105758431Y-127245607D01*
X105727113Y-127228867D01*
X105699661Y-127206339D01*
X105677133Y-127178887D01*
X105660393Y-127147569D01*
X105650085Y-127113591D01*
X105646000Y-127072110D01*
X105646000Y-126470890D01*
X105650085Y-126429409D01*
X105660393Y-126395431D01*
X105677133Y-126364113D01*
X105699661Y-126336661D01*
X105727113Y-126314133D01*
X105758431Y-126297393D01*
X105792409Y-126287085D01*
X105833890Y-126283000D01*
X106510110Y-126283000D01*
X106551591Y-126287085D01*
X106551591Y-126287085D01*
G37*
G36*
X108075591Y-126287085D02*
X108109569Y-126297393D01*
X108140887Y-126314133D01*
X108168339Y-126336661D01*
X108190867Y-126364113D01*
X108207607Y-126395431D01*
X108217915Y-126429409D01*
X108222000Y-126470890D01*
X108222000Y-127072110D01*
X108217915Y-127113591D01*
X108207607Y-127147569D01*
X108190867Y-127178887D01*
X108168339Y-127206339D01*
X108140887Y-127228867D01*
X108109569Y-127245607D01*
X108075591Y-127255915D01*
X108034110Y-127260000D01*
X107357890Y-127260000D01*
X107316409Y-127255915D01*
X107282431Y-127245607D01*
X107251113Y-127228867D01*
X107223661Y-127206339D01*
X107201133Y-127178887D01*
X107184393Y-127147569D01*
X107174085Y-127113591D01*
X107170000Y-127072110D01*
X107170000Y-126470890D01*
X107174085Y-126429409D01*
X107184393Y-126395431D01*
X107201133Y-126364113D01*
X107223661Y-126336661D01*
X107251113Y-126314133D01*
X107282431Y-126297393D01*
X107316409Y-126287085D01*
X107357890Y-126283000D01*
X108034110Y-126283000D01*
X108075591Y-126287085D01*
X108075591Y-126287085D01*
G37*
G36*
X112647591Y-125098085D02*
X112681569Y-125108393D01*
X112712887Y-125125133D01*
X112740339Y-125147661D01*
X112762867Y-125175113D01*
X112779607Y-125206431D01*
X112789915Y-125240409D01*
X112794000Y-125281890D01*
X112794000Y-125883110D01*
X112789915Y-125924591D01*
X112779607Y-125958569D01*
X112762867Y-125989887D01*
X112740339Y-126017339D01*
X112712887Y-126039867D01*
X112681569Y-126056607D01*
X112647591Y-126066915D01*
X112606110Y-126071000D01*
X111929890Y-126071000D01*
X111888409Y-126066915D01*
X111854431Y-126056607D01*
X111823113Y-126039867D01*
X111795661Y-126017339D01*
X111773133Y-125989887D01*
X111756393Y-125958569D01*
X111746085Y-125924591D01*
X111742000Y-125883110D01*
X111742000Y-125281890D01*
X111746085Y-125240409D01*
X111756393Y-125206431D01*
X111773133Y-125175113D01*
X111795661Y-125147661D01*
X111823113Y-125125133D01*
X111854431Y-125108393D01*
X111888409Y-125098085D01*
X111929890Y-125094000D01*
X112606110Y-125094000D01*
X112647591Y-125098085D01*
X112647591Y-125098085D01*
G37*
G36*
X108075591Y-124712085D02*
X108109569Y-124722393D01*
X108140887Y-124739133D01*
X108168339Y-124761661D01*
X108190867Y-124789113D01*
X108207607Y-124820431D01*
X108217915Y-124854409D01*
X108222000Y-124895890D01*
X108222000Y-125497110D01*
X108217915Y-125538591D01*
X108207607Y-125572569D01*
X108190867Y-125603887D01*
X108168339Y-125631339D01*
X108140887Y-125653867D01*
X108109569Y-125670607D01*
X108075591Y-125680915D01*
X108034110Y-125685000D01*
X107357890Y-125685000D01*
X107316409Y-125680915D01*
X107282431Y-125670607D01*
X107251113Y-125653867D01*
X107223661Y-125631339D01*
X107201133Y-125603887D01*
X107184393Y-125572569D01*
X107174085Y-125538591D01*
X107170000Y-125497110D01*
X107170000Y-124895890D01*
X107174085Y-124854409D01*
X107184393Y-124820431D01*
X107201133Y-124789113D01*
X107223661Y-124761661D01*
X107251113Y-124739133D01*
X107282431Y-124722393D01*
X107316409Y-124712085D01*
X107357890Y-124708000D01*
X108034110Y-124708000D01*
X108075591Y-124712085D01*
X108075591Y-124712085D01*
G37*
G36*
X111123591Y-124712085D02*
X111157569Y-124722393D01*
X111188887Y-124739133D01*
X111216339Y-124761661D01*
X111238867Y-124789113D01*
X111255607Y-124820431D01*
X111265915Y-124854409D01*
X111270000Y-124895890D01*
X111270000Y-125497110D01*
X111265915Y-125538591D01*
X111255607Y-125572569D01*
X111238867Y-125603887D01*
X111216339Y-125631339D01*
X111188887Y-125653867D01*
X111157569Y-125670607D01*
X111123591Y-125680915D01*
X111082110Y-125685000D01*
X110405890Y-125685000D01*
X110364409Y-125680915D01*
X110330431Y-125670607D01*
X110299113Y-125653867D01*
X110271661Y-125631339D01*
X110249133Y-125603887D01*
X110232393Y-125572569D01*
X110222085Y-125538591D01*
X110218000Y-125497110D01*
X110218000Y-124895890D01*
X110222085Y-124854409D01*
X110232393Y-124820431D01*
X110249133Y-124789113D01*
X110271661Y-124761661D01*
X110299113Y-124739133D01*
X110330431Y-124722393D01*
X110364409Y-124712085D01*
X110405890Y-124708000D01*
X111082110Y-124708000D01*
X111123591Y-124712085D01*
X111123591Y-124712085D01*
G37*
G36*
X106551591Y-124712085D02*
X106585569Y-124722393D01*
X106616887Y-124739133D01*
X106644339Y-124761661D01*
X106666867Y-124789113D01*
X106683607Y-124820431D01*
X106693915Y-124854409D01*
X106698000Y-124895890D01*
X106698000Y-125497110D01*
X106693915Y-125538591D01*
X106683607Y-125572569D01*
X106666867Y-125603887D01*
X106644339Y-125631339D01*
X106616887Y-125653867D01*
X106585569Y-125670607D01*
X106551591Y-125680915D01*
X106510110Y-125685000D01*
X105833890Y-125685000D01*
X105792409Y-125680915D01*
X105758431Y-125670607D01*
X105727113Y-125653867D01*
X105699661Y-125631339D01*
X105677133Y-125603887D01*
X105660393Y-125572569D01*
X105650085Y-125538591D01*
X105646000Y-125497110D01*
X105646000Y-124895890D01*
X105650085Y-124854409D01*
X105660393Y-124820431D01*
X105677133Y-124789113D01*
X105699661Y-124761661D01*
X105727113Y-124739133D01*
X105758431Y-124722393D01*
X105792409Y-124712085D01*
X105833890Y-124708000D01*
X106510110Y-124708000D01*
X106551591Y-124712085D01*
X106551591Y-124712085D01*
G37*
G36*
X109599591Y-124712085D02*
X109633569Y-124722393D01*
X109664887Y-124739133D01*
X109692339Y-124761661D01*
X109714867Y-124789113D01*
X109731607Y-124820431D01*
X109741915Y-124854409D01*
X109746000Y-124895890D01*
X109746000Y-125497110D01*
X109741915Y-125538591D01*
X109731607Y-125572569D01*
X109714867Y-125603887D01*
X109692339Y-125631339D01*
X109664887Y-125653867D01*
X109633569Y-125670607D01*
X109599591Y-125680915D01*
X109558110Y-125685000D01*
X108881890Y-125685000D01*
X108840409Y-125680915D01*
X108806431Y-125670607D01*
X108775113Y-125653867D01*
X108747661Y-125631339D01*
X108725133Y-125603887D01*
X108708393Y-125572569D01*
X108698085Y-125538591D01*
X108694000Y-125497110D01*
X108694000Y-124895890D01*
X108698085Y-124854409D01*
X108708393Y-124820431D01*
X108725133Y-124789113D01*
X108747661Y-124761661D01*
X108775113Y-124739133D01*
X108806431Y-124722393D01*
X108840409Y-124712085D01*
X108881890Y-124708000D01*
X109558110Y-124708000D01*
X109599591Y-124712085D01*
X109599591Y-124712085D01*
G37*
G36*
X112647591Y-123523085D02*
X112681569Y-123533393D01*
X112712887Y-123550133D01*
X112740339Y-123572661D01*
X112762867Y-123600113D01*
X112779607Y-123631431D01*
X112789915Y-123665409D01*
X112794000Y-123706890D01*
X112794000Y-124308110D01*
X112789915Y-124349591D01*
X112779607Y-124383569D01*
X112762867Y-124414887D01*
X112740339Y-124442339D01*
X112712887Y-124464867D01*
X112681569Y-124481607D01*
X112647591Y-124491915D01*
X112606110Y-124496000D01*
X111929890Y-124496000D01*
X111888409Y-124491915D01*
X111854431Y-124481607D01*
X111823113Y-124464867D01*
X111795661Y-124442339D01*
X111773133Y-124414887D01*
X111756393Y-124383569D01*
X111746085Y-124349591D01*
X111742000Y-124308110D01*
X111742000Y-123706890D01*
X111746085Y-123665409D01*
X111756393Y-123631431D01*
X111773133Y-123600113D01*
X111795661Y-123572661D01*
X111823113Y-123550133D01*
X111854431Y-123533393D01*
X111888409Y-123523085D01*
X111929890Y-123519000D01*
X112606110Y-123519000D01*
X112647591Y-123523085D01*
X112647591Y-123523085D01*
G37*
G36*
X112647591Y-121715085D02*
X112681569Y-121725393D01*
X112712887Y-121742133D01*
X112740339Y-121764661D01*
X112762867Y-121792113D01*
X112779607Y-121823431D01*
X112789915Y-121857409D01*
X112794000Y-121898890D01*
X112794000Y-122500110D01*
X112789915Y-122541591D01*
X112779607Y-122575569D01*
X112762867Y-122606887D01*
X112740339Y-122634339D01*
X112712887Y-122656867D01*
X112681569Y-122673607D01*
X112647591Y-122683915D01*
X112606110Y-122688000D01*
X111929890Y-122688000D01*
X111888409Y-122683915D01*
X111854431Y-122673607D01*
X111823113Y-122656867D01*
X111795661Y-122634339D01*
X111773133Y-122606887D01*
X111756393Y-122575569D01*
X111746085Y-122541591D01*
X111742000Y-122500110D01*
X111742000Y-121898890D01*
X111746085Y-121857409D01*
X111756393Y-121823431D01*
X111773133Y-121792113D01*
X111795661Y-121764661D01*
X111823113Y-121742133D01*
X111854431Y-121725393D01*
X111888409Y-121715085D01*
X111929890Y-121711000D01*
X112606110Y-121711000D01*
X112647591Y-121715085D01*
X112647591Y-121715085D01*
G37*
G36*
X110107591Y-121715085D02*
X110141569Y-121725393D01*
X110172887Y-121742133D01*
X110200339Y-121764661D01*
X110222867Y-121792113D01*
X110239607Y-121823431D01*
X110249915Y-121857409D01*
X110254000Y-121898890D01*
X110254000Y-122500110D01*
X110249915Y-122541591D01*
X110239607Y-122575569D01*
X110222867Y-122606887D01*
X110200339Y-122634339D01*
X110172887Y-122656867D01*
X110141569Y-122673607D01*
X110107591Y-122683915D01*
X110066110Y-122688000D01*
X109389890Y-122688000D01*
X109348409Y-122683915D01*
X109314431Y-122673607D01*
X109283113Y-122656867D01*
X109255661Y-122634339D01*
X109233133Y-122606887D01*
X109216393Y-122575569D01*
X109206085Y-122541591D01*
X109202000Y-122500110D01*
X109202000Y-121898890D01*
X109206085Y-121857409D01*
X109216393Y-121823431D01*
X109233133Y-121792113D01*
X109255661Y-121764661D01*
X109283113Y-121742133D01*
X109314431Y-121725393D01*
X109348409Y-121715085D01*
X109389890Y-121711000D01*
X110066110Y-121711000D01*
X110107591Y-121715085D01*
X110107591Y-121715085D01*
G37*
G36*
X106043591Y-121334085D02*
X106077569Y-121344393D01*
X106108887Y-121361133D01*
X106136339Y-121383661D01*
X106158867Y-121411113D01*
X106175607Y-121442431D01*
X106185915Y-121476409D01*
X106190000Y-121517890D01*
X106190000Y-122119110D01*
X106185915Y-122160591D01*
X106175607Y-122194569D01*
X106158867Y-122225887D01*
X106136339Y-122253339D01*
X106108887Y-122275867D01*
X106077569Y-122292607D01*
X106043591Y-122302915D01*
X106002110Y-122307000D01*
X105325890Y-122307000D01*
X105284409Y-122302915D01*
X105250431Y-122292607D01*
X105219113Y-122275867D01*
X105191661Y-122253339D01*
X105169133Y-122225887D01*
X105152393Y-122194569D01*
X105142085Y-122160591D01*
X105138000Y-122119110D01*
X105138000Y-121517890D01*
X105142085Y-121476409D01*
X105152393Y-121442431D01*
X105169133Y-121411113D01*
X105191661Y-121383661D01*
X105219113Y-121361133D01*
X105250431Y-121344393D01*
X105284409Y-121334085D01*
X105325890Y-121330000D01*
X106002110Y-121330000D01*
X106043591Y-121334085D01*
X106043591Y-121334085D01*
G37*
G36*
X107567591Y-121334085D02*
X107601569Y-121344393D01*
X107632887Y-121361133D01*
X107660339Y-121383661D01*
X107682867Y-121411113D01*
X107699607Y-121442431D01*
X107709915Y-121476409D01*
X107714000Y-121517890D01*
X107714000Y-122119110D01*
X107709915Y-122160591D01*
X107699607Y-122194569D01*
X107682867Y-122225887D01*
X107660339Y-122253339D01*
X107632887Y-122275867D01*
X107601569Y-122292607D01*
X107567591Y-122302915D01*
X107526110Y-122307000D01*
X106849890Y-122307000D01*
X106808409Y-122302915D01*
X106774431Y-122292607D01*
X106743113Y-122275867D01*
X106715661Y-122253339D01*
X106693133Y-122225887D01*
X106676393Y-122194569D01*
X106666085Y-122160591D01*
X106662000Y-122119110D01*
X106662000Y-121517890D01*
X106666085Y-121476409D01*
X106676393Y-121442431D01*
X106693133Y-121411113D01*
X106715661Y-121383661D01*
X106743113Y-121361133D01*
X106774431Y-121344393D01*
X106808409Y-121334085D01*
X106849890Y-121330000D01*
X107526110Y-121330000D01*
X107567591Y-121334085D01*
X107567591Y-121334085D01*
G37*
G36*
X112647591Y-120140085D02*
X112681569Y-120150393D01*
X112712887Y-120167133D01*
X112740339Y-120189661D01*
X112762867Y-120217113D01*
X112779607Y-120248431D01*
X112789915Y-120282409D01*
X112794000Y-120323890D01*
X112794000Y-120925110D01*
X112789915Y-120966591D01*
X112779607Y-121000569D01*
X112762867Y-121031887D01*
X112740339Y-121059339D01*
X112712887Y-121081867D01*
X112681569Y-121098607D01*
X112647591Y-121108915D01*
X112606110Y-121113000D01*
X111929890Y-121113000D01*
X111888409Y-121108915D01*
X111854431Y-121098607D01*
X111823113Y-121081867D01*
X111795661Y-121059339D01*
X111773133Y-121031887D01*
X111756393Y-121000569D01*
X111746085Y-120966591D01*
X111742000Y-120925110D01*
X111742000Y-120323890D01*
X111746085Y-120282409D01*
X111756393Y-120248431D01*
X111773133Y-120217113D01*
X111795661Y-120189661D01*
X111823113Y-120167133D01*
X111854431Y-120150393D01*
X111888409Y-120140085D01*
X111929890Y-120136000D01*
X112606110Y-120136000D01*
X112647591Y-120140085D01*
X112647591Y-120140085D01*
G37*
G36*
X110107591Y-120140085D02*
X110141569Y-120150393D01*
X110172887Y-120167133D01*
X110200339Y-120189661D01*
X110222867Y-120217113D01*
X110239607Y-120248431D01*
X110249915Y-120282409D01*
X110254000Y-120323890D01*
X110254000Y-120925110D01*
X110249915Y-120966591D01*
X110239607Y-121000569D01*
X110222867Y-121031887D01*
X110200339Y-121059339D01*
X110172887Y-121081867D01*
X110141569Y-121098607D01*
X110107591Y-121108915D01*
X110066110Y-121113000D01*
X109389890Y-121113000D01*
X109348409Y-121108915D01*
X109314431Y-121098607D01*
X109283113Y-121081867D01*
X109255661Y-121059339D01*
X109233133Y-121031887D01*
X109216393Y-121000569D01*
X109206085Y-120966591D01*
X109202000Y-120925110D01*
X109202000Y-120323890D01*
X109206085Y-120282409D01*
X109216393Y-120248431D01*
X109233133Y-120217113D01*
X109255661Y-120189661D01*
X109283113Y-120167133D01*
X109314431Y-120150393D01*
X109348409Y-120140085D01*
X109389890Y-120136000D01*
X110066110Y-120136000D01*
X110107591Y-120140085D01*
X110107591Y-120140085D01*
G37*
G36*
X107567591Y-119759085D02*
X107601569Y-119769393D01*
X107632887Y-119786133D01*
X107660339Y-119808661D01*
X107682867Y-119836113D01*
X107699607Y-119867431D01*
X107709915Y-119901409D01*
X107714000Y-119942890D01*
X107714000Y-120544110D01*
X107709915Y-120585591D01*
X107699607Y-120619569D01*
X107682867Y-120650887D01*
X107660339Y-120678339D01*
X107632887Y-120700867D01*
X107601569Y-120717607D01*
X107567591Y-120727915D01*
X107526110Y-120732000D01*
X106849890Y-120732000D01*
X106808409Y-120727915D01*
X106774431Y-120717607D01*
X106743113Y-120700867D01*
X106715661Y-120678339D01*
X106693133Y-120650887D01*
X106676393Y-120619569D01*
X106666085Y-120585591D01*
X106662000Y-120544110D01*
X106662000Y-119942890D01*
X106666085Y-119901409D01*
X106676393Y-119867431D01*
X106693133Y-119836113D01*
X106715661Y-119808661D01*
X106743113Y-119786133D01*
X106774431Y-119769393D01*
X106808409Y-119759085D01*
X106849890Y-119755000D01*
X107526110Y-119755000D01*
X107567591Y-119759085D01*
X107567591Y-119759085D01*
G37*
G36*
X106043591Y-119759085D02*
X106077569Y-119769393D01*
X106108887Y-119786133D01*
X106136339Y-119808661D01*
X106158867Y-119836113D01*
X106175607Y-119867431D01*
X106185915Y-119901409D01*
X106190000Y-119942890D01*
X106190000Y-120544110D01*
X106185915Y-120585591D01*
X106175607Y-120619569D01*
X106158867Y-120650887D01*
X106136339Y-120678339D01*
X106108887Y-120700867D01*
X106077569Y-120717607D01*
X106043591Y-120727915D01*
X106002110Y-120732000D01*
X105325890Y-120732000D01*
X105284409Y-120727915D01*
X105250431Y-120717607D01*
X105219113Y-120700867D01*
X105191661Y-120678339D01*
X105169133Y-120650887D01*
X105152393Y-120619569D01*
X105142085Y-120585591D01*
X105138000Y-120544110D01*
X105138000Y-119942890D01*
X105142085Y-119901409D01*
X105152393Y-119867431D01*
X105169133Y-119836113D01*
X105191661Y-119808661D01*
X105219113Y-119786133D01*
X105250431Y-119769393D01*
X105284409Y-119759085D01*
X105325890Y-119755000D01*
X106002110Y-119755000D01*
X106043591Y-119759085D01*
X106043591Y-119759085D01*
G37*
G36*
X109790591Y-109968085D02*
X109824569Y-109978393D01*
X109855887Y-109995133D01*
X109883339Y-110017661D01*
X109905867Y-110045113D01*
X109922607Y-110076431D01*
X109932915Y-110110409D01*
X109937000Y-110151890D01*
X109937000Y-110828110D01*
X109932915Y-110869591D01*
X109922607Y-110903569D01*
X109905867Y-110934887D01*
X109883339Y-110962339D01*
X109855887Y-110984867D01*
X109824569Y-111001607D01*
X109790591Y-111011915D01*
X109749110Y-111016000D01*
X109147890Y-111016000D01*
X109106409Y-111011915D01*
X109072431Y-111001607D01*
X109041113Y-110984867D01*
X109013661Y-110962339D01*
X108991133Y-110934887D01*
X108974393Y-110903569D01*
X108964085Y-110869591D01*
X108960000Y-110828110D01*
X108960000Y-110151890D01*
X108964085Y-110110409D01*
X108974393Y-110076431D01*
X108991133Y-110045113D01*
X109013661Y-110017661D01*
X109041113Y-109995133D01*
X109072431Y-109978393D01*
X109106409Y-109968085D01*
X109147890Y-109964000D01*
X109749110Y-109964000D01*
X109790591Y-109968085D01*
X109790591Y-109968085D01*
G37*
G36*
X111365591Y-109968085D02*
X111399569Y-109978393D01*
X111430887Y-109995133D01*
X111458339Y-110017661D01*
X111480867Y-110045113D01*
X111497607Y-110076431D01*
X111507915Y-110110409D01*
X111512000Y-110151890D01*
X111512000Y-110828110D01*
X111507915Y-110869591D01*
X111497607Y-110903569D01*
X111480867Y-110934887D01*
X111458339Y-110962339D01*
X111430887Y-110984867D01*
X111399569Y-111001607D01*
X111365591Y-111011915D01*
X111324110Y-111016000D01*
X110722890Y-111016000D01*
X110681409Y-111011915D01*
X110647431Y-111001607D01*
X110616113Y-110984867D01*
X110588661Y-110962339D01*
X110566133Y-110934887D01*
X110549393Y-110903569D01*
X110539085Y-110869591D01*
X110535000Y-110828110D01*
X110535000Y-110151890D01*
X110539085Y-110110409D01*
X110549393Y-110076431D01*
X110566133Y-110045113D01*
X110588661Y-110017661D01*
X110616113Y-109995133D01*
X110647431Y-109978393D01*
X110681409Y-109968085D01*
X110722890Y-109964000D01*
X111324110Y-109964000D01*
X111365591Y-109968085D01*
X111365591Y-109968085D01*
G37*
G36*
X111365591Y-108190085D02*
X111399569Y-108200393D01*
X111430887Y-108217133D01*
X111458339Y-108239661D01*
X111480867Y-108267113D01*
X111497607Y-108298431D01*
X111507915Y-108332409D01*
X111512000Y-108373890D01*
X111512000Y-109050110D01*
X111507915Y-109091591D01*
X111497607Y-109125569D01*
X111480867Y-109156887D01*
X111458339Y-109184339D01*
X111430887Y-109206867D01*
X111399569Y-109223607D01*
X111365591Y-109233915D01*
X111324110Y-109238000D01*
X110722890Y-109238000D01*
X110681409Y-109233915D01*
X110647431Y-109223607D01*
X110616113Y-109206867D01*
X110588661Y-109184339D01*
X110566133Y-109156887D01*
X110549393Y-109125569D01*
X110539085Y-109091591D01*
X110535000Y-109050110D01*
X110535000Y-108373890D01*
X110539085Y-108332409D01*
X110549393Y-108298431D01*
X110566133Y-108267113D01*
X110588661Y-108239661D01*
X110616113Y-108217133D01*
X110647431Y-108200393D01*
X110681409Y-108190085D01*
X110722890Y-108186000D01*
X111324110Y-108186000D01*
X111365591Y-108190085D01*
X111365591Y-108190085D01*
G37*
G36*
X109790591Y-108190085D02*
X109824569Y-108200393D01*
X109855887Y-108217133D01*
X109883339Y-108239661D01*
X109905867Y-108267113D01*
X109922607Y-108298431D01*
X109932915Y-108332409D01*
X109937000Y-108373890D01*
X109937000Y-109050110D01*
X109932915Y-109091591D01*
X109922607Y-109125569D01*
X109905867Y-109156887D01*
X109883339Y-109184339D01*
X109855887Y-109206867D01*
X109824569Y-109223607D01*
X109790591Y-109233915D01*
X109749110Y-109238000D01*
X109147890Y-109238000D01*
X109106409Y-109233915D01*
X109072431Y-109223607D01*
X109041113Y-109206867D01*
X109013661Y-109184339D01*
X108991133Y-109156887D01*
X108974393Y-109125569D01*
X108964085Y-109091591D01*
X108960000Y-109050110D01*
X108960000Y-108373890D01*
X108964085Y-108332409D01*
X108974393Y-108298431D01*
X108991133Y-108267113D01*
X109013661Y-108239661D01*
X109041113Y-108217133D01*
X109072431Y-108200393D01*
X109106409Y-108190085D01*
X109147890Y-108186000D01*
X109749110Y-108186000D01*
X109790591Y-108190085D01*
X109790591Y-108190085D01*
G37*
G36*
X112026000Y-102347000D02*
X110224000Y-102347000D01*
X110224000Y-100545000D01*
X112026000Y-100545000D01*
X112026000Y-102347000D01*
X112026000Y-102347000D01*
G37*
G36*
X108695443Y-100551519D02*
X108761627Y-100558037D01*
X108874853Y-100592384D01*
X108931467Y-100609557D01*
X109070087Y-100683652D01*
X109087991Y-100693222D01*
X109123729Y-100722552D01*
X109225186Y-100805814D01*
X109308448Y-100907271D01*
X109337778Y-100943009D01*
X109337779Y-100943011D01*
X109421443Y-101099533D01*
X109421443Y-101099534D01*
X109472963Y-101269373D01*
X109490359Y-101446000D01*
X109472963Y-101622627D01*
X109438616Y-101735853D01*
X109421443Y-101792467D01*
X109347348Y-101931087D01*
X109337778Y-101948991D01*
X109308448Y-101984729D01*
X109225186Y-102086186D01*
X109123729Y-102169448D01*
X109087991Y-102198778D01*
X109087989Y-102198779D01*
X108931467Y-102282443D01*
X108874853Y-102299616D01*
X108761627Y-102333963D01*
X108695443Y-102340481D01*
X108629260Y-102347000D01*
X108540740Y-102347000D01*
X108474558Y-102340482D01*
X108408373Y-102333963D01*
X108295147Y-102299616D01*
X108238533Y-102282443D01*
X108082011Y-102198779D01*
X108082009Y-102198778D01*
X108046271Y-102169448D01*
X107944814Y-102086186D01*
X107861552Y-101984729D01*
X107832222Y-101948991D01*
X107822652Y-101931087D01*
X107748557Y-101792467D01*
X107731384Y-101735853D01*
X107697037Y-101622627D01*
X107679641Y-101446000D01*
X107697037Y-101269373D01*
X107748557Y-101099534D01*
X107748557Y-101099533D01*
X107832221Y-100943011D01*
X107832222Y-100943009D01*
X107861552Y-100907271D01*
X107944814Y-100805814D01*
X108046271Y-100722552D01*
X108082009Y-100693222D01*
X108099913Y-100683652D01*
X108238533Y-100609557D01*
X108295147Y-100592384D01*
X108408373Y-100558037D01*
X108474557Y-100551519D01*
X108540740Y-100545000D01*
X108629260Y-100545000D01*
X108695443Y-100551519D01*
X108695443Y-100551519D01*
G37*
G36*
X106155443Y-100551519D02*
X106221627Y-100558037D01*
X106334853Y-100592384D01*
X106391467Y-100609557D01*
X106530087Y-100683652D01*
X106547991Y-100693222D01*
X106583729Y-100722552D01*
X106685186Y-100805814D01*
X106768448Y-100907271D01*
X106797778Y-100943009D01*
X106797779Y-100943011D01*
X106881443Y-101099533D01*
X106881443Y-101099534D01*
X106932963Y-101269373D01*
X106950359Y-101446000D01*
X106932963Y-101622627D01*
X106898616Y-101735853D01*
X106881443Y-101792467D01*
X106807348Y-101931087D01*
X106797778Y-101948991D01*
X106768448Y-101984729D01*
X106685186Y-102086186D01*
X106583729Y-102169448D01*
X106547991Y-102198778D01*
X106547989Y-102198779D01*
X106391467Y-102282443D01*
X106334853Y-102299616D01*
X106221627Y-102333963D01*
X106155443Y-102340481D01*
X106089260Y-102347000D01*
X106000740Y-102347000D01*
X105934558Y-102340482D01*
X105868373Y-102333963D01*
X105755147Y-102299616D01*
X105698533Y-102282443D01*
X105542011Y-102198779D01*
X105542009Y-102198778D01*
X105506271Y-102169448D01*
X105404814Y-102086186D01*
X105321552Y-101984729D01*
X105292222Y-101948991D01*
X105282652Y-101931087D01*
X105208557Y-101792467D01*
X105191384Y-101735853D01*
X105157037Y-101622627D01*
X105139641Y-101446000D01*
X105157037Y-101269373D01*
X105208557Y-101099534D01*
X105208557Y-101099533D01*
X105292221Y-100943011D01*
X105292222Y-100943009D01*
X105321552Y-100907271D01*
X105404814Y-100805814D01*
X105506271Y-100722552D01*
X105542009Y-100693222D01*
X105559913Y-100683652D01*
X105698533Y-100609557D01*
X105755147Y-100592384D01*
X105868373Y-100558037D01*
X105934557Y-100551519D01*
X106000740Y-100545000D01*
X106089260Y-100545000D01*
X106155443Y-100551519D01*
X106155443Y-100551519D01*
G37*
G36*
X103615443Y-100551519D02*
X103681627Y-100558037D01*
X103794853Y-100592384D01*
X103851467Y-100609557D01*
X103990087Y-100683652D01*
X104007991Y-100693222D01*
X104043729Y-100722552D01*
X104145186Y-100805814D01*
X104228448Y-100907271D01*
X104257778Y-100943009D01*
X104257779Y-100943011D01*
X104341443Y-101099533D01*
X104341443Y-101099534D01*
X104392963Y-101269373D01*
X104410359Y-101446000D01*
X104392963Y-101622627D01*
X104358616Y-101735853D01*
X104341443Y-101792467D01*
X104267348Y-101931087D01*
X104257778Y-101948991D01*
X104228448Y-101984729D01*
X104145186Y-102086186D01*
X104043729Y-102169448D01*
X104007991Y-102198778D01*
X104007989Y-102198779D01*
X103851467Y-102282443D01*
X103794853Y-102299616D01*
X103681627Y-102333963D01*
X103615443Y-102340481D01*
X103549260Y-102347000D01*
X103460740Y-102347000D01*
X103394558Y-102340482D01*
X103328373Y-102333963D01*
X103215147Y-102299616D01*
X103158533Y-102282443D01*
X103002011Y-102198779D01*
X103002009Y-102198778D01*
X102966271Y-102169448D01*
X102864814Y-102086186D01*
X102781552Y-101984729D01*
X102752222Y-101948991D01*
X102742652Y-101931087D01*
X102668557Y-101792467D01*
X102651384Y-101735853D01*
X102617037Y-101622627D01*
X102599641Y-101446000D01*
X102617037Y-101269373D01*
X102668557Y-101099534D01*
X102668557Y-101099533D01*
X102752221Y-100943011D01*
X102752222Y-100943009D01*
X102781552Y-100907271D01*
X102864814Y-100805814D01*
X102966271Y-100722552D01*
X103002009Y-100693222D01*
X103019913Y-100683652D01*
X103158533Y-100609557D01*
X103215147Y-100592384D01*
X103328373Y-100558037D01*
X103394557Y-100551519D01*
X103460740Y-100545000D01*
X103549260Y-100545000D01*
X103615443Y-100551519D01*
X103615443Y-100551519D01*
G37*
M02*
