M48
;DRILL file {KiCad (5.0.2)-1} date 07.05.2022 19:17:59
;FORMAT={-:-/ absolute / inch / decimal}
FMAT,2
INCH,TZ
T1C0.0157
T2C0.0362
T3C0.0394
T4C0.0866
%
G90
G05
T1
X3.975Y-4.865
X3.99Y-3.9875
X4.09Y-4.49
X4.1Y-4.74
X4.105Y-4.87
X4.105Y-4.935
X4.125Y-4.52
X4.14Y-4.67
X4.175Y-4.46
X4.189Y-4.855
X4.21Y-4.8802
X4.21Y-4.8802
X4.23Y-4.854
X4.2533Y-4.8802
X4.255Y-4.415
X4.27Y-4.6716
X4.27Y-4.798
X4.2702Y-4.838
X4.271Y-4.7559
X4.2948Y-5.0602
X4.296Y-4.873
X4.3009Y-4.4291
X4.305Y-4.115
X4.305Y-5.195
X4.333Y-4.869
X4.36Y-5.04
X4.365Y-4.46
X4.365Y-4.52
X4.369Y-4.853
X4.37Y-4.811
X4.3715Y-4.762
X4.39Y-4.115
X4.3971Y-4.4885
X4.425Y-4.395
X4.425Y-5.005
X4.43Y-4.705
X4.4642Y-4.8319
X4.4652Y-4.4448
X4.4732Y-4.7936
X4.536Y-4.99
X4.536Y-5.025
X4.536Y-5.06
T2
X4.1244Y-5.3693
X4.2228Y-5.3693
X4.3016Y-5.3693
X4.4Y-5.3693
T3
X4.075Y-3.9939
X4.175Y-3.9939
X4.275Y-3.9939
X4.375Y-3.9939
T4
X4.0319Y-5.4559
X4.4925Y-5.4559
T0
M30
