G04 #@! TF.GenerationSoftware,KiCad,Pcbnew,(5.0.2)-1*
G04 #@! TF.CreationDate,2022-05-07T19:17:55+02:00*
G04 #@! TF.ProjectId,Pendrive_v1,50656e64-7269-4766-955f-76312e6b6963,rev?*
G04 #@! TF.SameCoordinates,Original*
G04 #@! TF.FileFunction,Copper,L1,Top*
G04 #@! TF.FilePolarity,Positive*
%FSLAX46Y46*%
G04 Gerber Fmt 4.6, Leading zero omitted, Abs format (unit mm)*
G04 Created by KiCad (PCBNEW (5.0.2)-1) date 07.05.2022 19:17:55*
%MOMM*%
%LPD*%
G01*
G04 APERTURE LIST*
G04 #@! TA.AperFunction,NonConductor*
%ADD10C,0.250000*%
G04 #@! TD*
G04 #@! TA.AperFunction,SMDPad,CuDef*
%ADD11R,5.650000X5.650000*%
G04 #@! TD*
G04 #@! TA.AperFunction,SMDPad,CuDef*
%ADD12R,0.300000X0.850000*%
G04 #@! TD*
G04 #@! TA.AperFunction,SMDPad,CuDef*
%ADD13R,0.850000X0.300000*%
G04 #@! TD*
G04 #@! TA.AperFunction,ComponentPad*
%ADD14O,1.700000X1.700000*%
G04 #@! TD*
G04 #@! TA.AperFunction,ComponentPad*
%ADD15R,1.700000X1.700000*%
G04 #@! TD*
G04 #@! TA.AperFunction,ComponentPad*
%ADD16C,1.431000*%
G04 #@! TD*
G04 #@! TA.AperFunction,ComponentPad*
%ADD17O,3.500000X4.000000*%
G04 #@! TD*
G04 #@! TA.AperFunction,SMDPad,CuDef*
%ADD18R,1.400000X1.900000*%
G04 #@! TD*
G04 #@! TA.AperFunction,SMDPad,CuDef*
%ADD19R,1.300000X1.400000*%
G04 #@! TD*
G04 #@! TA.AperFunction,SMDPad,CuDef*
%ADD20R,0.800000X1.500000*%
G04 #@! TD*
G04 #@! TA.AperFunction,SMDPad,CuDef*
%ADD21R,0.900000X1.000000*%
G04 #@! TD*
G04 #@! TA.AperFunction,Conductor*
%ADD22C,0.100000*%
G04 #@! TD*
G04 #@! TA.AperFunction,SMDPad,CuDef*
%ADD23C,0.875000*%
G04 #@! TD*
G04 #@! TA.AperFunction,SMDPad,CuDef*
%ADD24R,1.300000X0.950000*%
G04 #@! TD*
G04 #@! TA.AperFunction,SMDPad,CuDef*
%ADD25R,1.300000X3.250000*%
G04 #@! TD*
G04 #@! TA.AperFunction,SMDPad,CuDef*
%ADD26R,1.600000X0.500000*%
G04 #@! TD*
G04 #@! TA.AperFunction,ViaPad*
%ADD27C,0.800000*%
G04 #@! TD*
G04 #@! TA.AperFunction,ViaPad*
%ADD28C,1.200000*%
G04 #@! TD*
G04 #@! TA.AperFunction,Conductor*
%ADD29C,0.250000*%
G04 #@! TD*
G04 #@! TA.AperFunction,Conductor*
%ADD30C,0.350000*%
G04 #@! TD*
G04 #@! TA.AperFunction,Conductor*
%ADD31C,0.400000*%
G04 #@! TD*
G04 #@! TA.AperFunction,Conductor*
%ADD32C,0.300000*%
G04 #@! TD*
G04 #@! TA.AperFunction,Conductor*
%ADD33C,0.500000*%
G04 #@! TD*
G04 #@! TA.AperFunction,Conductor*
%ADD34C,0.600000*%
G04 #@! TD*
G04 APERTURE END LIST*
D10*
X105119047Y-140952380D02*
X105119047Y-139952380D01*
X105690476Y-140952380D02*
X105261904Y-140380952D01*
X105690476Y-139952380D02*
X105119047Y-140523809D01*
X106071428Y-140904761D02*
X106214285Y-140952380D01*
X106452380Y-140952380D01*
X106547619Y-140904761D01*
X106595238Y-140857142D01*
X106642857Y-140761904D01*
X106642857Y-140666666D01*
X106595238Y-140571428D01*
X106547619Y-140523809D01*
X106452380Y-140476190D01*
X106261904Y-140428571D01*
X106166666Y-140380952D01*
X106119047Y-140333333D01*
X106071428Y-140238095D01*
X106071428Y-140142857D01*
X106119047Y-140047619D01*
X106166666Y-140000000D01*
X106261904Y-139952380D01*
X106500000Y-139952380D01*
X106642857Y-140000000D01*
X106833333Y-141047619D02*
X107595238Y-141047619D01*
X108357142Y-140952380D02*
X107785714Y-140952380D01*
X108071428Y-140952380D02*
X108071428Y-139952380D01*
X107976190Y-140095238D01*
X107880952Y-140190476D01*
X107785714Y-140238095D01*
X109404761Y-139952380D02*
X109976190Y-139952380D01*
X109690476Y-140952380D02*
X109690476Y-139952380D01*
X110500000Y-139952380D02*
X110690476Y-139952380D01*
X110785714Y-140000000D01*
X110880952Y-140095238D01*
X110928571Y-140285714D01*
X110928571Y-140619047D01*
X110880952Y-140809523D01*
X110785714Y-140904761D01*
X110690476Y-140952380D01*
X110500000Y-140952380D01*
X110404761Y-140904761D01*
X110309523Y-140809523D01*
X110261904Y-140619047D01*
X110261904Y-140285714D01*
X110309523Y-140095238D01*
X110404761Y-140000000D01*
X110500000Y-139952380D01*
X111357142Y-140952380D02*
X111357142Y-139952380D01*
X111738095Y-139952380D01*
X111833333Y-140000000D01*
X111880952Y-140047619D01*
X111928571Y-140142857D01*
X111928571Y-140285714D01*
X111880952Y-140380952D01*
X111833333Y-140428571D01*
X111738095Y-140476190D01*
X111357142Y-140476190D01*
D11*
G04 #@! TO.P,IC1,49*
G04 #@! TO.N,GND*
X108785000Y-123206000D03*
D12*
G04 #@! TO.P,IC1,48*
G04 #@! TO.N,+3V3*
X106035000Y-119756000D03*
G04 #@! TO.P,IC1,47*
G04 #@! TO.N,GND*
X106535000Y-119756000D03*
G04 #@! TO.P,IC1,46*
G04 #@! TO.N,Net-(IC1-Pad46)*
X107035000Y-119756000D03*
G04 #@! TO.P,IC1,45*
G04 #@! TO.N,Net-(IC1-Pad45)*
X107535000Y-119756000D03*
G04 #@! TO.P,IC1,44*
G04 #@! TO.N,Net-(IC1-Pad44)*
X108035000Y-119756000D03*
G04 #@! TO.P,IC1,43*
G04 #@! TO.N,Net-(IC1-Pad43)*
X108535000Y-119756000D03*
G04 #@! TO.P,IC1,42*
G04 #@! TO.N,Net-(IC1-Pad42)*
X109035000Y-119756000D03*
G04 #@! TO.P,IC1,41*
G04 #@! TO.N,/D3*
X109535000Y-119756000D03*
G04 #@! TO.P,IC1,40*
G04 #@! TO.N,/D0*
X110035000Y-119756000D03*
G04 #@! TO.P,IC1,39*
G04 #@! TO.N,Net-(IC1-Pad39)*
X110535000Y-119756000D03*
G04 #@! TO.P,IC1,38*
G04 #@! TO.N,Net-(IC1-Pad38)*
X111035000Y-119756000D03*
G04 #@! TO.P,IC1,37*
G04 #@! TO.N,/DEB-CLK*
X111535000Y-119756000D03*
D13*
G04 #@! TO.P,IC1,36*
G04 #@! TO.N,+3V3*
X112235000Y-120456000D03*
G04 #@! TO.P,IC1,35*
G04 #@! TO.N,GND*
X112235000Y-120956000D03*
G04 #@! TO.P,IC1,34*
G04 #@! TO.N,/DEB-IO*
X112235000Y-121456000D03*
G04 #@! TO.P,IC1,33*
G04 #@! TO.N,/D+*
X112235000Y-121956000D03*
G04 #@! TO.P,IC1,32*
G04 #@! TO.N,/D-*
X112235000Y-122456000D03*
G04 #@! TO.P,IC1,31*
G04 #@! TO.N,Net-(IC1-Pad31)*
X112235000Y-122956000D03*
G04 #@! TO.P,IC1,30*
G04 #@! TO.N,/D2*
X112235000Y-123456000D03*
G04 #@! TO.P,IC1,29*
G04 #@! TO.N,/D1*
X112235000Y-123956000D03*
G04 #@! TO.P,IC1,28*
G04 #@! TO.N,/CLK*
X112235000Y-124456000D03*
G04 #@! TO.P,IC1,27*
G04 #@! TO.N,Net-(IC1-Pad27)*
X112235000Y-124956000D03*
G04 #@! TO.P,IC1,26*
G04 #@! TO.N,Net-(IC1-Pad26)*
X112235000Y-125456000D03*
G04 #@! TO.P,IC1,25*
G04 #@! TO.N,Net-(IC1-Pad25)*
X112235000Y-125956000D03*
D12*
G04 #@! TO.P,IC1,24*
G04 #@! TO.N,+3V3*
X111535000Y-126656000D03*
G04 #@! TO.P,IC1,23*
G04 #@! TO.N,GND*
X111035000Y-126656000D03*
G04 #@! TO.P,IC1,22*
G04 #@! TO.N,Net-(C12-Pad1)*
X110535000Y-126656000D03*
G04 #@! TO.P,IC1,21*
G04 #@! TO.N,Net-(IC1-Pad21)*
X110035000Y-126656000D03*
G04 #@! TO.P,IC1,20*
G04 #@! TO.N,Net-(IC1-Pad20)*
X109535000Y-126656000D03*
G04 #@! TO.P,IC1,19*
G04 #@! TO.N,Net-(IC1-Pad19)*
X109035000Y-126656000D03*
G04 #@! TO.P,IC1,18*
G04 #@! TO.N,Net-(IC1-Pad18)*
X108535000Y-126656000D03*
G04 #@! TO.P,IC1,17*
G04 #@! TO.N,Net-(IC1-Pad17)*
X108035000Y-126656000D03*
G04 #@! TO.P,IC1,16*
G04 #@! TO.N,/CMD*
X107535000Y-126656000D03*
G04 #@! TO.P,IC1,15*
G04 #@! TO.N,/LD_B*
X107035000Y-126656000D03*
G04 #@! TO.P,IC1,14*
G04 #@! TO.N,/LD_G*
X106535000Y-126656000D03*
G04 #@! TO.P,IC1,13*
G04 #@! TO.N,/LD_R*
X106035000Y-126656000D03*
D13*
G04 #@! TO.P,IC1,12*
G04 #@! TO.N,Net-(IC1-Pad12)*
X105335000Y-125956000D03*
G04 #@! TO.P,IC1,11*
G04 #@! TO.N,Net-(IC1-Pad11)*
X105335000Y-125456000D03*
G04 #@! TO.P,IC1,10*
G04 #@! TO.N,Net-(IC1-Pad10)*
X105335000Y-124956000D03*
G04 #@! TO.P,IC1,9*
G04 #@! TO.N,+3V3*
X105335000Y-124456000D03*
G04 #@! TO.P,IC1,8*
G04 #@! TO.N,GND*
X105335000Y-123956000D03*
G04 #@! TO.P,IC1,7*
G04 #@! TO.N,Net-(C9-Pad1)*
X105335000Y-123456000D03*
G04 #@! TO.P,IC1,6*
G04 #@! TO.N,Net-(C5-Pad1)*
X105335000Y-122956000D03*
G04 #@! TO.P,IC1,5*
G04 #@! TO.N,Net-(C6-Pad1)*
X105335000Y-122456000D03*
G04 #@! TO.P,IC1,4*
G04 #@! TO.N,Net-(IC1-Pad4)*
X105335000Y-121956000D03*
G04 #@! TO.P,IC1,3*
G04 #@! TO.N,Net-(IC1-Pad3)*
X105335000Y-121456000D03*
G04 #@! TO.P,IC1,2*
G04 #@! TO.N,Net-(IC1-Pad2)*
X105335000Y-120956000D03*
G04 #@! TO.P,IC1,1*
G04 #@! TO.N,Net-(IC1-Pad1)*
X105335000Y-120456000D03*
G04 #@! TD*
D14*
G04 #@! TO.P,J3,4*
G04 #@! TO.N,+3V3*
X103505000Y-101446000D03*
G04 #@! TO.P,J3,3*
G04 #@! TO.N,/DEB-IO*
X106045000Y-101446000D03*
G04 #@! TO.P,J3,2*
G04 #@! TO.N,/DEB-CLK*
X108585000Y-101446000D03*
D15*
G04 #@! TO.P,J3,1*
G04 #@! TO.N,GND*
X111125000Y-101446000D03*
G04 #@! TD*
D16*
G04 #@! TO.P,J2,1*
G04 #@! TO.N,+5V*
X111760000Y-136379000D03*
G04 #@! TO.P,J2,2*
G04 #@! TO.N,Net-(J2-Pad2)*
X109260000Y-136379000D03*
G04 #@! TO.P,J2,3*
G04 #@! TO.N,Net-(J2-Pad3)*
X107260000Y-136379000D03*
G04 #@! TO.P,J2,4*
G04 #@! TO.N,GND*
X104760000Y-136379000D03*
D17*
G04 #@! TO.P,J2,MH1*
X102410000Y-138579000D03*
G04 #@! TO.P,J2,MH2*
X114110000Y-138579000D03*
G04 #@! TD*
D18*
G04 #@! TO.P,J1,13*
G04 #@! TO.N,N/C*
X101350000Y-103209000D03*
G04 #@! TO.P,J1,12*
X114500000Y-104209000D03*
D19*
G04 #@! TO.P,J1,11*
X107200000Y-117359000D03*
G04 #@! TO.P,J1,9*
X112900000Y-117359000D03*
D20*
G04 #@! TO.P,J1,8*
G04 #@! TO.N,/D1*
X113710000Y-106499000D03*
G04 #@! TO.P,J1,7*
G04 #@! TO.N,/D0*
X112610000Y-106499000D03*
G04 #@! TO.P,J1,6*
G04 #@! TO.N,GND*
X111510000Y-106299000D03*
G04 #@! TO.P,J1,5*
G04 #@! TO.N,/CLK*
X110410000Y-106499000D03*
G04 #@! TO.P,J1,4*
G04 #@! TO.N,+3V3*
X109310000Y-106299000D03*
G04 #@! TO.P,J1,3*
G04 #@! TO.N,/CMD*
X108210000Y-106499000D03*
G04 #@! TO.P,J1,2*
G04 #@! TO.N,/D3*
X107110000Y-106899000D03*
G04 #@! TO.P,J1,1*
G04 #@! TO.N,/D2*
X106010000Y-106499000D03*
G04 #@! TD*
D21*
G04 #@! TO.P,Y1,1*
G04 #@! TO.N,Net-(C5-Pad1)*
X103048000Y-122618000D03*
G04 #@! TO.P,Y1,2*
G04 #@! TO.N,GND*
X103048000Y-120968000D03*
G04 #@! TO.P,Y1,3*
G04 #@! TO.N,Net-(C6-Pad1)*
X101822000Y-120968000D03*
G04 #@! TO.P,Y1,4*
G04 #@! TO.N,GND*
X101822000Y-122618000D03*
G04 #@! TD*
D22*
G04 #@! TO.N,+5V*
G04 #@! TO.C,C16*
G36*
X106373491Y-130780053D02*
X106394726Y-130783203D01*
X106415550Y-130788419D01*
X106435762Y-130795651D01*
X106455168Y-130804830D01*
X106473581Y-130815866D01*
X106490824Y-130828654D01*
X106506730Y-130843070D01*
X106521146Y-130858976D01*
X106533934Y-130876219D01*
X106544970Y-130894632D01*
X106554149Y-130914038D01*
X106561381Y-130934250D01*
X106566597Y-130955074D01*
X106569747Y-130976309D01*
X106570800Y-130997750D01*
X106570800Y-131435250D01*
X106569747Y-131456691D01*
X106566597Y-131477926D01*
X106561381Y-131498750D01*
X106554149Y-131518962D01*
X106544970Y-131538368D01*
X106533934Y-131556781D01*
X106521146Y-131574024D01*
X106506730Y-131589930D01*
X106490824Y-131604346D01*
X106473581Y-131617134D01*
X106455168Y-131628170D01*
X106435762Y-131637349D01*
X106415550Y-131644581D01*
X106394726Y-131649797D01*
X106373491Y-131652947D01*
X106352050Y-131654000D01*
X105839550Y-131654000D01*
X105818109Y-131652947D01*
X105796874Y-131649797D01*
X105776050Y-131644581D01*
X105755838Y-131637349D01*
X105736432Y-131628170D01*
X105718019Y-131617134D01*
X105700776Y-131604346D01*
X105684870Y-131589930D01*
X105670454Y-131574024D01*
X105657666Y-131556781D01*
X105646630Y-131538368D01*
X105637451Y-131518962D01*
X105630219Y-131498750D01*
X105625003Y-131477926D01*
X105621853Y-131456691D01*
X105620800Y-131435250D01*
X105620800Y-130997750D01*
X105621853Y-130976309D01*
X105625003Y-130955074D01*
X105630219Y-130934250D01*
X105637451Y-130914038D01*
X105646630Y-130894632D01*
X105657666Y-130876219D01*
X105670454Y-130858976D01*
X105684870Y-130843070D01*
X105700776Y-130828654D01*
X105718019Y-130815866D01*
X105736432Y-130804830D01*
X105755838Y-130795651D01*
X105776050Y-130788419D01*
X105796874Y-130783203D01*
X105818109Y-130780053D01*
X105839550Y-130779000D01*
X106352050Y-130779000D01*
X106373491Y-130780053D01*
X106373491Y-130780053D01*
G37*
D23*
G04 #@! TD*
G04 #@! TO.P,C16,2*
G04 #@! TO.N,+5V*
X106095800Y-131216500D03*
D22*
G04 #@! TO.N,GND*
G04 #@! TO.C,C16*
G36*
X106373491Y-129205053D02*
X106394726Y-129208203D01*
X106415550Y-129213419D01*
X106435762Y-129220651D01*
X106455168Y-129229830D01*
X106473581Y-129240866D01*
X106490824Y-129253654D01*
X106506730Y-129268070D01*
X106521146Y-129283976D01*
X106533934Y-129301219D01*
X106544970Y-129319632D01*
X106554149Y-129339038D01*
X106561381Y-129359250D01*
X106566597Y-129380074D01*
X106569747Y-129401309D01*
X106570800Y-129422750D01*
X106570800Y-129860250D01*
X106569747Y-129881691D01*
X106566597Y-129902926D01*
X106561381Y-129923750D01*
X106554149Y-129943962D01*
X106544970Y-129963368D01*
X106533934Y-129981781D01*
X106521146Y-129999024D01*
X106506730Y-130014930D01*
X106490824Y-130029346D01*
X106473581Y-130042134D01*
X106455168Y-130053170D01*
X106435762Y-130062349D01*
X106415550Y-130069581D01*
X106394726Y-130074797D01*
X106373491Y-130077947D01*
X106352050Y-130079000D01*
X105839550Y-130079000D01*
X105818109Y-130077947D01*
X105796874Y-130074797D01*
X105776050Y-130069581D01*
X105755838Y-130062349D01*
X105736432Y-130053170D01*
X105718019Y-130042134D01*
X105700776Y-130029346D01*
X105684870Y-130014930D01*
X105670454Y-129999024D01*
X105657666Y-129981781D01*
X105646630Y-129963368D01*
X105637451Y-129943962D01*
X105630219Y-129923750D01*
X105625003Y-129902926D01*
X105621853Y-129881691D01*
X105620800Y-129860250D01*
X105620800Y-129422750D01*
X105621853Y-129401309D01*
X105625003Y-129380074D01*
X105630219Y-129359250D01*
X105637451Y-129339038D01*
X105646630Y-129319632D01*
X105657666Y-129301219D01*
X105670454Y-129283976D01*
X105684870Y-129268070D01*
X105700776Y-129253654D01*
X105718019Y-129240866D01*
X105736432Y-129229830D01*
X105755838Y-129220651D01*
X105776050Y-129213419D01*
X105796874Y-129208203D01*
X105818109Y-129205053D01*
X105839550Y-129204000D01*
X106352050Y-129204000D01*
X106373491Y-129205053D01*
X106373491Y-129205053D01*
G37*
D23*
G04 #@! TD*
G04 #@! TO.P,C16,1*
G04 #@! TO.N,GND*
X106095800Y-129641500D03*
D22*
G04 #@! TO.N,/LD_R*
G04 #@! TO.C,R1*
G36*
X104421691Y-127161053D02*
X104442926Y-127164203D01*
X104463750Y-127169419D01*
X104483962Y-127176651D01*
X104503368Y-127185830D01*
X104521781Y-127196866D01*
X104539024Y-127209654D01*
X104554930Y-127224070D01*
X104569346Y-127239976D01*
X104582134Y-127257219D01*
X104593170Y-127275632D01*
X104602349Y-127295038D01*
X104609581Y-127315250D01*
X104614797Y-127336074D01*
X104617947Y-127357309D01*
X104619000Y-127378750D01*
X104619000Y-127891250D01*
X104617947Y-127912691D01*
X104614797Y-127933926D01*
X104609581Y-127954750D01*
X104602349Y-127974962D01*
X104593170Y-127994368D01*
X104582134Y-128012781D01*
X104569346Y-128030024D01*
X104554930Y-128045930D01*
X104539024Y-128060346D01*
X104521781Y-128073134D01*
X104503368Y-128084170D01*
X104483962Y-128093349D01*
X104463750Y-128100581D01*
X104442926Y-128105797D01*
X104421691Y-128108947D01*
X104400250Y-128110000D01*
X103962750Y-128110000D01*
X103941309Y-128108947D01*
X103920074Y-128105797D01*
X103899250Y-128100581D01*
X103879038Y-128093349D01*
X103859632Y-128084170D01*
X103841219Y-128073134D01*
X103823976Y-128060346D01*
X103808070Y-128045930D01*
X103793654Y-128030024D01*
X103780866Y-128012781D01*
X103769830Y-127994368D01*
X103760651Y-127974962D01*
X103753419Y-127954750D01*
X103748203Y-127933926D01*
X103745053Y-127912691D01*
X103744000Y-127891250D01*
X103744000Y-127378750D01*
X103745053Y-127357309D01*
X103748203Y-127336074D01*
X103753419Y-127315250D01*
X103760651Y-127295038D01*
X103769830Y-127275632D01*
X103780866Y-127257219D01*
X103793654Y-127239976D01*
X103808070Y-127224070D01*
X103823976Y-127209654D01*
X103841219Y-127196866D01*
X103859632Y-127185830D01*
X103879038Y-127176651D01*
X103899250Y-127169419D01*
X103920074Y-127164203D01*
X103941309Y-127161053D01*
X103962750Y-127160000D01*
X104400250Y-127160000D01*
X104421691Y-127161053D01*
X104421691Y-127161053D01*
G37*
D23*
G04 #@! TD*
G04 #@! TO.P,R1,1*
G04 #@! TO.N,/LD_R*
X104181500Y-127635000D03*
D22*
G04 #@! TO.N,Net-(LED1-Pad1)*
G04 #@! TO.C,R1*
G36*
X102846691Y-127161053D02*
X102867926Y-127164203D01*
X102888750Y-127169419D01*
X102908962Y-127176651D01*
X102928368Y-127185830D01*
X102946781Y-127196866D01*
X102964024Y-127209654D01*
X102979930Y-127224070D01*
X102994346Y-127239976D01*
X103007134Y-127257219D01*
X103018170Y-127275632D01*
X103027349Y-127295038D01*
X103034581Y-127315250D01*
X103039797Y-127336074D01*
X103042947Y-127357309D01*
X103044000Y-127378750D01*
X103044000Y-127891250D01*
X103042947Y-127912691D01*
X103039797Y-127933926D01*
X103034581Y-127954750D01*
X103027349Y-127974962D01*
X103018170Y-127994368D01*
X103007134Y-128012781D01*
X102994346Y-128030024D01*
X102979930Y-128045930D01*
X102964024Y-128060346D01*
X102946781Y-128073134D01*
X102928368Y-128084170D01*
X102908962Y-128093349D01*
X102888750Y-128100581D01*
X102867926Y-128105797D01*
X102846691Y-128108947D01*
X102825250Y-128110000D01*
X102387750Y-128110000D01*
X102366309Y-128108947D01*
X102345074Y-128105797D01*
X102324250Y-128100581D01*
X102304038Y-128093349D01*
X102284632Y-128084170D01*
X102266219Y-128073134D01*
X102248976Y-128060346D01*
X102233070Y-128045930D01*
X102218654Y-128030024D01*
X102205866Y-128012781D01*
X102194830Y-127994368D01*
X102185651Y-127974962D01*
X102178419Y-127954750D01*
X102173203Y-127933926D01*
X102170053Y-127912691D01*
X102169000Y-127891250D01*
X102169000Y-127378750D01*
X102170053Y-127357309D01*
X102173203Y-127336074D01*
X102178419Y-127315250D01*
X102185651Y-127295038D01*
X102194830Y-127275632D01*
X102205866Y-127257219D01*
X102218654Y-127239976D01*
X102233070Y-127224070D01*
X102248976Y-127209654D01*
X102266219Y-127196866D01*
X102284632Y-127185830D01*
X102304038Y-127176651D01*
X102324250Y-127169419D01*
X102345074Y-127164203D01*
X102366309Y-127161053D01*
X102387750Y-127160000D01*
X102825250Y-127160000D01*
X102846691Y-127161053D01*
X102846691Y-127161053D01*
G37*
D23*
G04 #@! TD*
G04 #@! TO.P,R1,2*
G04 #@! TO.N,Net-(LED1-Pad1)*
X102606500Y-127635000D03*
D22*
G04 #@! TO.N,Net-(LED1-Pad2)*
G04 #@! TO.C,R2*
G36*
X102846691Y-128685053D02*
X102867926Y-128688203D01*
X102888750Y-128693419D01*
X102908962Y-128700651D01*
X102928368Y-128709830D01*
X102946781Y-128720866D01*
X102964024Y-128733654D01*
X102979930Y-128748070D01*
X102994346Y-128763976D01*
X103007134Y-128781219D01*
X103018170Y-128799632D01*
X103027349Y-128819038D01*
X103034581Y-128839250D01*
X103039797Y-128860074D01*
X103042947Y-128881309D01*
X103044000Y-128902750D01*
X103044000Y-129415250D01*
X103042947Y-129436691D01*
X103039797Y-129457926D01*
X103034581Y-129478750D01*
X103027349Y-129498962D01*
X103018170Y-129518368D01*
X103007134Y-129536781D01*
X102994346Y-129554024D01*
X102979930Y-129569930D01*
X102964024Y-129584346D01*
X102946781Y-129597134D01*
X102928368Y-129608170D01*
X102908962Y-129617349D01*
X102888750Y-129624581D01*
X102867926Y-129629797D01*
X102846691Y-129632947D01*
X102825250Y-129634000D01*
X102387750Y-129634000D01*
X102366309Y-129632947D01*
X102345074Y-129629797D01*
X102324250Y-129624581D01*
X102304038Y-129617349D01*
X102284632Y-129608170D01*
X102266219Y-129597134D01*
X102248976Y-129584346D01*
X102233070Y-129569930D01*
X102218654Y-129554024D01*
X102205866Y-129536781D01*
X102194830Y-129518368D01*
X102185651Y-129498962D01*
X102178419Y-129478750D01*
X102173203Y-129457926D01*
X102170053Y-129436691D01*
X102169000Y-129415250D01*
X102169000Y-128902750D01*
X102170053Y-128881309D01*
X102173203Y-128860074D01*
X102178419Y-128839250D01*
X102185651Y-128819038D01*
X102194830Y-128799632D01*
X102205866Y-128781219D01*
X102218654Y-128763976D01*
X102233070Y-128748070D01*
X102248976Y-128733654D01*
X102266219Y-128720866D01*
X102284632Y-128709830D01*
X102304038Y-128700651D01*
X102324250Y-128693419D01*
X102345074Y-128688203D01*
X102366309Y-128685053D01*
X102387750Y-128684000D01*
X102825250Y-128684000D01*
X102846691Y-128685053D01*
X102846691Y-128685053D01*
G37*
D23*
G04 #@! TD*
G04 #@! TO.P,R2,2*
G04 #@! TO.N,Net-(LED1-Pad2)*
X102606500Y-129159000D03*
D22*
G04 #@! TO.N,/LD_G*
G04 #@! TO.C,R2*
G36*
X104421691Y-128685053D02*
X104442926Y-128688203D01*
X104463750Y-128693419D01*
X104483962Y-128700651D01*
X104503368Y-128709830D01*
X104521781Y-128720866D01*
X104539024Y-128733654D01*
X104554930Y-128748070D01*
X104569346Y-128763976D01*
X104582134Y-128781219D01*
X104593170Y-128799632D01*
X104602349Y-128819038D01*
X104609581Y-128839250D01*
X104614797Y-128860074D01*
X104617947Y-128881309D01*
X104619000Y-128902750D01*
X104619000Y-129415250D01*
X104617947Y-129436691D01*
X104614797Y-129457926D01*
X104609581Y-129478750D01*
X104602349Y-129498962D01*
X104593170Y-129518368D01*
X104582134Y-129536781D01*
X104569346Y-129554024D01*
X104554930Y-129569930D01*
X104539024Y-129584346D01*
X104521781Y-129597134D01*
X104503368Y-129608170D01*
X104483962Y-129617349D01*
X104463750Y-129624581D01*
X104442926Y-129629797D01*
X104421691Y-129632947D01*
X104400250Y-129634000D01*
X103962750Y-129634000D01*
X103941309Y-129632947D01*
X103920074Y-129629797D01*
X103899250Y-129624581D01*
X103879038Y-129617349D01*
X103859632Y-129608170D01*
X103841219Y-129597134D01*
X103823976Y-129584346D01*
X103808070Y-129569930D01*
X103793654Y-129554024D01*
X103780866Y-129536781D01*
X103769830Y-129518368D01*
X103760651Y-129498962D01*
X103753419Y-129478750D01*
X103748203Y-129457926D01*
X103745053Y-129436691D01*
X103744000Y-129415250D01*
X103744000Y-128902750D01*
X103745053Y-128881309D01*
X103748203Y-128860074D01*
X103753419Y-128839250D01*
X103760651Y-128819038D01*
X103769830Y-128799632D01*
X103780866Y-128781219D01*
X103793654Y-128763976D01*
X103808070Y-128748070D01*
X103823976Y-128733654D01*
X103841219Y-128720866D01*
X103859632Y-128709830D01*
X103879038Y-128700651D01*
X103899250Y-128693419D01*
X103920074Y-128688203D01*
X103941309Y-128685053D01*
X103962750Y-128684000D01*
X104400250Y-128684000D01*
X104421691Y-128685053D01*
X104421691Y-128685053D01*
G37*
D23*
G04 #@! TD*
G04 #@! TO.P,R2,1*
G04 #@! TO.N,/LD_G*
X104181500Y-129159000D03*
D22*
G04 #@! TO.N,/LD_B*
G04 #@! TO.C,R3*
G36*
X104421691Y-130209053D02*
X104442926Y-130212203D01*
X104463750Y-130217419D01*
X104483962Y-130224651D01*
X104503368Y-130233830D01*
X104521781Y-130244866D01*
X104539024Y-130257654D01*
X104554930Y-130272070D01*
X104569346Y-130287976D01*
X104582134Y-130305219D01*
X104593170Y-130323632D01*
X104602349Y-130343038D01*
X104609581Y-130363250D01*
X104614797Y-130384074D01*
X104617947Y-130405309D01*
X104619000Y-130426750D01*
X104619000Y-130939250D01*
X104617947Y-130960691D01*
X104614797Y-130981926D01*
X104609581Y-131002750D01*
X104602349Y-131022962D01*
X104593170Y-131042368D01*
X104582134Y-131060781D01*
X104569346Y-131078024D01*
X104554930Y-131093930D01*
X104539024Y-131108346D01*
X104521781Y-131121134D01*
X104503368Y-131132170D01*
X104483962Y-131141349D01*
X104463750Y-131148581D01*
X104442926Y-131153797D01*
X104421691Y-131156947D01*
X104400250Y-131158000D01*
X103962750Y-131158000D01*
X103941309Y-131156947D01*
X103920074Y-131153797D01*
X103899250Y-131148581D01*
X103879038Y-131141349D01*
X103859632Y-131132170D01*
X103841219Y-131121134D01*
X103823976Y-131108346D01*
X103808070Y-131093930D01*
X103793654Y-131078024D01*
X103780866Y-131060781D01*
X103769830Y-131042368D01*
X103760651Y-131022962D01*
X103753419Y-131002750D01*
X103748203Y-130981926D01*
X103745053Y-130960691D01*
X103744000Y-130939250D01*
X103744000Y-130426750D01*
X103745053Y-130405309D01*
X103748203Y-130384074D01*
X103753419Y-130363250D01*
X103760651Y-130343038D01*
X103769830Y-130323632D01*
X103780866Y-130305219D01*
X103793654Y-130287976D01*
X103808070Y-130272070D01*
X103823976Y-130257654D01*
X103841219Y-130244866D01*
X103859632Y-130233830D01*
X103879038Y-130224651D01*
X103899250Y-130217419D01*
X103920074Y-130212203D01*
X103941309Y-130209053D01*
X103962750Y-130208000D01*
X104400250Y-130208000D01*
X104421691Y-130209053D01*
X104421691Y-130209053D01*
G37*
D23*
G04 #@! TD*
G04 #@! TO.P,R3,1*
G04 #@! TO.N,/LD_B*
X104181500Y-130683000D03*
D22*
G04 #@! TO.N,Net-(LED1-Pad3)*
G04 #@! TO.C,R3*
G36*
X102846691Y-130209053D02*
X102867926Y-130212203D01*
X102888750Y-130217419D01*
X102908962Y-130224651D01*
X102928368Y-130233830D01*
X102946781Y-130244866D01*
X102964024Y-130257654D01*
X102979930Y-130272070D01*
X102994346Y-130287976D01*
X103007134Y-130305219D01*
X103018170Y-130323632D01*
X103027349Y-130343038D01*
X103034581Y-130363250D01*
X103039797Y-130384074D01*
X103042947Y-130405309D01*
X103044000Y-130426750D01*
X103044000Y-130939250D01*
X103042947Y-130960691D01*
X103039797Y-130981926D01*
X103034581Y-131002750D01*
X103027349Y-131022962D01*
X103018170Y-131042368D01*
X103007134Y-131060781D01*
X102994346Y-131078024D01*
X102979930Y-131093930D01*
X102964024Y-131108346D01*
X102946781Y-131121134D01*
X102928368Y-131132170D01*
X102908962Y-131141349D01*
X102888750Y-131148581D01*
X102867926Y-131153797D01*
X102846691Y-131156947D01*
X102825250Y-131158000D01*
X102387750Y-131158000D01*
X102366309Y-131156947D01*
X102345074Y-131153797D01*
X102324250Y-131148581D01*
X102304038Y-131141349D01*
X102284632Y-131132170D01*
X102266219Y-131121134D01*
X102248976Y-131108346D01*
X102233070Y-131093930D01*
X102218654Y-131078024D01*
X102205866Y-131060781D01*
X102194830Y-131042368D01*
X102185651Y-131022962D01*
X102178419Y-131002750D01*
X102173203Y-130981926D01*
X102170053Y-130960691D01*
X102169000Y-130939250D01*
X102169000Y-130426750D01*
X102170053Y-130405309D01*
X102173203Y-130384074D01*
X102178419Y-130363250D01*
X102185651Y-130343038D01*
X102194830Y-130323632D01*
X102205866Y-130305219D01*
X102218654Y-130287976D01*
X102233070Y-130272070D01*
X102248976Y-130257654D01*
X102266219Y-130244866D01*
X102284632Y-130233830D01*
X102304038Y-130224651D01*
X102324250Y-130217419D01*
X102345074Y-130212203D01*
X102366309Y-130209053D01*
X102387750Y-130208000D01*
X102825250Y-130208000D01*
X102846691Y-130209053D01*
X102846691Y-130209053D01*
G37*
D23*
G04 #@! TD*
G04 #@! TO.P,R3,2*
G04 #@! TO.N,Net-(LED1-Pad3)*
X102606500Y-130683000D03*
D24*
G04 #@! TO.P,IC2,1*
G04 #@! TO.N,GND*
X107810000Y-129163000D03*
G04 #@! TO.P,IC2,2*
G04 #@! TO.N,+3V3*
X107810000Y-131453000D03*
G04 #@! TO.P,IC2,3*
G04 #@! TO.N,+5V*
X107810000Y-133743000D03*
D25*
G04 #@! TO.P,IC2,4*
G04 #@! TO.N,+3V3*
X114510000Y-131453000D03*
G04 #@! TD*
D26*
G04 #@! TO.P,LED1,1*
G04 #@! TO.N,Net-(LED1-Pad1)*
X101596000Y-132323000D03*
G04 #@! TO.P,LED1,2*
G04 #@! TO.N,Net-(LED1-Pad2)*
X101596000Y-133223000D03*
G04 #@! TO.P,LED1,3*
G04 #@! TO.N,Net-(LED1-Pad3)*
X101596000Y-134123000D03*
G04 #@! TO.P,LED1,4*
G04 #@! TO.N,+3V3*
X104546000Y-134123000D03*
G04 #@! TO.P,LED1,5*
X104546000Y-133223000D03*
G04 #@! TO.P,LED1,6*
X104546000Y-132323000D03*
G04 #@! TD*
D22*
G04 #@! TO.N,GND*
G04 #@! TO.C,C6*
G36*
X101687691Y-118779053D02*
X101708926Y-118782203D01*
X101729750Y-118787419D01*
X101749962Y-118794651D01*
X101769368Y-118803830D01*
X101787781Y-118814866D01*
X101805024Y-118827654D01*
X101820930Y-118842070D01*
X101835346Y-118857976D01*
X101848134Y-118875219D01*
X101859170Y-118893632D01*
X101868349Y-118913038D01*
X101875581Y-118933250D01*
X101880797Y-118954074D01*
X101883947Y-118975309D01*
X101885000Y-118996750D01*
X101885000Y-119509250D01*
X101883947Y-119530691D01*
X101880797Y-119551926D01*
X101875581Y-119572750D01*
X101868349Y-119592962D01*
X101859170Y-119612368D01*
X101848134Y-119630781D01*
X101835346Y-119648024D01*
X101820930Y-119663930D01*
X101805024Y-119678346D01*
X101787781Y-119691134D01*
X101769368Y-119702170D01*
X101749962Y-119711349D01*
X101729750Y-119718581D01*
X101708926Y-119723797D01*
X101687691Y-119726947D01*
X101666250Y-119728000D01*
X101228750Y-119728000D01*
X101207309Y-119726947D01*
X101186074Y-119723797D01*
X101165250Y-119718581D01*
X101145038Y-119711349D01*
X101125632Y-119702170D01*
X101107219Y-119691134D01*
X101089976Y-119678346D01*
X101074070Y-119663930D01*
X101059654Y-119648024D01*
X101046866Y-119630781D01*
X101035830Y-119612368D01*
X101026651Y-119592962D01*
X101019419Y-119572750D01*
X101014203Y-119551926D01*
X101011053Y-119530691D01*
X101010000Y-119509250D01*
X101010000Y-118996750D01*
X101011053Y-118975309D01*
X101014203Y-118954074D01*
X101019419Y-118933250D01*
X101026651Y-118913038D01*
X101035830Y-118893632D01*
X101046866Y-118875219D01*
X101059654Y-118857976D01*
X101074070Y-118842070D01*
X101089976Y-118827654D01*
X101107219Y-118814866D01*
X101125632Y-118803830D01*
X101145038Y-118794651D01*
X101165250Y-118787419D01*
X101186074Y-118782203D01*
X101207309Y-118779053D01*
X101228750Y-118778000D01*
X101666250Y-118778000D01*
X101687691Y-118779053D01*
X101687691Y-118779053D01*
G37*
D23*
G04 #@! TD*
G04 #@! TO.P,C6,2*
G04 #@! TO.N,GND*
X101447500Y-119253000D03*
D22*
G04 #@! TO.N,Net-(C6-Pad1)*
G04 #@! TO.C,C6*
G36*
X103262691Y-118779053D02*
X103283926Y-118782203D01*
X103304750Y-118787419D01*
X103324962Y-118794651D01*
X103344368Y-118803830D01*
X103362781Y-118814866D01*
X103380024Y-118827654D01*
X103395930Y-118842070D01*
X103410346Y-118857976D01*
X103423134Y-118875219D01*
X103434170Y-118893632D01*
X103443349Y-118913038D01*
X103450581Y-118933250D01*
X103455797Y-118954074D01*
X103458947Y-118975309D01*
X103460000Y-118996750D01*
X103460000Y-119509250D01*
X103458947Y-119530691D01*
X103455797Y-119551926D01*
X103450581Y-119572750D01*
X103443349Y-119592962D01*
X103434170Y-119612368D01*
X103423134Y-119630781D01*
X103410346Y-119648024D01*
X103395930Y-119663930D01*
X103380024Y-119678346D01*
X103362781Y-119691134D01*
X103344368Y-119702170D01*
X103324962Y-119711349D01*
X103304750Y-119718581D01*
X103283926Y-119723797D01*
X103262691Y-119726947D01*
X103241250Y-119728000D01*
X102803750Y-119728000D01*
X102782309Y-119726947D01*
X102761074Y-119723797D01*
X102740250Y-119718581D01*
X102720038Y-119711349D01*
X102700632Y-119702170D01*
X102682219Y-119691134D01*
X102664976Y-119678346D01*
X102649070Y-119663930D01*
X102634654Y-119648024D01*
X102621866Y-119630781D01*
X102610830Y-119612368D01*
X102601651Y-119592962D01*
X102594419Y-119572750D01*
X102589203Y-119551926D01*
X102586053Y-119530691D01*
X102585000Y-119509250D01*
X102585000Y-118996750D01*
X102586053Y-118975309D01*
X102589203Y-118954074D01*
X102594419Y-118933250D01*
X102601651Y-118913038D01*
X102610830Y-118893632D01*
X102621866Y-118875219D01*
X102634654Y-118857976D01*
X102649070Y-118842070D01*
X102664976Y-118827654D01*
X102682219Y-118814866D01*
X102700632Y-118803830D01*
X102720038Y-118794651D01*
X102740250Y-118787419D01*
X102761074Y-118782203D01*
X102782309Y-118779053D01*
X102803750Y-118778000D01*
X103241250Y-118778000D01*
X103262691Y-118779053D01*
X103262691Y-118779053D01*
G37*
D23*
G04 #@! TD*
G04 #@! TO.P,C6,1*
G04 #@! TO.N,Net-(C6-Pad1)*
X103022500Y-119253000D03*
D22*
G04 #@! TO.N,Net-(C5-Pad1)*
G04 #@! TO.C,C5*
G36*
X103262691Y-124129053D02*
X103283926Y-124132203D01*
X103304750Y-124137419D01*
X103324962Y-124144651D01*
X103344368Y-124153830D01*
X103362781Y-124164866D01*
X103380024Y-124177654D01*
X103395930Y-124192070D01*
X103410346Y-124207976D01*
X103423134Y-124225219D01*
X103434170Y-124243632D01*
X103443349Y-124263038D01*
X103450581Y-124283250D01*
X103455797Y-124304074D01*
X103458947Y-124325309D01*
X103460000Y-124346750D01*
X103460000Y-124859250D01*
X103458947Y-124880691D01*
X103455797Y-124901926D01*
X103450581Y-124922750D01*
X103443349Y-124942962D01*
X103434170Y-124962368D01*
X103423134Y-124980781D01*
X103410346Y-124998024D01*
X103395930Y-125013930D01*
X103380024Y-125028346D01*
X103362781Y-125041134D01*
X103344368Y-125052170D01*
X103324962Y-125061349D01*
X103304750Y-125068581D01*
X103283926Y-125073797D01*
X103262691Y-125076947D01*
X103241250Y-125078000D01*
X102803750Y-125078000D01*
X102782309Y-125076947D01*
X102761074Y-125073797D01*
X102740250Y-125068581D01*
X102720038Y-125061349D01*
X102700632Y-125052170D01*
X102682219Y-125041134D01*
X102664976Y-125028346D01*
X102649070Y-125013930D01*
X102634654Y-124998024D01*
X102621866Y-124980781D01*
X102610830Y-124962368D01*
X102601651Y-124942962D01*
X102594419Y-124922750D01*
X102589203Y-124901926D01*
X102586053Y-124880691D01*
X102585000Y-124859250D01*
X102585000Y-124346750D01*
X102586053Y-124325309D01*
X102589203Y-124304074D01*
X102594419Y-124283250D01*
X102601651Y-124263038D01*
X102610830Y-124243632D01*
X102621866Y-124225219D01*
X102634654Y-124207976D01*
X102649070Y-124192070D01*
X102664976Y-124177654D01*
X102682219Y-124164866D01*
X102700632Y-124153830D01*
X102720038Y-124144651D01*
X102740250Y-124137419D01*
X102761074Y-124132203D01*
X102782309Y-124129053D01*
X102803750Y-124128000D01*
X103241250Y-124128000D01*
X103262691Y-124129053D01*
X103262691Y-124129053D01*
G37*
D23*
G04 #@! TD*
G04 #@! TO.P,C5,1*
G04 #@! TO.N,Net-(C5-Pad1)*
X103022500Y-124603000D03*
D22*
G04 #@! TO.N,GND*
G04 #@! TO.C,C5*
G36*
X101687691Y-124129053D02*
X101708926Y-124132203D01*
X101729750Y-124137419D01*
X101749962Y-124144651D01*
X101769368Y-124153830D01*
X101787781Y-124164866D01*
X101805024Y-124177654D01*
X101820930Y-124192070D01*
X101835346Y-124207976D01*
X101848134Y-124225219D01*
X101859170Y-124243632D01*
X101868349Y-124263038D01*
X101875581Y-124283250D01*
X101880797Y-124304074D01*
X101883947Y-124325309D01*
X101885000Y-124346750D01*
X101885000Y-124859250D01*
X101883947Y-124880691D01*
X101880797Y-124901926D01*
X101875581Y-124922750D01*
X101868349Y-124942962D01*
X101859170Y-124962368D01*
X101848134Y-124980781D01*
X101835346Y-124998024D01*
X101820930Y-125013930D01*
X101805024Y-125028346D01*
X101787781Y-125041134D01*
X101769368Y-125052170D01*
X101749962Y-125061349D01*
X101729750Y-125068581D01*
X101708926Y-125073797D01*
X101687691Y-125076947D01*
X101666250Y-125078000D01*
X101228750Y-125078000D01*
X101207309Y-125076947D01*
X101186074Y-125073797D01*
X101165250Y-125068581D01*
X101145038Y-125061349D01*
X101125632Y-125052170D01*
X101107219Y-125041134D01*
X101089976Y-125028346D01*
X101074070Y-125013930D01*
X101059654Y-124998024D01*
X101046866Y-124980781D01*
X101035830Y-124962368D01*
X101026651Y-124942962D01*
X101019419Y-124922750D01*
X101014203Y-124901926D01*
X101011053Y-124880691D01*
X101010000Y-124859250D01*
X101010000Y-124346750D01*
X101011053Y-124325309D01*
X101014203Y-124304074D01*
X101019419Y-124283250D01*
X101026651Y-124263038D01*
X101035830Y-124243632D01*
X101046866Y-124225219D01*
X101059654Y-124207976D01*
X101074070Y-124192070D01*
X101089976Y-124177654D01*
X101107219Y-124164866D01*
X101125632Y-124153830D01*
X101145038Y-124144651D01*
X101165250Y-124137419D01*
X101186074Y-124132203D01*
X101207309Y-124129053D01*
X101228750Y-124128000D01*
X101666250Y-124128000D01*
X101687691Y-124129053D01*
X101687691Y-124129053D01*
G37*
D23*
G04 #@! TD*
G04 #@! TO.P,C5,2*
G04 #@! TO.N,GND*
X101447500Y-124603000D03*
D22*
G04 #@! TO.N,+3V3*
G04 #@! TO.C,C2*
G36*
X103262691Y-125653053D02*
X103283926Y-125656203D01*
X103304750Y-125661419D01*
X103324962Y-125668651D01*
X103344368Y-125677830D01*
X103362781Y-125688866D01*
X103380024Y-125701654D01*
X103395930Y-125716070D01*
X103410346Y-125731976D01*
X103423134Y-125749219D01*
X103434170Y-125767632D01*
X103443349Y-125787038D01*
X103450581Y-125807250D01*
X103455797Y-125828074D01*
X103458947Y-125849309D01*
X103460000Y-125870750D01*
X103460000Y-126383250D01*
X103458947Y-126404691D01*
X103455797Y-126425926D01*
X103450581Y-126446750D01*
X103443349Y-126466962D01*
X103434170Y-126486368D01*
X103423134Y-126504781D01*
X103410346Y-126522024D01*
X103395930Y-126537930D01*
X103380024Y-126552346D01*
X103362781Y-126565134D01*
X103344368Y-126576170D01*
X103324962Y-126585349D01*
X103304750Y-126592581D01*
X103283926Y-126597797D01*
X103262691Y-126600947D01*
X103241250Y-126602000D01*
X102803750Y-126602000D01*
X102782309Y-126600947D01*
X102761074Y-126597797D01*
X102740250Y-126592581D01*
X102720038Y-126585349D01*
X102700632Y-126576170D01*
X102682219Y-126565134D01*
X102664976Y-126552346D01*
X102649070Y-126537930D01*
X102634654Y-126522024D01*
X102621866Y-126504781D01*
X102610830Y-126486368D01*
X102601651Y-126466962D01*
X102594419Y-126446750D01*
X102589203Y-126425926D01*
X102586053Y-126404691D01*
X102585000Y-126383250D01*
X102585000Y-125870750D01*
X102586053Y-125849309D01*
X102589203Y-125828074D01*
X102594419Y-125807250D01*
X102601651Y-125787038D01*
X102610830Y-125767632D01*
X102621866Y-125749219D01*
X102634654Y-125731976D01*
X102649070Y-125716070D01*
X102664976Y-125701654D01*
X102682219Y-125688866D01*
X102700632Y-125677830D01*
X102720038Y-125668651D01*
X102740250Y-125661419D01*
X102761074Y-125656203D01*
X102782309Y-125653053D01*
X102803750Y-125652000D01*
X103241250Y-125652000D01*
X103262691Y-125653053D01*
X103262691Y-125653053D01*
G37*
D23*
G04 #@! TD*
G04 #@! TO.P,C2,1*
G04 #@! TO.N,+3V3*
X103022500Y-126127000D03*
D22*
G04 #@! TO.N,GND*
G04 #@! TO.C,C2*
G36*
X101687691Y-125653053D02*
X101708926Y-125656203D01*
X101729750Y-125661419D01*
X101749962Y-125668651D01*
X101769368Y-125677830D01*
X101787781Y-125688866D01*
X101805024Y-125701654D01*
X101820930Y-125716070D01*
X101835346Y-125731976D01*
X101848134Y-125749219D01*
X101859170Y-125767632D01*
X101868349Y-125787038D01*
X101875581Y-125807250D01*
X101880797Y-125828074D01*
X101883947Y-125849309D01*
X101885000Y-125870750D01*
X101885000Y-126383250D01*
X101883947Y-126404691D01*
X101880797Y-126425926D01*
X101875581Y-126446750D01*
X101868349Y-126466962D01*
X101859170Y-126486368D01*
X101848134Y-126504781D01*
X101835346Y-126522024D01*
X101820930Y-126537930D01*
X101805024Y-126552346D01*
X101787781Y-126565134D01*
X101769368Y-126576170D01*
X101749962Y-126585349D01*
X101729750Y-126592581D01*
X101708926Y-126597797D01*
X101687691Y-126600947D01*
X101666250Y-126602000D01*
X101228750Y-126602000D01*
X101207309Y-126600947D01*
X101186074Y-126597797D01*
X101165250Y-126592581D01*
X101145038Y-126585349D01*
X101125632Y-126576170D01*
X101107219Y-126565134D01*
X101089976Y-126552346D01*
X101074070Y-126537930D01*
X101059654Y-126522024D01*
X101046866Y-126504781D01*
X101035830Y-126486368D01*
X101026651Y-126466962D01*
X101019419Y-126446750D01*
X101014203Y-126425926D01*
X101011053Y-126404691D01*
X101010000Y-126383250D01*
X101010000Y-125870750D01*
X101011053Y-125849309D01*
X101014203Y-125828074D01*
X101019419Y-125807250D01*
X101026651Y-125787038D01*
X101035830Y-125767632D01*
X101046866Y-125749219D01*
X101059654Y-125731976D01*
X101074070Y-125716070D01*
X101089976Y-125701654D01*
X101107219Y-125688866D01*
X101125632Y-125677830D01*
X101145038Y-125668651D01*
X101165250Y-125661419D01*
X101186074Y-125656203D01*
X101207309Y-125653053D01*
X101228750Y-125652000D01*
X101666250Y-125652000D01*
X101687691Y-125653053D01*
X101687691Y-125653053D01*
G37*
D23*
G04 #@! TD*
G04 #@! TO.P,C2,2*
G04 #@! TO.N,GND*
X101447500Y-126127000D03*
D27*
G04 #@! TO.N,Net-(IC1-Pad44)*
X108458000Y-118658000D03*
G04 #@! TO.N,GND*
X109118400Y-123774200D03*
X107442000Y-123291600D03*
X106400600Y-123317000D03*
X110058200Y-123672600D03*
X110972600Y-123266200D03*
X108458000Y-121869200D03*
X108483400Y-120800000D03*
X110998000Y-122199400D03*
X111506000Y-104521000D03*
X109088347Y-128528653D03*
X104140000Y-120396000D03*
X111035000Y-120956000D03*
X106934000Y-123956000D03*
X106934000Y-123956000D03*
X108035000Y-123956000D03*
X108464200Y-122885200D03*
D28*
X101346000Y-101282500D03*
D27*
X100965000Y-123571000D03*
G04 #@! TO.N,/D-*
X113390000Y-122731000D03*
G04 #@! TO.N,/D+*
X113619712Y-121757741D03*
G04 #@! TO.N,+3V3*
X109347000Y-104521000D03*
X112395000Y-127127000D03*
X104267000Y-125349000D03*
X105156000Y-118618000D03*
X112522000Y-119507000D03*
X109347000Y-131953000D03*
X115214000Y-128524000D03*
X115214000Y-127635000D03*
X115214000Y-126746000D03*
G04 #@! TO.N,/CMD*
X108077000Y-112141000D03*
X112395000Y-111633000D03*
G04 #@! TO.N,/CLK*
X113415653Y-112898347D03*
X109243652Y-112498348D03*
G04 #@! TO.N,/D2*
X106045000Y-113284000D03*
X110871000Y-113284000D03*
G04 #@! TO.N,/DEB-IO*
X111687130Y-114009000D03*
X103886000Y-114046000D03*
G04 #@! TO.N,/DEB-CLK*
X110871000Y-114808000D03*
X104775000Y-114808000D03*
G04 #@! TO.N,Net-(C9-Pad1)*
X104267000Y-123698000D03*
G04 #@! TO.N,Net-(C12-Pad1)*
X110744000Y-128016000D03*
G04 #@! TD*
D29*
G04 #@! TO.N,Net-(IC1-Pad44)*
X108035000Y-119081000D02*
X108458000Y-118658000D01*
X108035000Y-119756000D02*
X108035000Y-119081000D01*
D30*
G04 #@! TO.N,GND*
X111510000Y-105199000D02*
X111506000Y-105195000D01*
D31*
X111510000Y-106299000D02*
X111510000Y-105199000D01*
X111506000Y-105195000D02*
X111506000Y-104521000D01*
D32*
X108035000Y-123956000D02*
X108035000Y-123956000D01*
X105335000Y-123956000D02*
X108035000Y-123956000D01*
X106535000Y-119756000D02*
X106535000Y-120956000D01*
X111035000Y-120956000D02*
X111035000Y-120956000D01*
X112235000Y-120956000D02*
X111035000Y-120956000D01*
D29*
X101447500Y-126127000D02*
X101447500Y-124603000D01*
X101447500Y-124603000D02*
X100965000Y-124120500D01*
X100965000Y-119735500D02*
X101447500Y-119253000D01*
X100965000Y-124120500D02*
X100965000Y-123571000D01*
X100965000Y-122555000D02*
X100965000Y-119735500D01*
X103248000Y-120918000D02*
X103248000Y-120968000D01*
X101059000Y-122555000D02*
X100965000Y-122555000D01*
X101122000Y-122618000D02*
X101059000Y-122555000D01*
X101822000Y-122618000D02*
X101122000Y-122618000D01*
D31*
X111506000Y-101827000D02*
X111125000Y-101446000D01*
D33*
X111506000Y-104521000D02*
X111506000Y-101827000D01*
D31*
X106095800Y-129641500D02*
X106578300Y-129159000D01*
X106582300Y-129163000D02*
X107810000Y-129163000D01*
X106578300Y-129159000D02*
X106582300Y-129163000D01*
X108860000Y-129163000D02*
X109093000Y-128930000D01*
X107810000Y-129163000D02*
X108860000Y-129163000D01*
X109093000Y-128524000D02*
X109088347Y-128528653D01*
X109093000Y-128930000D02*
X109088347Y-128528653D01*
D29*
X104140000Y-120968000D02*
X103048000Y-120968000D01*
X103759000Y-118237000D02*
X104140000Y-118618000D01*
X101447500Y-119253000D02*
X102463500Y-118237000D01*
X102463500Y-118237000D02*
X103759000Y-118237000D01*
X104140000Y-120396000D02*
X104140000Y-120968000D01*
X104140000Y-118618000D02*
X104140000Y-120396000D01*
D32*
X111035000Y-126656000D02*
X111035000Y-125456000D01*
X111035000Y-120956000D02*
X108785000Y-123206000D01*
X108035000Y-123956000D02*
X108785000Y-123206000D01*
X108464200Y-122885200D02*
X108785000Y-123206000D01*
D29*
X100965000Y-123571000D02*
X100965000Y-122555000D01*
G04 #@! TO.N,/D-*
X112235000Y-122456000D02*
X112910000Y-122456000D01*
X113390000Y-122936000D02*
X113390000Y-122731000D01*
X112910000Y-122456000D02*
X113390000Y-122731000D01*
G04 #@! TO.N,/D+*
X112235000Y-121956000D02*
X113375000Y-121956000D01*
X113573259Y-121757741D02*
X113619712Y-121757741D01*
X113538000Y-121793000D02*
X113573259Y-121757741D01*
X113375000Y-121956000D02*
X113619712Y-121757741D01*
D31*
G04 #@! TO.N,+5V*
X106095800Y-132028800D02*
X106095800Y-131216500D01*
X107810000Y-133743000D02*
X106095800Y-132028800D01*
D33*
X108960000Y-133743000D02*
X107810000Y-133743000D01*
X110135869Y-133743000D02*
X108960000Y-133743000D01*
X111760000Y-135367131D02*
X110135869Y-133743000D01*
X111760000Y-136379000D02*
X111760000Y-135367131D01*
D30*
G04 #@! TO.N,+3V3*
X109310000Y-106299000D02*
X109310000Y-104558000D01*
X109310000Y-104558000D02*
X109347000Y-104521000D01*
D29*
X112006000Y-127127000D02*
X111535000Y-126656000D01*
X112395000Y-127127000D02*
X112006000Y-127127000D01*
X104267000Y-125857000D02*
X103997000Y-126127000D01*
X105335000Y-124456000D02*
X104660000Y-124456000D01*
X104660000Y-124456000D02*
X104267000Y-124849000D01*
X103769010Y-126137010D02*
X103759000Y-126127000D01*
X103759000Y-126127000D02*
X103022500Y-126127000D01*
X103997000Y-126127000D02*
X103759000Y-126127000D01*
X104267000Y-125349000D02*
X104267000Y-125857000D01*
X104267000Y-124849000D02*
X104267000Y-125349000D01*
X105156000Y-118618000D02*
X105791000Y-118618000D01*
X106035000Y-118862000D02*
X106035000Y-119756000D01*
X105791000Y-118618000D02*
X106035000Y-118862000D01*
X105614316Y-130453990D02*
X105079800Y-130988506D01*
X107535990Y-130453990D02*
X105614316Y-130453990D01*
X107810000Y-131453000D02*
X107810000Y-130728000D01*
X107810000Y-130728000D02*
X107535990Y-130453990D01*
X105079800Y-130988506D02*
X105079800Y-131445000D01*
X105079800Y-131445000D02*
X105041790Y-131483010D01*
X104546400Y-131822600D02*
X104546400Y-131483010D01*
X104546000Y-131823000D02*
X104546400Y-131822600D01*
X104546000Y-132323000D02*
X104546000Y-131823000D01*
X105041790Y-131483010D02*
X104546400Y-131483010D01*
X104546000Y-134123000D02*
X104546000Y-133223000D01*
X104546000Y-133223000D02*
X104546000Y-132323000D01*
X103997000Y-126508000D02*
X103997000Y-126127000D01*
X103369010Y-127135990D02*
X103997000Y-126508000D01*
X103369010Y-131114504D02*
X103369010Y-127135990D01*
X104546400Y-131483010D02*
X103737516Y-131483010D01*
X103737516Y-131483010D02*
X103369010Y-131114504D01*
X112235000Y-120456000D02*
X112235000Y-119794000D01*
X112235000Y-119794000D02*
X112522000Y-119507000D01*
D33*
X107810000Y-131453000D02*
X108960000Y-131453000D01*
D31*
X109347000Y-131953000D02*
X109347000Y-131453000D01*
D33*
X108960000Y-131453000D02*
X109347000Y-131453000D01*
X109347000Y-131453000D02*
X114510000Y-131453000D01*
D34*
X114510000Y-129228000D02*
X115214000Y-128524000D01*
X114510000Y-131453000D02*
X114510000Y-129228000D01*
X115214000Y-128524000D02*
X115214000Y-127635000D01*
X115214000Y-127635000D02*
X115214000Y-126746000D01*
D29*
G04 #@! TO.N,/CMD*
X108077000Y-112141000D02*
X108077000Y-111887000D01*
X108210000Y-111754000D02*
X108210000Y-106499000D01*
X108077000Y-111887000D02*
X108210000Y-111754000D01*
X107535000Y-127331000D02*
X107839000Y-127635000D01*
X110363000Y-128778000D02*
X112141000Y-128778000D01*
X109220000Y-127635000D02*
X110363000Y-128778000D01*
X107839000Y-127635000D02*
X109220000Y-127635000D01*
X107535000Y-126656000D02*
X107535000Y-127331000D01*
X112960685Y-111633000D02*
X112395000Y-111633000D01*
X113214685Y-111633000D02*
X112960685Y-111633000D01*
X115697000Y-125222000D02*
X115697000Y-114115315D01*
X115697000Y-114115315D02*
X113214685Y-111633000D01*
X112141000Y-128778000D02*
X115697000Y-125222000D01*
G04 #@! TO.N,/CLK*
X112910000Y-124456000D02*
X112914000Y-124460000D01*
X112235000Y-124456000D02*
X112910000Y-124456000D01*
X112914000Y-124460000D02*
X115246990Y-124460000D01*
X115246990Y-124460000D02*
X115246990Y-118929990D01*
X115246990Y-118929990D02*
X115246989Y-115118579D01*
X115246989Y-115118579D02*
X113411000Y-113282590D01*
X113411000Y-113282590D02*
X113411000Y-113030000D01*
X113411000Y-113030000D02*
X113411000Y-112903000D01*
X113411000Y-112903000D02*
X113415653Y-112898347D01*
X110410000Y-109173000D02*
X110410000Y-106499000D01*
X109243652Y-112498348D02*
X109243652Y-110339348D01*
X109243652Y-110339348D02*
X110410000Y-109173000D01*
G04 #@! TO.N,/D1*
X114796980Y-123956000D02*
X112235000Y-123956000D01*
X114796980Y-115304980D02*
X114796980Y-123956000D01*
X111379000Y-111887000D02*
X114796980Y-115304980D01*
X111379000Y-110237410D02*
X111379000Y-111887000D01*
X113710000Y-106499000D02*
X113710000Y-107906410D01*
X113710000Y-107906410D02*
X111379000Y-110237410D01*
G04 #@! TO.N,/D2*
X106045000Y-106534000D02*
X106010000Y-106499000D01*
X106045000Y-113284000D02*
X106045000Y-106534000D01*
X114346970Y-123456000D02*
X112235000Y-123456000D01*
X114346970Y-115616970D02*
X114346970Y-123456000D01*
X111730000Y-113000000D02*
X114346970Y-115616970D01*
X110871000Y-113284000D02*
X111155000Y-113000000D01*
X111155000Y-113000000D02*
X111730000Y-113000000D01*
G04 #@! TO.N,/D0*
X112610000Y-108370000D02*
X112610000Y-106499000D01*
X110109000Y-110871000D02*
X112610000Y-108370000D01*
X110109000Y-119007000D02*
X110109000Y-110871000D01*
X110035000Y-119756000D02*
X110035000Y-119081000D01*
X110035000Y-119081000D02*
X110109000Y-119007000D01*
G04 #@! TO.N,/D3*
X107110000Y-113142500D02*
X107110000Y-106899000D01*
X107505500Y-113538000D02*
X107110000Y-113142500D01*
X109093000Y-113538000D02*
X107505500Y-113538000D01*
X109535000Y-119756000D02*
X109535000Y-113980000D01*
X109535000Y-113980000D02*
X109093000Y-113538000D01*
G04 #@! TO.N,Net-(LED1-Pad1)*
X101193600Y-131920600D02*
X101596000Y-132323000D01*
X101193600Y-128510400D02*
X101193600Y-131920600D01*
X102606500Y-127635000D02*
X102069000Y-127635000D01*
X102069000Y-127635000D02*
X101193600Y-128510400D01*
G04 #@! TO.N,Net-(LED1-Pad2)*
X101596000Y-133223000D02*
X102646000Y-133223000D01*
X102646000Y-133223000D02*
X102721001Y-133147999D01*
X102721001Y-133147999D02*
X102721001Y-131927801D01*
X102721001Y-131927801D02*
X102492200Y-131699000D01*
X102492200Y-131699000D02*
X101704800Y-131699000D01*
X101704800Y-129523200D02*
X101704800Y-131699000D01*
X102069000Y-129159000D02*
X101704800Y-129523200D01*
X102606500Y-129159000D02*
X102069000Y-129159000D01*
G04 #@! TO.N,Net-(LED1-Pad3)*
X101596000Y-134123000D02*
X102659000Y-134123000D01*
X102606500Y-130988404D02*
X103200200Y-131582104D01*
X102606500Y-130683000D02*
X102606500Y-130988404D01*
X103200200Y-133581800D02*
X102659000Y-134123000D01*
X103200200Y-131582104D02*
X103200200Y-133581800D01*
G04 #@! TO.N,Net-(C6-Pad1)*
X101822000Y-121507000D02*
X101822000Y-120968000D01*
X102108000Y-121793000D02*
X101822000Y-121507000D01*
X103997000Y-121793000D02*
X102108000Y-121793000D01*
X105335000Y-122456000D02*
X104660000Y-122456000D01*
X104660000Y-122456000D02*
X103997000Y-121793000D01*
X103022500Y-119354500D02*
X103022500Y-119253000D01*
X101822000Y-120968000D02*
X101822000Y-120555000D01*
X101822000Y-120555000D02*
X103022500Y-119354500D01*
G04 #@! TO.N,Net-(C5-Pad1)*
X103386000Y-122956000D02*
X103048000Y-122618000D01*
X105335000Y-122956000D02*
X103386000Y-122956000D01*
X103022500Y-124603000D02*
X103022500Y-123342500D01*
X103048000Y-123317000D02*
X103048000Y-122618000D01*
X103022500Y-123342500D02*
X103048000Y-123317000D01*
G04 #@! TO.N,/DEB-IO*
X112910000Y-121456000D02*
X112235000Y-121456000D01*
X113030000Y-121336000D02*
X112910000Y-121456000D01*
X113284000Y-121031000D02*
X113030000Y-121285000D01*
X113665000Y-121031000D02*
X113284000Y-121031000D01*
X113896960Y-120799040D02*
X113665000Y-121031000D01*
X113896960Y-116078000D02*
X113896960Y-120799040D01*
X113030000Y-121285000D02*
X113030000Y-121336000D01*
X113896960Y-116078000D02*
X113896960Y-116055960D01*
X111687130Y-113991870D02*
X111687130Y-114009000D01*
X111760000Y-113919000D02*
X111687130Y-113991870D01*
X113896960Y-116055960D02*
X111687130Y-114009000D01*
X106045000Y-102870000D02*
X106045000Y-101446000D01*
X103886000Y-105029000D02*
X106045000Y-102870000D01*
X103886000Y-114046000D02*
X103886000Y-105029000D01*
G04 #@! TO.N,/DEB-CLK*
X111535000Y-119081000D02*
X110871000Y-118417000D01*
X111535000Y-119756000D02*
X111535000Y-119081000D01*
X110871000Y-118417000D02*
X110871000Y-114808000D01*
X104875000Y-105156000D02*
X108585000Y-101446000D01*
X104775000Y-114808000D02*
X104775000Y-105156000D01*
X104775000Y-105156000D02*
X104875000Y-105156000D01*
G04 #@! TO.N,Net-(C9-Pad1)*
X104509000Y-123456000D02*
X104267000Y-123698000D01*
X105335000Y-123456000D02*
X104509000Y-123456000D01*
G04 #@! TO.N,Net-(C12-Pad1)*
X110535000Y-127807000D02*
X110744000Y-128016000D01*
X110535000Y-126656000D02*
X110535000Y-127807000D01*
G04 #@! TO.N,/LD_R*
X105160500Y-126656000D02*
X104181500Y-127635000D01*
X106035000Y-126656000D02*
X105160500Y-126656000D01*
G04 #@! TO.N,/LD_G*
X104643112Y-128697388D02*
X104181500Y-129159000D01*
X106535000Y-126656000D02*
X106535000Y-127331000D01*
X106535000Y-127331000D02*
X106307200Y-127558800D01*
X106307200Y-127558800D02*
X105206800Y-127558800D01*
X105206800Y-127558800D02*
X104944010Y-127821590D01*
X104944010Y-127821590D02*
X104944010Y-128396490D01*
X104944010Y-128396490D02*
X104643112Y-128697388D01*
G04 #@! TO.N,/LD_B*
X107035000Y-126656000D02*
X107035000Y-127534000D01*
X106985010Y-127583990D02*
X106985009Y-127586811D01*
X107035000Y-127534000D02*
X106985010Y-127583990D01*
X106560190Y-128008810D02*
X107035000Y-127534000D01*
X105968100Y-128008810D02*
X106560190Y-128008810D01*
X105079800Y-128897110D02*
X105968100Y-128008810D01*
X104181500Y-130683000D02*
X105079800Y-129784700D01*
X105079800Y-129784700D02*
X105079800Y-128897110D01*
G04 #@! TD*
M02*
