G04 #@! TF.GenerationSoftware,KiCad,Pcbnew,(5.0.2)-1*
G04 #@! TF.CreationDate,2022-05-07T19:17:55+02:00*
G04 #@! TF.ProjectId,Pendrive_v1,50656e64-7269-4766-955f-76312e6b6963,rev?*
G04 #@! TF.SameCoordinates,Original*
G04 #@! TF.FileFunction,Copper,L2,Bot*
G04 #@! TF.FilePolarity,Positive*
%FSLAX46Y46*%
G04 Gerber Fmt 4.6, Leading zero omitted, Abs format (unit mm)*
G04 Created by KiCad (PCBNEW (5.0.2)-1) date 07.05.2022 19:17:55*
%MOMM*%
%LPD*%
G01*
G04 APERTURE LIST*
G04 #@! TA.AperFunction,Conductor*
%ADD10C,0.100000*%
G04 #@! TD*
G04 #@! TA.AperFunction,SMDPad,CuDef*
%ADD11C,0.875000*%
G04 #@! TD*
G04 #@! TA.AperFunction,ComponentPad*
%ADD12O,1.700000X1.700000*%
G04 #@! TD*
G04 #@! TA.AperFunction,ComponentPad*
%ADD13R,1.700000X1.700000*%
G04 #@! TD*
G04 #@! TA.AperFunction,ComponentPad*
%ADD14C,1.431000*%
G04 #@! TD*
G04 #@! TA.AperFunction,ComponentPad*
%ADD15O,3.500000X4.000000*%
G04 #@! TD*
G04 #@! TA.AperFunction,ViaPad*
%ADD16C,0.800000*%
G04 #@! TD*
G04 #@! TA.AperFunction,ViaPad*
%ADD17C,1.200000*%
G04 #@! TD*
G04 #@! TA.AperFunction,Conductor*
%ADD18C,0.250000*%
G04 #@! TD*
G04 #@! TA.AperFunction,Conductor*
%ADD19C,0.350000*%
G04 #@! TD*
G04 #@! TA.AperFunction,Conductor*
%ADD20C,0.400000*%
G04 #@! TD*
G04 #@! TA.AperFunction,Conductor*
%ADD21C,0.600000*%
G04 #@! TD*
G04 #@! TA.AperFunction,Conductor*
%ADD22C,0.500000*%
G04 #@! TD*
G04 #@! TA.AperFunction,Conductor*
%ADD23C,0.300000*%
G04 #@! TD*
G04 #@! TA.AperFunction,Conductor*
%ADD24C,0.254000*%
G04 #@! TD*
G04 APERTURE END LIST*
D10*
G04 #@! TO.N,Net-(J2-Pad3)*
G04 #@! TO.C,R5*
G36*
X107783691Y-137829053D02*
X107804926Y-137832203D01*
X107825750Y-137837419D01*
X107845962Y-137844651D01*
X107865368Y-137853830D01*
X107883781Y-137864866D01*
X107901024Y-137877654D01*
X107916930Y-137892070D01*
X107931346Y-137907976D01*
X107944134Y-137925219D01*
X107955170Y-137943632D01*
X107964349Y-137963038D01*
X107971581Y-137983250D01*
X107976797Y-138004074D01*
X107979947Y-138025309D01*
X107981000Y-138046750D01*
X107981000Y-138559250D01*
X107979947Y-138580691D01*
X107976797Y-138601926D01*
X107971581Y-138622750D01*
X107964349Y-138642962D01*
X107955170Y-138662368D01*
X107944134Y-138680781D01*
X107931346Y-138698024D01*
X107916930Y-138713930D01*
X107901024Y-138728346D01*
X107883781Y-138741134D01*
X107865368Y-138752170D01*
X107845962Y-138761349D01*
X107825750Y-138768581D01*
X107804926Y-138773797D01*
X107783691Y-138776947D01*
X107762250Y-138778000D01*
X107324750Y-138778000D01*
X107303309Y-138776947D01*
X107282074Y-138773797D01*
X107261250Y-138768581D01*
X107241038Y-138761349D01*
X107221632Y-138752170D01*
X107203219Y-138741134D01*
X107185976Y-138728346D01*
X107170070Y-138713930D01*
X107155654Y-138698024D01*
X107142866Y-138680781D01*
X107131830Y-138662368D01*
X107122651Y-138642962D01*
X107115419Y-138622750D01*
X107110203Y-138601926D01*
X107107053Y-138580691D01*
X107106000Y-138559250D01*
X107106000Y-138046750D01*
X107107053Y-138025309D01*
X107110203Y-138004074D01*
X107115419Y-137983250D01*
X107122651Y-137963038D01*
X107131830Y-137943632D01*
X107142866Y-137925219D01*
X107155654Y-137907976D01*
X107170070Y-137892070D01*
X107185976Y-137877654D01*
X107203219Y-137864866D01*
X107221632Y-137853830D01*
X107241038Y-137844651D01*
X107261250Y-137837419D01*
X107282074Y-137832203D01*
X107303309Y-137829053D01*
X107324750Y-137828000D01*
X107762250Y-137828000D01*
X107783691Y-137829053D01*
X107783691Y-137829053D01*
G37*
D11*
G04 #@! TD*
G04 #@! TO.P,R5,2*
G04 #@! TO.N,Net-(J2-Pad3)*
X107543500Y-138303000D03*
D10*
G04 #@! TO.N,/D+*
G04 #@! TO.C,R5*
G36*
X109358691Y-137829053D02*
X109379926Y-137832203D01*
X109400750Y-137837419D01*
X109420962Y-137844651D01*
X109440368Y-137853830D01*
X109458781Y-137864866D01*
X109476024Y-137877654D01*
X109491930Y-137892070D01*
X109506346Y-137907976D01*
X109519134Y-137925219D01*
X109530170Y-137943632D01*
X109539349Y-137963038D01*
X109546581Y-137983250D01*
X109551797Y-138004074D01*
X109554947Y-138025309D01*
X109556000Y-138046750D01*
X109556000Y-138559250D01*
X109554947Y-138580691D01*
X109551797Y-138601926D01*
X109546581Y-138622750D01*
X109539349Y-138642962D01*
X109530170Y-138662368D01*
X109519134Y-138680781D01*
X109506346Y-138698024D01*
X109491930Y-138713930D01*
X109476024Y-138728346D01*
X109458781Y-138741134D01*
X109440368Y-138752170D01*
X109420962Y-138761349D01*
X109400750Y-138768581D01*
X109379926Y-138773797D01*
X109358691Y-138776947D01*
X109337250Y-138778000D01*
X108899750Y-138778000D01*
X108878309Y-138776947D01*
X108857074Y-138773797D01*
X108836250Y-138768581D01*
X108816038Y-138761349D01*
X108796632Y-138752170D01*
X108778219Y-138741134D01*
X108760976Y-138728346D01*
X108745070Y-138713930D01*
X108730654Y-138698024D01*
X108717866Y-138680781D01*
X108706830Y-138662368D01*
X108697651Y-138642962D01*
X108690419Y-138622750D01*
X108685203Y-138601926D01*
X108682053Y-138580691D01*
X108681000Y-138559250D01*
X108681000Y-138046750D01*
X108682053Y-138025309D01*
X108685203Y-138004074D01*
X108690419Y-137983250D01*
X108697651Y-137963038D01*
X108706830Y-137943632D01*
X108717866Y-137925219D01*
X108730654Y-137907976D01*
X108745070Y-137892070D01*
X108760976Y-137877654D01*
X108778219Y-137864866D01*
X108796632Y-137853830D01*
X108816038Y-137844651D01*
X108836250Y-137837419D01*
X108857074Y-137832203D01*
X108878309Y-137829053D01*
X108899750Y-137828000D01*
X109337250Y-137828000D01*
X109358691Y-137829053D01*
X109358691Y-137829053D01*
G37*
D11*
G04 #@! TD*
G04 #@! TO.P,R5,1*
G04 #@! TO.N,/D+*
X109118500Y-138303000D03*
D10*
G04 #@! TO.N,/D-*
G04 #@! TO.C,R6*
G36*
X109612691Y-134019053D02*
X109633926Y-134022203D01*
X109654750Y-134027419D01*
X109674962Y-134034651D01*
X109694368Y-134043830D01*
X109712781Y-134054866D01*
X109730024Y-134067654D01*
X109745930Y-134082070D01*
X109760346Y-134097976D01*
X109773134Y-134115219D01*
X109784170Y-134133632D01*
X109793349Y-134153038D01*
X109800581Y-134173250D01*
X109805797Y-134194074D01*
X109808947Y-134215309D01*
X109810000Y-134236750D01*
X109810000Y-134749250D01*
X109808947Y-134770691D01*
X109805797Y-134791926D01*
X109800581Y-134812750D01*
X109793349Y-134832962D01*
X109784170Y-134852368D01*
X109773134Y-134870781D01*
X109760346Y-134888024D01*
X109745930Y-134903930D01*
X109730024Y-134918346D01*
X109712781Y-134931134D01*
X109694368Y-134942170D01*
X109674962Y-134951349D01*
X109654750Y-134958581D01*
X109633926Y-134963797D01*
X109612691Y-134966947D01*
X109591250Y-134968000D01*
X109153750Y-134968000D01*
X109132309Y-134966947D01*
X109111074Y-134963797D01*
X109090250Y-134958581D01*
X109070038Y-134951349D01*
X109050632Y-134942170D01*
X109032219Y-134931134D01*
X109014976Y-134918346D01*
X108999070Y-134903930D01*
X108984654Y-134888024D01*
X108971866Y-134870781D01*
X108960830Y-134852368D01*
X108951651Y-134832962D01*
X108944419Y-134812750D01*
X108939203Y-134791926D01*
X108936053Y-134770691D01*
X108935000Y-134749250D01*
X108935000Y-134236750D01*
X108936053Y-134215309D01*
X108939203Y-134194074D01*
X108944419Y-134173250D01*
X108951651Y-134153038D01*
X108960830Y-134133632D01*
X108971866Y-134115219D01*
X108984654Y-134097976D01*
X108999070Y-134082070D01*
X109014976Y-134067654D01*
X109032219Y-134054866D01*
X109050632Y-134043830D01*
X109070038Y-134034651D01*
X109090250Y-134027419D01*
X109111074Y-134022203D01*
X109132309Y-134019053D01*
X109153750Y-134018000D01*
X109591250Y-134018000D01*
X109612691Y-134019053D01*
X109612691Y-134019053D01*
G37*
D11*
G04 #@! TD*
G04 #@! TO.P,R6,1*
G04 #@! TO.N,/D-*
X109372500Y-134493000D03*
D10*
G04 #@! TO.N,Net-(J2-Pad2)*
G04 #@! TO.C,R6*
G36*
X108037691Y-134019053D02*
X108058926Y-134022203D01*
X108079750Y-134027419D01*
X108099962Y-134034651D01*
X108119368Y-134043830D01*
X108137781Y-134054866D01*
X108155024Y-134067654D01*
X108170930Y-134082070D01*
X108185346Y-134097976D01*
X108198134Y-134115219D01*
X108209170Y-134133632D01*
X108218349Y-134153038D01*
X108225581Y-134173250D01*
X108230797Y-134194074D01*
X108233947Y-134215309D01*
X108235000Y-134236750D01*
X108235000Y-134749250D01*
X108233947Y-134770691D01*
X108230797Y-134791926D01*
X108225581Y-134812750D01*
X108218349Y-134832962D01*
X108209170Y-134852368D01*
X108198134Y-134870781D01*
X108185346Y-134888024D01*
X108170930Y-134903930D01*
X108155024Y-134918346D01*
X108137781Y-134931134D01*
X108119368Y-134942170D01*
X108099962Y-134951349D01*
X108079750Y-134958581D01*
X108058926Y-134963797D01*
X108037691Y-134966947D01*
X108016250Y-134968000D01*
X107578750Y-134968000D01*
X107557309Y-134966947D01*
X107536074Y-134963797D01*
X107515250Y-134958581D01*
X107495038Y-134951349D01*
X107475632Y-134942170D01*
X107457219Y-134931134D01*
X107439976Y-134918346D01*
X107424070Y-134903930D01*
X107409654Y-134888024D01*
X107396866Y-134870781D01*
X107385830Y-134852368D01*
X107376651Y-134832962D01*
X107369419Y-134812750D01*
X107364203Y-134791926D01*
X107361053Y-134770691D01*
X107360000Y-134749250D01*
X107360000Y-134236750D01*
X107361053Y-134215309D01*
X107364203Y-134194074D01*
X107369419Y-134173250D01*
X107376651Y-134153038D01*
X107385830Y-134133632D01*
X107396866Y-134115219D01*
X107409654Y-134097976D01*
X107424070Y-134082070D01*
X107439976Y-134067654D01*
X107457219Y-134054866D01*
X107475632Y-134043830D01*
X107495038Y-134034651D01*
X107515250Y-134027419D01*
X107536074Y-134022203D01*
X107557309Y-134019053D01*
X107578750Y-134018000D01*
X108016250Y-134018000D01*
X108037691Y-134019053D01*
X108037691Y-134019053D01*
G37*
D11*
G04 #@! TD*
G04 #@! TO.P,R6,2*
G04 #@! TO.N,Net-(J2-Pad2)*
X107797500Y-134493000D03*
D12*
G04 #@! TO.P,J3,4*
G04 #@! TO.N,+3V3*
X103505000Y-101446000D03*
G04 #@! TO.P,J3,3*
G04 #@! TO.N,/DEB-IO*
X106045000Y-101446000D03*
G04 #@! TO.P,J3,2*
G04 #@! TO.N,/DEB-CLK*
X108585000Y-101446000D03*
D13*
G04 #@! TO.P,J3,1*
G04 #@! TO.N,GND*
X111125000Y-101446000D03*
G04 #@! TD*
D14*
G04 #@! TO.P,J2,1*
G04 #@! TO.N,+5V*
X111760000Y-136379000D03*
G04 #@! TO.P,J2,2*
G04 #@! TO.N,Net-(J2-Pad2)*
X109260000Y-136379000D03*
G04 #@! TO.P,J2,3*
G04 #@! TO.N,Net-(J2-Pad3)*
X107260000Y-136379000D03*
G04 #@! TO.P,J2,4*
G04 #@! TO.N,GND*
X104760000Y-136379000D03*
D15*
G04 #@! TO.P,J2,MH1*
X102410000Y-138579000D03*
G04 #@! TO.P,J2,MH2*
X114110000Y-138579000D03*
G04 #@! TD*
D10*
G04 #@! TO.N,Net-(C12-Pad1)*
G04 #@! TO.C,C12*
G36*
X107973691Y-126335053D02*
X107994926Y-126338203D01*
X108015750Y-126343419D01*
X108035962Y-126350651D01*
X108055368Y-126359830D01*
X108073781Y-126370866D01*
X108091024Y-126383654D01*
X108106930Y-126398070D01*
X108121346Y-126413976D01*
X108134134Y-126431219D01*
X108145170Y-126449632D01*
X108154349Y-126469038D01*
X108161581Y-126489250D01*
X108166797Y-126510074D01*
X108169947Y-126531309D01*
X108171000Y-126552750D01*
X108171000Y-126990250D01*
X108169947Y-127011691D01*
X108166797Y-127032926D01*
X108161581Y-127053750D01*
X108154349Y-127073962D01*
X108145170Y-127093368D01*
X108134134Y-127111781D01*
X108121346Y-127129024D01*
X108106930Y-127144930D01*
X108091024Y-127159346D01*
X108073781Y-127172134D01*
X108055368Y-127183170D01*
X108035962Y-127192349D01*
X108015750Y-127199581D01*
X107994926Y-127204797D01*
X107973691Y-127207947D01*
X107952250Y-127209000D01*
X107439750Y-127209000D01*
X107418309Y-127207947D01*
X107397074Y-127204797D01*
X107376250Y-127199581D01*
X107356038Y-127192349D01*
X107336632Y-127183170D01*
X107318219Y-127172134D01*
X107300976Y-127159346D01*
X107285070Y-127144930D01*
X107270654Y-127129024D01*
X107257866Y-127111781D01*
X107246830Y-127093368D01*
X107237651Y-127073962D01*
X107230419Y-127053750D01*
X107225203Y-127032926D01*
X107222053Y-127011691D01*
X107221000Y-126990250D01*
X107221000Y-126552750D01*
X107222053Y-126531309D01*
X107225203Y-126510074D01*
X107230419Y-126489250D01*
X107237651Y-126469038D01*
X107246830Y-126449632D01*
X107257866Y-126431219D01*
X107270654Y-126413976D01*
X107285070Y-126398070D01*
X107300976Y-126383654D01*
X107318219Y-126370866D01*
X107336632Y-126359830D01*
X107356038Y-126350651D01*
X107376250Y-126343419D01*
X107397074Y-126338203D01*
X107418309Y-126335053D01*
X107439750Y-126334000D01*
X107952250Y-126334000D01*
X107973691Y-126335053D01*
X107973691Y-126335053D01*
G37*
D11*
G04 #@! TD*
G04 #@! TO.P,C12,1*
G04 #@! TO.N,Net-(C12-Pad1)*
X107696000Y-126771500D03*
D10*
G04 #@! TO.N,GND*
G04 #@! TO.C,C12*
G36*
X107973691Y-124760053D02*
X107994926Y-124763203D01*
X108015750Y-124768419D01*
X108035962Y-124775651D01*
X108055368Y-124784830D01*
X108073781Y-124795866D01*
X108091024Y-124808654D01*
X108106930Y-124823070D01*
X108121346Y-124838976D01*
X108134134Y-124856219D01*
X108145170Y-124874632D01*
X108154349Y-124894038D01*
X108161581Y-124914250D01*
X108166797Y-124935074D01*
X108169947Y-124956309D01*
X108171000Y-124977750D01*
X108171000Y-125415250D01*
X108169947Y-125436691D01*
X108166797Y-125457926D01*
X108161581Y-125478750D01*
X108154349Y-125498962D01*
X108145170Y-125518368D01*
X108134134Y-125536781D01*
X108121346Y-125554024D01*
X108106930Y-125569930D01*
X108091024Y-125584346D01*
X108073781Y-125597134D01*
X108055368Y-125608170D01*
X108035962Y-125617349D01*
X108015750Y-125624581D01*
X107994926Y-125629797D01*
X107973691Y-125632947D01*
X107952250Y-125634000D01*
X107439750Y-125634000D01*
X107418309Y-125632947D01*
X107397074Y-125629797D01*
X107376250Y-125624581D01*
X107356038Y-125617349D01*
X107336632Y-125608170D01*
X107318219Y-125597134D01*
X107300976Y-125584346D01*
X107285070Y-125569930D01*
X107270654Y-125554024D01*
X107257866Y-125536781D01*
X107246830Y-125518368D01*
X107237651Y-125498962D01*
X107230419Y-125478750D01*
X107225203Y-125457926D01*
X107222053Y-125436691D01*
X107221000Y-125415250D01*
X107221000Y-124977750D01*
X107222053Y-124956309D01*
X107225203Y-124935074D01*
X107230419Y-124914250D01*
X107237651Y-124894038D01*
X107246830Y-124874632D01*
X107257866Y-124856219D01*
X107270654Y-124838976D01*
X107285070Y-124823070D01*
X107300976Y-124808654D01*
X107318219Y-124795866D01*
X107336632Y-124784830D01*
X107356038Y-124775651D01*
X107376250Y-124768419D01*
X107397074Y-124763203D01*
X107418309Y-124760053D01*
X107439750Y-124759000D01*
X107952250Y-124759000D01*
X107973691Y-124760053D01*
X107973691Y-124760053D01*
G37*
D11*
G04 #@! TD*
G04 #@! TO.P,C12,2*
G04 #@! TO.N,GND*
X107696000Y-125196500D03*
D10*
G04 #@! TO.N,GND*
G04 #@! TO.C,C13*
G36*
X106449691Y-124760053D02*
X106470926Y-124763203D01*
X106491750Y-124768419D01*
X106511962Y-124775651D01*
X106531368Y-124784830D01*
X106549781Y-124795866D01*
X106567024Y-124808654D01*
X106582930Y-124823070D01*
X106597346Y-124838976D01*
X106610134Y-124856219D01*
X106621170Y-124874632D01*
X106630349Y-124894038D01*
X106637581Y-124914250D01*
X106642797Y-124935074D01*
X106645947Y-124956309D01*
X106647000Y-124977750D01*
X106647000Y-125415250D01*
X106645947Y-125436691D01*
X106642797Y-125457926D01*
X106637581Y-125478750D01*
X106630349Y-125498962D01*
X106621170Y-125518368D01*
X106610134Y-125536781D01*
X106597346Y-125554024D01*
X106582930Y-125569930D01*
X106567024Y-125584346D01*
X106549781Y-125597134D01*
X106531368Y-125608170D01*
X106511962Y-125617349D01*
X106491750Y-125624581D01*
X106470926Y-125629797D01*
X106449691Y-125632947D01*
X106428250Y-125634000D01*
X105915750Y-125634000D01*
X105894309Y-125632947D01*
X105873074Y-125629797D01*
X105852250Y-125624581D01*
X105832038Y-125617349D01*
X105812632Y-125608170D01*
X105794219Y-125597134D01*
X105776976Y-125584346D01*
X105761070Y-125569930D01*
X105746654Y-125554024D01*
X105733866Y-125536781D01*
X105722830Y-125518368D01*
X105713651Y-125498962D01*
X105706419Y-125478750D01*
X105701203Y-125457926D01*
X105698053Y-125436691D01*
X105697000Y-125415250D01*
X105697000Y-124977750D01*
X105698053Y-124956309D01*
X105701203Y-124935074D01*
X105706419Y-124914250D01*
X105713651Y-124894038D01*
X105722830Y-124874632D01*
X105733866Y-124856219D01*
X105746654Y-124838976D01*
X105761070Y-124823070D01*
X105776976Y-124808654D01*
X105794219Y-124795866D01*
X105812632Y-124784830D01*
X105832038Y-124775651D01*
X105852250Y-124768419D01*
X105873074Y-124763203D01*
X105894309Y-124760053D01*
X105915750Y-124759000D01*
X106428250Y-124759000D01*
X106449691Y-124760053D01*
X106449691Y-124760053D01*
G37*
D11*
G04 #@! TD*
G04 #@! TO.P,C13,2*
G04 #@! TO.N,GND*
X106172000Y-125196500D03*
D10*
G04 #@! TO.N,Net-(C12-Pad1)*
G04 #@! TO.C,C13*
G36*
X106449691Y-126335053D02*
X106470926Y-126338203D01*
X106491750Y-126343419D01*
X106511962Y-126350651D01*
X106531368Y-126359830D01*
X106549781Y-126370866D01*
X106567024Y-126383654D01*
X106582930Y-126398070D01*
X106597346Y-126413976D01*
X106610134Y-126431219D01*
X106621170Y-126449632D01*
X106630349Y-126469038D01*
X106637581Y-126489250D01*
X106642797Y-126510074D01*
X106645947Y-126531309D01*
X106647000Y-126552750D01*
X106647000Y-126990250D01*
X106645947Y-127011691D01*
X106642797Y-127032926D01*
X106637581Y-127053750D01*
X106630349Y-127073962D01*
X106621170Y-127093368D01*
X106610134Y-127111781D01*
X106597346Y-127129024D01*
X106582930Y-127144930D01*
X106567024Y-127159346D01*
X106549781Y-127172134D01*
X106531368Y-127183170D01*
X106511962Y-127192349D01*
X106491750Y-127199581D01*
X106470926Y-127204797D01*
X106449691Y-127207947D01*
X106428250Y-127209000D01*
X105915750Y-127209000D01*
X105894309Y-127207947D01*
X105873074Y-127204797D01*
X105852250Y-127199581D01*
X105832038Y-127192349D01*
X105812632Y-127183170D01*
X105794219Y-127172134D01*
X105776976Y-127159346D01*
X105761070Y-127144930D01*
X105746654Y-127129024D01*
X105733866Y-127111781D01*
X105722830Y-127093368D01*
X105713651Y-127073962D01*
X105706419Y-127053750D01*
X105701203Y-127032926D01*
X105698053Y-127011691D01*
X105697000Y-126990250D01*
X105697000Y-126552750D01*
X105698053Y-126531309D01*
X105701203Y-126510074D01*
X105706419Y-126489250D01*
X105713651Y-126469038D01*
X105722830Y-126449632D01*
X105733866Y-126431219D01*
X105746654Y-126413976D01*
X105761070Y-126398070D01*
X105776976Y-126383654D01*
X105794219Y-126370866D01*
X105812632Y-126359830D01*
X105832038Y-126350651D01*
X105852250Y-126343419D01*
X105873074Y-126338203D01*
X105894309Y-126335053D01*
X105915750Y-126334000D01*
X106428250Y-126334000D01*
X106449691Y-126335053D01*
X106449691Y-126335053D01*
G37*
D11*
G04 #@! TD*
G04 #@! TO.P,C13,1*
G04 #@! TO.N,Net-(C12-Pad1)*
X106172000Y-126771500D03*
D10*
G04 #@! TO.N,Net-(C12-Pad1)*
G04 #@! TO.C,C14*
G36*
X109497691Y-126335053D02*
X109518926Y-126338203D01*
X109539750Y-126343419D01*
X109559962Y-126350651D01*
X109579368Y-126359830D01*
X109597781Y-126370866D01*
X109615024Y-126383654D01*
X109630930Y-126398070D01*
X109645346Y-126413976D01*
X109658134Y-126431219D01*
X109669170Y-126449632D01*
X109678349Y-126469038D01*
X109685581Y-126489250D01*
X109690797Y-126510074D01*
X109693947Y-126531309D01*
X109695000Y-126552750D01*
X109695000Y-126990250D01*
X109693947Y-127011691D01*
X109690797Y-127032926D01*
X109685581Y-127053750D01*
X109678349Y-127073962D01*
X109669170Y-127093368D01*
X109658134Y-127111781D01*
X109645346Y-127129024D01*
X109630930Y-127144930D01*
X109615024Y-127159346D01*
X109597781Y-127172134D01*
X109579368Y-127183170D01*
X109559962Y-127192349D01*
X109539750Y-127199581D01*
X109518926Y-127204797D01*
X109497691Y-127207947D01*
X109476250Y-127209000D01*
X108963750Y-127209000D01*
X108942309Y-127207947D01*
X108921074Y-127204797D01*
X108900250Y-127199581D01*
X108880038Y-127192349D01*
X108860632Y-127183170D01*
X108842219Y-127172134D01*
X108824976Y-127159346D01*
X108809070Y-127144930D01*
X108794654Y-127129024D01*
X108781866Y-127111781D01*
X108770830Y-127093368D01*
X108761651Y-127073962D01*
X108754419Y-127053750D01*
X108749203Y-127032926D01*
X108746053Y-127011691D01*
X108745000Y-126990250D01*
X108745000Y-126552750D01*
X108746053Y-126531309D01*
X108749203Y-126510074D01*
X108754419Y-126489250D01*
X108761651Y-126469038D01*
X108770830Y-126449632D01*
X108781866Y-126431219D01*
X108794654Y-126413976D01*
X108809070Y-126398070D01*
X108824976Y-126383654D01*
X108842219Y-126370866D01*
X108860632Y-126359830D01*
X108880038Y-126350651D01*
X108900250Y-126343419D01*
X108921074Y-126338203D01*
X108942309Y-126335053D01*
X108963750Y-126334000D01*
X109476250Y-126334000D01*
X109497691Y-126335053D01*
X109497691Y-126335053D01*
G37*
D11*
G04 #@! TD*
G04 #@! TO.P,C14,1*
G04 #@! TO.N,Net-(C12-Pad1)*
X109220000Y-126771500D03*
D10*
G04 #@! TO.N,GND*
G04 #@! TO.C,C14*
G36*
X109497691Y-124760053D02*
X109518926Y-124763203D01*
X109539750Y-124768419D01*
X109559962Y-124775651D01*
X109579368Y-124784830D01*
X109597781Y-124795866D01*
X109615024Y-124808654D01*
X109630930Y-124823070D01*
X109645346Y-124838976D01*
X109658134Y-124856219D01*
X109669170Y-124874632D01*
X109678349Y-124894038D01*
X109685581Y-124914250D01*
X109690797Y-124935074D01*
X109693947Y-124956309D01*
X109695000Y-124977750D01*
X109695000Y-125415250D01*
X109693947Y-125436691D01*
X109690797Y-125457926D01*
X109685581Y-125478750D01*
X109678349Y-125498962D01*
X109669170Y-125518368D01*
X109658134Y-125536781D01*
X109645346Y-125554024D01*
X109630930Y-125569930D01*
X109615024Y-125584346D01*
X109597781Y-125597134D01*
X109579368Y-125608170D01*
X109559962Y-125617349D01*
X109539750Y-125624581D01*
X109518926Y-125629797D01*
X109497691Y-125632947D01*
X109476250Y-125634000D01*
X108963750Y-125634000D01*
X108942309Y-125632947D01*
X108921074Y-125629797D01*
X108900250Y-125624581D01*
X108880038Y-125617349D01*
X108860632Y-125608170D01*
X108842219Y-125597134D01*
X108824976Y-125584346D01*
X108809070Y-125569930D01*
X108794654Y-125554024D01*
X108781866Y-125536781D01*
X108770830Y-125518368D01*
X108761651Y-125498962D01*
X108754419Y-125478750D01*
X108749203Y-125457926D01*
X108746053Y-125436691D01*
X108745000Y-125415250D01*
X108745000Y-124977750D01*
X108746053Y-124956309D01*
X108749203Y-124935074D01*
X108754419Y-124914250D01*
X108761651Y-124894038D01*
X108770830Y-124874632D01*
X108781866Y-124856219D01*
X108794654Y-124838976D01*
X108809070Y-124823070D01*
X108824976Y-124808654D01*
X108842219Y-124795866D01*
X108860632Y-124784830D01*
X108880038Y-124775651D01*
X108900250Y-124768419D01*
X108921074Y-124763203D01*
X108942309Y-124760053D01*
X108963750Y-124759000D01*
X109476250Y-124759000D01*
X109497691Y-124760053D01*
X109497691Y-124760053D01*
G37*
D11*
G04 #@! TD*
G04 #@! TO.P,C14,2*
G04 #@! TO.N,GND*
X109220000Y-125196500D03*
D10*
G04 #@! TO.N,Net-(C12-Pad1)*
G04 #@! TO.C,C15*
G36*
X111021691Y-126335053D02*
X111042926Y-126338203D01*
X111063750Y-126343419D01*
X111083962Y-126350651D01*
X111103368Y-126359830D01*
X111121781Y-126370866D01*
X111139024Y-126383654D01*
X111154930Y-126398070D01*
X111169346Y-126413976D01*
X111182134Y-126431219D01*
X111193170Y-126449632D01*
X111202349Y-126469038D01*
X111209581Y-126489250D01*
X111214797Y-126510074D01*
X111217947Y-126531309D01*
X111219000Y-126552750D01*
X111219000Y-126990250D01*
X111217947Y-127011691D01*
X111214797Y-127032926D01*
X111209581Y-127053750D01*
X111202349Y-127073962D01*
X111193170Y-127093368D01*
X111182134Y-127111781D01*
X111169346Y-127129024D01*
X111154930Y-127144930D01*
X111139024Y-127159346D01*
X111121781Y-127172134D01*
X111103368Y-127183170D01*
X111083962Y-127192349D01*
X111063750Y-127199581D01*
X111042926Y-127204797D01*
X111021691Y-127207947D01*
X111000250Y-127209000D01*
X110487750Y-127209000D01*
X110466309Y-127207947D01*
X110445074Y-127204797D01*
X110424250Y-127199581D01*
X110404038Y-127192349D01*
X110384632Y-127183170D01*
X110366219Y-127172134D01*
X110348976Y-127159346D01*
X110333070Y-127144930D01*
X110318654Y-127129024D01*
X110305866Y-127111781D01*
X110294830Y-127093368D01*
X110285651Y-127073962D01*
X110278419Y-127053750D01*
X110273203Y-127032926D01*
X110270053Y-127011691D01*
X110269000Y-126990250D01*
X110269000Y-126552750D01*
X110270053Y-126531309D01*
X110273203Y-126510074D01*
X110278419Y-126489250D01*
X110285651Y-126469038D01*
X110294830Y-126449632D01*
X110305866Y-126431219D01*
X110318654Y-126413976D01*
X110333070Y-126398070D01*
X110348976Y-126383654D01*
X110366219Y-126370866D01*
X110384632Y-126359830D01*
X110404038Y-126350651D01*
X110424250Y-126343419D01*
X110445074Y-126338203D01*
X110466309Y-126335053D01*
X110487750Y-126334000D01*
X111000250Y-126334000D01*
X111021691Y-126335053D01*
X111021691Y-126335053D01*
G37*
D11*
G04 #@! TD*
G04 #@! TO.P,C15,1*
G04 #@! TO.N,Net-(C12-Pad1)*
X110744000Y-126771500D03*
D10*
G04 #@! TO.N,GND*
G04 #@! TO.C,C15*
G36*
X111021691Y-124760053D02*
X111042926Y-124763203D01*
X111063750Y-124768419D01*
X111083962Y-124775651D01*
X111103368Y-124784830D01*
X111121781Y-124795866D01*
X111139024Y-124808654D01*
X111154930Y-124823070D01*
X111169346Y-124838976D01*
X111182134Y-124856219D01*
X111193170Y-124874632D01*
X111202349Y-124894038D01*
X111209581Y-124914250D01*
X111214797Y-124935074D01*
X111217947Y-124956309D01*
X111219000Y-124977750D01*
X111219000Y-125415250D01*
X111217947Y-125436691D01*
X111214797Y-125457926D01*
X111209581Y-125478750D01*
X111202349Y-125498962D01*
X111193170Y-125518368D01*
X111182134Y-125536781D01*
X111169346Y-125554024D01*
X111154930Y-125569930D01*
X111139024Y-125584346D01*
X111121781Y-125597134D01*
X111103368Y-125608170D01*
X111083962Y-125617349D01*
X111063750Y-125624581D01*
X111042926Y-125629797D01*
X111021691Y-125632947D01*
X111000250Y-125634000D01*
X110487750Y-125634000D01*
X110466309Y-125632947D01*
X110445074Y-125629797D01*
X110424250Y-125624581D01*
X110404038Y-125617349D01*
X110384632Y-125608170D01*
X110366219Y-125597134D01*
X110348976Y-125584346D01*
X110333070Y-125569930D01*
X110318654Y-125554024D01*
X110305866Y-125536781D01*
X110294830Y-125518368D01*
X110285651Y-125498962D01*
X110278419Y-125478750D01*
X110273203Y-125457926D01*
X110270053Y-125436691D01*
X110269000Y-125415250D01*
X110269000Y-124977750D01*
X110270053Y-124956309D01*
X110273203Y-124935074D01*
X110278419Y-124914250D01*
X110285651Y-124894038D01*
X110294830Y-124874632D01*
X110305866Y-124856219D01*
X110318654Y-124838976D01*
X110333070Y-124823070D01*
X110348976Y-124808654D01*
X110366219Y-124795866D01*
X110384632Y-124784830D01*
X110404038Y-124775651D01*
X110424250Y-124768419D01*
X110445074Y-124763203D01*
X110466309Y-124760053D01*
X110487750Y-124759000D01*
X111000250Y-124759000D01*
X111021691Y-124760053D01*
X111021691Y-124760053D01*
G37*
D11*
G04 #@! TD*
G04 #@! TO.P,C15,2*
G04 #@! TO.N,GND*
X110744000Y-125196500D03*
D10*
G04 #@! TO.N,GND*
G04 #@! TO.C,C11*
G36*
X111263691Y-110016053D02*
X111284926Y-110019203D01*
X111305750Y-110024419D01*
X111325962Y-110031651D01*
X111345368Y-110040830D01*
X111363781Y-110051866D01*
X111381024Y-110064654D01*
X111396930Y-110079070D01*
X111411346Y-110094976D01*
X111424134Y-110112219D01*
X111435170Y-110130632D01*
X111444349Y-110150038D01*
X111451581Y-110170250D01*
X111456797Y-110191074D01*
X111459947Y-110212309D01*
X111461000Y-110233750D01*
X111461000Y-110746250D01*
X111459947Y-110767691D01*
X111456797Y-110788926D01*
X111451581Y-110809750D01*
X111444349Y-110829962D01*
X111435170Y-110849368D01*
X111424134Y-110867781D01*
X111411346Y-110885024D01*
X111396930Y-110900930D01*
X111381024Y-110915346D01*
X111363781Y-110928134D01*
X111345368Y-110939170D01*
X111325962Y-110948349D01*
X111305750Y-110955581D01*
X111284926Y-110960797D01*
X111263691Y-110963947D01*
X111242250Y-110965000D01*
X110804750Y-110965000D01*
X110783309Y-110963947D01*
X110762074Y-110960797D01*
X110741250Y-110955581D01*
X110721038Y-110948349D01*
X110701632Y-110939170D01*
X110683219Y-110928134D01*
X110665976Y-110915346D01*
X110650070Y-110900930D01*
X110635654Y-110885024D01*
X110622866Y-110867781D01*
X110611830Y-110849368D01*
X110602651Y-110829962D01*
X110595419Y-110809750D01*
X110590203Y-110788926D01*
X110587053Y-110767691D01*
X110586000Y-110746250D01*
X110586000Y-110233750D01*
X110587053Y-110212309D01*
X110590203Y-110191074D01*
X110595419Y-110170250D01*
X110602651Y-110150038D01*
X110611830Y-110130632D01*
X110622866Y-110112219D01*
X110635654Y-110094976D01*
X110650070Y-110079070D01*
X110665976Y-110064654D01*
X110683219Y-110051866D01*
X110701632Y-110040830D01*
X110721038Y-110031651D01*
X110741250Y-110024419D01*
X110762074Y-110019203D01*
X110783309Y-110016053D01*
X110804750Y-110015000D01*
X111242250Y-110015000D01*
X111263691Y-110016053D01*
X111263691Y-110016053D01*
G37*
D11*
G04 #@! TD*
G04 #@! TO.P,C11,2*
G04 #@! TO.N,GND*
X111023500Y-110490000D03*
D10*
G04 #@! TO.N,+3V3*
G04 #@! TO.C,C11*
G36*
X109688691Y-110016053D02*
X109709926Y-110019203D01*
X109730750Y-110024419D01*
X109750962Y-110031651D01*
X109770368Y-110040830D01*
X109788781Y-110051866D01*
X109806024Y-110064654D01*
X109821930Y-110079070D01*
X109836346Y-110094976D01*
X109849134Y-110112219D01*
X109860170Y-110130632D01*
X109869349Y-110150038D01*
X109876581Y-110170250D01*
X109881797Y-110191074D01*
X109884947Y-110212309D01*
X109886000Y-110233750D01*
X109886000Y-110746250D01*
X109884947Y-110767691D01*
X109881797Y-110788926D01*
X109876581Y-110809750D01*
X109869349Y-110829962D01*
X109860170Y-110849368D01*
X109849134Y-110867781D01*
X109836346Y-110885024D01*
X109821930Y-110900930D01*
X109806024Y-110915346D01*
X109788781Y-110928134D01*
X109770368Y-110939170D01*
X109750962Y-110948349D01*
X109730750Y-110955581D01*
X109709926Y-110960797D01*
X109688691Y-110963947D01*
X109667250Y-110965000D01*
X109229750Y-110965000D01*
X109208309Y-110963947D01*
X109187074Y-110960797D01*
X109166250Y-110955581D01*
X109146038Y-110948349D01*
X109126632Y-110939170D01*
X109108219Y-110928134D01*
X109090976Y-110915346D01*
X109075070Y-110900930D01*
X109060654Y-110885024D01*
X109047866Y-110867781D01*
X109036830Y-110849368D01*
X109027651Y-110829962D01*
X109020419Y-110809750D01*
X109015203Y-110788926D01*
X109012053Y-110767691D01*
X109011000Y-110746250D01*
X109011000Y-110233750D01*
X109012053Y-110212309D01*
X109015203Y-110191074D01*
X109020419Y-110170250D01*
X109027651Y-110150038D01*
X109036830Y-110130632D01*
X109047866Y-110112219D01*
X109060654Y-110094976D01*
X109075070Y-110079070D01*
X109090976Y-110064654D01*
X109108219Y-110051866D01*
X109126632Y-110040830D01*
X109146038Y-110031651D01*
X109166250Y-110024419D01*
X109187074Y-110019203D01*
X109208309Y-110016053D01*
X109229750Y-110015000D01*
X109667250Y-110015000D01*
X109688691Y-110016053D01*
X109688691Y-110016053D01*
G37*
D11*
G04 #@! TD*
G04 #@! TO.P,C11,1*
G04 #@! TO.N,+3V3*
X109448500Y-110490000D03*
D10*
G04 #@! TO.N,+3V3*
G04 #@! TO.C,C10*
G36*
X109688691Y-108238053D02*
X109709926Y-108241203D01*
X109730750Y-108246419D01*
X109750962Y-108253651D01*
X109770368Y-108262830D01*
X109788781Y-108273866D01*
X109806024Y-108286654D01*
X109821930Y-108301070D01*
X109836346Y-108316976D01*
X109849134Y-108334219D01*
X109860170Y-108352632D01*
X109869349Y-108372038D01*
X109876581Y-108392250D01*
X109881797Y-108413074D01*
X109884947Y-108434309D01*
X109886000Y-108455750D01*
X109886000Y-108968250D01*
X109884947Y-108989691D01*
X109881797Y-109010926D01*
X109876581Y-109031750D01*
X109869349Y-109051962D01*
X109860170Y-109071368D01*
X109849134Y-109089781D01*
X109836346Y-109107024D01*
X109821930Y-109122930D01*
X109806024Y-109137346D01*
X109788781Y-109150134D01*
X109770368Y-109161170D01*
X109750962Y-109170349D01*
X109730750Y-109177581D01*
X109709926Y-109182797D01*
X109688691Y-109185947D01*
X109667250Y-109187000D01*
X109229750Y-109187000D01*
X109208309Y-109185947D01*
X109187074Y-109182797D01*
X109166250Y-109177581D01*
X109146038Y-109170349D01*
X109126632Y-109161170D01*
X109108219Y-109150134D01*
X109090976Y-109137346D01*
X109075070Y-109122930D01*
X109060654Y-109107024D01*
X109047866Y-109089781D01*
X109036830Y-109071368D01*
X109027651Y-109051962D01*
X109020419Y-109031750D01*
X109015203Y-109010926D01*
X109012053Y-108989691D01*
X109011000Y-108968250D01*
X109011000Y-108455750D01*
X109012053Y-108434309D01*
X109015203Y-108413074D01*
X109020419Y-108392250D01*
X109027651Y-108372038D01*
X109036830Y-108352632D01*
X109047866Y-108334219D01*
X109060654Y-108316976D01*
X109075070Y-108301070D01*
X109090976Y-108286654D01*
X109108219Y-108273866D01*
X109126632Y-108262830D01*
X109146038Y-108253651D01*
X109166250Y-108246419D01*
X109187074Y-108241203D01*
X109208309Y-108238053D01*
X109229750Y-108237000D01*
X109667250Y-108237000D01*
X109688691Y-108238053D01*
X109688691Y-108238053D01*
G37*
D11*
G04 #@! TD*
G04 #@! TO.P,C10,1*
G04 #@! TO.N,+3V3*
X109448500Y-108712000D03*
D10*
G04 #@! TO.N,GND*
G04 #@! TO.C,C10*
G36*
X111263691Y-108238053D02*
X111284926Y-108241203D01*
X111305750Y-108246419D01*
X111325962Y-108253651D01*
X111345368Y-108262830D01*
X111363781Y-108273866D01*
X111381024Y-108286654D01*
X111396930Y-108301070D01*
X111411346Y-108316976D01*
X111424134Y-108334219D01*
X111435170Y-108352632D01*
X111444349Y-108372038D01*
X111451581Y-108392250D01*
X111456797Y-108413074D01*
X111459947Y-108434309D01*
X111461000Y-108455750D01*
X111461000Y-108968250D01*
X111459947Y-108989691D01*
X111456797Y-109010926D01*
X111451581Y-109031750D01*
X111444349Y-109051962D01*
X111435170Y-109071368D01*
X111424134Y-109089781D01*
X111411346Y-109107024D01*
X111396930Y-109122930D01*
X111381024Y-109137346D01*
X111363781Y-109150134D01*
X111345368Y-109161170D01*
X111325962Y-109170349D01*
X111305750Y-109177581D01*
X111284926Y-109182797D01*
X111263691Y-109185947D01*
X111242250Y-109187000D01*
X110804750Y-109187000D01*
X110783309Y-109185947D01*
X110762074Y-109182797D01*
X110741250Y-109177581D01*
X110721038Y-109170349D01*
X110701632Y-109161170D01*
X110683219Y-109150134D01*
X110665976Y-109137346D01*
X110650070Y-109122930D01*
X110635654Y-109107024D01*
X110622866Y-109089781D01*
X110611830Y-109071368D01*
X110602651Y-109051962D01*
X110595419Y-109031750D01*
X110590203Y-109010926D01*
X110587053Y-108989691D01*
X110586000Y-108968250D01*
X110586000Y-108455750D01*
X110587053Y-108434309D01*
X110590203Y-108413074D01*
X110595419Y-108392250D01*
X110602651Y-108372038D01*
X110611830Y-108352632D01*
X110622866Y-108334219D01*
X110635654Y-108316976D01*
X110650070Y-108301070D01*
X110665976Y-108286654D01*
X110683219Y-108273866D01*
X110701632Y-108262830D01*
X110721038Y-108253651D01*
X110741250Y-108246419D01*
X110762074Y-108241203D01*
X110783309Y-108238053D01*
X110804750Y-108237000D01*
X111242250Y-108237000D01*
X111263691Y-108238053D01*
X111263691Y-108238053D01*
G37*
D11*
G04 #@! TD*
G04 #@! TO.P,C10,2*
G04 #@! TO.N,GND*
X111023500Y-108712000D03*
D10*
G04 #@! TO.N,Net-(C9-Pad1)*
G04 #@! TO.C,C9*
G36*
X105941691Y-121382053D02*
X105962926Y-121385203D01*
X105983750Y-121390419D01*
X106003962Y-121397651D01*
X106023368Y-121406830D01*
X106041781Y-121417866D01*
X106059024Y-121430654D01*
X106074930Y-121445070D01*
X106089346Y-121460976D01*
X106102134Y-121478219D01*
X106113170Y-121496632D01*
X106122349Y-121516038D01*
X106129581Y-121536250D01*
X106134797Y-121557074D01*
X106137947Y-121578309D01*
X106139000Y-121599750D01*
X106139000Y-122037250D01*
X106137947Y-122058691D01*
X106134797Y-122079926D01*
X106129581Y-122100750D01*
X106122349Y-122120962D01*
X106113170Y-122140368D01*
X106102134Y-122158781D01*
X106089346Y-122176024D01*
X106074930Y-122191930D01*
X106059024Y-122206346D01*
X106041781Y-122219134D01*
X106023368Y-122230170D01*
X106003962Y-122239349D01*
X105983750Y-122246581D01*
X105962926Y-122251797D01*
X105941691Y-122254947D01*
X105920250Y-122256000D01*
X105407750Y-122256000D01*
X105386309Y-122254947D01*
X105365074Y-122251797D01*
X105344250Y-122246581D01*
X105324038Y-122239349D01*
X105304632Y-122230170D01*
X105286219Y-122219134D01*
X105268976Y-122206346D01*
X105253070Y-122191930D01*
X105238654Y-122176024D01*
X105225866Y-122158781D01*
X105214830Y-122140368D01*
X105205651Y-122120962D01*
X105198419Y-122100750D01*
X105193203Y-122079926D01*
X105190053Y-122058691D01*
X105189000Y-122037250D01*
X105189000Y-121599750D01*
X105190053Y-121578309D01*
X105193203Y-121557074D01*
X105198419Y-121536250D01*
X105205651Y-121516038D01*
X105214830Y-121496632D01*
X105225866Y-121478219D01*
X105238654Y-121460976D01*
X105253070Y-121445070D01*
X105268976Y-121430654D01*
X105286219Y-121417866D01*
X105304632Y-121406830D01*
X105324038Y-121397651D01*
X105344250Y-121390419D01*
X105365074Y-121385203D01*
X105386309Y-121382053D01*
X105407750Y-121381000D01*
X105920250Y-121381000D01*
X105941691Y-121382053D01*
X105941691Y-121382053D01*
G37*
D11*
G04 #@! TD*
G04 #@! TO.P,C9,1*
G04 #@! TO.N,Net-(C9-Pad1)*
X105664000Y-121818500D03*
D10*
G04 #@! TO.N,GND*
G04 #@! TO.C,C9*
G36*
X105941691Y-119807053D02*
X105962926Y-119810203D01*
X105983750Y-119815419D01*
X106003962Y-119822651D01*
X106023368Y-119831830D01*
X106041781Y-119842866D01*
X106059024Y-119855654D01*
X106074930Y-119870070D01*
X106089346Y-119885976D01*
X106102134Y-119903219D01*
X106113170Y-119921632D01*
X106122349Y-119941038D01*
X106129581Y-119961250D01*
X106134797Y-119982074D01*
X106137947Y-120003309D01*
X106139000Y-120024750D01*
X106139000Y-120462250D01*
X106137947Y-120483691D01*
X106134797Y-120504926D01*
X106129581Y-120525750D01*
X106122349Y-120545962D01*
X106113170Y-120565368D01*
X106102134Y-120583781D01*
X106089346Y-120601024D01*
X106074930Y-120616930D01*
X106059024Y-120631346D01*
X106041781Y-120644134D01*
X106023368Y-120655170D01*
X106003962Y-120664349D01*
X105983750Y-120671581D01*
X105962926Y-120676797D01*
X105941691Y-120679947D01*
X105920250Y-120681000D01*
X105407750Y-120681000D01*
X105386309Y-120679947D01*
X105365074Y-120676797D01*
X105344250Y-120671581D01*
X105324038Y-120664349D01*
X105304632Y-120655170D01*
X105286219Y-120644134D01*
X105268976Y-120631346D01*
X105253070Y-120616930D01*
X105238654Y-120601024D01*
X105225866Y-120583781D01*
X105214830Y-120565368D01*
X105205651Y-120545962D01*
X105198419Y-120525750D01*
X105193203Y-120504926D01*
X105190053Y-120483691D01*
X105189000Y-120462250D01*
X105189000Y-120024750D01*
X105190053Y-120003309D01*
X105193203Y-119982074D01*
X105198419Y-119961250D01*
X105205651Y-119941038D01*
X105214830Y-119921632D01*
X105225866Y-119903219D01*
X105238654Y-119885976D01*
X105253070Y-119870070D01*
X105268976Y-119855654D01*
X105286219Y-119842866D01*
X105304632Y-119831830D01*
X105324038Y-119822651D01*
X105344250Y-119815419D01*
X105365074Y-119810203D01*
X105386309Y-119807053D01*
X105407750Y-119806000D01*
X105920250Y-119806000D01*
X105941691Y-119807053D01*
X105941691Y-119807053D01*
G37*
D11*
G04 #@! TD*
G04 #@! TO.P,C9,2*
G04 #@! TO.N,GND*
X105664000Y-120243500D03*
D10*
G04 #@! TO.N,GND*
G04 #@! TO.C,R4*
G36*
X110005691Y-121763053D02*
X110026926Y-121766203D01*
X110047750Y-121771419D01*
X110067962Y-121778651D01*
X110087368Y-121787830D01*
X110105781Y-121798866D01*
X110123024Y-121811654D01*
X110138930Y-121826070D01*
X110153346Y-121841976D01*
X110166134Y-121859219D01*
X110177170Y-121877632D01*
X110186349Y-121897038D01*
X110193581Y-121917250D01*
X110198797Y-121938074D01*
X110201947Y-121959309D01*
X110203000Y-121980750D01*
X110203000Y-122418250D01*
X110201947Y-122439691D01*
X110198797Y-122460926D01*
X110193581Y-122481750D01*
X110186349Y-122501962D01*
X110177170Y-122521368D01*
X110166134Y-122539781D01*
X110153346Y-122557024D01*
X110138930Y-122572930D01*
X110123024Y-122587346D01*
X110105781Y-122600134D01*
X110087368Y-122611170D01*
X110067962Y-122620349D01*
X110047750Y-122627581D01*
X110026926Y-122632797D01*
X110005691Y-122635947D01*
X109984250Y-122637000D01*
X109471750Y-122637000D01*
X109450309Y-122635947D01*
X109429074Y-122632797D01*
X109408250Y-122627581D01*
X109388038Y-122620349D01*
X109368632Y-122611170D01*
X109350219Y-122600134D01*
X109332976Y-122587346D01*
X109317070Y-122572930D01*
X109302654Y-122557024D01*
X109289866Y-122539781D01*
X109278830Y-122521368D01*
X109269651Y-122501962D01*
X109262419Y-122481750D01*
X109257203Y-122460926D01*
X109254053Y-122439691D01*
X109253000Y-122418250D01*
X109253000Y-121980750D01*
X109254053Y-121959309D01*
X109257203Y-121938074D01*
X109262419Y-121917250D01*
X109269651Y-121897038D01*
X109278830Y-121877632D01*
X109289866Y-121859219D01*
X109302654Y-121841976D01*
X109317070Y-121826070D01*
X109332976Y-121811654D01*
X109350219Y-121798866D01*
X109368632Y-121787830D01*
X109388038Y-121778651D01*
X109408250Y-121771419D01*
X109429074Y-121766203D01*
X109450309Y-121763053D01*
X109471750Y-121762000D01*
X109984250Y-121762000D01*
X110005691Y-121763053D01*
X110005691Y-121763053D01*
G37*
D11*
G04 #@! TD*
G04 #@! TO.P,R4,1*
G04 #@! TO.N,GND*
X109728000Y-122199500D03*
D10*
G04 #@! TO.N,Net-(IC1-Pad44)*
G04 #@! TO.C,R4*
G36*
X110005691Y-120188053D02*
X110026926Y-120191203D01*
X110047750Y-120196419D01*
X110067962Y-120203651D01*
X110087368Y-120212830D01*
X110105781Y-120223866D01*
X110123024Y-120236654D01*
X110138930Y-120251070D01*
X110153346Y-120266976D01*
X110166134Y-120284219D01*
X110177170Y-120302632D01*
X110186349Y-120322038D01*
X110193581Y-120342250D01*
X110198797Y-120363074D01*
X110201947Y-120384309D01*
X110203000Y-120405750D01*
X110203000Y-120843250D01*
X110201947Y-120864691D01*
X110198797Y-120885926D01*
X110193581Y-120906750D01*
X110186349Y-120926962D01*
X110177170Y-120946368D01*
X110166134Y-120964781D01*
X110153346Y-120982024D01*
X110138930Y-120997930D01*
X110123024Y-121012346D01*
X110105781Y-121025134D01*
X110087368Y-121036170D01*
X110067962Y-121045349D01*
X110047750Y-121052581D01*
X110026926Y-121057797D01*
X110005691Y-121060947D01*
X109984250Y-121062000D01*
X109471750Y-121062000D01*
X109450309Y-121060947D01*
X109429074Y-121057797D01*
X109408250Y-121052581D01*
X109388038Y-121045349D01*
X109368632Y-121036170D01*
X109350219Y-121025134D01*
X109332976Y-121012346D01*
X109317070Y-120997930D01*
X109302654Y-120982024D01*
X109289866Y-120964781D01*
X109278830Y-120946368D01*
X109269651Y-120926962D01*
X109262419Y-120906750D01*
X109257203Y-120885926D01*
X109254053Y-120864691D01*
X109253000Y-120843250D01*
X109253000Y-120405750D01*
X109254053Y-120384309D01*
X109257203Y-120363074D01*
X109262419Y-120342250D01*
X109269651Y-120322038D01*
X109278830Y-120302632D01*
X109289866Y-120284219D01*
X109302654Y-120266976D01*
X109317070Y-120251070D01*
X109332976Y-120236654D01*
X109350219Y-120223866D01*
X109368632Y-120212830D01*
X109388038Y-120203651D01*
X109408250Y-120196419D01*
X109429074Y-120191203D01*
X109450309Y-120188053D01*
X109471750Y-120187000D01*
X109984250Y-120187000D01*
X110005691Y-120188053D01*
X110005691Y-120188053D01*
G37*
D11*
G04 #@! TD*
G04 #@! TO.P,R4,2*
G04 #@! TO.N,Net-(IC1-Pad44)*
X109728000Y-120624500D03*
D10*
G04 #@! TO.N,GND*
G04 #@! TO.C,C8*
G36*
X109751691Y-128951053D02*
X109772926Y-128954203D01*
X109793750Y-128959419D01*
X109813962Y-128966651D01*
X109833368Y-128975830D01*
X109851781Y-128986866D01*
X109869024Y-128999654D01*
X109884930Y-129014070D01*
X109899346Y-129029976D01*
X109912134Y-129047219D01*
X109923170Y-129065632D01*
X109932349Y-129085038D01*
X109939581Y-129105250D01*
X109944797Y-129126074D01*
X109947947Y-129147309D01*
X109949000Y-129168750D01*
X109949000Y-129606250D01*
X109947947Y-129627691D01*
X109944797Y-129648926D01*
X109939581Y-129669750D01*
X109932349Y-129689962D01*
X109923170Y-129709368D01*
X109912134Y-129727781D01*
X109899346Y-129745024D01*
X109884930Y-129760930D01*
X109869024Y-129775346D01*
X109851781Y-129788134D01*
X109833368Y-129799170D01*
X109813962Y-129808349D01*
X109793750Y-129815581D01*
X109772926Y-129820797D01*
X109751691Y-129823947D01*
X109730250Y-129825000D01*
X109217750Y-129825000D01*
X109196309Y-129823947D01*
X109175074Y-129820797D01*
X109154250Y-129815581D01*
X109134038Y-129808349D01*
X109114632Y-129799170D01*
X109096219Y-129788134D01*
X109078976Y-129775346D01*
X109063070Y-129760930D01*
X109048654Y-129745024D01*
X109035866Y-129727781D01*
X109024830Y-129709368D01*
X109015651Y-129689962D01*
X109008419Y-129669750D01*
X109003203Y-129648926D01*
X109000053Y-129627691D01*
X108999000Y-129606250D01*
X108999000Y-129168750D01*
X109000053Y-129147309D01*
X109003203Y-129126074D01*
X109008419Y-129105250D01*
X109015651Y-129085038D01*
X109024830Y-129065632D01*
X109035866Y-129047219D01*
X109048654Y-129029976D01*
X109063070Y-129014070D01*
X109078976Y-128999654D01*
X109096219Y-128986866D01*
X109114632Y-128975830D01*
X109134038Y-128966651D01*
X109154250Y-128959419D01*
X109175074Y-128954203D01*
X109196309Y-128951053D01*
X109217750Y-128950000D01*
X109730250Y-128950000D01*
X109751691Y-128951053D01*
X109751691Y-128951053D01*
G37*
D11*
G04 #@! TD*
G04 #@! TO.P,C8,2*
G04 #@! TO.N,GND*
X109474000Y-129387500D03*
D10*
G04 #@! TO.N,+3V3*
G04 #@! TO.C,C8*
G36*
X109751691Y-130526053D02*
X109772926Y-130529203D01*
X109793750Y-130534419D01*
X109813962Y-130541651D01*
X109833368Y-130550830D01*
X109851781Y-130561866D01*
X109869024Y-130574654D01*
X109884930Y-130589070D01*
X109899346Y-130604976D01*
X109912134Y-130622219D01*
X109923170Y-130640632D01*
X109932349Y-130660038D01*
X109939581Y-130680250D01*
X109944797Y-130701074D01*
X109947947Y-130722309D01*
X109949000Y-130743750D01*
X109949000Y-131181250D01*
X109947947Y-131202691D01*
X109944797Y-131223926D01*
X109939581Y-131244750D01*
X109932349Y-131264962D01*
X109923170Y-131284368D01*
X109912134Y-131302781D01*
X109899346Y-131320024D01*
X109884930Y-131335930D01*
X109869024Y-131350346D01*
X109851781Y-131363134D01*
X109833368Y-131374170D01*
X109813962Y-131383349D01*
X109793750Y-131390581D01*
X109772926Y-131395797D01*
X109751691Y-131398947D01*
X109730250Y-131400000D01*
X109217750Y-131400000D01*
X109196309Y-131398947D01*
X109175074Y-131395797D01*
X109154250Y-131390581D01*
X109134038Y-131383349D01*
X109114632Y-131374170D01*
X109096219Y-131363134D01*
X109078976Y-131350346D01*
X109063070Y-131335930D01*
X109048654Y-131320024D01*
X109035866Y-131302781D01*
X109024830Y-131284368D01*
X109015651Y-131264962D01*
X109008419Y-131244750D01*
X109003203Y-131223926D01*
X109000053Y-131202691D01*
X108999000Y-131181250D01*
X108999000Y-130743750D01*
X109000053Y-130722309D01*
X109003203Y-130701074D01*
X109008419Y-130680250D01*
X109015651Y-130660038D01*
X109024830Y-130640632D01*
X109035866Y-130622219D01*
X109048654Y-130604976D01*
X109063070Y-130589070D01*
X109078976Y-130574654D01*
X109096219Y-130561866D01*
X109114632Y-130550830D01*
X109134038Y-130541651D01*
X109154250Y-130534419D01*
X109175074Y-130529203D01*
X109196309Y-130526053D01*
X109217750Y-130525000D01*
X109730250Y-130525000D01*
X109751691Y-130526053D01*
X109751691Y-130526053D01*
G37*
D11*
G04 #@! TD*
G04 #@! TO.P,C8,1*
G04 #@! TO.N,+3V3*
X109474000Y-130962500D03*
D10*
G04 #@! TO.N,+5V*
G04 #@! TO.C,C7*
G36*
X112609691Y-134273053D02*
X112630926Y-134276203D01*
X112651750Y-134281419D01*
X112671962Y-134288651D01*
X112691368Y-134297830D01*
X112709781Y-134308866D01*
X112727024Y-134321654D01*
X112742930Y-134336070D01*
X112757346Y-134351976D01*
X112770134Y-134369219D01*
X112781170Y-134387632D01*
X112790349Y-134407038D01*
X112797581Y-134427250D01*
X112802797Y-134448074D01*
X112805947Y-134469309D01*
X112807000Y-134490750D01*
X112807000Y-135003250D01*
X112805947Y-135024691D01*
X112802797Y-135045926D01*
X112797581Y-135066750D01*
X112790349Y-135086962D01*
X112781170Y-135106368D01*
X112770134Y-135124781D01*
X112757346Y-135142024D01*
X112742930Y-135157930D01*
X112727024Y-135172346D01*
X112709781Y-135185134D01*
X112691368Y-135196170D01*
X112671962Y-135205349D01*
X112651750Y-135212581D01*
X112630926Y-135217797D01*
X112609691Y-135220947D01*
X112588250Y-135222000D01*
X112150750Y-135222000D01*
X112129309Y-135220947D01*
X112108074Y-135217797D01*
X112087250Y-135212581D01*
X112067038Y-135205349D01*
X112047632Y-135196170D01*
X112029219Y-135185134D01*
X112011976Y-135172346D01*
X111996070Y-135157930D01*
X111981654Y-135142024D01*
X111968866Y-135124781D01*
X111957830Y-135106368D01*
X111948651Y-135086962D01*
X111941419Y-135066750D01*
X111936203Y-135045926D01*
X111933053Y-135024691D01*
X111932000Y-135003250D01*
X111932000Y-134490750D01*
X111933053Y-134469309D01*
X111936203Y-134448074D01*
X111941419Y-134427250D01*
X111948651Y-134407038D01*
X111957830Y-134387632D01*
X111968866Y-134369219D01*
X111981654Y-134351976D01*
X111996070Y-134336070D01*
X112011976Y-134321654D01*
X112029219Y-134308866D01*
X112047632Y-134297830D01*
X112067038Y-134288651D01*
X112087250Y-134281419D01*
X112108074Y-134276203D01*
X112129309Y-134273053D01*
X112150750Y-134272000D01*
X112588250Y-134272000D01*
X112609691Y-134273053D01*
X112609691Y-134273053D01*
G37*
D11*
G04 #@! TD*
G04 #@! TO.P,C7,1*
G04 #@! TO.N,+5V*
X112369500Y-134747000D03*
D10*
G04 #@! TO.N,GND*
G04 #@! TO.C,C7*
G36*
X114184691Y-134273053D02*
X114205926Y-134276203D01*
X114226750Y-134281419D01*
X114246962Y-134288651D01*
X114266368Y-134297830D01*
X114284781Y-134308866D01*
X114302024Y-134321654D01*
X114317930Y-134336070D01*
X114332346Y-134351976D01*
X114345134Y-134369219D01*
X114356170Y-134387632D01*
X114365349Y-134407038D01*
X114372581Y-134427250D01*
X114377797Y-134448074D01*
X114380947Y-134469309D01*
X114382000Y-134490750D01*
X114382000Y-135003250D01*
X114380947Y-135024691D01*
X114377797Y-135045926D01*
X114372581Y-135066750D01*
X114365349Y-135086962D01*
X114356170Y-135106368D01*
X114345134Y-135124781D01*
X114332346Y-135142024D01*
X114317930Y-135157930D01*
X114302024Y-135172346D01*
X114284781Y-135185134D01*
X114266368Y-135196170D01*
X114246962Y-135205349D01*
X114226750Y-135212581D01*
X114205926Y-135217797D01*
X114184691Y-135220947D01*
X114163250Y-135222000D01*
X113725750Y-135222000D01*
X113704309Y-135220947D01*
X113683074Y-135217797D01*
X113662250Y-135212581D01*
X113642038Y-135205349D01*
X113622632Y-135196170D01*
X113604219Y-135185134D01*
X113586976Y-135172346D01*
X113571070Y-135157930D01*
X113556654Y-135142024D01*
X113543866Y-135124781D01*
X113532830Y-135106368D01*
X113523651Y-135086962D01*
X113516419Y-135066750D01*
X113511203Y-135045926D01*
X113508053Y-135024691D01*
X113507000Y-135003250D01*
X113507000Y-134490750D01*
X113508053Y-134469309D01*
X113511203Y-134448074D01*
X113516419Y-134427250D01*
X113523651Y-134407038D01*
X113532830Y-134387632D01*
X113543866Y-134369219D01*
X113556654Y-134351976D01*
X113571070Y-134336070D01*
X113586976Y-134321654D01*
X113604219Y-134308866D01*
X113622632Y-134297830D01*
X113642038Y-134288651D01*
X113662250Y-134281419D01*
X113683074Y-134276203D01*
X113704309Y-134273053D01*
X113725750Y-134272000D01*
X114163250Y-134272000D01*
X114184691Y-134273053D01*
X114184691Y-134273053D01*
G37*
D11*
G04 #@! TD*
G04 #@! TO.P,C7,2*
G04 #@! TO.N,GND*
X113944500Y-134747000D03*
D10*
G04 #@! TO.N,GND*
G04 #@! TO.C,C4*
G36*
X112545691Y-121763053D02*
X112566926Y-121766203D01*
X112587750Y-121771419D01*
X112607962Y-121778651D01*
X112627368Y-121787830D01*
X112645781Y-121798866D01*
X112663024Y-121811654D01*
X112678930Y-121826070D01*
X112693346Y-121841976D01*
X112706134Y-121859219D01*
X112717170Y-121877632D01*
X112726349Y-121897038D01*
X112733581Y-121917250D01*
X112738797Y-121938074D01*
X112741947Y-121959309D01*
X112743000Y-121980750D01*
X112743000Y-122418250D01*
X112741947Y-122439691D01*
X112738797Y-122460926D01*
X112733581Y-122481750D01*
X112726349Y-122501962D01*
X112717170Y-122521368D01*
X112706134Y-122539781D01*
X112693346Y-122557024D01*
X112678930Y-122572930D01*
X112663024Y-122587346D01*
X112645781Y-122600134D01*
X112627368Y-122611170D01*
X112607962Y-122620349D01*
X112587750Y-122627581D01*
X112566926Y-122632797D01*
X112545691Y-122635947D01*
X112524250Y-122637000D01*
X112011750Y-122637000D01*
X111990309Y-122635947D01*
X111969074Y-122632797D01*
X111948250Y-122627581D01*
X111928038Y-122620349D01*
X111908632Y-122611170D01*
X111890219Y-122600134D01*
X111872976Y-122587346D01*
X111857070Y-122572930D01*
X111842654Y-122557024D01*
X111829866Y-122539781D01*
X111818830Y-122521368D01*
X111809651Y-122501962D01*
X111802419Y-122481750D01*
X111797203Y-122460926D01*
X111794053Y-122439691D01*
X111793000Y-122418250D01*
X111793000Y-121980750D01*
X111794053Y-121959309D01*
X111797203Y-121938074D01*
X111802419Y-121917250D01*
X111809651Y-121897038D01*
X111818830Y-121877632D01*
X111829866Y-121859219D01*
X111842654Y-121841976D01*
X111857070Y-121826070D01*
X111872976Y-121811654D01*
X111890219Y-121798866D01*
X111908632Y-121787830D01*
X111928038Y-121778651D01*
X111948250Y-121771419D01*
X111969074Y-121766203D01*
X111990309Y-121763053D01*
X112011750Y-121762000D01*
X112524250Y-121762000D01*
X112545691Y-121763053D01*
X112545691Y-121763053D01*
G37*
D11*
G04 #@! TD*
G04 #@! TO.P,C4,2*
G04 #@! TO.N,GND*
X112268000Y-122199500D03*
D10*
G04 #@! TO.N,+3V3*
G04 #@! TO.C,C4*
G36*
X112545691Y-120188053D02*
X112566926Y-120191203D01*
X112587750Y-120196419D01*
X112607962Y-120203651D01*
X112627368Y-120212830D01*
X112645781Y-120223866D01*
X112663024Y-120236654D01*
X112678930Y-120251070D01*
X112693346Y-120266976D01*
X112706134Y-120284219D01*
X112717170Y-120302632D01*
X112726349Y-120322038D01*
X112733581Y-120342250D01*
X112738797Y-120363074D01*
X112741947Y-120384309D01*
X112743000Y-120405750D01*
X112743000Y-120843250D01*
X112741947Y-120864691D01*
X112738797Y-120885926D01*
X112733581Y-120906750D01*
X112726349Y-120926962D01*
X112717170Y-120946368D01*
X112706134Y-120964781D01*
X112693346Y-120982024D01*
X112678930Y-120997930D01*
X112663024Y-121012346D01*
X112645781Y-121025134D01*
X112627368Y-121036170D01*
X112607962Y-121045349D01*
X112587750Y-121052581D01*
X112566926Y-121057797D01*
X112545691Y-121060947D01*
X112524250Y-121062000D01*
X112011750Y-121062000D01*
X111990309Y-121060947D01*
X111969074Y-121057797D01*
X111948250Y-121052581D01*
X111928038Y-121045349D01*
X111908632Y-121036170D01*
X111890219Y-121025134D01*
X111872976Y-121012346D01*
X111857070Y-120997930D01*
X111842654Y-120982024D01*
X111829866Y-120964781D01*
X111818830Y-120946368D01*
X111809651Y-120926962D01*
X111802419Y-120906750D01*
X111797203Y-120885926D01*
X111794053Y-120864691D01*
X111793000Y-120843250D01*
X111793000Y-120405750D01*
X111794053Y-120384309D01*
X111797203Y-120363074D01*
X111802419Y-120342250D01*
X111809651Y-120322038D01*
X111818830Y-120302632D01*
X111829866Y-120284219D01*
X111842654Y-120266976D01*
X111857070Y-120251070D01*
X111872976Y-120236654D01*
X111890219Y-120223866D01*
X111908632Y-120212830D01*
X111928038Y-120203651D01*
X111948250Y-120196419D01*
X111969074Y-120191203D01*
X111990309Y-120188053D01*
X112011750Y-120187000D01*
X112524250Y-120187000D01*
X112545691Y-120188053D01*
X112545691Y-120188053D01*
G37*
D11*
G04 #@! TD*
G04 #@! TO.P,C4,1*
G04 #@! TO.N,+3V3*
X112268000Y-120624500D03*
D10*
G04 #@! TO.N,+3V3*
G04 #@! TO.C,C3*
G36*
X107465691Y-119807053D02*
X107486926Y-119810203D01*
X107507750Y-119815419D01*
X107527962Y-119822651D01*
X107547368Y-119831830D01*
X107565781Y-119842866D01*
X107583024Y-119855654D01*
X107598930Y-119870070D01*
X107613346Y-119885976D01*
X107626134Y-119903219D01*
X107637170Y-119921632D01*
X107646349Y-119941038D01*
X107653581Y-119961250D01*
X107658797Y-119982074D01*
X107661947Y-120003309D01*
X107663000Y-120024750D01*
X107663000Y-120462250D01*
X107661947Y-120483691D01*
X107658797Y-120504926D01*
X107653581Y-120525750D01*
X107646349Y-120545962D01*
X107637170Y-120565368D01*
X107626134Y-120583781D01*
X107613346Y-120601024D01*
X107598930Y-120616930D01*
X107583024Y-120631346D01*
X107565781Y-120644134D01*
X107547368Y-120655170D01*
X107527962Y-120664349D01*
X107507750Y-120671581D01*
X107486926Y-120676797D01*
X107465691Y-120679947D01*
X107444250Y-120681000D01*
X106931750Y-120681000D01*
X106910309Y-120679947D01*
X106889074Y-120676797D01*
X106868250Y-120671581D01*
X106848038Y-120664349D01*
X106828632Y-120655170D01*
X106810219Y-120644134D01*
X106792976Y-120631346D01*
X106777070Y-120616930D01*
X106762654Y-120601024D01*
X106749866Y-120583781D01*
X106738830Y-120565368D01*
X106729651Y-120545962D01*
X106722419Y-120525750D01*
X106717203Y-120504926D01*
X106714053Y-120483691D01*
X106713000Y-120462250D01*
X106713000Y-120024750D01*
X106714053Y-120003309D01*
X106717203Y-119982074D01*
X106722419Y-119961250D01*
X106729651Y-119941038D01*
X106738830Y-119921632D01*
X106749866Y-119903219D01*
X106762654Y-119885976D01*
X106777070Y-119870070D01*
X106792976Y-119855654D01*
X106810219Y-119842866D01*
X106828632Y-119831830D01*
X106848038Y-119822651D01*
X106868250Y-119815419D01*
X106889074Y-119810203D01*
X106910309Y-119807053D01*
X106931750Y-119806000D01*
X107444250Y-119806000D01*
X107465691Y-119807053D01*
X107465691Y-119807053D01*
G37*
D11*
G04 #@! TD*
G04 #@! TO.P,C3,1*
G04 #@! TO.N,+3V3*
X107188000Y-120243500D03*
D10*
G04 #@! TO.N,GND*
G04 #@! TO.C,C3*
G36*
X107465691Y-121382053D02*
X107486926Y-121385203D01*
X107507750Y-121390419D01*
X107527962Y-121397651D01*
X107547368Y-121406830D01*
X107565781Y-121417866D01*
X107583024Y-121430654D01*
X107598930Y-121445070D01*
X107613346Y-121460976D01*
X107626134Y-121478219D01*
X107637170Y-121496632D01*
X107646349Y-121516038D01*
X107653581Y-121536250D01*
X107658797Y-121557074D01*
X107661947Y-121578309D01*
X107663000Y-121599750D01*
X107663000Y-122037250D01*
X107661947Y-122058691D01*
X107658797Y-122079926D01*
X107653581Y-122100750D01*
X107646349Y-122120962D01*
X107637170Y-122140368D01*
X107626134Y-122158781D01*
X107613346Y-122176024D01*
X107598930Y-122191930D01*
X107583024Y-122206346D01*
X107565781Y-122219134D01*
X107547368Y-122230170D01*
X107527962Y-122239349D01*
X107507750Y-122246581D01*
X107486926Y-122251797D01*
X107465691Y-122254947D01*
X107444250Y-122256000D01*
X106931750Y-122256000D01*
X106910309Y-122254947D01*
X106889074Y-122251797D01*
X106868250Y-122246581D01*
X106848038Y-122239349D01*
X106828632Y-122230170D01*
X106810219Y-122219134D01*
X106792976Y-122206346D01*
X106777070Y-122191930D01*
X106762654Y-122176024D01*
X106749866Y-122158781D01*
X106738830Y-122140368D01*
X106729651Y-122120962D01*
X106722419Y-122100750D01*
X106717203Y-122079926D01*
X106714053Y-122058691D01*
X106713000Y-122037250D01*
X106713000Y-121599750D01*
X106714053Y-121578309D01*
X106717203Y-121557074D01*
X106722419Y-121536250D01*
X106729651Y-121516038D01*
X106738830Y-121496632D01*
X106749866Y-121478219D01*
X106762654Y-121460976D01*
X106777070Y-121445070D01*
X106792976Y-121430654D01*
X106810219Y-121417866D01*
X106828632Y-121406830D01*
X106848038Y-121397651D01*
X106868250Y-121390419D01*
X106889074Y-121385203D01*
X106910309Y-121382053D01*
X106931750Y-121381000D01*
X107444250Y-121381000D01*
X107465691Y-121382053D01*
X107465691Y-121382053D01*
G37*
D11*
G04 #@! TD*
G04 #@! TO.P,C3,2*
G04 #@! TO.N,GND*
X107188000Y-121818500D03*
D10*
G04 #@! TO.N,+3V3*
G04 #@! TO.C,C1*
G36*
X112545691Y-125146053D02*
X112566926Y-125149203D01*
X112587750Y-125154419D01*
X112607962Y-125161651D01*
X112627368Y-125170830D01*
X112645781Y-125181866D01*
X112663024Y-125194654D01*
X112678930Y-125209070D01*
X112693346Y-125224976D01*
X112706134Y-125242219D01*
X112717170Y-125260632D01*
X112726349Y-125280038D01*
X112733581Y-125300250D01*
X112738797Y-125321074D01*
X112741947Y-125342309D01*
X112743000Y-125363750D01*
X112743000Y-125801250D01*
X112741947Y-125822691D01*
X112738797Y-125843926D01*
X112733581Y-125864750D01*
X112726349Y-125884962D01*
X112717170Y-125904368D01*
X112706134Y-125922781D01*
X112693346Y-125940024D01*
X112678930Y-125955930D01*
X112663024Y-125970346D01*
X112645781Y-125983134D01*
X112627368Y-125994170D01*
X112607962Y-126003349D01*
X112587750Y-126010581D01*
X112566926Y-126015797D01*
X112545691Y-126018947D01*
X112524250Y-126020000D01*
X112011750Y-126020000D01*
X111990309Y-126018947D01*
X111969074Y-126015797D01*
X111948250Y-126010581D01*
X111928038Y-126003349D01*
X111908632Y-125994170D01*
X111890219Y-125983134D01*
X111872976Y-125970346D01*
X111857070Y-125955930D01*
X111842654Y-125940024D01*
X111829866Y-125922781D01*
X111818830Y-125904368D01*
X111809651Y-125884962D01*
X111802419Y-125864750D01*
X111797203Y-125843926D01*
X111794053Y-125822691D01*
X111793000Y-125801250D01*
X111793000Y-125363750D01*
X111794053Y-125342309D01*
X111797203Y-125321074D01*
X111802419Y-125300250D01*
X111809651Y-125280038D01*
X111818830Y-125260632D01*
X111829866Y-125242219D01*
X111842654Y-125224976D01*
X111857070Y-125209070D01*
X111872976Y-125194654D01*
X111890219Y-125181866D01*
X111908632Y-125170830D01*
X111928038Y-125161651D01*
X111948250Y-125154419D01*
X111969074Y-125149203D01*
X111990309Y-125146053D01*
X112011750Y-125145000D01*
X112524250Y-125145000D01*
X112545691Y-125146053D01*
X112545691Y-125146053D01*
G37*
D11*
G04 #@! TD*
G04 #@! TO.P,C1,1*
G04 #@! TO.N,+3V3*
X112268000Y-125582500D03*
D10*
G04 #@! TO.N,GND*
G04 #@! TO.C,C1*
G36*
X112545691Y-123571053D02*
X112566926Y-123574203D01*
X112587750Y-123579419D01*
X112607962Y-123586651D01*
X112627368Y-123595830D01*
X112645781Y-123606866D01*
X112663024Y-123619654D01*
X112678930Y-123634070D01*
X112693346Y-123649976D01*
X112706134Y-123667219D01*
X112717170Y-123685632D01*
X112726349Y-123705038D01*
X112733581Y-123725250D01*
X112738797Y-123746074D01*
X112741947Y-123767309D01*
X112743000Y-123788750D01*
X112743000Y-124226250D01*
X112741947Y-124247691D01*
X112738797Y-124268926D01*
X112733581Y-124289750D01*
X112726349Y-124309962D01*
X112717170Y-124329368D01*
X112706134Y-124347781D01*
X112693346Y-124365024D01*
X112678930Y-124380930D01*
X112663024Y-124395346D01*
X112645781Y-124408134D01*
X112627368Y-124419170D01*
X112607962Y-124428349D01*
X112587750Y-124435581D01*
X112566926Y-124440797D01*
X112545691Y-124443947D01*
X112524250Y-124445000D01*
X112011750Y-124445000D01*
X111990309Y-124443947D01*
X111969074Y-124440797D01*
X111948250Y-124435581D01*
X111928038Y-124428349D01*
X111908632Y-124419170D01*
X111890219Y-124408134D01*
X111872976Y-124395346D01*
X111857070Y-124380930D01*
X111842654Y-124365024D01*
X111829866Y-124347781D01*
X111818830Y-124329368D01*
X111809651Y-124309962D01*
X111802419Y-124289750D01*
X111797203Y-124268926D01*
X111794053Y-124247691D01*
X111793000Y-124226250D01*
X111793000Y-123788750D01*
X111794053Y-123767309D01*
X111797203Y-123746074D01*
X111802419Y-123725250D01*
X111809651Y-123705038D01*
X111818830Y-123685632D01*
X111829866Y-123667219D01*
X111842654Y-123649976D01*
X111857070Y-123634070D01*
X111872976Y-123619654D01*
X111890219Y-123606866D01*
X111908632Y-123595830D01*
X111928038Y-123586651D01*
X111948250Y-123579419D01*
X111969074Y-123574203D01*
X111990309Y-123571053D01*
X112011750Y-123570000D01*
X112524250Y-123570000D01*
X112545691Y-123571053D01*
X112545691Y-123571053D01*
G37*
D11*
G04 #@! TD*
G04 #@! TO.P,C1,2*
G04 #@! TO.N,GND*
X112268000Y-124007500D03*
D16*
G04 #@! TO.N,Net-(IC1-Pad44)*
X108458000Y-118658000D03*
G04 #@! TO.N,GND*
X109118400Y-123774200D03*
X107442000Y-123291600D03*
X106400600Y-123317000D03*
X110058200Y-123672600D03*
X110972600Y-123266200D03*
X108458000Y-121869200D03*
X108483400Y-120800000D03*
X110998000Y-122199400D03*
X111506000Y-104521000D03*
X109088347Y-128528653D03*
X104140000Y-120396000D03*
X111035000Y-120956000D03*
X106934000Y-123956000D03*
X106934000Y-123956000D03*
X108035000Y-123956000D03*
X108464200Y-122885200D03*
D17*
X101346000Y-101282500D03*
D16*
X100965000Y-123571000D03*
G04 #@! TO.N,/D-*
X113390000Y-122731000D03*
G04 #@! TO.N,/D+*
X113619712Y-121757741D03*
G04 #@! TO.N,+3V3*
X109347000Y-104521000D03*
X112395000Y-127127000D03*
X104267000Y-125349000D03*
X105156000Y-118618000D03*
X112522000Y-119507000D03*
X109347000Y-131953000D03*
X115214000Y-128524000D03*
X115214000Y-127635000D03*
X115214000Y-126746000D03*
G04 #@! TO.N,/CMD*
X108077000Y-112141000D03*
X112395000Y-111633000D03*
G04 #@! TO.N,/CLK*
X113415653Y-112898347D03*
X109243652Y-112498348D03*
G04 #@! TO.N,/D2*
X106045000Y-113284000D03*
X110871000Y-113284000D03*
G04 #@! TO.N,/DEB-IO*
X111687130Y-114009000D03*
X103886000Y-114046000D03*
G04 #@! TO.N,/DEB-CLK*
X110871000Y-114808000D03*
X104775000Y-114808000D03*
G04 #@! TO.N,Net-(C9-Pad1)*
X104267000Y-123698000D03*
G04 #@! TO.N,Net-(C12-Pad1)*
X110744000Y-128016000D03*
G04 #@! TD*
D18*
G04 #@! TO.N,Net-(IC1-Pad44)*
X109728000Y-119928000D02*
X108458000Y-118658000D01*
X109728000Y-120624500D02*
X109728000Y-119928000D01*
D19*
G04 #@! TO.N,GND*
X111506000Y-108229500D02*
X111023500Y-108712000D01*
D20*
X111506000Y-104521000D02*
X111506000Y-108229500D01*
D19*
X111023500Y-108712000D02*
X111023500Y-110490000D01*
D20*
X109088347Y-128528653D02*
X109224653Y-128528653D01*
X109474000Y-128778000D02*
X109474000Y-129387500D01*
X109224653Y-128528653D02*
X109474000Y-128778000D01*
X113944500Y-138413500D02*
X114110000Y-138579000D01*
X113944500Y-134747000D02*
X113944500Y-138413500D01*
D21*
X104166000Y-140335000D02*
X102410000Y-138579000D01*
X112395000Y-140335000D02*
X104166000Y-140335000D01*
X114110000Y-138579000D02*
X114110000Y-138620000D01*
X114110000Y-138620000D02*
X112395000Y-140335000D01*
X114110000Y-138579000D02*
X114110000Y-137794500D01*
X114110000Y-137794500D02*
X115633500Y-136271000D01*
X102410000Y-138579000D02*
X102410000Y-138097000D01*
X102410000Y-138097000D02*
X100838000Y-136525000D01*
D18*
G04 #@! TO.N,/D-*
X110109000Y-134493000D02*
X109372500Y-134493000D01*
X113982500Y-130619500D02*
X110109000Y-134493000D01*
X113390000Y-122731000D02*
X113982500Y-123323500D01*
X113982500Y-123323500D02*
X113982500Y-130619500D01*
G04 #@! TO.N,/D+*
X110490000Y-136931500D02*
X110490000Y-134874000D01*
X109118500Y-138303000D02*
X110490000Y-136931500D01*
X110490000Y-134874000D02*
X114432509Y-130931491D01*
X114432509Y-130931491D02*
X114432509Y-130042491D01*
X114432511Y-122570540D02*
X114019711Y-122157740D01*
X114432509Y-130042491D02*
X114432511Y-130042489D01*
X114019711Y-122157740D02*
X113619712Y-121757741D01*
X114432511Y-130042489D02*
X114432511Y-122570540D01*
D20*
G04 #@! TO.N,+5V*
X112369500Y-134747000D02*
X111760000Y-135356500D01*
X111760000Y-135356500D02*
X111760000Y-136379000D01*
D19*
G04 #@! TO.N,+3V3*
X109347000Y-108610500D02*
X109448500Y-108712000D01*
D20*
X109347000Y-104521000D02*
X109347000Y-108610500D01*
D19*
X109448500Y-108712000D02*
X109448500Y-110490000D01*
D22*
X103505000Y-102997000D02*
X103505000Y-101446000D01*
X109347000Y-104521000D02*
X105029000Y-104521000D01*
X105029000Y-104521000D02*
X103505000Y-102997000D01*
D18*
X112522000Y-119507000D02*
X112268000Y-119761000D01*
X112268000Y-119761000D02*
X112268000Y-120624500D01*
D20*
X109474000Y-131500000D02*
X109347000Y-131627000D01*
X109474000Y-130962500D02*
X109474000Y-131500000D01*
X109347000Y-131627000D02*
X109347000Y-131953000D01*
D22*
X112522000Y-119507000D02*
X115214000Y-119507000D01*
X106934000Y-116840000D02*
X105156000Y-118618000D01*
X112522000Y-119507000D02*
X109855000Y-116840000D01*
X109855000Y-116840000D02*
X106934000Y-116840000D01*
X109347000Y-131953000D02*
X110109000Y-131953000D01*
X110109000Y-131953000D02*
X112395000Y-129667000D01*
X112395000Y-129667000D02*
X112395000Y-127127000D01*
D21*
X109746999Y-104121001D02*
X109347000Y-104521000D01*
X110247001Y-103620999D02*
X109746999Y-104121001D01*
X115214000Y-111531000D02*
X113411000Y-109728000D01*
X115214000Y-119507000D02*
X115214000Y-111531000D01*
X113411000Y-109728000D02*
X113411000Y-108458000D01*
X113411000Y-108458000D02*
X115062000Y-106807000D01*
X114415999Y-103620999D02*
X110247001Y-103620999D01*
X115062000Y-106807000D02*
X115062000Y-104267000D01*
X115062000Y-104267000D02*
X114415999Y-103620999D01*
D18*
X107188000Y-120142000D02*
X107188000Y-120243500D01*
X106063999Y-119017999D02*
X107188000Y-120142000D01*
X105156000Y-118618000D02*
X105555999Y-119017999D01*
X105555999Y-119017999D02*
X106063999Y-119017999D01*
D23*
X112268000Y-127000000D02*
X112395000Y-127127000D01*
X112268000Y-125582500D02*
X112268000Y-127000000D01*
D21*
X115214000Y-128524000D02*
X115214000Y-119507000D01*
D18*
G04 #@! TO.N,/CMD*
X108585000Y-111633000D02*
X111829315Y-111633000D01*
X111829315Y-111633000D02*
X112395000Y-111633000D01*
X108077000Y-112141000D02*
X108585000Y-111633000D01*
G04 #@! TO.N,/CLK*
X113015654Y-112498348D02*
X109243652Y-112498348D01*
X113415653Y-112898347D02*
X113015654Y-112498348D01*
G04 #@! TO.N,/D2*
X106045000Y-113284000D02*
X110871000Y-113284000D01*
G04 #@! TO.N,/DEB-IO*
X111650130Y-114046000D02*
X103886000Y-114046000D01*
X111687130Y-114009000D02*
X111650130Y-114046000D01*
G04 #@! TO.N,/DEB-CLK*
X110871000Y-114808000D02*
X104775000Y-114808000D01*
G04 #@! TO.N,Net-(C9-Pad1)*
X105664000Y-122301000D02*
X105664000Y-121818500D01*
X104267000Y-123698000D02*
X105664000Y-122301000D01*
D23*
G04 #@! TO.N,Net-(C12-Pad1)*
X110744000Y-128016000D02*
X110744000Y-126771500D01*
X110744000Y-126771500D02*
X109220000Y-126771500D01*
X109220000Y-126771500D02*
X107696000Y-126771500D01*
X107696000Y-126771500D02*
X106172000Y-126771500D01*
D18*
G04 #@! TO.N,Net-(J2-Pad2)*
X109260000Y-136379000D02*
X108077000Y-135196000D01*
X107797500Y-134493000D02*
X107797500Y-134721500D01*
X108077000Y-135001000D02*
X108077000Y-135196000D01*
X107797500Y-134721500D02*
X108077000Y-135001000D01*
G04 #@! TO.N,Net-(J2-Pad3)*
X107543500Y-136662500D02*
X107260000Y-136379000D01*
X107543500Y-138303000D02*
X107543500Y-136662500D01*
G04 #@! TD*
D24*
G04 #@! TO.N,GND*
G36*
X102620383Y-100561383D02*
X102349192Y-100967248D01*
X102253962Y-101446000D01*
X102349192Y-101924752D01*
X102620383Y-102330617D01*
X102878000Y-102502752D01*
X102878000Y-102935253D01*
X102865718Y-102997000D01*
X102878000Y-103058746D01*
X102878000Y-103058749D01*
X102914380Y-103241642D01*
X103052959Y-103449041D01*
X103105309Y-103484020D01*
X104541981Y-104920693D01*
X104576959Y-104973041D01*
X104629307Y-105008019D01*
X104680327Y-105042110D01*
X104784357Y-105111620D01*
X104967250Y-105148000D01*
X104967254Y-105148000D01*
X105028999Y-105160282D01*
X105090744Y-105148000D01*
X108770000Y-105148000D01*
X108770001Y-108079058D01*
X108672526Y-108224940D01*
X108626615Y-108455750D01*
X108626615Y-108968250D01*
X108672526Y-109199060D01*
X108803269Y-109394731D01*
X108896500Y-109457026D01*
X108896501Y-109744974D01*
X108803269Y-109807269D01*
X108672526Y-110002940D01*
X108626615Y-110233750D01*
X108626615Y-110746250D01*
X108672526Y-110977060D01*
X108775385Y-111131000D01*
X108634433Y-111131000D01*
X108584999Y-111121167D01*
X108535565Y-111131000D01*
X108535561Y-111131000D01*
X108389130Y-111160127D01*
X108389129Y-111160128D01*
X108389128Y-111160128D01*
X108340134Y-111192865D01*
X108223079Y-111271079D01*
X108195074Y-111312991D01*
X108144065Y-111364000D01*
X107922445Y-111364000D01*
X107636865Y-111482291D01*
X107418291Y-111700865D01*
X107300000Y-111986445D01*
X107300000Y-112295555D01*
X107418291Y-112581135D01*
X107619156Y-112782000D01*
X106641844Y-112782000D01*
X106485135Y-112625291D01*
X106199555Y-112507000D01*
X105890445Y-112507000D01*
X105604865Y-112625291D01*
X105386291Y-112843865D01*
X105268000Y-113129445D01*
X105268000Y-113438555D01*
X105311677Y-113544000D01*
X104482844Y-113544000D01*
X104326135Y-113387291D01*
X104040555Y-113269000D01*
X103731445Y-113269000D01*
X103445865Y-113387291D01*
X103227291Y-113605865D01*
X103109000Y-113891445D01*
X103109000Y-114200555D01*
X103227291Y-114486135D01*
X103445865Y-114704709D01*
X103731445Y-114823000D01*
X103998000Y-114823000D01*
X103998000Y-114962555D01*
X104116291Y-115248135D01*
X104334865Y-115466709D01*
X104620445Y-115585000D01*
X104929555Y-115585000D01*
X105215135Y-115466709D01*
X105371844Y-115310000D01*
X110274156Y-115310000D01*
X110430865Y-115466709D01*
X110716445Y-115585000D01*
X111025555Y-115585000D01*
X111311135Y-115466709D01*
X111529709Y-115248135D01*
X111648000Y-114962555D01*
X111648000Y-114786000D01*
X111841685Y-114786000D01*
X112127265Y-114667709D01*
X112345839Y-114449135D01*
X112464130Y-114163555D01*
X112464130Y-113854445D01*
X112345839Y-113568865D01*
X112127265Y-113350291D01*
X111841685Y-113232000D01*
X111648000Y-113232000D01*
X111648000Y-113129445D01*
X111594526Y-113000348D01*
X112638653Y-113000348D01*
X112638653Y-113052902D01*
X112756944Y-113338482D01*
X112975518Y-113557056D01*
X113261098Y-113675347D01*
X113570208Y-113675347D01*
X113855788Y-113557056D01*
X114074362Y-113338482D01*
X114192653Y-113052902D01*
X114192653Y-112743792D01*
X114074362Y-112458212D01*
X113855788Y-112239638D01*
X113570208Y-112121347D01*
X113355006Y-112121347D01*
X113211524Y-112025475D01*
X113083961Y-112000101D01*
X113172000Y-111787555D01*
X113172000Y-111478445D01*
X113053709Y-111192865D01*
X112835135Y-110974291D01*
X112549555Y-110856000D01*
X112240445Y-110856000D01*
X112096000Y-110915831D01*
X112096000Y-110721750D01*
X111937250Y-110563000D01*
X111096500Y-110563000D01*
X111096500Y-110583000D01*
X110950500Y-110583000D01*
X110950500Y-110563000D01*
X110930500Y-110563000D01*
X110930500Y-110417000D01*
X110950500Y-110417000D01*
X110950500Y-108785000D01*
X111096500Y-108785000D01*
X111096500Y-110417000D01*
X111937250Y-110417000D01*
X112096000Y-110258250D01*
X112096000Y-109888690D01*
X111999327Y-109655301D01*
X111945026Y-109601000D01*
X111999327Y-109546699D01*
X112096000Y-109313310D01*
X112096000Y-108943750D01*
X111937250Y-108785000D01*
X111096500Y-108785000D01*
X110950500Y-108785000D01*
X110930500Y-108785000D01*
X110930500Y-108639000D01*
X110950500Y-108639000D01*
X110950500Y-107760750D01*
X111096500Y-107760750D01*
X111096500Y-108639000D01*
X111937250Y-108639000D01*
X112096000Y-108480250D01*
X112096000Y-108110690D01*
X111999327Y-107877301D01*
X111820698Y-107698673D01*
X111587309Y-107602000D01*
X111255250Y-107602000D01*
X111096500Y-107760750D01*
X110950500Y-107760750D01*
X110791750Y-107602000D01*
X110459691Y-107602000D01*
X110226302Y-107698673D01*
X110047673Y-107877301D01*
X110008355Y-107972223D01*
X109924000Y-107915859D01*
X109924000Y-105042844D01*
X110005709Y-104961135D01*
X110105710Y-104719711D01*
X110272858Y-104552563D01*
X110527423Y-104297999D01*
X114135577Y-104297999D01*
X114385001Y-104547423D01*
X114385000Y-106526577D01*
X112979441Y-107932138D01*
X112922911Y-107969910D01*
X112820620Y-108123000D01*
X112773281Y-108193848D01*
X112720737Y-108458000D01*
X112734001Y-108524681D01*
X112734000Y-109661323D01*
X112720737Y-109728000D01*
X112734000Y-109794676D01*
X112734000Y-109794677D01*
X112773280Y-109992151D01*
X112922910Y-110216089D01*
X112979441Y-110253862D01*
X114537001Y-111811423D01*
X114537000Y-118880000D01*
X112993844Y-118880000D01*
X112962135Y-118848291D01*
X112676555Y-118730000D01*
X112631712Y-118730000D01*
X110342020Y-116440309D01*
X110307041Y-116387959D01*
X110099643Y-116249380D01*
X109916750Y-116213000D01*
X109916746Y-116213000D01*
X109855000Y-116200718D01*
X109793254Y-116213000D01*
X106995746Y-116213000D01*
X106934000Y-116200718D01*
X106872254Y-116213000D01*
X106872250Y-116213000D01*
X106689357Y-116249380D01*
X106481959Y-116387959D01*
X106446979Y-116440310D01*
X105046289Y-117841000D01*
X105001445Y-117841000D01*
X104715865Y-117959291D01*
X104497291Y-118177865D01*
X104379000Y-118463445D01*
X104379000Y-118772555D01*
X104497291Y-119058135D01*
X104715865Y-119276709D01*
X104789687Y-119307287D01*
X104650673Y-119446302D01*
X104554000Y-119679691D01*
X104554000Y-120011750D01*
X104712750Y-120170500D01*
X105591000Y-120170500D01*
X105591000Y-120150500D01*
X105737000Y-120150500D01*
X105737000Y-120170500D01*
X105757000Y-120170500D01*
X105757000Y-120316500D01*
X105737000Y-120316500D01*
X105737000Y-120336500D01*
X105591000Y-120336500D01*
X105591000Y-120316500D01*
X104712750Y-120316500D01*
X104554000Y-120475250D01*
X104554000Y-120807309D01*
X104650673Y-121040698D01*
X104829301Y-121219327D01*
X104924223Y-121258645D01*
X104850526Y-121368940D01*
X104804615Y-121599750D01*
X104804615Y-122037250D01*
X104850526Y-122268060D01*
X104905192Y-122349873D01*
X104334065Y-122921000D01*
X104112445Y-122921000D01*
X103826865Y-123039291D01*
X103608291Y-123257865D01*
X103490000Y-123543445D01*
X103490000Y-123852555D01*
X103608291Y-124138135D01*
X103826865Y-124356709D01*
X104112445Y-124475000D01*
X104421555Y-124475000D01*
X104707135Y-124356709D01*
X104925709Y-124138135D01*
X105044000Y-123852555D01*
X105044000Y-123630935D01*
X105984013Y-122690923D01*
X106025921Y-122662921D01*
X106053923Y-122621013D01*
X106053926Y-122621010D01*
X106059486Y-122612689D01*
X106151060Y-122594474D01*
X106162669Y-122586717D01*
X106174673Y-122615698D01*
X106353301Y-122794327D01*
X106586690Y-122891000D01*
X106956250Y-122891000D01*
X107115000Y-122732250D01*
X107115000Y-121891500D01*
X107261000Y-121891500D01*
X107261000Y-122732250D01*
X107419750Y-122891000D01*
X107789310Y-122891000D01*
X108022699Y-122794327D01*
X108201327Y-122615698D01*
X108277727Y-122431250D01*
X108618000Y-122431250D01*
X108618000Y-122763309D01*
X108714673Y-122996698D01*
X108893301Y-123175327D01*
X109126690Y-123272000D01*
X109496250Y-123272000D01*
X109655000Y-123113250D01*
X109655000Y-122272500D01*
X109801000Y-122272500D01*
X109801000Y-123113250D01*
X109959750Y-123272000D01*
X110329310Y-123272000D01*
X110562699Y-123175327D01*
X110741327Y-122996698D01*
X110838000Y-122763309D01*
X110838000Y-122431250D01*
X111158000Y-122431250D01*
X111158000Y-122763309D01*
X111254673Y-122996698D01*
X111361474Y-123103500D01*
X111254673Y-123210302D01*
X111158000Y-123443691D01*
X111158000Y-123775750D01*
X111316750Y-123934500D01*
X112195000Y-123934500D01*
X112195000Y-122272500D01*
X111316750Y-122272500D01*
X111158000Y-122431250D01*
X110838000Y-122431250D01*
X110679250Y-122272500D01*
X109801000Y-122272500D01*
X109655000Y-122272500D01*
X108776750Y-122272500D01*
X108618000Y-122431250D01*
X108277727Y-122431250D01*
X108298000Y-122382309D01*
X108298000Y-122050250D01*
X108139250Y-121891500D01*
X107261000Y-121891500D01*
X107115000Y-121891500D01*
X107095000Y-121891500D01*
X107095000Y-121745500D01*
X107115000Y-121745500D01*
X107115000Y-121725500D01*
X107261000Y-121725500D01*
X107261000Y-121745500D01*
X108139250Y-121745500D01*
X108298000Y-121586750D01*
X108298000Y-121254691D01*
X108201327Y-121021302D01*
X108022699Y-120842673D01*
X107927777Y-120803355D01*
X108001474Y-120693060D01*
X108047385Y-120462250D01*
X108047385Y-120024750D01*
X108001474Y-119793940D01*
X107870731Y-119598269D01*
X107675060Y-119467526D01*
X107444250Y-119421615D01*
X107177550Y-119421615D01*
X106453926Y-118697992D01*
X106425920Y-118656078D01*
X106259869Y-118545126D01*
X106139523Y-118521188D01*
X106157266Y-118503445D01*
X107681000Y-118503445D01*
X107681000Y-118812555D01*
X107799291Y-119098135D01*
X108017865Y-119316709D01*
X108303445Y-119435000D01*
X108525065Y-119435000D01*
X109059695Y-119969630D01*
X109045269Y-119979269D01*
X108914526Y-120174940D01*
X108868615Y-120405750D01*
X108868615Y-120843250D01*
X108914526Y-121074060D01*
X108988223Y-121184355D01*
X108893301Y-121223673D01*
X108714673Y-121402302D01*
X108618000Y-121635691D01*
X108618000Y-121967750D01*
X108776750Y-122126500D01*
X109655000Y-122126500D01*
X109655000Y-122106500D01*
X109801000Y-122106500D01*
X109801000Y-122126500D01*
X110679250Y-122126500D01*
X110838000Y-121967750D01*
X110838000Y-121635691D01*
X110741327Y-121402302D01*
X110562699Y-121223673D01*
X110467777Y-121184355D01*
X110541474Y-121074060D01*
X110587385Y-120843250D01*
X110587385Y-120405750D01*
X110541474Y-120174940D01*
X110410731Y-119979269D01*
X110225400Y-119855435D01*
X110200873Y-119732130D01*
X110158776Y-119669127D01*
X110117926Y-119607990D01*
X110117923Y-119607987D01*
X110089921Y-119566079D01*
X110048012Y-119538076D01*
X109235000Y-118725065D01*
X109235000Y-118503445D01*
X109116709Y-118217865D01*
X108898135Y-117999291D01*
X108612555Y-117881000D01*
X108303445Y-117881000D01*
X108017865Y-117999291D01*
X107799291Y-118217865D01*
X107681000Y-118503445D01*
X106157266Y-118503445D01*
X107193711Y-117467000D01*
X109595289Y-117467000D01*
X111745000Y-119616712D01*
X111745000Y-119661555D01*
X111765908Y-119712031D01*
X111756167Y-119761000D01*
X111766000Y-119810434D01*
X111766000Y-119858508D01*
X111585269Y-119979269D01*
X111454526Y-120174940D01*
X111408615Y-120405750D01*
X111408615Y-120843250D01*
X111454526Y-121074060D01*
X111528223Y-121184355D01*
X111433301Y-121223673D01*
X111254673Y-121402302D01*
X111158000Y-121635691D01*
X111158000Y-121967750D01*
X111316750Y-122126500D01*
X112195000Y-122126500D01*
X112195000Y-122106500D01*
X112341000Y-122106500D01*
X112341000Y-122126500D01*
X112361000Y-122126500D01*
X112361000Y-122272500D01*
X112341000Y-122272500D01*
X112341000Y-123934500D01*
X113219250Y-123934500D01*
X113378000Y-123775750D01*
X113378000Y-123508000D01*
X113457065Y-123508000D01*
X113480500Y-123531435D01*
X113480501Y-130411563D01*
X110043392Y-133848674D01*
X110017731Y-133810269D01*
X109822060Y-133679526D01*
X109591250Y-133633615D01*
X109153750Y-133633615D01*
X108922940Y-133679526D01*
X108727269Y-133810269D01*
X108596526Y-134005940D01*
X108585000Y-134063885D01*
X108573474Y-134005940D01*
X108442731Y-133810269D01*
X108247060Y-133679526D01*
X108016250Y-133633615D01*
X107578750Y-133633615D01*
X107347940Y-133679526D01*
X107152269Y-133810269D01*
X107021526Y-134005940D01*
X106975615Y-134236750D01*
X106975615Y-134749250D01*
X107021526Y-134980060D01*
X107152269Y-135175731D01*
X107318047Y-135286500D01*
X107042688Y-135286500D01*
X106641149Y-135452824D01*
X106333824Y-135760149D01*
X106167500Y-136161688D01*
X106167500Y-136596312D01*
X106333824Y-136997851D01*
X106641149Y-137305176D01*
X107041501Y-137471008D01*
X107041500Y-137524565D01*
X106898269Y-137620269D01*
X106767526Y-137815940D01*
X106724454Y-138032478D01*
X106485103Y-137793127D01*
X106144392Y-137652000D01*
X105775608Y-137652000D01*
X105434897Y-137793127D01*
X105174127Y-138053897D01*
X105033000Y-138394608D01*
X105033000Y-138763392D01*
X105174127Y-139104103D01*
X105434897Y-139364873D01*
X105775608Y-139506000D01*
X106144392Y-139506000D01*
X106485103Y-139364873D01*
X106745873Y-139104103D01*
X106834460Y-138890234D01*
X106898269Y-138985731D01*
X107093940Y-139116474D01*
X107324750Y-139162385D01*
X107762250Y-139162385D01*
X107993060Y-139116474D01*
X108188731Y-138985731D01*
X108319474Y-138790060D01*
X108331000Y-138732115D01*
X108342526Y-138790060D01*
X108473269Y-138985731D01*
X108668940Y-139116474D01*
X108899750Y-139162385D01*
X109337250Y-139162385D01*
X109568060Y-139116474D01*
X109733471Y-139005950D01*
X109774127Y-139104103D01*
X110034897Y-139364873D01*
X110375608Y-139506000D01*
X110744392Y-139506000D01*
X111085103Y-139364873D01*
X111345873Y-139104103D01*
X111487000Y-138763392D01*
X111487000Y-138652000D01*
X111725000Y-138652000D01*
X111725000Y-138902000D01*
X111934483Y-139809143D01*
X112475169Y-140567068D01*
X113264743Y-141060388D01*
X113664977Y-141172114D01*
X114037000Y-141054053D01*
X114037000Y-138652000D01*
X111725000Y-138652000D01*
X111487000Y-138652000D01*
X111487000Y-138394608D01*
X111345873Y-138053897D01*
X111085103Y-137793127D01*
X110744392Y-137652000D01*
X110479435Y-137652000D01*
X110810010Y-137321425D01*
X110851921Y-137293421D01*
X110962873Y-137127370D01*
X110962951Y-137126978D01*
X111141149Y-137305176D01*
X111542688Y-137471500D01*
X111906162Y-137471500D01*
X111725000Y-138256000D01*
X111725000Y-138506000D01*
X114037000Y-138506000D01*
X114037000Y-136103947D01*
X113664977Y-135985886D01*
X113264743Y-136097612D01*
X112852500Y-136355178D01*
X112852500Y-136161688D01*
X112686176Y-135760149D01*
X112532412Y-135606385D01*
X112588250Y-135606385D01*
X112819060Y-135560474D01*
X112929355Y-135486777D01*
X112968673Y-135581699D01*
X113147302Y-135760327D01*
X113380691Y-135857000D01*
X113712750Y-135857000D01*
X113871500Y-135698250D01*
X113871500Y-134820000D01*
X114017500Y-134820000D01*
X114017500Y-135698250D01*
X114176250Y-135857000D01*
X114508309Y-135857000D01*
X114741698Y-135760327D01*
X114920327Y-135581699D01*
X115017000Y-135348310D01*
X115017000Y-134978750D01*
X114858250Y-134820000D01*
X114017500Y-134820000D01*
X113871500Y-134820000D01*
X113851500Y-134820000D01*
X113851500Y-134674000D01*
X113871500Y-134674000D01*
X113871500Y-133795750D01*
X114017500Y-133795750D01*
X114017500Y-134674000D01*
X114858250Y-134674000D01*
X115017000Y-134515250D01*
X115017000Y-134145690D01*
X114920327Y-133912301D01*
X114741698Y-133733673D01*
X114508309Y-133637000D01*
X114176250Y-133637000D01*
X114017500Y-133795750D01*
X113871500Y-133795750D01*
X113712750Y-133637000D01*
X113380691Y-133637000D01*
X113147302Y-133733673D01*
X112968673Y-133912301D01*
X112929355Y-134007223D01*
X112819060Y-133933526D01*
X112588250Y-133887615D01*
X112186319Y-133887615D01*
X114752519Y-131321416D01*
X114794430Y-131293412D01*
X114905382Y-131127361D01*
X114934509Y-130980930D01*
X114934509Y-130980925D01*
X114944342Y-130931491D01*
X114934509Y-130882057D01*
X114934509Y-130091938D01*
X114934511Y-130091928D01*
X114934511Y-130091923D01*
X114944344Y-130042489D01*
X114934511Y-129993055D01*
X114934511Y-129249251D01*
X115059445Y-129301000D01*
X115368555Y-129301000D01*
X115654135Y-129182709D01*
X115872709Y-128964135D01*
X115991000Y-128678555D01*
X115991000Y-128369445D01*
X115891000Y-128128023D01*
X115891000Y-128030977D01*
X115991000Y-127789555D01*
X115991000Y-127480445D01*
X115891000Y-127239023D01*
X115891000Y-127141977D01*
X115991000Y-126900555D01*
X115991000Y-126591445D01*
X115891000Y-126350023D01*
X115891000Y-111597676D01*
X115904263Y-111530999D01*
X115885591Y-111437130D01*
X115851720Y-111266848D01*
X115702090Y-111042910D01*
X115645560Y-111005138D01*
X114088000Y-109447579D01*
X114088000Y-108738421D01*
X115493565Y-107332858D01*
X115550089Y-107295090D01*
X115587858Y-107238565D01*
X115587860Y-107238563D01*
X115699720Y-107071153D01*
X115752263Y-106807000D01*
X115739000Y-106740322D01*
X115739000Y-104333676D01*
X115752263Y-104266999D01*
X115723222Y-104121001D01*
X115699720Y-104002848D01*
X115550090Y-103778910D01*
X115493562Y-103741140D01*
X114941862Y-103189441D01*
X114904089Y-103132909D01*
X114680151Y-102983279D01*
X114482677Y-102943999D01*
X114482675Y-102943999D01*
X114415999Y-102930736D01*
X114349323Y-102943999D01*
X110313679Y-102943999D01*
X110248328Y-102931000D01*
X110893250Y-102931000D01*
X111052000Y-102772250D01*
X111052000Y-101519000D01*
X111198000Y-101519000D01*
X111198000Y-102772250D01*
X111356750Y-102931000D01*
X112101310Y-102931000D01*
X112334699Y-102834327D01*
X112513327Y-102655698D01*
X112610000Y-102422309D01*
X112610000Y-101677750D01*
X112451250Y-101519000D01*
X111198000Y-101519000D01*
X111052000Y-101519000D01*
X111032000Y-101519000D01*
X111032000Y-101373000D01*
X111052000Y-101373000D01*
X111052000Y-101353000D01*
X111198000Y-101353000D01*
X111198000Y-101373000D01*
X112451250Y-101373000D01*
X112610000Y-101214250D01*
X112610000Y-100469691D01*
X112602672Y-100452000D01*
X116048000Y-100452000D01*
X116048000Y-108755542D01*
X115943484Y-108503220D01*
X115696780Y-108256516D01*
X115374446Y-108123000D01*
X115025554Y-108123000D01*
X114703220Y-108256516D01*
X114456516Y-108503220D01*
X114323000Y-108825554D01*
X114323000Y-109174446D01*
X114456516Y-109496780D01*
X114703220Y-109743484D01*
X115025554Y-109877000D01*
X115374446Y-109877000D01*
X115696780Y-109743484D01*
X115943484Y-109496780D01*
X116048000Y-109244458D01*
X116048001Y-137015911D01*
X115744831Y-136590932D01*
X114955257Y-136097612D01*
X114555023Y-135985886D01*
X114183000Y-136103947D01*
X114183000Y-138506000D01*
X114203000Y-138506000D01*
X114203000Y-138652000D01*
X114183000Y-138652000D01*
X114183000Y-141054053D01*
X114555023Y-141172114D01*
X114955257Y-141060388D01*
X115744831Y-140567068D01*
X116048001Y-140142089D01*
X116048001Y-141348000D01*
X100452000Y-141348000D01*
X100452000Y-140114055D01*
X100775169Y-140567068D01*
X101564743Y-141060388D01*
X101964977Y-141172114D01*
X102337000Y-141054053D01*
X102337000Y-138652000D01*
X102483000Y-138652000D01*
X102483000Y-141054053D01*
X102855023Y-141172114D01*
X103255257Y-141060388D01*
X104044831Y-140567068D01*
X104585517Y-139809143D01*
X104795000Y-138902000D01*
X104795000Y-138652000D01*
X102483000Y-138652000D01*
X102337000Y-138652000D01*
X102317000Y-138652000D01*
X102317000Y-138506000D01*
X102337000Y-138506000D01*
X102337000Y-136103947D01*
X102483000Y-136103947D01*
X102483000Y-138506000D01*
X104795000Y-138506000D01*
X104795000Y-138256000D01*
X104673721Y-137730816D01*
X105047202Y-137725673D01*
X105509159Y-137534324D01*
X105568236Y-137290474D01*
X104760000Y-136482238D01*
X104745858Y-136496380D01*
X104642620Y-136393142D01*
X104656762Y-136379000D01*
X104863238Y-136379000D01*
X105671474Y-137187236D01*
X105915324Y-137128159D01*
X106114071Y-136629010D01*
X106106673Y-136091798D01*
X105915324Y-135629841D01*
X105671474Y-135570764D01*
X104863238Y-136379000D01*
X104656762Y-136379000D01*
X103848526Y-135570764D01*
X103604676Y-135629841D01*
X103405929Y-136128990D01*
X103406801Y-136192295D01*
X103255257Y-136097612D01*
X102855023Y-135985886D01*
X102483000Y-136103947D01*
X102337000Y-136103947D01*
X101964977Y-135985886D01*
X101564743Y-136097612D01*
X100775169Y-136590932D01*
X100452000Y-137043945D01*
X100452000Y-135467526D01*
X103951764Y-135467526D01*
X104760000Y-136275762D01*
X105568236Y-135467526D01*
X105509159Y-135223676D01*
X105010010Y-135024929D01*
X104472798Y-135032327D01*
X104010841Y-135223676D01*
X103951764Y-135467526D01*
X100452000Y-135467526D01*
X100452000Y-128823691D01*
X108364000Y-128823691D01*
X108364000Y-129155750D01*
X108522750Y-129314500D01*
X109401000Y-129314500D01*
X109401000Y-128473750D01*
X109242250Y-128315000D01*
X108872690Y-128315000D01*
X108639301Y-128411673D01*
X108460673Y-128590302D01*
X108364000Y-128823691D01*
X100452000Y-128823691D01*
X100452000Y-125194445D01*
X103490000Y-125194445D01*
X103490000Y-125503555D01*
X103608291Y-125789135D01*
X103826865Y-126007709D01*
X104112445Y-126126000D01*
X104421555Y-126126000D01*
X104707135Y-126007709D01*
X104925709Y-125789135D01*
X105044000Y-125503555D01*
X105044000Y-125428250D01*
X105062000Y-125428250D01*
X105062000Y-125760309D01*
X105158673Y-125993698D01*
X105337301Y-126172327D01*
X105432223Y-126211645D01*
X105358526Y-126321940D01*
X105312615Y-126552750D01*
X105312615Y-126990250D01*
X105358526Y-127221060D01*
X105489269Y-127416731D01*
X105684940Y-127547474D01*
X105915750Y-127593385D01*
X106428250Y-127593385D01*
X106659060Y-127547474D01*
X106854731Y-127416731D01*
X106933730Y-127298500D01*
X106934270Y-127298500D01*
X107013269Y-127416731D01*
X107208940Y-127547474D01*
X107439750Y-127593385D01*
X107952250Y-127593385D01*
X108183060Y-127547474D01*
X108378731Y-127416731D01*
X108457730Y-127298500D01*
X108458270Y-127298500D01*
X108537269Y-127416731D01*
X108732940Y-127547474D01*
X108963750Y-127593385D01*
X109476250Y-127593385D01*
X109707060Y-127547474D01*
X109902731Y-127416731D01*
X109981730Y-127298500D01*
X109982270Y-127298500D01*
X110061269Y-127416731D01*
X110171063Y-127490093D01*
X110085291Y-127575865D01*
X109967000Y-127861445D01*
X109967000Y-128170555D01*
X110026831Y-128315000D01*
X109705750Y-128315000D01*
X109547000Y-128473750D01*
X109547000Y-129314500D01*
X110425250Y-129314500D01*
X110584000Y-129155750D01*
X110584000Y-128823691D01*
X110567527Y-128783921D01*
X110589445Y-128793000D01*
X110898555Y-128793000D01*
X111184135Y-128674709D01*
X111402709Y-128456135D01*
X111521000Y-128170555D01*
X111521000Y-127861445D01*
X111402709Y-127575865D01*
X111316937Y-127490093D01*
X111426731Y-127416731D01*
X111557474Y-127221060D01*
X111603385Y-126990250D01*
X111603385Y-126552750D01*
X111557474Y-126321940D01*
X111483777Y-126211645D01*
X111554850Y-126182206D01*
X111585269Y-126227731D01*
X111741001Y-126331787D01*
X111741001Y-126682155D01*
X111736291Y-126686865D01*
X111618000Y-126972445D01*
X111618000Y-127281555D01*
X111736291Y-127567135D01*
X111768001Y-127598845D01*
X111768000Y-129407288D01*
X110333385Y-130841904D01*
X110333385Y-130743750D01*
X110287474Y-130512940D01*
X110213777Y-130402645D01*
X110308699Y-130363327D01*
X110487327Y-130184698D01*
X110584000Y-129951309D01*
X110584000Y-129619250D01*
X110425250Y-129460500D01*
X109547000Y-129460500D01*
X109547000Y-129480500D01*
X109401000Y-129480500D01*
X109401000Y-129460500D01*
X108522750Y-129460500D01*
X108364000Y-129619250D01*
X108364000Y-129951309D01*
X108460673Y-130184698D01*
X108639301Y-130363327D01*
X108734223Y-130402645D01*
X108660526Y-130512940D01*
X108614615Y-130743750D01*
X108614615Y-131181250D01*
X108660526Y-131412060D01*
X108712024Y-131489132D01*
X108688291Y-131512865D01*
X108570000Y-131798445D01*
X108570000Y-132107555D01*
X108688291Y-132393135D01*
X108906865Y-132611709D01*
X109192445Y-132730000D01*
X109501555Y-132730000D01*
X109787135Y-132611709D01*
X109818844Y-132580000D01*
X110047254Y-132580000D01*
X110109000Y-132592282D01*
X110170746Y-132580000D01*
X110170750Y-132580000D01*
X110353643Y-132543620D01*
X110561041Y-132405041D01*
X110596020Y-132352691D01*
X112794694Y-130154018D01*
X112847041Y-130119041D01*
X112985620Y-129911643D01*
X113022000Y-129728750D01*
X113022000Y-129728746D01*
X113034282Y-129667001D01*
X113022000Y-129605256D01*
X113022000Y-127598844D01*
X113053709Y-127567135D01*
X113172000Y-127281555D01*
X113172000Y-126972445D01*
X113053709Y-126686865D01*
X112835135Y-126468291D01*
X112795000Y-126451667D01*
X112795000Y-126331787D01*
X112950731Y-126227731D01*
X113081474Y-126032060D01*
X113127385Y-125801250D01*
X113127385Y-125363750D01*
X113081474Y-125132940D01*
X113007777Y-125022645D01*
X113102699Y-124983327D01*
X113281327Y-124804698D01*
X113378000Y-124571309D01*
X113378000Y-124239250D01*
X113219250Y-124080500D01*
X112341000Y-124080500D01*
X112341000Y-124100500D01*
X112195000Y-124100500D01*
X112195000Y-124080500D01*
X111316750Y-124080500D01*
X111273250Y-124124000D01*
X110975750Y-124124000D01*
X110817000Y-124282750D01*
X110817000Y-125123500D01*
X110837000Y-125123500D01*
X110837000Y-125269500D01*
X110817000Y-125269500D01*
X110817000Y-125289500D01*
X110671000Y-125289500D01*
X110671000Y-125269500D01*
X109293000Y-125269500D01*
X109293000Y-125289500D01*
X109147000Y-125289500D01*
X109147000Y-125269500D01*
X107769000Y-125269500D01*
X107769000Y-125289500D01*
X107623000Y-125289500D01*
X107623000Y-125269500D01*
X106245000Y-125269500D01*
X106245000Y-125289500D01*
X106099000Y-125289500D01*
X106099000Y-125269500D01*
X105220750Y-125269500D01*
X105062000Y-125428250D01*
X105044000Y-125428250D01*
X105044000Y-125194445D01*
X104925709Y-124908865D01*
X104707135Y-124690291D01*
X104568077Y-124632691D01*
X105062000Y-124632691D01*
X105062000Y-124964750D01*
X105220750Y-125123500D01*
X106099000Y-125123500D01*
X106099000Y-124282750D01*
X106245000Y-124282750D01*
X106245000Y-125123500D01*
X107623000Y-125123500D01*
X107623000Y-124282750D01*
X107769000Y-124282750D01*
X107769000Y-125123500D01*
X109147000Y-125123500D01*
X109147000Y-124282750D01*
X109293000Y-124282750D01*
X109293000Y-125123500D01*
X110671000Y-125123500D01*
X110671000Y-124282750D01*
X110512250Y-124124000D01*
X110142690Y-124124000D01*
X109982000Y-124190560D01*
X109821310Y-124124000D01*
X109451750Y-124124000D01*
X109293000Y-124282750D01*
X109147000Y-124282750D01*
X108988250Y-124124000D01*
X108618690Y-124124000D01*
X108458000Y-124190560D01*
X108297310Y-124124000D01*
X107927750Y-124124000D01*
X107769000Y-124282750D01*
X107623000Y-124282750D01*
X107464250Y-124124000D01*
X107094690Y-124124000D01*
X106934000Y-124190560D01*
X106773310Y-124124000D01*
X106403750Y-124124000D01*
X106245000Y-124282750D01*
X106099000Y-124282750D01*
X105940250Y-124124000D01*
X105570690Y-124124000D01*
X105337301Y-124220673D01*
X105158673Y-124399302D01*
X105062000Y-124632691D01*
X104568077Y-124632691D01*
X104421555Y-124572000D01*
X104112445Y-124572000D01*
X103826865Y-124690291D01*
X103608291Y-124908865D01*
X103490000Y-125194445D01*
X100452000Y-125194445D01*
X100452000Y-109244458D01*
X100556516Y-109496780D01*
X100803220Y-109743484D01*
X101125554Y-109877000D01*
X101474446Y-109877000D01*
X101796780Y-109743484D01*
X102043484Y-109496780D01*
X102177000Y-109174446D01*
X102177000Y-108825554D01*
X102043484Y-108503220D01*
X101796780Y-108256516D01*
X101474446Y-108123000D01*
X101125554Y-108123000D01*
X100803220Y-108256516D01*
X100556516Y-108503220D01*
X100452000Y-108755542D01*
X100452000Y-100452000D01*
X102784086Y-100452000D01*
X102620383Y-100561383D01*
X102620383Y-100561383D01*
G37*
X102620383Y-100561383D02*
X102349192Y-100967248D01*
X102253962Y-101446000D01*
X102349192Y-101924752D01*
X102620383Y-102330617D01*
X102878000Y-102502752D01*
X102878000Y-102935253D01*
X102865718Y-102997000D01*
X102878000Y-103058746D01*
X102878000Y-103058749D01*
X102914380Y-103241642D01*
X103052959Y-103449041D01*
X103105309Y-103484020D01*
X104541981Y-104920693D01*
X104576959Y-104973041D01*
X104629307Y-105008019D01*
X104680327Y-105042110D01*
X104784357Y-105111620D01*
X104967250Y-105148000D01*
X104967254Y-105148000D01*
X105028999Y-105160282D01*
X105090744Y-105148000D01*
X108770000Y-105148000D01*
X108770001Y-108079058D01*
X108672526Y-108224940D01*
X108626615Y-108455750D01*
X108626615Y-108968250D01*
X108672526Y-109199060D01*
X108803269Y-109394731D01*
X108896500Y-109457026D01*
X108896501Y-109744974D01*
X108803269Y-109807269D01*
X108672526Y-110002940D01*
X108626615Y-110233750D01*
X108626615Y-110746250D01*
X108672526Y-110977060D01*
X108775385Y-111131000D01*
X108634433Y-111131000D01*
X108584999Y-111121167D01*
X108535565Y-111131000D01*
X108535561Y-111131000D01*
X108389130Y-111160127D01*
X108389129Y-111160128D01*
X108389128Y-111160128D01*
X108340134Y-111192865D01*
X108223079Y-111271079D01*
X108195074Y-111312991D01*
X108144065Y-111364000D01*
X107922445Y-111364000D01*
X107636865Y-111482291D01*
X107418291Y-111700865D01*
X107300000Y-111986445D01*
X107300000Y-112295555D01*
X107418291Y-112581135D01*
X107619156Y-112782000D01*
X106641844Y-112782000D01*
X106485135Y-112625291D01*
X106199555Y-112507000D01*
X105890445Y-112507000D01*
X105604865Y-112625291D01*
X105386291Y-112843865D01*
X105268000Y-113129445D01*
X105268000Y-113438555D01*
X105311677Y-113544000D01*
X104482844Y-113544000D01*
X104326135Y-113387291D01*
X104040555Y-113269000D01*
X103731445Y-113269000D01*
X103445865Y-113387291D01*
X103227291Y-113605865D01*
X103109000Y-113891445D01*
X103109000Y-114200555D01*
X103227291Y-114486135D01*
X103445865Y-114704709D01*
X103731445Y-114823000D01*
X103998000Y-114823000D01*
X103998000Y-114962555D01*
X104116291Y-115248135D01*
X104334865Y-115466709D01*
X104620445Y-115585000D01*
X104929555Y-115585000D01*
X105215135Y-115466709D01*
X105371844Y-115310000D01*
X110274156Y-115310000D01*
X110430865Y-115466709D01*
X110716445Y-115585000D01*
X111025555Y-115585000D01*
X111311135Y-115466709D01*
X111529709Y-115248135D01*
X111648000Y-114962555D01*
X111648000Y-114786000D01*
X111841685Y-114786000D01*
X112127265Y-114667709D01*
X112345839Y-114449135D01*
X112464130Y-114163555D01*
X112464130Y-113854445D01*
X112345839Y-113568865D01*
X112127265Y-113350291D01*
X111841685Y-113232000D01*
X111648000Y-113232000D01*
X111648000Y-113129445D01*
X111594526Y-113000348D01*
X112638653Y-113000348D01*
X112638653Y-113052902D01*
X112756944Y-113338482D01*
X112975518Y-113557056D01*
X113261098Y-113675347D01*
X113570208Y-113675347D01*
X113855788Y-113557056D01*
X114074362Y-113338482D01*
X114192653Y-113052902D01*
X114192653Y-112743792D01*
X114074362Y-112458212D01*
X113855788Y-112239638D01*
X113570208Y-112121347D01*
X113355006Y-112121347D01*
X113211524Y-112025475D01*
X113083961Y-112000101D01*
X113172000Y-111787555D01*
X113172000Y-111478445D01*
X113053709Y-111192865D01*
X112835135Y-110974291D01*
X112549555Y-110856000D01*
X112240445Y-110856000D01*
X112096000Y-110915831D01*
X112096000Y-110721750D01*
X111937250Y-110563000D01*
X111096500Y-110563000D01*
X111096500Y-110583000D01*
X110950500Y-110583000D01*
X110950500Y-110563000D01*
X110930500Y-110563000D01*
X110930500Y-110417000D01*
X110950500Y-110417000D01*
X110950500Y-108785000D01*
X111096500Y-108785000D01*
X111096500Y-110417000D01*
X111937250Y-110417000D01*
X112096000Y-110258250D01*
X112096000Y-109888690D01*
X111999327Y-109655301D01*
X111945026Y-109601000D01*
X111999327Y-109546699D01*
X112096000Y-109313310D01*
X112096000Y-108943750D01*
X111937250Y-108785000D01*
X111096500Y-108785000D01*
X110950500Y-108785000D01*
X110930500Y-108785000D01*
X110930500Y-108639000D01*
X110950500Y-108639000D01*
X110950500Y-107760750D01*
X111096500Y-107760750D01*
X111096500Y-108639000D01*
X111937250Y-108639000D01*
X112096000Y-108480250D01*
X112096000Y-108110690D01*
X111999327Y-107877301D01*
X111820698Y-107698673D01*
X111587309Y-107602000D01*
X111255250Y-107602000D01*
X111096500Y-107760750D01*
X110950500Y-107760750D01*
X110791750Y-107602000D01*
X110459691Y-107602000D01*
X110226302Y-107698673D01*
X110047673Y-107877301D01*
X110008355Y-107972223D01*
X109924000Y-107915859D01*
X109924000Y-105042844D01*
X110005709Y-104961135D01*
X110105710Y-104719711D01*
X110272858Y-104552563D01*
X110527423Y-104297999D01*
X114135577Y-104297999D01*
X114385001Y-104547423D01*
X114385000Y-106526577D01*
X112979441Y-107932138D01*
X112922911Y-107969910D01*
X112820620Y-108123000D01*
X112773281Y-108193848D01*
X112720737Y-108458000D01*
X112734001Y-108524681D01*
X112734000Y-109661323D01*
X112720737Y-109728000D01*
X112734000Y-109794676D01*
X112734000Y-109794677D01*
X112773280Y-109992151D01*
X112922910Y-110216089D01*
X112979441Y-110253862D01*
X114537001Y-111811423D01*
X114537000Y-118880000D01*
X112993844Y-118880000D01*
X112962135Y-118848291D01*
X112676555Y-118730000D01*
X112631712Y-118730000D01*
X110342020Y-116440309D01*
X110307041Y-116387959D01*
X110099643Y-116249380D01*
X109916750Y-116213000D01*
X109916746Y-116213000D01*
X109855000Y-116200718D01*
X109793254Y-116213000D01*
X106995746Y-116213000D01*
X106934000Y-116200718D01*
X106872254Y-116213000D01*
X106872250Y-116213000D01*
X106689357Y-116249380D01*
X106481959Y-116387959D01*
X106446979Y-116440310D01*
X105046289Y-117841000D01*
X105001445Y-117841000D01*
X104715865Y-117959291D01*
X104497291Y-118177865D01*
X104379000Y-118463445D01*
X104379000Y-118772555D01*
X104497291Y-119058135D01*
X104715865Y-119276709D01*
X104789687Y-119307287D01*
X104650673Y-119446302D01*
X104554000Y-119679691D01*
X104554000Y-120011750D01*
X104712750Y-120170500D01*
X105591000Y-120170500D01*
X105591000Y-120150500D01*
X105737000Y-120150500D01*
X105737000Y-120170500D01*
X105757000Y-120170500D01*
X105757000Y-120316500D01*
X105737000Y-120316500D01*
X105737000Y-120336500D01*
X105591000Y-120336500D01*
X105591000Y-120316500D01*
X104712750Y-120316500D01*
X104554000Y-120475250D01*
X104554000Y-120807309D01*
X104650673Y-121040698D01*
X104829301Y-121219327D01*
X104924223Y-121258645D01*
X104850526Y-121368940D01*
X104804615Y-121599750D01*
X104804615Y-122037250D01*
X104850526Y-122268060D01*
X104905192Y-122349873D01*
X104334065Y-122921000D01*
X104112445Y-122921000D01*
X103826865Y-123039291D01*
X103608291Y-123257865D01*
X103490000Y-123543445D01*
X103490000Y-123852555D01*
X103608291Y-124138135D01*
X103826865Y-124356709D01*
X104112445Y-124475000D01*
X104421555Y-124475000D01*
X104707135Y-124356709D01*
X104925709Y-124138135D01*
X105044000Y-123852555D01*
X105044000Y-123630935D01*
X105984013Y-122690923D01*
X106025921Y-122662921D01*
X106053923Y-122621013D01*
X106053926Y-122621010D01*
X106059486Y-122612689D01*
X106151060Y-122594474D01*
X106162669Y-122586717D01*
X106174673Y-122615698D01*
X106353301Y-122794327D01*
X106586690Y-122891000D01*
X106956250Y-122891000D01*
X107115000Y-122732250D01*
X107115000Y-121891500D01*
X107261000Y-121891500D01*
X107261000Y-122732250D01*
X107419750Y-122891000D01*
X107789310Y-122891000D01*
X108022699Y-122794327D01*
X108201327Y-122615698D01*
X108277727Y-122431250D01*
X108618000Y-122431250D01*
X108618000Y-122763309D01*
X108714673Y-122996698D01*
X108893301Y-123175327D01*
X109126690Y-123272000D01*
X109496250Y-123272000D01*
X109655000Y-123113250D01*
X109655000Y-122272500D01*
X109801000Y-122272500D01*
X109801000Y-123113250D01*
X109959750Y-123272000D01*
X110329310Y-123272000D01*
X110562699Y-123175327D01*
X110741327Y-122996698D01*
X110838000Y-122763309D01*
X110838000Y-122431250D01*
X111158000Y-122431250D01*
X111158000Y-122763309D01*
X111254673Y-122996698D01*
X111361474Y-123103500D01*
X111254673Y-123210302D01*
X111158000Y-123443691D01*
X111158000Y-123775750D01*
X111316750Y-123934500D01*
X112195000Y-123934500D01*
X112195000Y-122272500D01*
X111316750Y-122272500D01*
X111158000Y-122431250D01*
X110838000Y-122431250D01*
X110679250Y-122272500D01*
X109801000Y-122272500D01*
X109655000Y-122272500D01*
X108776750Y-122272500D01*
X108618000Y-122431250D01*
X108277727Y-122431250D01*
X108298000Y-122382309D01*
X108298000Y-122050250D01*
X108139250Y-121891500D01*
X107261000Y-121891500D01*
X107115000Y-121891500D01*
X107095000Y-121891500D01*
X107095000Y-121745500D01*
X107115000Y-121745500D01*
X107115000Y-121725500D01*
X107261000Y-121725500D01*
X107261000Y-121745500D01*
X108139250Y-121745500D01*
X108298000Y-121586750D01*
X108298000Y-121254691D01*
X108201327Y-121021302D01*
X108022699Y-120842673D01*
X107927777Y-120803355D01*
X108001474Y-120693060D01*
X108047385Y-120462250D01*
X108047385Y-120024750D01*
X108001474Y-119793940D01*
X107870731Y-119598269D01*
X107675060Y-119467526D01*
X107444250Y-119421615D01*
X107177550Y-119421615D01*
X106453926Y-118697992D01*
X106425920Y-118656078D01*
X106259869Y-118545126D01*
X106139523Y-118521188D01*
X106157266Y-118503445D01*
X107681000Y-118503445D01*
X107681000Y-118812555D01*
X107799291Y-119098135D01*
X108017865Y-119316709D01*
X108303445Y-119435000D01*
X108525065Y-119435000D01*
X109059695Y-119969630D01*
X109045269Y-119979269D01*
X108914526Y-120174940D01*
X108868615Y-120405750D01*
X108868615Y-120843250D01*
X108914526Y-121074060D01*
X108988223Y-121184355D01*
X108893301Y-121223673D01*
X108714673Y-121402302D01*
X108618000Y-121635691D01*
X108618000Y-121967750D01*
X108776750Y-122126500D01*
X109655000Y-122126500D01*
X109655000Y-122106500D01*
X109801000Y-122106500D01*
X109801000Y-122126500D01*
X110679250Y-122126500D01*
X110838000Y-121967750D01*
X110838000Y-121635691D01*
X110741327Y-121402302D01*
X110562699Y-121223673D01*
X110467777Y-121184355D01*
X110541474Y-121074060D01*
X110587385Y-120843250D01*
X110587385Y-120405750D01*
X110541474Y-120174940D01*
X110410731Y-119979269D01*
X110225400Y-119855435D01*
X110200873Y-119732130D01*
X110158776Y-119669127D01*
X110117926Y-119607990D01*
X110117923Y-119607987D01*
X110089921Y-119566079D01*
X110048012Y-119538076D01*
X109235000Y-118725065D01*
X109235000Y-118503445D01*
X109116709Y-118217865D01*
X108898135Y-117999291D01*
X108612555Y-117881000D01*
X108303445Y-117881000D01*
X108017865Y-117999291D01*
X107799291Y-118217865D01*
X107681000Y-118503445D01*
X106157266Y-118503445D01*
X107193711Y-117467000D01*
X109595289Y-117467000D01*
X111745000Y-119616712D01*
X111745000Y-119661555D01*
X111765908Y-119712031D01*
X111756167Y-119761000D01*
X111766000Y-119810434D01*
X111766000Y-119858508D01*
X111585269Y-119979269D01*
X111454526Y-120174940D01*
X111408615Y-120405750D01*
X111408615Y-120843250D01*
X111454526Y-121074060D01*
X111528223Y-121184355D01*
X111433301Y-121223673D01*
X111254673Y-121402302D01*
X111158000Y-121635691D01*
X111158000Y-121967750D01*
X111316750Y-122126500D01*
X112195000Y-122126500D01*
X112195000Y-122106500D01*
X112341000Y-122106500D01*
X112341000Y-122126500D01*
X112361000Y-122126500D01*
X112361000Y-122272500D01*
X112341000Y-122272500D01*
X112341000Y-123934500D01*
X113219250Y-123934500D01*
X113378000Y-123775750D01*
X113378000Y-123508000D01*
X113457065Y-123508000D01*
X113480500Y-123531435D01*
X113480501Y-130411563D01*
X110043392Y-133848674D01*
X110017731Y-133810269D01*
X109822060Y-133679526D01*
X109591250Y-133633615D01*
X109153750Y-133633615D01*
X108922940Y-133679526D01*
X108727269Y-133810269D01*
X108596526Y-134005940D01*
X108585000Y-134063885D01*
X108573474Y-134005940D01*
X108442731Y-133810269D01*
X108247060Y-133679526D01*
X108016250Y-133633615D01*
X107578750Y-133633615D01*
X107347940Y-133679526D01*
X107152269Y-133810269D01*
X107021526Y-134005940D01*
X106975615Y-134236750D01*
X106975615Y-134749250D01*
X107021526Y-134980060D01*
X107152269Y-135175731D01*
X107318047Y-135286500D01*
X107042688Y-135286500D01*
X106641149Y-135452824D01*
X106333824Y-135760149D01*
X106167500Y-136161688D01*
X106167500Y-136596312D01*
X106333824Y-136997851D01*
X106641149Y-137305176D01*
X107041501Y-137471008D01*
X107041500Y-137524565D01*
X106898269Y-137620269D01*
X106767526Y-137815940D01*
X106724454Y-138032478D01*
X106485103Y-137793127D01*
X106144392Y-137652000D01*
X105775608Y-137652000D01*
X105434897Y-137793127D01*
X105174127Y-138053897D01*
X105033000Y-138394608D01*
X105033000Y-138763392D01*
X105174127Y-139104103D01*
X105434897Y-139364873D01*
X105775608Y-139506000D01*
X106144392Y-139506000D01*
X106485103Y-139364873D01*
X106745873Y-139104103D01*
X106834460Y-138890234D01*
X106898269Y-138985731D01*
X107093940Y-139116474D01*
X107324750Y-139162385D01*
X107762250Y-139162385D01*
X107993060Y-139116474D01*
X108188731Y-138985731D01*
X108319474Y-138790060D01*
X108331000Y-138732115D01*
X108342526Y-138790060D01*
X108473269Y-138985731D01*
X108668940Y-139116474D01*
X108899750Y-139162385D01*
X109337250Y-139162385D01*
X109568060Y-139116474D01*
X109733471Y-139005950D01*
X109774127Y-139104103D01*
X110034897Y-139364873D01*
X110375608Y-139506000D01*
X110744392Y-139506000D01*
X111085103Y-139364873D01*
X111345873Y-139104103D01*
X111487000Y-138763392D01*
X111487000Y-138652000D01*
X111725000Y-138652000D01*
X111725000Y-138902000D01*
X111934483Y-139809143D01*
X112475169Y-140567068D01*
X113264743Y-141060388D01*
X113664977Y-141172114D01*
X114037000Y-141054053D01*
X114037000Y-138652000D01*
X111725000Y-138652000D01*
X111487000Y-138652000D01*
X111487000Y-138394608D01*
X111345873Y-138053897D01*
X111085103Y-137793127D01*
X110744392Y-137652000D01*
X110479435Y-137652000D01*
X110810010Y-137321425D01*
X110851921Y-137293421D01*
X110962873Y-137127370D01*
X110962951Y-137126978D01*
X111141149Y-137305176D01*
X111542688Y-137471500D01*
X111906162Y-137471500D01*
X111725000Y-138256000D01*
X111725000Y-138506000D01*
X114037000Y-138506000D01*
X114037000Y-136103947D01*
X113664977Y-135985886D01*
X113264743Y-136097612D01*
X112852500Y-136355178D01*
X112852500Y-136161688D01*
X112686176Y-135760149D01*
X112532412Y-135606385D01*
X112588250Y-135606385D01*
X112819060Y-135560474D01*
X112929355Y-135486777D01*
X112968673Y-135581699D01*
X113147302Y-135760327D01*
X113380691Y-135857000D01*
X113712750Y-135857000D01*
X113871500Y-135698250D01*
X113871500Y-134820000D01*
X114017500Y-134820000D01*
X114017500Y-135698250D01*
X114176250Y-135857000D01*
X114508309Y-135857000D01*
X114741698Y-135760327D01*
X114920327Y-135581699D01*
X115017000Y-135348310D01*
X115017000Y-134978750D01*
X114858250Y-134820000D01*
X114017500Y-134820000D01*
X113871500Y-134820000D01*
X113851500Y-134820000D01*
X113851500Y-134674000D01*
X113871500Y-134674000D01*
X113871500Y-133795750D01*
X114017500Y-133795750D01*
X114017500Y-134674000D01*
X114858250Y-134674000D01*
X115017000Y-134515250D01*
X115017000Y-134145690D01*
X114920327Y-133912301D01*
X114741698Y-133733673D01*
X114508309Y-133637000D01*
X114176250Y-133637000D01*
X114017500Y-133795750D01*
X113871500Y-133795750D01*
X113712750Y-133637000D01*
X113380691Y-133637000D01*
X113147302Y-133733673D01*
X112968673Y-133912301D01*
X112929355Y-134007223D01*
X112819060Y-133933526D01*
X112588250Y-133887615D01*
X112186319Y-133887615D01*
X114752519Y-131321416D01*
X114794430Y-131293412D01*
X114905382Y-131127361D01*
X114934509Y-130980930D01*
X114934509Y-130980925D01*
X114944342Y-130931491D01*
X114934509Y-130882057D01*
X114934509Y-130091938D01*
X114934511Y-130091928D01*
X114934511Y-130091923D01*
X114944344Y-130042489D01*
X114934511Y-129993055D01*
X114934511Y-129249251D01*
X115059445Y-129301000D01*
X115368555Y-129301000D01*
X115654135Y-129182709D01*
X115872709Y-128964135D01*
X115991000Y-128678555D01*
X115991000Y-128369445D01*
X115891000Y-128128023D01*
X115891000Y-128030977D01*
X115991000Y-127789555D01*
X115991000Y-127480445D01*
X115891000Y-127239023D01*
X115891000Y-127141977D01*
X115991000Y-126900555D01*
X115991000Y-126591445D01*
X115891000Y-126350023D01*
X115891000Y-111597676D01*
X115904263Y-111530999D01*
X115885591Y-111437130D01*
X115851720Y-111266848D01*
X115702090Y-111042910D01*
X115645560Y-111005138D01*
X114088000Y-109447579D01*
X114088000Y-108738421D01*
X115493565Y-107332858D01*
X115550089Y-107295090D01*
X115587858Y-107238565D01*
X115587860Y-107238563D01*
X115699720Y-107071153D01*
X115752263Y-106807000D01*
X115739000Y-106740322D01*
X115739000Y-104333676D01*
X115752263Y-104266999D01*
X115723222Y-104121001D01*
X115699720Y-104002848D01*
X115550090Y-103778910D01*
X115493562Y-103741140D01*
X114941862Y-103189441D01*
X114904089Y-103132909D01*
X114680151Y-102983279D01*
X114482677Y-102943999D01*
X114482675Y-102943999D01*
X114415999Y-102930736D01*
X114349323Y-102943999D01*
X110313679Y-102943999D01*
X110248328Y-102931000D01*
X110893250Y-102931000D01*
X111052000Y-102772250D01*
X111052000Y-101519000D01*
X111198000Y-101519000D01*
X111198000Y-102772250D01*
X111356750Y-102931000D01*
X112101310Y-102931000D01*
X112334699Y-102834327D01*
X112513327Y-102655698D01*
X112610000Y-102422309D01*
X112610000Y-101677750D01*
X112451250Y-101519000D01*
X111198000Y-101519000D01*
X111052000Y-101519000D01*
X111032000Y-101519000D01*
X111032000Y-101373000D01*
X111052000Y-101373000D01*
X111052000Y-101353000D01*
X111198000Y-101353000D01*
X111198000Y-101373000D01*
X112451250Y-101373000D01*
X112610000Y-101214250D01*
X112610000Y-100469691D01*
X112602672Y-100452000D01*
X116048000Y-100452000D01*
X116048000Y-108755542D01*
X115943484Y-108503220D01*
X115696780Y-108256516D01*
X115374446Y-108123000D01*
X115025554Y-108123000D01*
X114703220Y-108256516D01*
X114456516Y-108503220D01*
X114323000Y-108825554D01*
X114323000Y-109174446D01*
X114456516Y-109496780D01*
X114703220Y-109743484D01*
X115025554Y-109877000D01*
X115374446Y-109877000D01*
X115696780Y-109743484D01*
X115943484Y-109496780D01*
X116048000Y-109244458D01*
X116048001Y-137015911D01*
X115744831Y-136590932D01*
X114955257Y-136097612D01*
X114555023Y-135985886D01*
X114183000Y-136103947D01*
X114183000Y-138506000D01*
X114203000Y-138506000D01*
X114203000Y-138652000D01*
X114183000Y-138652000D01*
X114183000Y-141054053D01*
X114555023Y-141172114D01*
X114955257Y-141060388D01*
X115744831Y-140567068D01*
X116048001Y-140142089D01*
X116048001Y-141348000D01*
X100452000Y-141348000D01*
X100452000Y-140114055D01*
X100775169Y-140567068D01*
X101564743Y-141060388D01*
X101964977Y-141172114D01*
X102337000Y-141054053D01*
X102337000Y-138652000D01*
X102483000Y-138652000D01*
X102483000Y-141054053D01*
X102855023Y-141172114D01*
X103255257Y-141060388D01*
X104044831Y-140567068D01*
X104585517Y-139809143D01*
X104795000Y-138902000D01*
X104795000Y-138652000D01*
X102483000Y-138652000D01*
X102337000Y-138652000D01*
X102317000Y-138652000D01*
X102317000Y-138506000D01*
X102337000Y-138506000D01*
X102337000Y-136103947D01*
X102483000Y-136103947D01*
X102483000Y-138506000D01*
X104795000Y-138506000D01*
X104795000Y-138256000D01*
X104673721Y-137730816D01*
X105047202Y-137725673D01*
X105509159Y-137534324D01*
X105568236Y-137290474D01*
X104760000Y-136482238D01*
X104745858Y-136496380D01*
X104642620Y-136393142D01*
X104656762Y-136379000D01*
X104863238Y-136379000D01*
X105671474Y-137187236D01*
X105915324Y-137128159D01*
X106114071Y-136629010D01*
X106106673Y-136091798D01*
X105915324Y-135629841D01*
X105671474Y-135570764D01*
X104863238Y-136379000D01*
X104656762Y-136379000D01*
X103848526Y-135570764D01*
X103604676Y-135629841D01*
X103405929Y-136128990D01*
X103406801Y-136192295D01*
X103255257Y-136097612D01*
X102855023Y-135985886D01*
X102483000Y-136103947D01*
X102337000Y-136103947D01*
X101964977Y-135985886D01*
X101564743Y-136097612D01*
X100775169Y-136590932D01*
X100452000Y-137043945D01*
X100452000Y-135467526D01*
X103951764Y-135467526D01*
X104760000Y-136275762D01*
X105568236Y-135467526D01*
X105509159Y-135223676D01*
X105010010Y-135024929D01*
X104472798Y-135032327D01*
X104010841Y-135223676D01*
X103951764Y-135467526D01*
X100452000Y-135467526D01*
X100452000Y-128823691D01*
X108364000Y-128823691D01*
X108364000Y-129155750D01*
X108522750Y-129314500D01*
X109401000Y-129314500D01*
X109401000Y-128473750D01*
X109242250Y-128315000D01*
X108872690Y-128315000D01*
X108639301Y-128411673D01*
X108460673Y-128590302D01*
X108364000Y-128823691D01*
X100452000Y-128823691D01*
X100452000Y-125194445D01*
X103490000Y-125194445D01*
X103490000Y-125503555D01*
X103608291Y-125789135D01*
X103826865Y-126007709D01*
X104112445Y-126126000D01*
X104421555Y-126126000D01*
X104707135Y-126007709D01*
X104925709Y-125789135D01*
X105044000Y-125503555D01*
X105044000Y-125428250D01*
X105062000Y-125428250D01*
X105062000Y-125760309D01*
X105158673Y-125993698D01*
X105337301Y-126172327D01*
X105432223Y-126211645D01*
X105358526Y-126321940D01*
X105312615Y-126552750D01*
X105312615Y-126990250D01*
X105358526Y-127221060D01*
X105489269Y-127416731D01*
X105684940Y-127547474D01*
X105915750Y-127593385D01*
X106428250Y-127593385D01*
X106659060Y-127547474D01*
X106854731Y-127416731D01*
X106933730Y-127298500D01*
X106934270Y-127298500D01*
X107013269Y-127416731D01*
X107208940Y-127547474D01*
X107439750Y-127593385D01*
X107952250Y-127593385D01*
X108183060Y-127547474D01*
X108378731Y-127416731D01*
X108457730Y-127298500D01*
X108458270Y-127298500D01*
X108537269Y-127416731D01*
X108732940Y-127547474D01*
X108963750Y-127593385D01*
X109476250Y-127593385D01*
X109707060Y-127547474D01*
X109902731Y-127416731D01*
X109981730Y-127298500D01*
X109982270Y-127298500D01*
X110061269Y-127416731D01*
X110171063Y-127490093D01*
X110085291Y-127575865D01*
X109967000Y-127861445D01*
X109967000Y-128170555D01*
X110026831Y-128315000D01*
X109705750Y-128315000D01*
X109547000Y-128473750D01*
X109547000Y-129314500D01*
X110425250Y-129314500D01*
X110584000Y-129155750D01*
X110584000Y-128823691D01*
X110567527Y-128783921D01*
X110589445Y-128793000D01*
X110898555Y-128793000D01*
X111184135Y-128674709D01*
X111402709Y-128456135D01*
X111521000Y-128170555D01*
X111521000Y-127861445D01*
X111402709Y-127575865D01*
X111316937Y-127490093D01*
X111426731Y-127416731D01*
X111557474Y-127221060D01*
X111603385Y-126990250D01*
X111603385Y-126552750D01*
X111557474Y-126321940D01*
X111483777Y-126211645D01*
X111554850Y-126182206D01*
X111585269Y-126227731D01*
X111741001Y-126331787D01*
X111741001Y-126682155D01*
X111736291Y-126686865D01*
X111618000Y-126972445D01*
X111618000Y-127281555D01*
X111736291Y-127567135D01*
X111768001Y-127598845D01*
X111768000Y-129407288D01*
X110333385Y-130841904D01*
X110333385Y-130743750D01*
X110287474Y-130512940D01*
X110213777Y-130402645D01*
X110308699Y-130363327D01*
X110487327Y-130184698D01*
X110584000Y-129951309D01*
X110584000Y-129619250D01*
X110425250Y-129460500D01*
X109547000Y-129460500D01*
X109547000Y-129480500D01*
X109401000Y-129480500D01*
X109401000Y-129460500D01*
X108522750Y-129460500D01*
X108364000Y-129619250D01*
X108364000Y-129951309D01*
X108460673Y-130184698D01*
X108639301Y-130363327D01*
X108734223Y-130402645D01*
X108660526Y-130512940D01*
X108614615Y-130743750D01*
X108614615Y-131181250D01*
X108660526Y-131412060D01*
X108712024Y-131489132D01*
X108688291Y-131512865D01*
X108570000Y-131798445D01*
X108570000Y-132107555D01*
X108688291Y-132393135D01*
X108906865Y-132611709D01*
X109192445Y-132730000D01*
X109501555Y-132730000D01*
X109787135Y-132611709D01*
X109818844Y-132580000D01*
X110047254Y-132580000D01*
X110109000Y-132592282D01*
X110170746Y-132580000D01*
X110170750Y-132580000D01*
X110353643Y-132543620D01*
X110561041Y-132405041D01*
X110596020Y-132352691D01*
X112794694Y-130154018D01*
X112847041Y-130119041D01*
X112985620Y-129911643D01*
X113022000Y-129728750D01*
X113022000Y-129728746D01*
X113034282Y-129667001D01*
X113022000Y-129605256D01*
X113022000Y-127598844D01*
X113053709Y-127567135D01*
X113172000Y-127281555D01*
X113172000Y-126972445D01*
X113053709Y-126686865D01*
X112835135Y-126468291D01*
X112795000Y-126451667D01*
X112795000Y-126331787D01*
X112950731Y-126227731D01*
X113081474Y-126032060D01*
X113127385Y-125801250D01*
X113127385Y-125363750D01*
X113081474Y-125132940D01*
X113007777Y-125022645D01*
X113102699Y-124983327D01*
X113281327Y-124804698D01*
X113378000Y-124571309D01*
X113378000Y-124239250D01*
X113219250Y-124080500D01*
X112341000Y-124080500D01*
X112341000Y-124100500D01*
X112195000Y-124100500D01*
X112195000Y-124080500D01*
X111316750Y-124080500D01*
X111273250Y-124124000D01*
X110975750Y-124124000D01*
X110817000Y-124282750D01*
X110817000Y-125123500D01*
X110837000Y-125123500D01*
X110837000Y-125269500D01*
X110817000Y-125269500D01*
X110817000Y-125289500D01*
X110671000Y-125289500D01*
X110671000Y-125269500D01*
X109293000Y-125269500D01*
X109293000Y-125289500D01*
X109147000Y-125289500D01*
X109147000Y-125269500D01*
X107769000Y-125269500D01*
X107769000Y-125289500D01*
X107623000Y-125289500D01*
X107623000Y-125269500D01*
X106245000Y-125269500D01*
X106245000Y-125289500D01*
X106099000Y-125289500D01*
X106099000Y-125269500D01*
X105220750Y-125269500D01*
X105062000Y-125428250D01*
X105044000Y-125428250D01*
X105044000Y-125194445D01*
X104925709Y-124908865D01*
X104707135Y-124690291D01*
X104568077Y-124632691D01*
X105062000Y-124632691D01*
X105062000Y-124964750D01*
X105220750Y-125123500D01*
X106099000Y-125123500D01*
X106099000Y-124282750D01*
X106245000Y-124282750D01*
X106245000Y-125123500D01*
X107623000Y-125123500D01*
X107623000Y-124282750D01*
X107769000Y-124282750D01*
X107769000Y-125123500D01*
X109147000Y-125123500D01*
X109147000Y-124282750D01*
X109293000Y-124282750D01*
X109293000Y-125123500D01*
X110671000Y-125123500D01*
X110671000Y-124282750D01*
X110512250Y-124124000D01*
X110142690Y-124124000D01*
X109982000Y-124190560D01*
X109821310Y-124124000D01*
X109451750Y-124124000D01*
X109293000Y-124282750D01*
X109147000Y-124282750D01*
X108988250Y-124124000D01*
X108618690Y-124124000D01*
X108458000Y-124190560D01*
X108297310Y-124124000D01*
X107927750Y-124124000D01*
X107769000Y-124282750D01*
X107623000Y-124282750D01*
X107464250Y-124124000D01*
X107094690Y-124124000D01*
X106934000Y-124190560D01*
X106773310Y-124124000D01*
X106403750Y-124124000D01*
X106245000Y-124282750D01*
X106099000Y-124282750D01*
X105940250Y-124124000D01*
X105570690Y-124124000D01*
X105337301Y-124220673D01*
X105158673Y-124399302D01*
X105062000Y-124632691D01*
X104568077Y-124632691D01*
X104421555Y-124572000D01*
X104112445Y-124572000D01*
X103826865Y-124690291D01*
X103608291Y-124908865D01*
X103490000Y-125194445D01*
X100452000Y-125194445D01*
X100452000Y-109244458D01*
X100556516Y-109496780D01*
X100803220Y-109743484D01*
X101125554Y-109877000D01*
X101474446Y-109877000D01*
X101796780Y-109743484D01*
X102043484Y-109496780D01*
X102177000Y-109174446D01*
X102177000Y-108825554D01*
X102043484Y-108503220D01*
X101796780Y-108256516D01*
X101474446Y-108123000D01*
X101125554Y-108123000D01*
X100803220Y-108256516D01*
X100556516Y-108503220D01*
X100452000Y-108755542D01*
X100452000Y-100452000D01*
X102784086Y-100452000D01*
X102620383Y-100561383D01*
G04 #@! TD*
M02*
