G04 #@! TF.GenerationSoftware,KiCad,Pcbnew,(5.0.2)-1*
G04 #@! TF.CreationDate,2022-05-07T19:17:55+02:00*
G04 #@! TF.ProjectId,Pendrive_v1,50656e64-7269-4766-955f-76312e6b6963,rev?*
G04 #@! TF.SameCoordinates,Original*
G04 #@! TF.FileFunction,Paste,Top*
G04 #@! TF.FilePolarity,Positive*
%FSLAX46Y46*%
G04 Gerber Fmt 4.6, Leading zero omitted, Abs format (unit mm)*
G04 Created by KiCad (PCBNEW (5.0.2)-1) date 07.05.2022 19:17:55*
%MOMM*%
%LPD*%
G01*
G04 APERTURE LIST*
%ADD10R,5.650000X5.650000*%
%ADD11R,0.300000X0.850000*%
%ADD12R,0.850000X0.300000*%
%ADD13R,1.400000X1.900000*%
%ADD14R,1.300000X1.400000*%
%ADD15R,0.800000X1.500000*%
%ADD16R,0.900000X1.000000*%
%ADD17C,0.100000*%
%ADD18C,0.875000*%
%ADD19R,1.300000X0.950000*%
%ADD20R,1.300000X3.250000*%
%ADD21R,1.600000X0.500000*%
G04 APERTURE END LIST*
D10*
G04 #@! TO.C,IC1*
X108785000Y-123206000D03*
D11*
X106035000Y-119756000D03*
X106535000Y-119756000D03*
X107035000Y-119756000D03*
X107535000Y-119756000D03*
X108035000Y-119756000D03*
X108535000Y-119756000D03*
X109035000Y-119756000D03*
X109535000Y-119756000D03*
X110035000Y-119756000D03*
X110535000Y-119756000D03*
X111035000Y-119756000D03*
X111535000Y-119756000D03*
D12*
X112235000Y-120456000D03*
X112235000Y-120956000D03*
X112235000Y-121456000D03*
X112235000Y-121956000D03*
X112235000Y-122456000D03*
X112235000Y-122956000D03*
X112235000Y-123456000D03*
X112235000Y-123956000D03*
X112235000Y-124456000D03*
X112235000Y-124956000D03*
X112235000Y-125456000D03*
X112235000Y-125956000D03*
D11*
X111535000Y-126656000D03*
X111035000Y-126656000D03*
X110535000Y-126656000D03*
X110035000Y-126656000D03*
X109535000Y-126656000D03*
X109035000Y-126656000D03*
X108535000Y-126656000D03*
X108035000Y-126656000D03*
X107535000Y-126656000D03*
X107035000Y-126656000D03*
X106535000Y-126656000D03*
X106035000Y-126656000D03*
D12*
X105335000Y-125956000D03*
X105335000Y-125456000D03*
X105335000Y-124956000D03*
X105335000Y-124456000D03*
X105335000Y-123956000D03*
X105335000Y-123456000D03*
X105335000Y-122956000D03*
X105335000Y-122456000D03*
X105335000Y-121956000D03*
X105335000Y-121456000D03*
X105335000Y-120956000D03*
X105335000Y-120456000D03*
G04 #@! TD*
D13*
G04 #@! TO.C,J1*
X101350000Y-103209000D03*
X114500000Y-104209000D03*
D14*
X107200000Y-117359000D03*
X112900000Y-117359000D03*
D15*
X113710000Y-106499000D03*
X112610000Y-106499000D03*
X111510000Y-106299000D03*
X110410000Y-106499000D03*
X109310000Y-106299000D03*
X108210000Y-106499000D03*
X107110000Y-106899000D03*
X106010000Y-106499000D03*
G04 #@! TD*
D16*
G04 #@! TO.C,Y1*
X103048000Y-122618000D03*
X103048000Y-120968000D03*
X101822000Y-120968000D03*
X101822000Y-122618000D03*
G04 #@! TD*
D17*
G04 #@! TO.C,C16*
G36*
X106373491Y-130780053D02*
X106394726Y-130783203D01*
X106415550Y-130788419D01*
X106435762Y-130795651D01*
X106455168Y-130804830D01*
X106473581Y-130815866D01*
X106490824Y-130828654D01*
X106506730Y-130843070D01*
X106521146Y-130858976D01*
X106533934Y-130876219D01*
X106544970Y-130894632D01*
X106554149Y-130914038D01*
X106561381Y-130934250D01*
X106566597Y-130955074D01*
X106569747Y-130976309D01*
X106570800Y-130997750D01*
X106570800Y-131435250D01*
X106569747Y-131456691D01*
X106566597Y-131477926D01*
X106561381Y-131498750D01*
X106554149Y-131518962D01*
X106544970Y-131538368D01*
X106533934Y-131556781D01*
X106521146Y-131574024D01*
X106506730Y-131589930D01*
X106490824Y-131604346D01*
X106473581Y-131617134D01*
X106455168Y-131628170D01*
X106435762Y-131637349D01*
X106415550Y-131644581D01*
X106394726Y-131649797D01*
X106373491Y-131652947D01*
X106352050Y-131654000D01*
X105839550Y-131654000D01*
X105818109Y-131652947D01*
X105796874Y-131649797D01*
X105776050Y-131644581D01*
X105755838Y-131637349D01*
X105736432Y-131628170D01*
X105718019Y-131617134D01*
X105700776Y-131604346D01*
X105684870Y-131589930D01*
X105670454Y-131574024D01*
X105657666Y-131556781D01*
X105646630Y-131538368D01*
X105637451Y-131518962D01*
X105630219Y-131498750D01*
X105625003Y-131477926D01*
X105621853Y-131456691D01*
X105620800Y-131435250D01*
X105620800Y-130997750D01*
X105621853Y-130976309D01*
X105625003Y-130955074D01*
X105630219Y-130934250D01*
X105637451Y-130914038D01*
X105646630Y-130894632D01*
X105657666Y-130876219D01*
X105670454Y-130858976D01*
X105684870Y-130843070D01*
X105700776Y-130828654D01*
X105718019Y-130815866D01*
X105736432Y-130804830D01*
X105755838Y-130795651D01*
X105776050Y-130788419D01*
X105796874Y-130783203D01*
X105818109Y-130780053D01*
X105839550Y-130779000D01*
X106352050Y-130779000D01*
X106373491Y-130780053D01*
X106373491Y-130780053D01*
G37*
D18*
X106095800Y-131216500D03*
D17*
G36*
X106373491Y-129205053D02*
X106394726Y-129208203D01*
X106415550Y-129213419D01*
X106435762Y-129220651D01*
X106455168Y-129229830D01*
X106473581Y-129240866D01*
X106490824Y-129253654D01*
X106506730Y-129268070D01*
X106521146Y-129283976D01*
X106533934Y-129301219D01*
X106544970Y-129319632D01*
X106554149Y-129339038D01*
X106561381Y-129359250D01*
X106566597Y-129380074D01*
X106569747Y-129401309D01*
X106570800Y-129422750D01*
X106570800Y-129860250D01*
X106569747Y-129881691D01*
X106566597Y-129902926D01*
X106561381Y-129923750D01*
X106554149Y-129943962D01*
X106544970Y-129963368D01*
X106533934Y-129981781D01*
X106521146Y-129999024D01*
X106506730Y-130014930D01*
X106490824Y-130029346D01*
X106473581Y-130042134D01*
X106455168Y-130053170D01*
X106435762Y-130062349D01*
X106415550Y-130069581D01*
X106394726Y-130074797D01*
X106373491Y-130077947D01*
X106352050Y-130079000D01*
X105839550Y-130079000D01*
X105818109Y-130077947D01*
X105796874Y-130074797D01*
X105776050Y-130069581D01*
X105755838Y-130062349D01*
X105736432Y-130053170D01*
X105718019Y-130042134D01*
X105700776Y-130029346D01*
X105684870Y-130014930D01*
X105670454Y-129999024D01*
X105657666Y-129981781D01*
X105646630Y-129963368D01*
X105637451Y-129943962D01*
X105630219Y-129923750D01*
X105625003Y-129902926D01*
X105621853Y-129881691D01*
X105620800Y-129860250D01*
X105620800Y-129422750D01*
X105621853Y-129401309D01*
X105625003Y-129380074D01*
X105630219Y-129359250D01*
X105637451Y-129339038D01*
X105646630Y-129319632D01*
X105657666Y-129301219D01*
X105670454Y-129283976D01*
X105684870Y-129268070D01*
X105700776Y-129253654D01*
X105718019Y-129240866D01*
X105736432Y-129229830D01*
X105755838Y-129220651D01*
X105776050Y-129213419D01*
X105796874Y-129208203D01*
X105818109Y-129205053D01*
X105839550Y-129204000D01*
X106352050Y-129204000D01*
X106373491Y-129205053D01*
X106373491Y-129205053D01*
G37*
D18*
X106095800Y-129641500D03*
G04 #@! TD*
D17*
G04 #@! TO.C,R1*
G36*
X104421691Y-127161053D02*
X104442926Y-127164203D01*
X104463750Y-127169419D01*
X104483962Y-127176651D01*
X104503368Y-127185830D01*
X104521781Y-127196866D01*
X104539024Y-127209654D01*
X104554930Y-127224070D01*
X104569346Y-127239976D01*
X104582134Y-127257219D01*
X104593170Y-127275632D01*
X104602349Y-127295038D01*
X104609581Y-127315250D01*
X104614797Y-127336074D01*
X104617947Y-127357309D01*
X104619000Y-127378750D01*
X104619000Y-127891250D01*
X104617947Y-127912691D01*
X104614797Y-127933926D01*
X104609581Y-127954750D01*
X104602349Y-127974962D01*
X104593170Y-127994368D01*
X104582134Y-128012781D01*
X104569346Y-128030024D01*
X104554930Y-128045930D01*
X104539024Y-128060346D01*
X104521781Y-128073134D01*
X104503368Y-128084170D01*
X104483962Y-128093349D01*
X104463750Y-128100581D01*
X104442926Y-128105797D01*
X104421691Y-128108947D01*
X104400250Y-128110000D01*
X103962750Y-128110000D01*
X103941309Y-128108947D01*
X103920074Y-128105797D01*
X103899250Y-128100581D01*
X103879038Y-128093349D01*
X103859632Y-128084170D01*
X103841219Y-128073134D01*
X103823976Y-128060346D01*
X103808070Y-128045930D01*
X103793654Y-128030024D01*
X103780866Y-128012781D01*
X103769830Y-127994368D01*
X103760651Y-127974962D01*
X103753419Y-127954750D01*
X103748203Y-127933926D01*
X103745053Y-127912691D01*
X103744000Y-127891250D01*
X103744000Y-127378750D01*
X103745053Y-127357309D01*
X103748203Y-127336074D01*
X103753419Y-127315250D01*
X103760651Y-127295038D01*
X103769830Y-127275632D01*
X103780866Y-127257219D01*
X103793654Y-127239976D01*
X103808070Y-127224070D01*
X103823976Y-127209654D01*
X103841219Y-127196866D01*
X103859632Y-127185830D01*
X103879038Y-127176651D01*
X103899250Y-127169419D01*
X103920074Y-127164203D01*
X103941309Y-127161053D01*
X103962750Y-127160000D01*
X104400250Y-127160000D01*
X104421691Y-127161053D01*
X104421691Y-127161053D01*
G37*
D18*
X104181500Y-127635000D03*
D17*
G36*
X102846691Y-127161053D02*
X102867926Y-127164203D01*
X102888750Y-127169419D01*
X102908962Y-127176651D01*
X102928368Y-127185830D01*
X102946781Y-127196866D01*
X102964024Y-127209654D01*
X102979930Y-127224070D01*
X102994346Y-127239976D01*
X103007134Y-127257219D01*
X103018170Y-127275632D01*
X103027349Y-127295038D01*
X103034581Y-127315250D01*
X103039797Y-127336074D01*
X103042947Y-127357309D01*
X103044000Y-127378750D01*
X103044000Y-127891250D01*
X103042947Y-127912691D01*
X103039797Y-127933926D01*
X103034581Y-127954750D01*
X103027349Y-127974962D01*
X103018170Y-127994368D01*
X103007134Y-128012781D01*
X102994346Y-128030024D01*
X102979930Y-128045930D01*
X102964024Y-128060346D01*
X102946781Y-128073134D01*
X102928368Y-128084170D01*
X102908962Y-128093349D01*
X102888750Y-128100581D01*
X102867926Y-128105797D01*
X102846691Y-128108947D01*
X102825250Y-128110000D01*
X102387750Y-128110000D01*
X102366309Y-128108947D01*
X102345074Y-128105797D01*
X102324250Y-128100581D01*
X102304038Y-128093349D01*
X102284632Y-128084170D01*
X102266219Y-128073134D01*
X102248976Y-128060346D01*
X102233070Y-128045930D01*
X102218654Y-128030024D01*
X102205866Y-128012781D01*
X102194830Y-127994368D01*
X102185651Y-127974962D01*
X102178419Y-127954750D01*
X102173203Y-127933926D01*
X102170053Y-127912691D01*
X102169000Y-127891250D01*
X102169000Y-127378750D01*
X102170053Y-127357309D01*
X102173203Y-127336074D01*
X102178419Y-127315250D01*
X102185651Y-127295038D01*
X102194830Y-127275632D01*
X102205866Y-127257219D01*
X102218654Y-127239976D01*
X102233070Y-127224070D01*
X102248976Y-127209654D01*
X102266219Y-127196866D01*
X102284632Y-127185830D01*
X102304038Y-127176651D01*
X102324250Y-127169419D01*
X102345074Y-127164203D01*
X102366309Y-127161053D01*
X102387750Y-127160000D01*
X102825250Y-127160000D01*
X102846691Y-127161053D01*
X102846691Y-127161053D01*
G37*
D18*
X102606500Y-127635000D03*
G04 #@! TD*
D17*
G04 #@! TO.C,R2*
G36*
X102846691Y-128685053D02*
X102867926Y-128688203D01*
X102888750Y-128693419D01*
X102908962Y-128700651D01*
X102928368Y-128709830D01*
X102946781Y-128720866D01*
X102964024Y-128733654D01*
X102979930Y-128748070D01*
X102994346Y-128763976D01*
X103007134Y-128781219D01*
X103018170Y-128799632D01*
X103027349Y-128819038D01*
X103034581Y-128839250D01*
X103039797Y-128860074D01*
X103042947Y-128881309D01*
X103044000Y-128902750D01*
X103044000Y-129415250D01*
X103042947Y-129436691D01*
X103039797Y-129457926D01*
X103034581Y-129478750D01*
X103027349Y-129498962D01*
X103018170Y-129518368D01*
X103007134Y-129536781D01*
X102994346Y-129554024D01*
X102979930Y-129569930D01*
X102964024Y-129584346D01*
X102946781Y-129597134D01*
X102928368Y-129608170D01*
X102908962Y-129617349D01*
X102888750Y-129624581D01*
X102867926Y-129629797D01*
X102846691Y-129632947D01*
X102825250Y-129634000D01*
X102387750Y-129634000D01*
X102366309Y-129632947D01*
X102345074Y-129629797D01*
X102324250Y-129624581D01*
X102304038Y-129617349D01*
X102284632Y-129608170D01*
X102266219Y-129597134D01*
X102248976Y-129584346D01*
X102233070Y-129569930D01*
X102218654Y-129554024D01*
X102205866Y-129536781D01*
X102194830Y-129518368D01*
X102185651Y-129498962D01*
X102178419Y-129478750D01*
X102173203Y-129457926D01*
X102170053Y-129436691D01*
X102169000Y-129415250D01*
X102169000Y-128902750D01*
X102170053Y-128881309D01*
X102173203Y-128860074D01*
X102178419Y-128839250D01*
X102185651Y-128819038D01*
X102194830Y-128799632D01*
X102205866Y-128781219D01*
X102218654Y-128763976D01*
X102233070Y-128748070D01*
X102248976Y-128733654D01*
X102266219Y-128720866D01*
X102284632Y-128709830D01*
X102304038Y-128700651D01*
X102324250Y-128693419D01*
X102345074Y-128688203D01*
X102366309Y-128685053D01*
X102387750Y-128684000D01*
X102825250Y-128684000D01*
X102846691Y-128685053D01*
X102846691Y-128685053D01*
G37*
D18*
X102606500Y-129159000D03*
D17*
G36*
X104421691Y-128685053D02*
X104442926Y-128688203D01*
X104463750Y-128693419D01*
X104483962Y-128700651D01*
X104503368Y-128709830D01*
X104521781Y-128720866D01*
X104539024Y-128733654D01*
X104554930Y-128748070D01*
X104569346Y-128763976D01*
X104582134Y-128781219D01*
X104593170Y-128799632D01*
X104602349Y-128819038D01*
X104609581Y-128839250D01*
X104614797Y-128860074D01*
X104617947Y-128881309D01*
X104619000Y-128902750D01*
X104619000Y-129415250D01*
X104617947Y-129436691D01*
X104614797Y-129457926D01*
X104609581Y-129478750D01*
X104602349Y-129498962D01*
X104593170Y-129518368D01*
X104582134Y-129536781D01*
X104569346Y-129554024D01*
X104554930Y-129569930D01*
X104539024Y-129584346D01*
X104521781Y-129597134D01*
X104503368Y-129608170D01*
X104483962Y-129617349D01*
X104463750Y-129624581D01*
X104442926Y-129629797D01*
X104421691Y-129632947D01*
X104400250Y-129634000D01*
X103962750Y-129634000D01*
X103941309Y-129632947D01*
X103920074Y-129629797D01*
X103899250Y-129624581D01*
X103879038Y-129617349D01*
X103859632Y-129608170D01*
X103841219Y-129597134D01*
X103823976Y-129584346D01*
X103808070Y-129569930D01*
X103793654Y-129554024D01*
X103780866Y-129536781D01*
X103769830Y-129518368D01*
X103760651Y-129498962D01*
X103753419Y-129478750D01*
X103748203Y-129457926D01*
X103745053Y-129436691D01*
X103744000Y-129415250D01*
X103744000Y-128902750D01*
X103745053Y-128881309D01*
X103748203Y-128860074D01*
X103753419Y-128839250D01*
X103760651Y-128819038D01*
X103769830Y-128799632D01*
X103780866Y-128781219D01*
X103793654Y-128763976D01*
X103808070Y-128748070D01*
X103823976Y-128733654D01*
X103841219Y-128720866D01*
X103859632Y-128709830D01*
X103879038Y-128700651D01*
X103899250Y-128693419D01*
X103920074Y-128688203D01*
X103941309Y-128685053D01*
X103962750Y-128684000D01*
X104400250Y-128684000D01*
X104421691Y-128685053D01*
X104421691Y-128685053D01*
G37*
D18*
X104181500Y-129159000D03*
G04 #@! TD*
D17*
G04 #@! TO.C,R3*
G36*
X104421691Y-130209053D02*
X104442926Y-130212203D01*
X104463750Y-130217419D01*
X104483962Y-130224651D01*
X104503368Y-130233830D01*
X104521781Y-130244866D01*
X104539024Y-130257654D01*
X104554930Y-130272070D01*
X104569346Y-130287976D01*
X104582134Y-130305219D01*
X104593170Y-130323632D01*
X104602349Y-130343038D01*
X104609581Y-130363250D01*
X104614797Y-130384074D01*
X104617947Y-130405309D01*
X104619000Y-130426750D01*
X104619000Y-130939250D01*
X104617947Y-130960691D01*
X104614797Y-130981926D01*
X104609581Y-131002750D01*
X104602349Y-131022962D01*
X104593170Y-131042368D01*
X104582134Y-131060781D01*
X104569346Y-131078024D01*
X104554930Y-131093930D01*
X104539024Y-131108346D01*
X104521781Y-131121134D01*
X104503368Y-131132170D01*
X104483962Y-131141349D01*
X104463750Y-131148581D01*
X104442926Y-131153797D01*
X104421691Y-131156947D01*
X104400250Y-131158000D01*
X103962750Y-131158000D01*
X103941309Y-131156947D01*
X103920074Y-131153797D01*
X103899250Y-131148581D01*
X103879038Y-131141349D01*
X103859632Y-131132170D01*
X103841219Y-131121134D01*
X103823976Y-131108346D01*
X103808070Y-131093930D01*
X103793654Y-131078024D01*
X103780866Y-131060781D01*
X103769830Y-131042368D01*
X103760651Y-131022962D01*
X103753419Y-131002750D01*
X103748203Y-130981926D01*
X103745053Y-130960691D01*
X103744000Y-130939250D01*
X103744000Y-130426750D01*
X103745053Y-130405309D01*
X103748203Y-130384074D01*
X103753419Y-130363250D01*
X103760651Y-130343038D01*
X103769830Y-130323632D01*
X103780866Y-130305219D01*
X103793654Y-130287976D01*
X103808070Y-130272070D01*
X103823976Y-130257654D01*
X103841219Y-130244866D01*
X103859632Y-130233830D01*
X103879038Y-130224651D01*
X103899250Y-130217419D01*
X103920074Y-130212203D01*
X103941309Y-130209053D01*
X103962750Y-130208000D01*
X104400250Y-130208000D01*
X104421691Y-130209053D01*
X104421691Y-130209053D01*
G37*
D18*
X104181500Y-130683000D03*
D17*
G36*
X102846691Y-130209053D02*
X102867926Y-130212203D01*
X102888750Y-130217419D01*
X102908962Y-130224651D01*
X102928368Y-130233830D01*
X102946781Y-130244866D01*
X102964024Y-130257654D01*
X102979930Y-130272070D01*
X102994346Y-130287976D01*
X103007134Y-130305219D01*
X103018170Y-130323632D01*
X103027349Y-130343038D01*
X103034581Y-130363250D01*
X103039797Y-130384074D01*
X103042947Y-130405309D01*
X103044000Y-130426750D01*
X103044000Y-130939250D01*
X103042947Y-130960691D01*
X103039797Y-130981926D01*
X103034581Y-131002750D01*
X103027349Y-131022962D01*
X103018170Y-131042368D01*
X103007134Y-131060781D01*
X102994346Y-131078024D01*
X102979930Y-131093930D01*
X102964024Y-131108346D01*
X102946781Y-131121134D01*
X102928368Y-131132170D01*
X102908962Y-131141349D01*
X102888750Y-131148581D01*
X102867926Y-131153797D01*
X102846691Y-131156947D01*
X102825250Y-131158000D01*
X102387750Y-131158000D01*
X102366309Y-131156947D01*
X102345074Y-131153797D01*
X102324250Y-131148581D01*
X102304038Y-131141349D01*
X102284632Y-131132170D01*
X102266219Y-131121134D01*
X102248976Y-131108346D01*
X102233070Y-131093930D01*
X102218654Y-131078024D01*
X102205866Y-131060781D01*
X102194830Y-131042368D01*
X102185651Y-131022962D01*
X102178419Y-131002750D01*
X102173203Y-130981926D01*
X102170053Y-130960691D01*
X102169000Y-130939250D01*
X102169000Y-130426750D01*
X102170053Y-130405309D01*
X102173203Y-130384074D01*
X102178419Y-130363250D01*
X102185651Y-130343038D01*
X102194830Y-130323632D01*
X102205866Y-130305219D01*
X102218654Y-130287976D01*
X102233070Y-130272070D01*
X102248976Y-130257654D01*
X102266219Y-130244866D01*
X102284632Y-130233830D01*
X102304038Y-130224651D01*
X102324250Y-130217419D01*
X102345074Y-130212203D01*
X102366309Y-130209053D01*
X102387750Y-130208000D01*
X102825250Y-130208000D01*
X102846691Y-130209053D01*
X102846691Y-130209053D01*
G37*
D18*
X102606500Y-130683000D03*
G04 #@! TD*
D19*
G04 #@! TO.C,IC2*
X107810000Y-129163000D03*
X107810000Y-131453000D03*
X107810000Y-133743000D03*
D20*
X114510000Y-131453000D03*
G04 #@! TD*
D21*
G04 #@! TO.C,LED1*
X101596000Y-132323000D03*
X101596000Y-133223000D03*
X101596000Y-134123000D03*
X104546000Y-134123000D03*
X104546000Y-133223000D03*
X104546000Y-132323000D03*
G04 #@! TD*
D17*
G04 #@! TO.C,C6*
G36*
X101687691Y-118779053D02*
X101708926Y-118782203D01*
X101729750Y-118787419D01*
X101749962Y-118794651D01*
X101769368Y-118803830D01*
X101787781Y-118814866D01*
X101805024Y-118827654D01*
X101820930Y-118842070D01*
X101835346Y-118857976D01*
X101848134Y-118875219D01*
X101859170Y-118893632D01*
X101868349Y-118913038D01*
X101875581Y-118933250D01*
X101880797Y-118954074D01*
X101883947Y-118975309D01*
X101885000Y-118996750D01*
X101885000Y-119509250D01*
X101883947Y-119530691D01*
X101880797Y-119551926D01*
X101875581Y-119572750D01*
X101868349Y-119592962D01*
X101859170Y-119612368D01*
X101848134Y-119630781D01*
X101835346Y-119648024D01*
X101820930Y-119663930D01*
X101805024Y-119678346D01*
X101787781Y-119691134D01*
X101769368Y-119702170D01*
X101749962Y-119711349D01*
X101729750Y-119718581D01*
X101708926Y-119723797D01*
X101687691Y-119726947D01*
X101666250Y-119728000D01*
X101228750Y-119728000D01*
X101207309Y-119726947D01*
X101186074Y-119723797D01*
X101165250Y-119718581D01*
X101145038Y-119711349D01*
X101125632Y-119702170D01*
X101107219Y-119691134D01*
X101089976Y-119678346D01*
X101074070Y-119663930D01*
X101059654Y-119648024D01*
X101046866Y-119630781D01*
X101035830Y-119612368D01*
X101026651Y-119592962D01*
X101019419Y-119572750D01*
X101014203Y-119551926D01*
X101011053Y-119530691D01*
X101010000Y-119509250D01*
X101010000Y-118996750D01*
X101011053Y-118975309D01*
X101014203Y-118954074D01*
X101019419Y-118933250D01*
X101026651Y-118913038D01*
X101035830Y-118893632D01*
X101046866Y-118875219D01*
X101059654Y-118857976D01*
X101074070Y-118842070D01*
X101089976Y-118827654D01*
X101107219Y-118814866D01*
X101125632Y-118803830D01*
X101145038Y-118794651D01*
X101165250Y-118787419D01*
X101186074Y-118782203D01*
X101207309Y-118779053D01*
X101228750Y-118778000D01*
X101666250Y-118778000D01*
X101687691Y-118779053D01*
X101687691Y-118779053D01*
G37*
D18*
X101447500Y-119253000D03*
D17*
G36*
X103262691Y-118779053D02*
X103283926Y-118782203D01*
X103304750Y-118787419D01*
X103324962Y-118794651D01*
X103344368Y-118803830D01*
X103362781Y-118814866D01*
X103380024Y-118827654D01*
X103395930Y-118842070D01*
X103410346Y-118857976D01*
X103423134Y-118875219D01*
X103434170Y-118893632D01*
X103443349Y-118913038D01*
X103450581Y-118933250D01*
X103455797Y-118954074D01*
X103458947Y-118975309D01*
X103460000Y-118996750D01*
X103460000Y-119509250D01*
X103458947Y-119530691D01*
X103455797Y-119551926D01*
X103450581Y-119572750D01*
X103443349Y-119592962D01*
X103434170Y-119612368D01*
X103423134Y-119630781D01*
X103410346Y-119648024D01*
X103395930Y-119663930D01*
X103380024Y-119678346D01*
X103362781Y-119691134D01*
X103344368Y-119702170D01*
X103324962Y-119711349D01*
X103304750Y-119718581D01*
X103283926Y-119723797D01*
X103262691Y-119726947D01*
X103241250Y-119728000D01*
X102803750Y-119728000D01*
X102782309Y-119726947D01*
X102761074Y-119723797D01*
X102740250Y-119718581D01*
X102720038Y-119711349D01*
X102700632Y-119702170D01*
X102682219Y-119691134D01*
X102664976Y-119678346D01*
X102649070Y-119663930D01*
X102634654Y-119648024D01*
X102621866Y-119630781D01*
X102610830Y-119612368D01*
X102601651Y-119592962D01*
X102594419Y-119572750D01*
X102589203Y-119551926D01*
X102586053Y-119530691D01*
X102585000Y-119509250D01*
X102585000Y-118996750D01*
X102586053Y-118975309D01*
X102589203Y-118954074D01*
X102594419Y-118933250D01*
X102601651Y-118913038D01*
X102610830Y-118893632D01*
X102621866Y-118875219D01*
X102634654Y-118857976D01*
X102649070Y-118842070D01*
X102664976Y-118827654D01*
X102682219Y-118814866D01*
X102700632Y-118803830D01*
X102720038Y-118794651D01*
X102740250Y-118787419D01*
X102761074Y-118782203D01*
X102782309Y-118779053D01*
X102803750Y-118778000D01*
X103241250Y-118778000D01*
X103262691Y-118779053D01*
X103262691Y-118779053D01*
G37*
D18*
X103022500Y-119253000D03*
G04 #@! TD*
D17*
G04 #@! TO.C,C5*
G36*
X103262691Y-124129053D02*
X103283926Y-124132203D01*
X103304750Y-124137419D01*
X103324962Y-124144651D01*
X103344368Y-124153830D01*
X103362781Y-124164866D01*
X103380024Y-124177654D01*
X103395930Y-124192070D01*
X103410346Y-124207976D01*
X103423134Y-124225219D01*
X103434170Y-124243632D01*
X103443349Y-124263038D01*
X103450581Y-124283250D01*
X103455797Y-124304074D01*
X103458947Y-124325309D01*
X103460000Y-124346750D01*
X103460000Y-124859250D01*
X103458947Y-124880691D01*
X103455797Y-124901926D01*
X103450581Y-124922750D01*
X103443349Y-124942962D01*
X103434170Y-124962368D01*
X103423134Y-124980781D01*
X103410346Y-124998024D01*
X103395930Y-125013930D01*
X103380024Y-125028346D01*
X103362781Y-125041134D01*
X103344368Y-125052170D01*
X103324962Y-125061349D01*
X103304750Y-125068581D01*
X103283926Y-125073797D01*
X103262691Y-125076947D01*
X103241250Y-125078000D01*
X102803750Y-125078000D01*
X102782309Y-125076947D01*
X102761074Y-125073797D01*
X102740250Y-125068581D01*
X102720038Y-125061349D01*
X102700632Y-125052170D01*
X102682219Y-125041134D01*
X102664976Y-125028346D01*
X102649070Y-125013930D01*
X102634654Y-124998024D01*
X102621866Y-124980781D01*
X102610830Y-124962368D01*
X102601651Y-124942962D01*
X102594419Y-124922750D01*
X102589203Y-124901926D01*
X102586053Y-124880691D01*
X102585000Y-124859250D01*
X102585000Y-124346750D01*
X102586053Y-124325309D01*
X102589203Y-124304074D01*
X102594419Y-124283250D01*
X102601651Y-124263038D01*
X102610830Y-124243632D01*
X102621866Y-124225219D01*
X102634654Y-124207976D01*
X102649070Y-124192070D01*
X102664976Y-124177654D01*
X102682219Y-124164866D01*
X102700632Y-124153830D01*
X102720038Y-124144651D01*
X102740250Y-124137419D01*
X102761074Y-124132203D01*
X102782309Y-124129053D01*
X102803750Y-124128000D01*
X103241250Y-124128000D01*
X103262691Y-124129053D01*
X103262691Y-124129053D01*
G37*
D18*
X103022500Y-124603000D03*
D17*
G36*
X101687691Y-124129053D02*
X101708926Y-124132203D01*
X101729750Y-124137419D01*
X101749962Y-124144651D01*
X101769368Y-124153830D01*
X101787781Y-124164866D01*
X101805024Y-124177654D01*
X101820930Y-124192070D01*
X101835346Y-124207976D01*
X101848134Y-124225219D01*
X101859170Y-124243632D01*
X101868349Y-124263038D01*
X101875581Y-124283250D01*
X101880797Y-124304074D01*
X101883947Y-124325309D01*
X101885000Y-124346750D01*
X101885000Y-124859250D01*
X101883947Y-124880691D01*
X101880797Y-124901926D01*
X101875581Y-124922750D01*
X101868349Y-124942962D01*
X101859170Y-124962368D01*
X101848134Y-124980781D01*
X101835346Y-124998024D01*
X101820930Y-125013930D01*
X101805024Y-125028346D01*
X101787781Y-125041134D01*
X101769368Y-125052170D01*
X101749962Y-125061349D01*
X101729750Y-125068581D01*
X101708926Y-125073797D01*
X101687691Y-125076947D01*
X101666250Y-125078000D01*
X101228750Y-125078000D01*
X101207309Y-125076947D01*
X101186074Y-125073797D01*
X101165250Y-125068581D01*
X101145038Y-125061349D01*
X101125632Y-125052170D01*
X101107219Y-125041134D01*
X101089976Y-125028346D01*
X101074070Y-125013930D01*
X101059654Y-124998024D01*
X101046866Y-124980781D01*
X101035830Y-124962368D01*
X101026651Y-124942962D01*
X101019419Y-124922750D01*
X101014203Y-124901926D01*
X101011053Y-124880691D01*
X101010000Y-124859250D01*
X101010000Y-124346750D01*
X101011053Y-124325309D01*
X101014203Y-124304074D01*
X101019419Y-124283250D01*
X101026651Y-124263038D01*
X101035830Y-124243632D01*
X101046866Y-124225219D01*
X101059654Y-124207976D01*
X101074070Y-124192070D01*
X101089976Y-124177654D01*
X101107219Y-124164866D01*
X101125632Y-124153830D01*
X101145038Y-124144651D01*
X101165250Y-124137419D01*
X101186074Y-124132203D01*
X101207309Y-124129053D01*
X101228750Y-124128000D01*
X101666250Y-124128000D01*
X101687691Y-124129053D01*
X101687691Y-124129053D01*
G37*
D18*
X101447500Y-124603000D03*
G04 #@! TD*
D17*
G04 #@! TO.C,C2*
G36*
X103262691Y-125653053D02*
X103283926Y-125656203D01*
X103304750Y-125661419D01*
X103324962Y-125668651D01*
X103344368Y-125677830D01*
X103362781Y-125688866D01*
X103380024Y-125701654D01*
X103395930Y-125716070D01*
X103410346Y-125731976D01*
X103423134Y-125749219D01*
X103434170Y-125767632D01*
X103443349Y-125787038D01*
X103450581Y-125807250D01*
X103455797Y-125828074D01*
X103458947Y-125849309D01*
X103460000Y-125870750D01*
X103460000Y-126383250D01*
X103458947Y-126404691D01*
X103455797Y-126425926D01*
X103450581Y-126446750D01*
X103443349Y-126466962D01*
X103434170Y-126486368D01*
X103423134Y-126504781D01*
X103410346Y-126522024D01*
X103395930Y-126537930D01*
X103380024Y-126552346D01*
X103362781Y-126565134D01*
X103344368Y-126576170D01*
X103324962Y-126585349D01*
X103304750Y-126592581D01*
X103283926Y-126597797D01*
X103262691Y-126600947D01*
X103241250Y-126602000D01*
X102803750Y-126602000D01*
X102782309Y-126600947D01*
X102761074Y-126597797D01*
X102740250Y-126592581D01*
X102720038Y-126585349D01*
X102700632Y-126576170D01*
X102682219Y-126565134D01*
X102664976Y-126552346D01*
X102649070Y-126537930D01*
X102634654Y-126522024D01*
X102621866Y-126504781D01*
X102610830Y-126486368D01*
X102601651Y-126466962D01*
X102594419Y-126446750D01*
X102589203Y-126425926D01*
X102586053Y-126404691D01*
X102585000Y-126383250D01*
X102585000Y-125870750D01*
X102586053Y-125849309D01*
X102589203Y-125828074D01*
X102594419Y-125807250D01*
X102601651Y-125787038D01*
X102610830Y-125767632D01*
X102621866Y-125749219D01*
X102634654Y-125731976D01*
X102649070Y-125716070D01*
X102664976Y-125701654D01*
X102682219Y-125688866D01*
X102700632Y-125677830D01*
X102720038Y-125668651D01*
X102740250Y-125661419D01*
X102761074Y-125656203D01*
X102782309Y-125653053D01*
X102803750Y-125652000D01*
X103241250Y-125652000D01*
X103262691Y-125653053D01*
X103262691Y-125653053D01*
G37*
D18*
X103022500Y-126127000D03*
D17*
G36*
X101687691Y-125653053D02*
X101708926Y-125656203D01*
X101729750Y-125661419D01*
X101749962Y-125668651D01*
X101769368Y-125677830D01*
X101787781Y-125688866D01*
X101805024Y-125701654D01*
X101820930Y-125716070D01*
X101835346Y-125731976D01*
X101848134Y-125749219D01*
X101859170Y-125767632D01*
X101868349Y-125787038D01*
X101875581Y-125807250D01*
X101880797Y-125828074D01*
X101883947Y-125849309D01*
X101885000Y-125870750D01*
X101885000Y-126383250D01*
X101883947Y-126404691D01*
X101880797Y-126425926D01*
X101875581Y-126446750D01*
X101868349Y-126466962D01*
X101859170Y-126486368D01*
X101848134Y-126504781D01*
X101835346Y-126522024D01*
X101820930Y-126537930D01*
X101805024Y-126552346D01*
X101787781Y-126565134D01*
X101769368Y-126576170D01*
X101749962Y-126585349D01*
X101729750Y-126592581D01*
X101708926Y-126597797D01*
X101687691Y-126600947D01*
X101666250Y-126602000D01*
X101228750Y-126602000D01*
X101207309Y-126600947D01*
X101186074Y-126597797D01*
X101165250Y-126592581D01*
X101145038Y-126585349D01*
X101125632Y-126576170D01*
X101107219Y-126565134D01*
X101089976Y-126552346D01*
X101074070Y-126537930D01*
X101059654Y-126522024D01*
X101046866Y-126504781D01*
X101035830Y-126486368D01*
X101026651Y-126466962D01*
X101019419Y-126446750D01*
X101014203Y-126425926D01*
X101011053Y-126404691D01*
X101010000Y-126383250D01*
X101010000Y-125870750D01*
X101011053Y-125849309D01*
X101014203Y-125828074D01*
X101019419Y-125807250D01*
X101026651Y-125787038D01*
X101035830Y-125767632D01*
X101046866Y-125749219D01*
X101059654Y-125731976D01*
X101074070Y-125716070D01*
X101089976Y-125701654D01*
X101107219Y-125688866D01*
X101125632Y-125677830D01*
X101145038Y-125668651D01*
X101165250Y-125661419D01*
X101186074Y-125656203D01*
X101207309Y-125653053D01*
X101228750Y-125652000D01*
X101666250Y-125652000D01*
X101687691Y-125653053D01*
X101687691Y-125653053D01*
G37*
D18*
X101447500Y-126127000D03*
G04 #@! TD*
M02*
