G04 #@! TF.GenerationSoftware,KiCad,Pcbnew,(5.0.2)-1*
G04 #@! TF.CreationDate,2022-05-07T19:17:56+02:00*
G04 #@! TF.ProjectId,Pendrive_v1,50656e64-7269-4766-955f-76312e6b6963,rev?*
G04 #@! TF.SameCoordinates,Original*
G04 #@! TF.FileFunction,Paste,Bot*
G04 #@! TF.FilePolarity,Positive*
%FSLAX46Y46*%
G04 Gerber Fmt 4.6, Leading zero omitted, Abs format (unit mm)*
G04 Created by KiCad (PCBNEW (5.0.2)-1) date 07.05.2022 19:17:56*
%MOMM*%
%LPD*%
G01*
G04 APERTURE LIST*
%ADD10C,0.100000*%
%ADD11C,0.875000*%
G04 APERTURE END LIST*
D10*
G04 #@! TO.C,R5*
G36*
X107783691Y-137829053D02*
X107804926Y-137832203D01*
X107825750Y-137837419D01*
X107845962Y-137844651D01*
X107865368Y-137853830D01*
X107883781Y-137864866D01*
X107901024Y-137877654D01*
X107916930Y-137892070D01*
X107931346Y-137907976D01*
X107944134Y-137925219D01*
X107955170Y-137943632D01*
X107964349Y-137963038D01*
X107971581Y-137983250D01*
X107976797Y-138004074D01*
X107979947Y-138025309D01*
X107981000Y-138046750D01*
X107981000Y-138559250D01*
X107979947Y-138580691D01*
X107976797Y-138601926D01*
X107971581Y-138622750D01*
X107964349Y-138642962D01*
X107955170Y-138662368D01*
X107944134Y-138680781D01*
X107931346Y-138698024D01*
X107916930Y-138713930D01*
X107901024Y-138728346D01*
X107883781Y-138741134D01*
X107865368Y-138752170D01*
X107845962Y-138761349D01*
X107825750Y-138768581D01*
X107804926Y-138773797D01*
X107783691Y-138776947D01*
X107762250Y-138778000D01*
X107324750Y-138778000D01*
X107303309Y-138776947D01*
X107282074Y-138773797D01*
X107261250Y-138768581D01*
X107241038Y-138761349D01*
X107221632Y-138752170D01*
X107203219Y-138741134D01*
X107185976Y-138728346D01*
X107170070Y-138713930D01*
X107155654Y-138698024D01*
X107142866Y-138680781D01*
X107131830Y-138662368D01*
X107122651Y-138642962D01*
X107115419Y-138622750D01*
X107110203Y-138601926D01*
X107107053Y-138580691D01*
X107106000Y-138559250D01*
X107106000Y-138046750D01*
X107107053Y-138025309D01*
X107110203Y-138004074D01*
X107115419Y-137983250D01*
X107122651Y-137963038D01*
X107131830Y-137943632D01*
X107142866Y-137925219D01*
X107155654Y-137907976D01*
X107170070Y-137892070D01*
X107185976Y-137877654D01*
X107203219Y-137864866D01*
X107221632Y-137853830D01*
X107241038Y-137844651D01*
X107261250Y-137837419D01*
X107282074Y-137832203D01*
X107303309Y-137829053D01*
X107324750Y-137828000D01*
X107762250Y-137828000D01*
X107783691Y-137829053D01*
X107783691Y-137829053D01*
G37*
D11*
X107543500Y-138303000D03*
D10*
G36*
X109358691Y-137829053D02*
X109379926Y-137832203D01*
X109400750Y-137837419D01*
X109420962Y-137844651D01*
X109440368Y-137853830D01*
X109458781Y-137864866D01*
X109476024Y-137877654D01*
X109491930Y-137892070D01*
X109506346Y-137907976D01*
X109519134Y-137925219D01*
X109530170Y-137943632D01*
X109539349Y-137963038D01*
X109546581Y-137983250D01*
X109551797Y-138004074D01*
X109554947Y-138025309D01*
X109556000Y-138046750D01*
X109556000Y-138559250D01*
X109554947Y-138580691D01*
X109551797Y-138601926D01*
X109546581Y-138622750D01*
X109539349Y-138642962D01*
X109530170Y-138662368D01*
X109519134Y-138680781D01*
X109506346Y-138698024D01*
X109491930Y-138713930D01*
X109476024Y-138728346D01*
X109458781Y-138741134D01*
X109440368Y-138752170D01*
X109420962Y-138761349D01*
X109400750Y-138768581D01*
X109379926Y-138773797D01*
X109358691Y-138776947D01*
X109337250Y-138778000D01*
X108899750Y-138778000D01*
X108878309Y-138776947D01*
X108857074Y-138773797D01*
X108836250Y-138768581D01*
X108816038Y-138761349D01*
X108796632Y-138752170D01*
X108778219Y-138741134D01*
X108760976Y-138728346D01*
X108745070Y-138713930D01*
X108730654Y-138698024D01*
X108717866Y-138680781D01*
X108706830Y-138662368D01*
X108697651Y-138642962D01*
X108690419Y-138622750D01*
X108685203Y-138601926D01*
X108682053Y-138580691D01*
X108681000Y-138559250D01*
X108681000Y-138046750D01*
X108682053Y-138025309D01*
X108685203Y-138004074D01*
X108690419Y-137983250D01*
X108697651Y-137963038D01*
X108706830Y-137943632D01*
X108717866Y-137925219D01*
X108730654Y-137907976D01*
X108745070Y-137892070D01*
X108760976Y-137877654D01*
X108778219Y-137864866D01*
X108796632Y-137853830D01*
X108816038Y-137844651D01*
X108836250Y-137837419D01*
X108857074Y-137832203D01*
X108878309Y-137829053D01*
X108899750Y-137828000D01*
X109337250Y-137828000D01*
X109358691Y-137829053D01*
X109358691Y-137829053D01*
G37*
D11*
X109118500Y-138303000D03*
G04 #@! TD*
D10*
G04 #@! TO.C,R6*
G36*
X109612691Y-134019053D02*
X109633926Y-134022203D01*
X109654750Y-134027419D01*
X109674962Y-134034651D01*
X109694368Y-134043830D01*
X109712781Y-134054866D01*
X109730024Y-134067654D01*
X109745930Y-134082070D01*
X109760346Y-134097976D01*
X109773134Y-134115219D01*
X109784170Y-134133632D01*
X109793349Y-134153038D01*
X109800581Y-134173250D01*
X109805797Y-134194074D01*
X109808947Y-134215309D01*
X109810000Y-134236750D01*
X109810000Y-134749250D01*
X109808947Y-134770691D01*
X109805797Y-134791926D01*
X109800581Y-134812750D01*
X109793349Y-134832962D01*
X109784170Y-134852368D01*
X109773134Y-134870781D01*
X109760346Y-134888024D01*
X109745930Y-134903930D01*
X109730024Y-134918346D01*
X109712781Y-134931134D01*
X109694368Y-134942170D01*
X109674962Y-134951349D01*
X109654750Y-134958581D01*
X109633926Y-134963797D01*
X109612691Y-134966947D01*
X109591250Y-134968000D01*
X109153750Y-134968000D01*
X109132309Y-134966947D01*
X109111074Y-134963797D01*
X109090250Y-134958581D01*
X109070038Y-134951349D01*
X109050632Y-134942170D01*
X109032219Y-134931134D01*
X109014976Y-134918346D01*
X108999070Y-134903930D01*
X108984654Y-134888024D01*
X108971866Y-134870781D01*
X108960830Y-134852368D01*
X108951651Y-134832962D01*
X108944419Y-134812750D01*
X108939203Y-134791926D01*
X108936053Y-134770691D01*
X108935000Y-134749250D01*
X108935000Y-134236750D01*
X108936053Y-134215309D01*
X108939203Y-134194074D01*
X108944419Y-134173250D01*
X108951651Y-134153038D01*
X108960830Y-134133632D01*
X108971866Y-134115219D01*
X108984654Y-134097976D01*
X108999070Y-134082070D01*
X109014976Y-134067654D01*
X109032219Y-134054866D01*
X109050632Y-134043830D01*
X109070038Y-134034651D01*
X109090250Y-134027419D01*
X109111074Y-134022203D01*
X109132309Y-134019053D01*
X109153750Y-134018000D01*
X109591250Y-134018000D01*
X109612691Y-134019053D01*
X109612691Y-134019053D01*
G37*
D11*
X109372500Y-134493000D03*
D10*
G36*
X108037691Y-134019053D02*
X108058926Y-134022203D01*
X108079750Y-134027419D01*
X108099962Y-134034651D01*
X108119368Y-134043830D01*
X108137781Y-134054866D01*
X108155024Y-134067654D01*
X108170930Y-134082070D01*
X108185346Y-134097976D01*
X108198134Y-134115219D01*
X108209170Y-134133632D01*
X108218349Y-134153038D01*
X108225581Y-134173250D01*
X108230797Y-134194074D01*
X108233947Y-134215309D01*
X108235000Y-134236750D01*
X108235000Y-134749250D01*
X108233947Y-134770691D01*
X108230797Y-134791926D01*
X108225581Y-134812750D01*
X108218349Y-134832962D01*
X108209170Y-134852368D01*
X108198134Y-134870781D01*
X108185346Y-134888024D01*
X108170930Y-134903930D01*
X108155024Y-134918346D01*
X108137781Y-134931134D01*
X108119368Y-134942170D01*
X108099962Y-134951349D01*
X108079750Y-134958581D01*
X108058926Y-134963797D01*
X108037691Y-134966947D01*
X108016250Y-134968000D01*
X107578750Y-134968000D01*
X107557309Y-134966947D01*
X107536074Y-134963797D01*
X107515250Y-134958581D01*
X107495038Y-134951349D01*
X107475632Y-134942170D01*
X107457219Y-134931134D01*
X107439976Y-134918346D01*
X107424070Y-134903930D01*
X107409654Y-134888024D01*
X107396866Y-134870781D01*
X107385830Y-134852368D01*
X107376651Y-134832962D01*
X107369419Y-134812750D01*
X107364203Y-134791926D01*
X107361053Y-134770691D01*
X107360000Y-134749250D01*
X107360000Y-134236750D01*
X107361053Y-134215309D01*
X107364203Y-134194074D01*
X107369419Y-134173250D01*
X107376651Y-134153038D01*
X107385830Y-134133632D01*
X107396866Y-134115219D01*
X107409654Y-134097976D01*
X107424070Y-134082070D01*
X107439976Y-134067654D01*
X107457219Y-134054866D01*
X107475632Y-134043830D01*
X107495038Y-134034651D01*
X107515250Y-134027419D01*
X107536074Y-134022203D01*
X107557309Y-134019053D01*
X107578750Y-134018000D01*
X108016250Y-134018000D01*
X108037691Y-134019053D01*
X108037691Y-134019053D01*
G37*
D11*
X107797500Y-134493000D03*
G04 #@! TD*
D10*
G04 #@! TO.C,C12*
G36*
X107973691Y-126335053D02*
X107994926Y-126338203D01*
X108015750Y-126343419D01*
X108035962Y-126350651D01*
X108055368Y-126359830D01*
X108073781Y-126370866D01*
X108091024Y-126383654D01*
X108106930Y-126398070D01*
X108121346Y-126413976D01*
X108134134Y-126431219D01*
X108145170Y-126449632D01*
X108154349Y-126469038D01*
X108161581Y-126489250D01*
X108166797Y-126510074D01*
X108169947Y-126531309D01*
X108171000Y-126552750D01*
X108171000Y-126990250D01*
X108169947Y-127011691D01*
X108166797Y-127032926D01*
X108161581Y-127053750D01*
X108154349Y-127073962D01*
X108145170Y-127093368D01*
X108134134Y-127111781D01*
X108121346Y-127129024D01*
X108106930Y-127144930D01*
X108091024Y-127159346D01*
X108073781Y-127172134D01*
X108055368Y-127183170D01*
X108035962Y-127192349D01*
X108015750Y-127199581D01*
X107994926Y-127204797D01*
X107973691Y-127207947D01*
X107952250Y-127209000D01*
X107439750Y-127209000D01*
X107418309Y-127207947D01*
X107397074Y-127204797D01*
X107376250Y-127199581D01*
X107356038Y-127192349D01*
X107336632Y-127183170D01*
X107318219Y-127172134D01*
X107300976Y-127159346D01*
X107285070Y-127144930D01*
X107270654Y-127129024D01*
X107257866Y-127111781D01*
X107246830Y-127093368D01*
X107237651Y-127073962D01*
X107230419Y-127053750D01*
X107225203Y-127032926D01*
X107222053Y-127011691D01*
X107221000Y-126990250D01*
X107221000Y-126552750D01*
X107222053Y-126531309D01*
X107225203Y-126510074D01*
X107230419Y-126489250D01*
X107237651Y-126469038D01*
X107246830Y-126449632D01*
X107257866Y-126431219D01*
X107270654Y-126413976D01*
X107285070Y-126398070D01*
X107300976Y-126383654D01*
X107318219Y-126370866D01*
X107336632Y-126359830D01*
X107356038Y-126350651D01*
X107376250Y-126343419D01*
X107397074Y-126338203D01*
X107418309Y-126335053D01*
X107439750Y-126334000D01*
X107952250Y-126334000D01*
X107973691Y-126335053D01*
X107973691Y-126335053D01*
G37*
D11*
X107696000Y-126771500D03*
D10*
G36*
X107973691Y-124760053D02*
X107994926Y-124763203D01*
X108015750Y-124768419D01*
X108035962Y-124775651D01*
X108055368Y-124784830D01*
X108073781Y-124795866D01*
X108091024Y-124808654D01*
X108106930Y-124823070D01*
X108121346Y-124838976D01*
X108134134Y-124856219D01*
X108145170Y-124874632D01*
X108154349Y-124894038D01*
X108161581Y-124914250D01*
X108166797Y-124935074D01*
X108169947Y-124956309D01*
X108171000Y-124977750D01*
X108171000Y-125415250D01*
X108169947Y-125436691D01*
X108166797Y-125457926D01*
X108161581Y-125478750D01*
X108154349Y-125498962D01*
X108145170Y-125518368D01*
X108134134Y-125536781D01*
X108121346Y-125554024D01*
X108106930Y-125569930D01*
X108091024Y-125584346D01*
X108073781Y-125597134D01*
X108055368Y-125608170D01*
X108035962Y-125617349D01*
X108015750Y-125624581D01*
X107994926Y-125629797D01*
X107973691Y-125632947D01*
X107952250Y-125634000D01*
X107439750Y-125634000D01*
X107418309Y-125632947D01*
X107397074Y-125629797D01*
X107376250Y-125624581D01*
X107356038Y-125617349D01*
X107336632Y-125608170D01*
X107318219Y-125597134D01*
X107300976Y-125584346D01*
X107285070Y-125569930D01*
X107270654Y-125554024D01*
X107257866Y-125536781D01*
X107246830Y-125518368D01*
X107237651Y-125498962D01*
X107230419Y-125478750D01*
X107225203Y-125457926D01*
X107222053Y-125436691D01*
X107221000Y-125415250D01*
X107221000Y-124977750D01*
X107222053Y-124956309D01*
X107225203Y-124935074D01*
X107230419Y-124914250D01*
X107237651Y-124894038D01*
X107246830Y-124874632D01*
X107257866Y-124856219D01*
X107270654Y-124838976D01*
X107285070Y-124823070D01*
X107300976Y-124808654D01*
X107318219Y-124795866D01*
X107336632Y-124784830D01*
X107356038Y-124775651D01*
X107376250Y-124768419D01*
X107397074Y-124763203D01*
X107418309Y-124760053D01*
X107439750Y-124759000D01*
X107952250Y-124759000D01*
X107973691Y-124760053D01*
X107973691Y-124760053D01*
G37*
D11*
X107696000Y-125196500D03*
G04 #@! TD*
D10*
G04 #@! TO.C,C13*
G36*
X106449691Y-124760053D02*
X106470926Y-124763203D01*
X106491750Y-124768419D01*
X106511962Y-124775651D01*
X106531368Y-124784830D01*
X106549781Y-124795866D01*
X106567024Y-124808654D01*
X106582930Y-124823070D01*
X106597346Y-124838976D01*
X106610134Y-124856219D01*
X106621170Y-124874632D01*
X106630349Y-124894038D01*
X106637581Y-124914250D01*
X106642797Y-124935074D01*
X106645947Y-124956309D01*
X106647000Y-124977750D01*
X106647000Y-125415250D01*
X106645947Y-125436691D01*
X106642797Y-125457926D01*
X106637581Y-125478750D01*
X106630349Y-125498962D01*
X106621170Y-125518368D01*
X106610134Y-125536781D01*
X106597346Y-125554024D01*
X106582930Y-125569930D01*
X106567024Y-125584346D01*
X106549781Y-125597134D01*
X106531368Y-125608170D01*
X106511962Y-125617349D01*
X106491750Y-125624581D01*
X106470926Y-125629797D01*
X106449691Y-125632947D01*
X106428250Y-125634000D01*
X105915750Y-125634000D01*
X105894309Y-125632947D01*
X105873074Y-125629797D01*
X105852250Y-125624581D01*
X105832038Y-125617349D01*
X105812632Y-125608170D01*
X105794219Y-125597134D01*
X105776976Y-125584346D01*
X105761070Y-125569930D01*
X105746654Y-125554024D01*
X105733866Y-125536781D01*
X105722830Y-125518368D01*
X105713651Y-125498962D01*
X105706419Y-125478750D01*
X105701203Y-125457926D01*
X105698053Y-125436691D01*
X105697000Y-125415250D01*
X105697000Y-124977750D01*
X105698053Y-124956309D01*
X105701203Y-124935074D01*
X105706419Y-124914250D01*
X105713651Y-124894038D01*
X105722830Y-124874632D01*
X105733866Y-124856219D01*
X105746654Y-124838976D01*
X105761070Y-124823070D01*
X105776976Y-124808654D01*
X105794219Y-124795866D01*
X105812632Y-124784830D01*
X105832038Y-124775651D01*
X105852250Y-124768419D01*
X105873074Y-124763203D01*
X105894309Y-124760053D01*
X105915750Y-124759000D01*
X106428250Y-124759000D01*
X106449691Y-124760053D01*
X106449691Y-124760053D01*
G37*
D11*
X106172000Y-125196500D03*
D10*
G36*
X106449691Y-126335053D02*
X106470926Y-126338203D01*
X106491750Y-126343419D01*
X106511962Y-126350651D01*
X106531368Y-126359830D01*
X106549781Y-126370866D01*
X106567024Y-126383654D01*
X106582930Y-126398070D01*
X106597346Y-126413976D01*
X106610134Y-126431219D01*
X106621170Y-126449632D01*
X106630349Y-126469038D01*
X106637581Y-126489250D01*
X106642797Y-126510074D01*
X106645947Y-126531309D01*
X106647000Y-126552750D01*
X106647000Y-126990250D01*
X106645947Y-127011691D01*
X106642797Y-127032926D01*
X106637581Y-127053750D01*
X106630349Y-127073962D01*
X106621170Y-127093368D01*
X106610134Y-127111781D01*
X106597346Y-127129024D01*
X106582930Y-127144930D01*
X106567024Y-127159346D01*
X106549781Y-127172134D01*
X106531368Y-127183170D01*
X106511962Y-127192349D01*
X106491750Y-127199581D01*
X106470926Y-127204797D01*
X106449691Y-127207947D01*
X106428250Y-127209000D01*
X105915750Y-127209000D01*
X105894309Y-127207947D01*
X105873074Y-127204797D01*
X105852250Y-127199581D01*
X105832038Y-127192349D01*
X105812632Y-127183170D01*
X105794219Y-127172134D01*
X105776976Y-127159346D01*
X105761070Y-127144930D01*
X105746654Y-127129024D01*
X105733866Y-127111781D01*
X105722830Y-127093368D01*
X105713651Y-127073962D01*
X105706419Y-127053750D01*
X105701203Y-127032926D01*
X105698053Y-127011691D01*
X105697000Y-126990250D01*
X105697000Y-126552750D01*
X105698053Y-126531309D01*
X105701203Y-126510074D01*
X105706419Y-126489250D01*
X105713651Y-126469038D01*
X105722830Y-126449632D01*
X105733866Y-126431219D01*
X105746654Y-126413976D01*
X105761070Y-126398070D01*
X105776976Y-126383654D01*
X105794219Y-126370866D01*
X105812632Y-126359830D01*
X105832038Y-126350651D01*
X105852250Y-126343419D01*
X105873074Y-126338203D01*
X105894309Y-126335053D01*
X105915750Y-126334000D01*
X106428250Y-126334000D01*
X106449691Y-126335053D01*
X106449691Y-126335053D01*
G37*
D11*
X106172000Y-126771500D03*
G04 #@! TD*
D10*
G04 #@! TO.C,C14*
G36*
X109497691Y-126335053D02*
X109518926Y-126338203D01*
X109539750Y-126343419D01*
X109559962Y-126350651D01*
X109579368Y-126359830D01*
X109597781Y-126370866D01*
X109615024Y-126383654D01*
X109630930Y-126398070D01*
X109645346Y-126413976D01*
X109658134Y-126431219D01*
X109669170Y-126449632D01*
X109678349Y-126469038D01*
X109685581Y-126489250D01*
X109690797Y-126510074D01*
X109693947Y-126531309D01*
X109695000Y-126552750D01*
X109695000Y-126990250D01*
X109693947Y-127011691D01*
X109690797Y-127032926D01*
X109685581Y-127053750D01*
X109678349Y-127073962D01*
X109669170Y-127093368D01*
X109658134Y-127111781D01*
X109645346Y-127129024D01*
X109630930Y-127144930D01*
X109615024Y-127159346D01*
X109597781Y-127172134D01*
X109579368Y-127183170D01*
X109559962Y-127192349D01*
X109539750Y-127199581D01*
X109518926Y-127204797D01*
X109497691Y-127207947D01*
X109476250Y-127209000D01*
X108963750Y-127209000D01*
X108942309Y-127207947D01*
X108921074Y-127204797D01*
X108900250Y-127199581D01*
X108880038Y-127192349D01*
X108860632Y-127183170D01*
X108842219Y-127172134D01*
X108824976Y-127159346D01*
X108809070Y-127144930D01*
X108794654Y-127129024D01*
X108781866Y-127111781D01*
X108770830Y-127093368D01*
X108761651Y-127073962D01*
X108754419Y-127053750D01*
X108749203Y-127032926D01*
X108746053Y-127011691D01*
X108745000Y-126990250D01*
X108745000Y-126552750D01*
X108746053Y-126531309D01*
X108749203Y-126510074D01*
X108754419Y-126489250D01*
X108761651Y-126469038D01*
X108770830Y-126449632D01*
X108781866Y-126431219D01*
X108794654Y-126413976D01*
X108809070Y-126398070D01*
X108824976Y-126383654D01*
X108842219Y-126370866D01*
X108860632Y-126359830D01*
X108880038Y-126350651D01*
X108900250Y-126343419D01*
X108921074Y-126338203D01*
X108942309Y-126335053D01*
X108963750Y-126334000D01*
X109476250Y-126334000D01*
X109497691Y-126335053D01*
X109497691Y-126335053D01*
G37*
D11*
X109220000Y-126771500D03*
D10*
G36*
X109497691Y-124760053D02*
X109518926Y-124763203D01*
X109539750Y-124768419D01*
X109559962Y-124775651D01*
X109579368Y-124784830D01*
X109597781Y-124795866D01*
X109615024Y-124808654D01*
X109630930Y-124823070D01*
X109645346Y-124838976D01*
X109658134Y-124856219D01*
X109669170Y-124874632D01*
X109678349Y-124894038D01*
X109685581Y-124914250D01*
X109690797Y-124935074D01*
X109693947Y-124956309D01*
X109695000Y-124977750D01*
X109695000Y-125415250D01*
X109693947Y-125436691D01*
X109690797Y-125457926D01*
X109685581Y-125478750D01*
X109678349Y-125498962D01*
X109669170Y-125518368D01*
X109658134Y-125536781D01*
X109645346Y-125554024D01*
X109630930Y-125569930D01*
X109615024Y-125584346D01*
X109597781Y-125597134D01*
X109579368Y-125608170D01*
X109559962Y-125617349D01*
X109539750Y-125624581D01*
X109518926Y-125629797D01*
X109497691Y-125632947D01*
X109476250Y-125634000D01*
X108963750Y-125634000D01*
X108942309Y-125632947D01*
X108921074Y-125629797D01*
X108900250Y-125624581D01*
X108880038Y-125617349D01*
X108860632Y-125608170D01*
X108842219Y-125597134D01*
X108824976Y-125584346D01*
X108809070Y-125569930D01*
X108794654Y-125554024D01*
X108781866Y-125536781D01*
X108770830Y-125518368D01*
X108761651Y-125498962D01*
X108754419Y-125478750D01*
X108749203Y-125457926D01*
X108746053Y-125436691D01*
X108745000Y-125415250D01*
X108745000Y-124977750D01*
X108746053Y-124956309D01*
X108749203Y-124935074D01*
X108754419Y-124914250D01*
X108761651Y-124894038D01*
X108770830Y-124874632D01*
X108781866Y-124856219D01*
X108794654Y-124838976D01*
X108809070Y-124823070D01*
X108824976Y-124808654D01*
X108842219Y-124795866D01*
X108860632Y-124784830D01*
X108880038Y-124775651D01*
X108900250Y-124768419D01*
X108921074Y-124763203D01*
X108942309Y-124760053D01*
X108963750Y-124759000D01*
X109476250Y-124759000D01*
X109497691Y-124760053D01*
X109497691Y-124760053D01*
G37*
D11*
X109220000Y-125196500D03*
G04 #@! TD*
D10*
G04 #@! TO.C,C15*
G36*
X111021691Y-126335053D02*
X111042926Y-126338203D01*
X111063750Y-126343419D01*
X111083962Y-126350651D01*
X111103368Y-126359830D01*
X111121781Y-126370866D01*
X111139024Y-126383654D01*
X111154930Y-126398070D01*
X111169346Y-126413976D01*
X111182134Y-126431219D01*
X111193170Y-126449632D01*
X111202349Y-126469038D01*
X111209581Y-126489250D01*
X111214797Y-126510074D01*
X111217947Y-126531309D01*
X111219000Y-126552750D01*
X111219000Y-126990250D01*
X111217947Y-127011691D01*
X111214797Y-127032926D01*
X111209581Y-127053750D01*
X111202349Y-127073962D01*
X111193170Y-127093368D01*
X111182134Y-127111781D01*
X111169346Y-127129024D01*
X111154930Y-127144930D01*
X111139024Y-127159346D01*
X111121781Y-127172134D01*
X111103368Y-127183170D01*
X111083962Y-127192349D01*
X111063750Y-127199581D01*
X111042926Y-127204797D01*
X111021691Y-127207947D01*
X111000250Y-127209000D01*
X110487750Y-127209000D01*
X110466309Y-127207947D01*
X110445074Y-127204797D01*
X110424250Y-127199581D01*
X110404038Y-127192349D01*
X110384632Y-127183170D01*
X110366219Y-127172134D01*
X110348976Y-127159346D01*
X110333070Y-127144930D01*
X110318654Y-127129024D01*
X110305866Y-127111781D01*
X110294830Y-127093368D01*
X110285651Y-127073962D01*
X110278419Y-127053750D01*
X110273203Y-127032926D01*
X110270053Y-127011691D01*
X110269000Y-126990250D01*
X110269000Y-126552750D01*
X110270053Y-126531309D01*
X110273203Y-126510074D01*
X110278419Y-126489250D01*
X110285651Y-126469038D01*
X110294830Y-126449632D01*
X110305866Y-126431219D01*
X110318654Y-126413976D01*
X110333070Y-126398070D01*
X110348976Y-126383654D01*
X110366219Y-126370866D01*
X110384632Y-126359830D01*
X110404038Y-126350651D01*
X110424250Y-126343419D01*
X110445074Y-126338203D01*
X110466309Y-126335053D01*
X110487750Y-126334000D01*
X111000250Y-126334000D01*
X111021691Y-126335053D01*
X111021691Y-126335053D01*
G37*
D11*
X110744000Y-126771500D03*
D10*
G36*
X111021691Y-124760053D02*
X111042926Y-124763203D01*
X111063750Y-124768419D01*
X111083962Y-124775651D01*
X111103368Y-124784830D01*
X111121781Y-124795866D01*
X111139024Y-124808654D01*
X111154930Y-124823070D01*
X111169346Y-124838976D01*
X111182134Y-124856219D01*
X111193170Y-124874632D01*
X111202349Y-124894038D01*
X111209581Y-124914250D01*
X111214797Y-124935074D01*
X111217947Y-124956309D01*
X111219000Y-124977750D01*
X111219000Y-125415250D01*
X111217947Y-125436691D01*
X111214797Y-125457926D01*
X111209581Y-125478750D01*
X111202349Y-125498962D01*
X111193170Y-125518368D01*
X111182134Y-125536781D01*
X111169346Y-125554024D01*
X111154930Y-125569930D01*
X111139024Y-125584346D01*
X111121781Y-125597134D01*
X111103368Y-125608170D01*
X111083962Y-125617349D01*
X111063750Y-125624581D01*
X111042926Y-125629797D01*
X111021691Y-125632947D01*
X111000250Y-125634000D01*
X110487750Y-125634000D01*
X110466309Y-125632947D01*
X110445074Y-125629797D01*
X110424250Y-125624581D01*
X110404038Y-125617349D01*
X110384632Y-125608170D01*
X110366219Y-125597134D01*
X110348976Y-125584346D01*
X110333070Y-125569930D01*
X110318654Y-125554024D01*
X110305866Y-125536781D01*
X110294830Y-125518368D01*
X110285651Y-125498962D01*
X110278419Y-125478750D01*
X110273203Y-125457926D01*
X110270053Y-125436691D01*
X110269000Y-125415250D01*
X110269000Y-124977750D01*
X110270053Y-124956309D01*
X110273203Y-124935074D01*
X110278419Y-124914250D01*
X110285651Y-124894038D01*
X110294830Y-124874632D01*
X110305866Y-124856219D01*
X110318654Y-124838976D01*
X110333070Y-124823070D01*
X110348976Y-124808654D01*
X110366219Y-124795866D01*
X110384632Y-124784830D01*
X110404038Y-124775651D01*
X110424250Y-124768419D01*
X110445074Y-124763203D01*
X110466309Y-124760053D01*
X110487750Y-124759000D01*
X111000250Y-124759000D01*
X111021691Y-124760053D01*
X111021691Y-124760053D01*
G37*
D11*
X110744000Y-125196500D03*
G04 #@! TD*
D10*
G04 #@! TO.C,C11*
G36*
X111263691Y-110016053D02*
X111284926Y-110019203D01*
X111305750Y-110024419D01*
X111325962Y-110031651D01*
X111345368Y-110040830D01*
X111363781Y-110051866D01*
X111381024Y-110064654D01*
X111396930Y-110079070D01*
X111411346Y-110094976D01*
X111424134Y-110112219D01*
X111435170Y-110130632D01*
X111444349Y-110150038D01*
X111451581Y-110170250D01*
X111456797Y-110191074D01*
X111459947Y-110212309D01*
X111461000Y-110233750D01*
X111461000Y-110746250D01*
X111459947Y-110767691D01*
X111456797Y-110788926D01*
X111451581Y-110809750D01*
X111444349Y-110829962D01*
X111435170Y-110849368D01*
X111424134Y-110867781D01*
X111411346Y-110885024D01*
X111396930Y-110900930D01*
X111381024Y-110915346D01*
X111363781Y-110928134D01*
X111345368Y-110939170D01*
X111325962Y-110948349D01*
X111305750Y-110955581D01*
X111284926Y-110960797D01*
X111263691Y-110963947D01*
X111242250Y-110965000D01*
X110804750Y-110965000D01*
X110783309Y-110963947D01*
X110762074Y-110960797D01*
X110741250Y-110955581D01*
X110721038Y-110948349D01*
X110701632Y-110939170D01*
X110683219Y-110928134D01*
X110665976Y-110915346D01*
X110650070Y-110900930D01*
X110635654Y-110885024D01*
X110622866Y-110867781D01*
X110611830Y-110849368D01*
X110602651Y-110829962D01*
X110595419Y-110809750D01*
X110590203Y-110788926D01*
X110587053Y-110767691D01*
X110586000Y-110746250D01*
X110586000Y-110233750D01*
X110587053Y-110212309D01*
X110590203Y-110191074D01*
X110595419Y-110170250D01*
X110602651Y-110150038D01*
X110611830Y-110130632D01*
X110622866Y-110112219D01*
X110635654Y-110094976D01*
X110650070Y-110079070D01*
X110665976Y-110064654D01*
X110683219Y-110051866D01*
X110701632Y-110040830D01*
X110721038Y-110031651D01*
X110741250Y-110024419D01*
X110762074Y-110019203D01*
X110783309Y-110016053D01*
X110804750Y-110015000D01*
X111242250Y-110015000D01*
X111263691Y-110016053D01*
X111263691Y-110016053D01*
G37*
D11*
X111023500Y-110490000D03*
D10*
G36*
X109688691Y-110016053D02*
X109709926Y-110019203D01*
X109730750Y-110024419D01*
X109750962Y-110031651D01*
X109770368Y-110040830D01*
X109788781Y-110051866D01*
X109806024Y-110064654D01*
X109821930Y-110079070D01*
X109836346Y-110094976D01*
X109849134Y-110112219D01*
X109860170Y-110130632D01*
X109869349Y-110150038D01*
X109876581Y-110170250D01*
X109881797Y-110191074D01*
X109884947Y-110212309D01*
X109886000Y-110233750D01*
X109886000Y-110746250D01*
X109884947Y-110767691D01*
X109881797Y-110788926D01*
X109876581Y-110809750D01*
X109869349Y-110829962D01*
X109860170Y-110849368D01*
X109849134Y-110867781D01*
X109836346Y-110885024D01*
X109821930Y-110900930D01*
X109806024Y-110915346D01*
X109788781Y-110928134D01*
X109770368Y-110939170D01*
X109750962Y-110948349D01*
X109730750Y-110955581D01*
X109709926Y-110960797D01*
X109688691Y-110963947D01*
X109667250Y-110965000D01*
X109229750Y-110965000D01*
X109208309Y-110963947D01*
X109187074Y-110960797D01*
X109166250Y-110955581D01*
X109146038Y-110948349D01*
X109126632Y-110939170D01*
X109108219Y-110928134D01*
X109090976Y-110915346D01*
X109075070Y-110900930D01*
X109060654Y-110885024D01*
X109047866Y-110867781D01*
X109036830Y-110849368D01*
X109027651Y-110829962D01*
X109020419Y-110809750D01*
X109015203Y-110788926D01*
X109012053Y-110767691D01*
X109011000Y-110746250D01*
X109011000Y-110233750D01*
X109012053Y-110212309D01*
X109015203Y-110191074D01*
X109020419Y-110170250D01*
X109027651Y-110150038D01*
X109036830Y-110130632D01*
X109047866Y-110112219D01*
X109060654Y-110094976D01*
X109075070Y-110079070D01*
X109090976Y-110064654D01*
X109108219Y-110051866D01*
X109126632Y-110040830D01*
X109146038Y-110031651D01*
X109166250Y-110024419D01*
X109187074Y-110019203D01*
X109208309Y-110016053D01*
X109229750Y-110015000D01*
X109667250Y-110015000D01*
X109688691Y-110016053D01*
X109688691Y-110016053D01*
G37*
D11*
X109448500Y-110490000D03*
G04 #@! TD*
D10*
G04 #@! TO.C,C10*
G36*
X109688691Y-108238053D02*
X109709926Y-108241203D01*
X109730750Y-108246419D01*
X109750962Y-108253651D01*
X109770368Y-108262830D01*
X109788781Y-108273866D01*
X109806024Y-108286654D01*
X109821930Y-108301070D01*
X109836346Y-108316976D01*
X109849134Y-108334219D01*
X109860170Y-108352632D01*
X109869349Y-108372038D01*
X109876581Y-108392250D01*
X109881797Y-108413074D01*
X109884947Y-108434309D01*
X109886000Y-108455750D01*
X109886000Y-108968250D01*
X109884947Y-108989691D01*
X109881797Y-109010926D01*
X109876581Y-109031750D01*
X109869349Y-109051962D01*
X109860170Y-109071368D01*
X109849134Y-109089781D01*
X109836346Y-109107024D01*
X109821930Y-109122930D01*
X109806024Y-109137346D01*
X109788781Y-109150134D01*
X109770368Y-109161170D01*
X109750962Y-109170349D01*
X109730750Y-109177581D01*
X109709926Y-109182797D01*
X109688691Y-109185947D01*
X109667250Y-109187000D01*
X109229750Y-109187000D01*
X109208309Y-109185947D01*
X109187074Y-109182797D01*
X109166250Y-109177581D01*
X109146038Y-109170349D01*
X109126632Y-109161170D01*
X109108219Y-109150134D01*
X109090976Y-109137346D01*
X109075070Y-109122930D01*
X109060654Y-109107024D01*
X109047866Y-109089781D01*
X109036830Y-109071368D01*
X109027651Y-109051962D01*
X109020419Y-109031750D01*
X109015203Y-109010926D01*
X109012053Y-108989691D01*
X109011000Y-108968250D01*
X109011000Y-108455750D01*
X109012053Y-108434309D01*
X109015203Y-108413074D01*
X109020419Y-108392250D01*
X109027651Y-108372038D01*
X109036830Y-108352632D01*
X109047866Y-108334219D01*
X109060654Y-108316976D01*
X109075070Y-108301070D01*
X109090976Y-108286654D01*
X109108219Y-108273866D01*
X109126632Y-108262830D01*
X109146038Y-108253651D01*
X109166250Y-108246419D01*
X109187074Y-108241203D01*
X109208309Y-108238053D01*
X109229750Y-108237000D01*
X109667250Y-108237000D01*
X109688691Y-108238053D01*
X109688691Y-108238053D01*
G37*
D11*
X109448500Y-108712000D03*
D10*
G36*
X111263691Y-108238053D02*
X111284926Y-108241203D01*
X111305750Y-108246419D01*
X111325962Y-108253651D01*
X111345368Y-108262830D01*
X111363781Y-108273866D01*
X111381024Y-108286654D01*
X111396930Y-108301070D01*
X111411346Y-108316976D01*
X111424134Y-108334219D01*
X111435170Y-108352632D01*
X111444349Y-108372038D01*
X111451581Y-108392250D01*
X111456797Y-108413074D01*
X111459947Y-108434309D01*
X111461000Y-108455750D01*
X111461000Y-108968250D01*
X111459947Y-108989691D01*
X111456797Y-109010926D01*
X111451581Y-109031750D01*
X111444349Y-109051962D01*
X111435170Y-109071368D01*
X111424134Y-109089781D01*
X111411346Y-109107024D01*
X111396930Y-109122930D01*
X111381024Y-109137346D01*
X111363781Y-109150134D01*
X111345368Y-109161170D01*
X111325962Y-109170349D01*
X111305750Y-109177581D01*
X111284926Y-109182797D01*
X111263691Y-109185947D01*
X111242250Y-109187000D01*
X110804750Y-109187000D01*
X110783309Y-109185947D01*
X110762074Y-109182797D01*
X110741250Y-109177581D01*
X110721038Y-109170349D01*
X110701632Y-109161170D01*
X110683219Y-109150134D01*
X110665976Y-109137346D01*
X110650070Y-109122930D01*
X110635654Y-109107024D01*
X110622866Y-109089781D01*
X110611830Y-109071368D01*
X110602651Y-109051962D01*
X110595419Y-109031750D01*
X110590203Y-109010926D01*
X110587053Y-108989691D01*
X110586000Y-108968250D01*
X110586000Y-108455750D01*
X110587053Y-108434309D01*
X110590203Y-108413074D01*
X110595419Y-108392250D01*
X110602651Y-108372038D01*
X110611830Y-108352632D01*
X110622866Y-108334219D01*
X110635654Y-108316976D01*
X110650070Y-108301070D01*
X110665976Y-108286654D01*
X110683219Y-108273866D01*
X110701632Y-108262830D01*
X110721038Y-108253651D01*
X110741250Y-108246419D01*
X110762074Y-108241203D01*
X110783309Y-108238053D01*
X110804750Y-108237000D01*
X111242250Y-108237000D01*
X111263691Y-108238053D01*
X111263691Y-108238053D01*
G37*
D11*
X111023500Y-108712000D03*
G04 #@! TD*
D10*
G04 #@! TO.C,C9*
G36*
X105941691Y-121382053D02*
X105962926Y-121385203D01*
X105983750Y-121390419D01*
X106003962Y-121397651D01*
X106023368Y-121406830D01*
X106041781Y-121417866D01*
X106059024Y-121430654D01*
X106074930Y-121445070D01*
X106089346Y-121460976D01*
X106102134Y-121478219D01*
X106113170Y-121496632D01*
X106122349Y-121516038D01*
X106129581Y-121536250D01*
X106134797Y-121557074D01*
X106137947Y-121578309D01*
X106139000Y-121599750D01*
X106139000Y-122037250D01*
X106137947Y-122058691D01*
X106134797Y-122079926D01*
X106129581Y-122100750D01*
X106122349Y-122120962D01*
X106113170Y-122140368D01*
X106102134Y-122158781D01*
X106089346Y-122176024D01*
X106074930Y-122191930D01*
X106059024Y-122206346D01*
X106041781Y-122219134D01*
X106023368Y-122230170D01*
X106003962Y-122239349D01*
X105983750Y-122246581D01*
X105962926Y-122251797D01*
X105941691Y-122254947D01*
X105920250Y-122256000D01*
X105407750Y-122256000D01*
X105386309Y-122254947D01*
X105365074Y-122251797D01*
X105344250Y-122246581D01*
X105324038Y-122239349D01*
X105304632Y-122230170D01*
X105286219Y-122219134D01*
X105268976Y-122206346D01*
X105253070Y-122191930D01*
X105238654Y-122176024D01*
X105225866Y-122158781D01*
X105214830Y-122140368D01*
X105205651Y-122120962D01*
X105198419Y-122100750D01*
X105193203Y-122079926D01*
X105190053Y-122058691D01*
X105189000Y-122037250D01*
X105189000Y-121599750D01*
X105190053Y-121578309D01*
X105193203Y-121557074D01*
X105198419Y-121536250D01*
X105205651Y-121516038D01*
X105214830Y-121496632D01*
X105225866Y-121478219D01*
X105238654Y-121460976D01*
X105253070Y-121445070D01*
X105268976Y-121430654D01*
X105286219Y-121417866D01*
X105304632Y-121406830D01*
X105324038Y-121397651D01*
X105344250Y-121390419D01*
X105365074Y-121385203D01*
X105386309Y-121382053D01*
X105407750Y-121381000D01*
X105920250Y-121381000D01*
X105941691Y-121382053D01*
X105941691Y-121382053D01*
G37*
D11*
X105664000Y-121818500D03*
D10*
G36*
X105941691Y-119807053D02*
X105962926Y-119810203D01*
X105983750Y-119815419D01*
X106003962Y-119822651D01*
X106023368Y-119831830D01*
X106041781Y-119842866D01*
X106059024Y-119855654D01*
X106074930Y-119870070D01*
X106089346Y-119885976D01*
X106102134Y-119903219D01*
X106113170Y-119921632D01*
X106122349Y-119941038D01*
X106129581Y-119961250D01*
X106134797Y-119982074D01*
X106137947Y-120003309D01*
X106139000Y-120024750D01*
X106139000Y-120462250D01*
X106137947Y-120483691D01*
X106134797Y-120504926D01*
X106129581Y-120525750D01*
X106122349Y-120545962D01*
X106113170Y-120565368D01*
X106102134Y-120583781D01*
X106089346Y-120601024D01*
X106074930Y-120616930D01*
X106059024Y-120631346D01*
X106041781Y-120644134D01*
X106023368Y-120655170D01*
X106003962Y-120664349D01*
X105983750Y-120671581D01*
X105962926Y-120676797D01*
X105941691Y-120679947D01*
X105920250Y-120681000D01*
X105407750Y-120681000D01*
X105386309Y-120679947D01*
X105365074Y-120676797D01*
X105344250Y-120671581D01*
X105324038Y-120664349D01*
X105304632Y-120655170D01*
X105286219Y-120644134D01*
X105268976Y-120631346D01*
X105253070Y-120616930D01*
X105238654Y-120601024D01*
X105225866Y-120583781D01*
X105214830Y-120565368D01*
X105205651Y-120545962D01*
X105198419Y-120525750D01*
X105193203Y-120504926D01*
X105190053Y-120483691D01*
X105189000Y-120462250D01*
X105189000Y-120024750D01*
X105190053Y-120003309D01*
X105193203Y-119982074D01*
X105198419Y-119961250D01*
X105205651Y-119941038D01*
X105214830Y-119921632D01*
X105225866Y-119903219D01*
X105238654Y-119885976D01*
X105253070Y-119870070D01*
X105268976Y-119855654D01*
X105286219Y-119842866D01*
X105304632Y-119831830D01*
X105324038Y-119822651D01*
X105344250Y-119815419D01*
X105365074Y-119810203D01*
X105386309Y-119807053D01*
X105407750Y-119806000D01*
X105920250Y-119806000D01*
X105941691Y-119807053D01*
X105941691Y-119807053D01*
G37*
D11*
X105664000Y-120243500D03*
G04 #@! TD*
D10*
G04 #@! TO.C,R4*
G36*
X110005691Y-121763053D02*
X110026926Y-121766203D01*
X110047750Y-121771419D01*
X110067962Y-121778651D01*
X110087368Y-121787830D01*
X110105781Y-121798866D01*
X110123024Y-121811654D01*
X110138930Y-121826070D01*
X110153346Y-121841976D01*
X110166134Y-121859219D01*
X110177170Y-121877632D01*
X110186349Y-121897038D01*
X110193581Y-121917250D01*
X110198797Y-121938074D01*
X110201947Y-121959309D01*
X110203000Y-121980750D01*
X110203000Y-122418250D01*
X110201947Y-122439691D01*
X110198797Y-122460926D01*
X110193581Y-122481750D01*
X110186349Y-122501962D01*
X110177170Y-122521368D01*
X110166134Y-122539781D01*
X110153346Y-122557024D01*
X110138930Y-122572930D01*
X110123024Y-122587346D01*
X110105781Y-122600134D01*
X110087368Y-122611170D01*
X110067962Y-122620349D01*
X110047750Y-122627581D01*
X110026926Y-122632797D01*
X110005691Y-122635947D01*
X109984250Y-122637000D01*
X109471750Y-122637000D01*
X109450309Y-122635947D01*
X109429074Y-122632797D01*
X109408250Y-122627581D01*
X109388038Y-122620349D01*
X109368632Y-122611170D01*
X109350219Y-122600134D01*
X109332976Y-122587346D01*
X109317070Y-122572930D01*
X109302654Y-122557024D01*
X109289866Y-122539781D01*
X109278830Y-122521368D01*
X109269651Y-122501962D01*
X109262419Y-122481750D01*
X109257203Y-122460926D01*
X109254053Y-122439691D01*
X109253000Y-122418250D01*
X109253000Y-121980750D01*
X109254053Y-121959309D01*
X109257203Y-121938074D01*
X109262419Y-121917250D01*
X109269651Y-121897038D01*
X109278830Y-121877632D01*
X109289866Y-121859219D01*
X109302654Y-121841976D01*
X109317070Y-121826070D01*
X109332976Y-121811654D01*
X109350219Y-121798866D01*
X109368632Y-121787830D01*
X109388038Y-121778651D01*
X109408250Y-121771419D01*
X109429074Y-121766203D01*
X109450309Y-121763053D01*
X109471750Y-121762000D01*
X109984250Y-121762000D01*
X110005691Y-121763053D01*
X110005691Y-121763053D01*
G37*
D11*
X109728000Y-122199500D03*
D10*
G36*
X110005691Y-120188053D02*
X110026926Y-120191203D01*
X110047750Y-120196419D01*
X110067962Y-120203651D01*
X110087368Y-120212830D01*
X110105781Y-120223866D01*
X110123024Y-120236654D01*
X110138930Y-120251070D01*
X110153346Y-120266976D01*
X110166134Y-120284219D01*
X110177170Y-120302632D01*
X110186349Y-120322038D01*
X110193581Y-120342250D01*
X110198797Y-120363074D01*
X110201947Y-120384309D01*
X110203000Y-120405750D01*
X110203000Y-120843250D01*
X110201947Y-120864691D01*
X110198797Y-120885926D01*
X110193581Y-120906750D01*
X110186349Y-120926962D01*
X110177170Y-120946368D01*
X110166134Y-120964781D01*
X110153346Y-120982024D01*
X110138930Y-120997930D01*
X110123024Y-121012346D01*
X110105781Y-121025134D01*
X110087368Y-121036170D01*
X110067962Y-121045349D01*
X110047750Y-121052581D01*
X110026926Y-121057797D01*
X110005691Y-121060947D01*
X109984250Y-121062000D01*
X109471750Y-121062000D01*
X109450309Y-121060947D01*
X109429074Y-121057797D01*
X109408250Y-121052581D01*
X109388038Y-121045349D01*
X109368632Y-121036170D01*
X109350219Y-121025134D01*
X109332976Y-121012346D01*
X109317070Y-120997930D01*
X109302654Y-120982024D01*
X109289866Y-120964781D01*
X109278830Y-120946368D01*
X109269651Y-120926962D01*
X109262419Y-120906750D01*
X109257203Y-120885926D01*
X109254053Y-120864691D01*
X109253000Y-120843250D01*
X109253000Y-120405750D01*
X109254053Y-120384309D01*
X109257203Y-120363074D01*
X109262419Y-120342250D01*
X109269651Y-120322038D01*
X109278830Y-120302632D01*
X109289866Y-120284219D01*
X109302654Y-120266976D01*
X109317070Y-120251070D01*
X109332976Y-120236654D01*
X109350219Y-120223866D01*
X109368632Y-120212830D01*
X109388038Y-120203651D01*
X109408250Y-120196419D01*
X109429074Y-120191203D01*
X109450309Y-120188053D01*
X109471750Y-120187000D01*
X109984250Y-120187000D01*
X110005691Y-120188053D01*
X110005691Y-120188053D01*
G37*
D11*
X109728000Y-120624500D03*
G04 #@! TD*
D10*
G04 #@! TO.C,C8*
G36*
X109751691Y-128951053D02*
X109772926Y-128954203D01*
X109793750Y-128959419D01*
X109813962Y-128966651D01*
X109833368Y-128975830D01*
X109851781Y-128986866D01*
X109869024Y-128999654D01*
X109884930Y-129014070D01*
X109899346Y-129029976D01*
X109912134Y-129047219D01*
X109923170Y-129065632D01*
X109932349Y-129085038D01*
X109939581Y-129105250D01*
X109944797Y-129126074D01*
X109947947Y-129147309D01*
X109949000Y-129168750D01*
X109949000Y-129606250D01*
X109947947Y-129627691D01*
X109944797Y-129648926D01*
X109939581Y-129669750D01*
X109932349Y-129689962D01*
X109923170Y-129709368D01*
X109912134Y-129727781D01*
X109899346Y-129745024D01*
X109884930Y-129760930D01*
X109869024Y-129775346D01*
X109851781Y-129788134D01*
X109833368Y-129799170D01*
X109813962Y-129808349D01*
X109793750Y-129815581D01*
X109772926Y-129820797D01*
X109751691Y-129823947D01*
X109730250Y-129825000D01*
X109217750Y-129825000D01*
X109196309Y-129823947D01*
X109175074Y-129820797D01*
X109154250Y-129815581D01*
X109134038Y-129808349D01*
X109114632Y-129799170D01*
X109096219Y-129788134D01*
X109078976Y-129775346D01*
X109063070Y-129760930D01*
X109048654Y-129745024D01*
X109035866Y-129727781D01*
X109024830Y-129709368D01*
X109015651Y-129689962D01*
X109008419Y-129669750D01*
X109003203Y-129648926D01*
X109000053Y-129627691D01*
X108999000Y-129606250D01*
X108999000Y-129168750D01*
X109000053Y-129147309D01*
X109003203Y-129126074D01*
X109008419Y-129105250D01*
X109015651Y-129085038D01*
X109024830Y-129065632D01*
X109035866Y-129047219D01*
X109048654Y-129029976D01*
X109063070Y-129014070D01*
X109078976Y-128999654D01*
X109096219Y-128986866D01*
X109114632Y-128975830D01*
X109134038Y-128966651D01*
X109154250Y-128959419D01*
X109175074Y-128954203D01*
X109196309Y-128951053D01*
X109217750Y-128950000D01*
X109730250Y-128950000D01*
X109751691Y-128951053D01*
X109751691Y-128951053D01*
G37*
D11*
X109474000Y-129387500D03*
D10*
G36*
X109751691Y-130526053D02*
X109772926Y-130529203D01*
X109793750Y-130534419D01*
X109813962Y-130541651D01*
X109833368Y-130550830D01*
X109851781Y-130561866D01*
X109869024Y-130574654D01*
X109884930Y-130589070D01*
X109899346Y-130604976D01*
X109912134Y-130622219D01*
X109923170Y-130640632D01*
X109932349Y-130660038D01*
X109939581Y-130680250D01*
X109944797Y-130701074D01*
X109947947Y-130722309D01*
X109949000Y-130743750D01*
X109949000Y-131181250D01*
X109947947Y-131202691D01*
X109944797Y-131223926D01*
X109939581Y-131244750D01*
X109932349Y-131264962D01*
X109923170Y-131284368D01*
X109912134Y-131302781D01*
X109899346Y-131320024D01*
X109884930Y-131335930D01*
X109869024Y-131350346D01*
X109851781Y-131363134D01*
X109833368Y-131374170D01*
X109813962Y-131383349D01*
X109793750Y-131390581D01*
X109772926Y-131395797D01*
X109751691Y-131398947D01*
X109730250Y-131400000D01*
X109217750Y-131400000D01*
X109196309Y-131398947D01*
X109175074Y-131395797D01*
X109154250Y-131390581D01*
X109134038Y-131383349D01*
X109114632Y-131374170D01*
X109096219Y-131363134D01*
X109078976Y-131350346D01*
X109063070Y-131335930D01*
X109048654Y-131320024D01*
X109035866Y-131302781D01*
X109024830Y-131284368D01*
X109015651Y-131264962D01*
X109008419Y-131244750D01*
X109003203Y-131223926D01*
X109000053Y-131202691D01*
X108999000Y-131181250D01*
X108999000Y-130743750D01*
X109000053Y-130722309D01*
X109003203Y-130701074D01*
X109008419Y-130680250D01*
X109015651Y-130660038D01*
X109024830Y-130640632D01*
X109035866Y-130622219D01*
X109048654Y-130604976D01*
X109063070Y-130589070D01*
X109078976Y-130574654D01*
X109096219Y-130561866D01*
X109114632Y-130550830D01*
X109134038Y-130541651D01*
X109154250Y-130534419D01*
X109175074Y-130529203D01*
X109196309Y-130526053D01*
X109217750Y-130525000D01*
X109730250Y-130525000D01*
X109751691Y-130526053D01*
X109751691Y-130526053D01*
G37*
D11*
X109474000Y-130962500D03*
G04 #@! TD*
D10*
G04 #@! TO.C,C7*
G36*
X112609691Y-134273053D02*
X112630926Y-134276203D01*
X112651750Y-134281419D01*
X112671962Y-134288651D01*
X112691368Y-134297830D01*
X112709781Y-134308866D01*
X112727024Y-134321654D01*
X112742930Y-134336070D01*
X112757346Y-134351976D01*
X112770134Y-134369219D01*
X112781170Y-134387632D01*
X112790349Y-134407038D01*
X112797581Y-134427250D01*
X112802797Y-134448074D01*
X112805947Y-134469309D01*
X112807000Y-134490750D01*
X112807000Y-135003250D01*
X112805947Y-135024691D01*
X112802797Y-135045926D01*
X112797581Y-135066750D01*
X112790349Y-135086962D01*
X112781170Y-135106368D01*
X112770134Y-135124781D01*
X112757346Y-135142024D01*
X112742930Y-135157930D01*
X112727024Y-135172346D01*
X112709781Y-135185134D01*
X112691368Y-135196170D01*
X112671962Y-135205349D01*
X112651750Y-135212581D01*
X112630926Y-135217797D01*
X112609691Y-135220947D01*
X112588250Y-135222000D01*
X112150750Y-135222000D01*
X112129309Y-135220947D01*
X112108074Y-135217797D01*
X112087250Y-135212581D01*
X112067038Y-135205349D01*
X112047632Y-135196170D01*
X112029219Y-135185134D01*
X112011976Y-135172346D01*
X111996070Y-135157930D01*
X111981654Y-135142024D01*
X111968866Y-135124781D01*
X111957830Y-135106368D01*
X111948651Y-135086962D01*
X111941419Y-135066750D01*
X111936203Y-135045926D01*
X111933053Y-135024691D01*
X111932000Y-135003250D01*
X111932000Y-134490750D01*
X111933053Y-134469309D01*
X111936203Y-134448074D01*
X111941419Y-134427250D01*
X111948651Y-134407038D01*
X111957830Y-134387632D01*
X111968866Y-134369219D01*
X111981654Y-134351976D01*
X111996070Y-134336070D01*
X112011976Y-134321654D01*
X112029219Y-134308866D01*
X112047632Y-134297830D01*
X112067038Y-134288651D01*
X112087250Y-134281419D01*
X112108074Y-134276203D01*
X112129309Y-134273053D01*
X112150750Y-134272000D01*
X112588250Y-134272000D01*
X112609691Y-134273053D01*
X112609691Y-134273053D01*
G37*
D11*
X112369500Y-134747000D03*
D10*
G36*
X114184691Y-134273053D02*
X114205926Y-134276203D01*
X114226750Y-134281419D01*
X114246962Y-134288651D01*
X114266368Y-134297830D01*
X114284781Y-134308866D01*
X114302024Y-134321654D01*
X114317930Y-134336070D01*
X114332346Y-134351976D01*
X114345134Y-134369219D01*
X114356170Y-134387632D01*
X114365349Y-134407038D01*
X114372581Y-134427250D01*
X114377797Y-134448074D01*
X114380947Y-134469309D01*
X114382000Y-134490750D01*
X114382000Y-135003250D01*
X114380947Y-135024691D01*
X114377797Y-135045926D01*
X114372581Y-135066750D01*
X114365349Y-135086962D01*
X114356170Y-135106368D01*
X114345134Y-135124781D01*
X114332346Y-135142024D01*
X114317930Y-135157930D01*
X114302024Y-135172346D01*
X114284781Y-135185134D01*
X114266368Y-135196170D01*
X114246962Y-135205349D01*
X114226750Y-135212581D01*
X114205926Y-135217797D01*
X114184691Y-135220947D01*
X114163250Y-135222000D01*
X113725750Y-135222000D01*
X113704309Y-135220947D01*
X113683074Y-135217797D01*
X113662250Y-135212581D01*
X113642038Y-135205349D01*
X113622632Y-135196170D01*
X113604219Y-135185134D01*
X113586976Y-135172346D01*
X113571070Y-135157930D01*
X113556654Y-135142024D01*
X113543866Y-135124781D01*
X113532830Y-135106368D01*
X113523651Y-135086962D01*
X113516419Y-135066750D01*
X113511203Y-135045926D01*
X113508053Y-135024691D01*
X113507000Y-135003250D01*
X113507000Y-134490750D01*
X113508053Y-134469309D01*
X113511203Y-134448074D01*
X113516419Y-134427250D01*
X113523651Y-134407038D01*
X113532830Y-134387632D01*
X113543866Y-134369219D01*
X113556654Y-134351976D01*
X113571070Y-134336070D01*
X113586976Y-134321654D01*
X113604219Y-134308866D01*
X113622632Y-134297830D01*
X113642038Y-134288651D01*
X113662250Y-134281419D01*
X113683074Y-134276203D01*
X113704309Y-134273053D01*
X113725750Y-134272000D01*
X114163250Y-134272000D01*
X114184691Y-134273053D01*
X114184691Y-134273053D01*
G37*
D11*
X113944500Y-134747000D03*
G04 #@! TD*
D10*
G04 #@! TO.C,C4*
G36*
X112545691Y-121763053D02*
X112566926Y-121766203D01*
X112587750Y-121771419D01*
X112607962Y-121778651D01*
X112627368Y-121787830D01*
X112645781Y-121798866D01*
X112663024Y-121811654D01*
X112678930Y-121826070D01*
X112693346Y-121841976D01*
X112706134Y-121859219D01*
X112717170Y-121877632D01*
X112726349Y-121897038D01*
X112733581Y-121917250D01*
X112738797Y-121938074D01*
X112741947Y-121959309D01*
X112743000Y-121980750D01*
X112743000Y-122418250D01*
X112741947Y-122439691D01*
X112738797Y-122460926D01*
X112733581Y-122481750D01*
X112726349Y-122501962D01*
X112717170Y-122521368D01*
X112706134Y-122539781D01*
X112693346Y-122557024D01*
X112678930Y-122572930D01*
X112663024Y-122587346D01*
X112645781Y-122600134D01*
X112627368Y-122611170D01*
X112607962Y-122620349D01*
X112587750Y-122627581D01*
X112566926Y-122632797D01*
X112545691Y-122635947D01*
X112524250Y-122637000D01*
X112011750Y-122637000D01*
X111990309Y-122635947D01*
X111969074Y-122632797D01*
X111948250Y-122627581D01*
X111928038Y-122620349D01*
X111908632Y-122611170D01*
X111890219Y-122600134D01*
X111872976Y-122587346D01*
X111857070Y-122572930D01*
X111842654Y-122557024D01*
X111829866Y-122539781D01*
X111818830Y-122521368D01*
X111809651Y-122501962D01*
X111802419Y-122481750D01*
X111797203Y-122460926D01*
X111794053Y-122439691D01*
X111793000Y-122418250D01*
X111793000Y-121980750D01*
X111794053Y-121959309D01*
X111797203Y-121938074D01*
X111802419Y-121917250D01*
X111809651Y-121897038D01*
X111818830Y-121877632D01*
X111829866Y-121859219D01*
X111842654Y-121841976D01*
X111857070Y-121826070D01*
X111872976Y-121811654D01*
X111890219Y-121798866D01*
X111908632Y-121787830D01*
X111928038Y-121778651D01*
X111948250Y-121771419D01*
X111969074Y-121766203D01*
X111990309Y-121763053D01*
X112011750Y-121762000D01*
X112524250Y-121762000D01*
X112545691Y-121763053D01*
X112545691Y-121763053D01*
G37*
D11*
X112268000Y-122199500D03*
D10*
G36*
X112545691Y-120188053D02*
X112566926Y-120191203D01*
X112587750Y-120196419D01*
X112607962Y-120203651D01*
X112627368Y-120212830D01*
X112645781Y-120223866D01*
X112663024Y-120236654D01*
X112678930Y-120251070D01*
X112693346Y-120266976D01*
X112706134Y-120284219D01*
X112717170Y-120302632D01*
X112726349Y-120322038D01*
X112733581Y-120342250D01*
X112738797Y-120363074D01*
X112741947Y-120384309D01*
X112743000Y-120405750D01*
X112743000Y-120843250D01*
X112741947Y-120864691D01*
X112738797Y-120885926D01*
X112733581Y-120906750D01*
X112726349Y-120926962D01*
X112717170Y-120946368D01*
X112706134Y-120964781D01*
X112693346Y-120982024D01*
X112678930Y-120997930D01*
X112663024Y-121012346D01*
X112645781Y-121025134D01*
X112627368Y-121036170D01*
X112607962Y-121045349D01*
X112587750Y-121052581D01*
X112566926Y-121057797D01*
X112545691Y-121060947D01*
X112524250Y-121062000D01*
X112011750Y-121062000D01*
X111990309Y-121060947D01*
X111969074Y-121057797D01*
X111948250Y-121052581D01*
X111928038Y-121045349D01*
X111908632Y-121036170D01*
X111890219Y-121025134D01*
X111872976Y-121012346D01*
X111857070Y-120997930D01*
X111842654Y-120982024D01*
X111829866Y-120964781D01*
X111818830Y-120946368D01*
X111809651Y-120926962D01*
X111802419Y-120906750D01*
X111797203Y-120885926D01*
X111794053Y-120864691D01*
X111793000Y-120843250D01*
X111793000Y-120405750D01*
X111794053Y-120384309D01*
X111797203Y-120363074D01*
X111802419Y-120342250D01*
X111809651Y-120322038D01*
X111818830Y-120302632D01*
X111829866Y-120284219D01*
X111842654Y-120266976D01*
X111857070Y-120251070D01*
X111872976Y-120236654D01*
X111890219Y-120223866D01*
X111908632Y-120212830D01*
X111928038Y-120203651D01*
X111948250Y-120196419D01*
X111969074Y-120191203D01*
X111990309Y-120188053D01*
X112011750Y-120187000D01*
X112524250Y-120187000D01*
X112545691Y-120188053D01*
X112545691Y-120188053D01*
G37*
D11*
X112268000Y-120624500D03*
G04 #@! TD*
D10*
G04 #@! TO.C,C3*
G36*
X107465691Y-119807053D02*
X107486926Y-119810203D01*
X107507750Y-119815419D01*
X107527962Y-119822651D01*
X107547368Y-119831830D01*
X107565781Y-119842866D01*
X107583024Y-119855654D01*
X107598930Y-119870070D01*
X107613346Y-119885976D01*
X107626134Y-119903219D01*
X107637170Y-119921632D01*
X107646349Y-119941038D01*
X107653581Y-119961250D01*
X107658797Y-119982074D01*
X107661947Y-120003309D01*
X107663000Y-120024750D01*
X107663000Y-120462250D01*
X107661947Y-120483691D01*
X107658797Y-120504926D01*
X107653581Y-120525750D01*
X107646349Y-120545962D01*
X107637170Y-120565368D01*
X107626134Y-120583781D01*
X107613346Y-120601024D01*
X107598930Y-120616930D01*
X107583024Y-120631346D01*
X107565781Y-120644134D01*
X107547368Y-120655170D01*
X107527962Y-120664349D01*
X107507750Y-120671581D01*
X107486926Y-120676797D01*
X107465691Y-120679947D01*
X107444250Y-120681000D01*
X106931750Y-120681000D01*
X106910309Y-120679947D01*
X106889074Y-120676797D01*
X106868250Y-120671581D01*
X106848038Y-120664349D01*
X106828632Y-120655170D01*
X106810219Y-120644134D01*
X106792976Y-120631346D01*
X106777070Y-120616930D01*
X106762654Y-120601024D01*
X106749866Y-120583781D01*
X106738830Y-120565368D01*
X106729651Y-120545962D01*
X106722419Y-120525750D01*
X106717203Y-120504926D01*
X106714053Y-120483691D01*
X106713000Y-120462250D01*
X106713000Y-120024750D01*
X106714053Y-120003309D01*
X106717203Y-119982074D01*
X106722419Y-119961250D01*
X106729651Y-119941038D01*
X106738830Y-119921632D01*
X106749866Y-119903219D01*
X106762654Y-119885976D01*
X106777070Y-119870070D01*
X106792976Y-119855654D01*
X106810219Y-119842866D01*
X106828632Y-119831830D01*
X106848038Y-119822651D01*
X106868250Y-119815419D01*
X106889074Y-119810203D01*
X106910309Y-119807053D01*
X106931750Y-119806000D01*
X107444250Y-119806000D01*
X107465691Y-119807053D01*
X107465691Y-119807053D01*
G37*
D11*
X107188000Y-120243500D03*
D10*
G36*
X107465691Y-121382053D02*
X107486926Y-121385203D01*
X107507750Y-121390419D01*
X107527962Y-121397651D01*
X107547368Y-121406830D01*
X107565781Y-121417866D01*
X107583024Y-121430654D01*
X107598930Y-121445070D01*
X107613346Y-121460976D01*
X107626134Y-121478219D01*
X107637170Y-121496632D01*
X107646349Y-121516038D01*
X107653581Y-121536250D01*
X107658797Y-121557074D01*
X107661947Y-121578309D01*
X107663000Y-121599750D01*
X107663000Y-122037250D01*
X107661947Y-122058691D01*
X107658797Y-122079926D01*
X107653581Y-122100750D01*
X107646349Y-122120962D01*
X107637170Y-122140368D01*
X107626134Y-122158781D01*
X107613346Y-122176024D01*
X107598930Y-122191930D01*
X107583024Y-122206346D01*
X107565781Y-122219134D01*
X107547368Y-122230170D01*
X107527962Y-122239349D01*
X107507750Y-122246581D01*
X107486926Y-122251797D01*
X107465691Y-122254947D01*
X107444250Y-122256000D01*
X106931750Y-122256000D01*
X106910309Y-122254947D01*
X106889074Y-122251797D01*
X106868250Y-122246581D01*
X106848038Y-122239349D01*
X106828632Y-122230170D01*
X106810219Y-122219134D01*
X106792976Y-122206346D01*
X106777070Y-122191930D01*
X106762654Y-122176024D01*
X106749866Y-122158781D01*
X106738830Y-122140368D01*
X106729651Y-122120962D01*
X106722419Y-122100750D01*
X106717203Y-122079926D01*
X106714053Y-122058691D01*
X106713000Y-122037250D01*
X106713000Y-121599750D01*
X106714053Y-121578309D01*
X106717203Y-121557074D01*
X106722419Y-121536250D01*
X106729651Y-121516038D01*
X106738830Y-121496632D01*
X106749866Y-121478219D01*
X106762654Y-121460976D01*
X106777070Y-121445070D01*
X106792976Y-121430654D01*
X106810219Y-121417866D01*
X106828632Y-121406830D01*
X106848038Y-121397651D01*
X106868250Y-121390419D01*
X106889074Y-121385203D01*
X106910309Y-121382053D01*
X106931750Y-121381000D01*
X107444250Y-121381000D01*
X107465691Y-121382053D01*
X107465691Y-121382053D01*
G37*
D11*
X107188000Y-121818500D03*
G04 #@! TD*
D10*
G04 #@! TO.C,C1*
G36*
X112545691Y-125146053D02*
X112566926Y-125149203D01*
X112587750Y-125154419D01*
X112607962Y-125161651D01*
X112627368Y-125170830D01*
X112645781Y-125181866D01*
X112663024Y-125194654D01*
X112678930Y-125209070D01*
X112693346Y-125224976D01*
X112706134Y-125242219D01*
X112717170Y-125260632D01*
X112726349Y-125280038D01*
X112733581Y-125300250D01*
X112738797Y-125321074D01*
X112741947Y-125342309D01*
X112743000Y-125363750D01*
X112743000Y-125801250D01*
X112741947Y-125822691D01*
X112738797Y-125843926D01*
X112733581Y-125864750D01*
X112726349Y-125884962D01*
X112717170Y-125904368D01*
X112706134Y-125922781D01*
X112693346Y-125940024D01*
X112678930Y-125955930D01*
X112663024Y-125970346D01*
X112645781Y-125983134D01*
X112627368Y-125994170D01*
X112607962Y-126003349D01*
X112587750Y-126010581D01*
X112566926Y-126015797D01*
X112545691Y-126018947D01*
X112524250Y-126020000D01*
X112011750Y-126020000D01*
X111990309Y-126018947D01*
X111969074Y-126015797D01*
X111948250Y-126010581D01*
X111928038Y-126003349D01*
X111908632Y-125994170D01*
X111890219Y-125983134D01*
X111872976Y-125970346D01*
X111857070Y-125955930D01*
X111842654Y-125940024D01*
X111829866Y-125922781D01*
X111818830Y-125904368D01*
X111809651Y-125884962D01*
X111802419Y-125864750D01*
X111797203Y-125843926D01*
X111794053Y-125822691D01*
X111793000Y-125801250D01*
X111793000Y-125363750D01*
X111794053Y-125342309D01*
X111797203Y-125321074D01*
X111802419Y-125300250D01*
X111809651Y-125280038D01*
X111818830Y-125260632D01*
X111829866Y-125242219D01*
X111842654Y-125224976D01*
X111857070Y-125209070D01*
X111872976Y-125194654D01*
X111890219Y-125181866D01*
X111908632Y-125170830D01*
X111928038Y-125161651D01*
X111948250Y-125154419D01*
X111969074Y-125149203D01*
X111990309Y-125146053D01*
X112011750Y-125145000D01*
X112524250Y-125145000D01*
X112545691Y-125146053D01*
X112545691Y-125146053D01*
G37*
D11*
X112268000Y-125582500D03*
D10*
G36*
X112545691Y-123571053D02*
X112566926Y-123574203D01*
X112587750Y-123579419D01*
X112607962Y-123586651D01*
X112627368Y-123595830D01*
X112645781Y-123606866D01*
X112663024Y-123619654D01*
X112678930Y-123634070D01*
X112693346Y-123649976D01*
X112706134Y-123667219D01*
X112717170Y-123685632D01*
X112726349Y-123705038D01*
X112733581Y-123725250D01*
X112738797Y-123746074D01*
X112741947Y-123767309D01*
X112743000Y-123788750D01*
X112743000Y-124226250D01*
X112741947Y-124247691D01*
X112738797Y-124268926D01*
X112733581Y-124289750D01*
X112726349Y-124309962D01*
X112717170Y-124329368D01*
X112706134Y-124347781D01*
X112693346Y-124365024D01*
X112678930Y-124380930D01*
X112663024Y-124395346D01*
X112645781Y-124408134D01*
X112627368Y-124419170D01*
X112607962Y-124428349D01*
X112587750Y-124435581D01*
X112566926Y-124440797D01*
X112545691Y-124443947D01*
X112524250Y-124445000D01*
X112011750Y-124445000D01*
X111990309Y-124443947D01*
X111969074Y-124440797D01*
X111948250Y-124435581D01*
X111928038Y-124428349D01*
X111908632Y-124419170D01*
X111890219Y-124408134D01*
X111872976Y-124395346D01*
X111857070Y-124380930D01*
X111842654Y-124365024D01*
X111829866Y-124347781D01*
X111818830Y-124329368D01*
X111809651Y-124309962D01*
X111802419Y-124289750D01*
X111797203Y-124268926D01*
X111794053Y-124247691D01*
X111793000Y-124226250D01*
X111793000Y-123788750D01*
X111794053Y-123767309D01*
X111797203Y-123746074D01*
X111802419Y-123725250D01*
X111809651Y-123705038D01*
X111818830Y-123685632D01*
X111829866Y-123667219D01*
X111842654Y-123649976D01*
X111857070Y-123634070D01*
X111872976Y-123619654D01*
X111890219Y-123606866D01*
X111908632Y-123595830D01*
X111928038Y-123586651D01*
X111948250Y-123579419D01*
X111969074Y-123574203D01*
X111990309Y-123571053D01*
X112011750Y-123570000D01*
X112524250Y-123570000D01*
X112545691Y-123571053D01*
X112545691Y-123571053D01*
G37*
D11*
X112268000Y-124007500D03*
G04 #@! TD*
M02*
